<svg width="480" height="144" viewBox="0 0 480 144" fill="none" xmlns="http://www.w3.org/2000/svg">
<g filter="url(#filter0_i_1316_1061)">
<g clip-path="url(#clip0_1316_1061)">
<rect y="0.699219" width="480" height="143" fill="white"/>
<g filter="url(#filter1_i_1316_1061)">
<path d="M9.53856 14.4616C8.3628 14.4616 7.25742 14.2298 6.22242 13.7661C5.18742 13.2941 4.27662 12.6483 3.49002 11.8286C2.7117 11.0006 2.09898 10.0401 1.65186 8.94711C1.21302 7.85415 0.9936 6.68667 0.9936 5.44467C0.9936 4.20267 1.21302 3.03519 1.65186 1.94223C2.09898 0.84927 2.7117 -0.10707 3.49002 -0.92679C4.27662 -1.75479 5.18742 -2.40063 6.22242 -2.86431C7.25742 -3.33627 8.3628 -3.57225 9.53856 -3.57225C10.9462 -3.57225 12.242 -3.24519 13.426 -2.59107C14.6101 -1.93695 15.5912 -1.06755 16.3696 0.0171297L14.519 1.01073C13.9394 0.24897 13.2066 -0.35547 12.3206 -0.80259C11.443 -1.25799 10.5156 -1.48569 9.53856 -1.48569C8.63604 -1.48569 7.79148 -1.30353 7.00488 -0.939211C6.22656 -0.57489 5.54346 -0.0739502 4.95558 0.56361C4.3677 1.20117 3.90816 1.93809 3.57696 2.77437C3.24576 3.61065 3.08016 4.50075 3.08016 5.44467C3.08016 6.39687 3.24576 7.29111 3.57696 8.12739C3.91644 8.96367 4.38012 9.70059 4.968 10.3382C5.56416 10.9757 6.2514 11.4767 7.02972 11.841C7.81632 12.197 8.6526 12.375 9.53856 12.375C10.5487 12.375 11.4844 12.1473 12.3455 11.6919C13.2149 11.2283 13.9394 10.6238 14.519 9.87861L16.3696 10.8846C15.5912 11.9693 14.6101 12.8387 13.426 13.4928C12.242 14.1387 10.9462 14.4616 9.53856 14.4616ZM27.4203 1.71867H29.5068V14.1387H27.4203L27.3333 12.0397C26.9442 12.7601 26.406 13.3438 25.7187 13.7909C25.0398 14.238 24.2283 14.4616 23.2844 14.4616C22.3736 14.4616 21.5208 14.2919 20.7259 13.9524C19.931 13.6046 19.2272 13.1285 18.6145 12.5241C18.01 11.9114 17.5381 11.2076 17.1986 10.4127C16.8591 9.61779 16.6894 8.76081 16.6894 7.84173C16.6894 6.95577 16.855 6.11949 17.1862 5.33289C17.5174 4.54629 17.9769 3.85905 18.5648 3.27117C19.161 2.67501 19.8482 2.21133 20.6265 1.88013C21.4048 1.54065 22.2411 1.37091 23.1354 1.37091C24.1124 1.37091 24.9694 1.60275 25.7063 2.06643C26.4432 2.52183 27.0394 3.11385 27.4948 3.84249L27.4203 1.71867ZM23.2471 12.4371C24.0669 12.4371 24.7748 12.2384 25.371 11.841C25.9754 11.4353 26.4391 10.8888 26.762 10.2015C27.0932 9.51429 27.2588 8.75667 27.2588 7.92867C27.2588 7.08411 27.0932 6.32235 26.762 5.64339C26.4308 4.95615 25.963 4.41381 25.3585 4.01637C24.7624 3.61065 24.0586 3.40779 23.2471 3.40779C22.4274 3.40779 21.6822 3.61065 21.0115 4.01637C20.3409 4.42209 19.8068 4.96857 19.4094 5.65581C19.0202 6.33477 18.8256 7.09239 18.8256 7.92867C18.8256 8.76495 19.0285 9.52671 19.4342 10.214C19.8399 10.8929 20.3781 11.4353 21.0488 11.841C21.7195 12.2384 22.4523 12.4371 23.2471 12.4371ZM31.3896 14.1387V-4.49133H33.4762V14.1387H31.3896ZM41.0578 14.4616C39.9152 14.4616 38.8719 14.1677 37.928 13.5798C36.9923 12.9919 36.243 12.2053 35.6799 11.22C35.1252 10.2264 34.8478 9.12927 34.8478 7.92867C34.8478 7.01787 35.0093 6.16917 35.3322 5.38257C35.6551 4.58769 36.0981 3.89217 36.6611 3.29601C37.2324 2.69157 37.8948 2.21961 38.6483 1.88013C39.4018 1.54065 40.205 1.37091 41.0578 1.37091C41.9934 1.37091 42.8504 1.56135 43.6287 1.94223C44.4153 2.31483 45.086 2.83647 45.6408 3.50715C46.2038 4.17783 46.622 4.95615 46.8952 5.84211C47.1767 6.72807 47.2802 7.67613 47.2057 8.68629H37.071C37.1703 9.39009 37.4022 10.0194 37.7665 10.5741C38.1308 11.1206 38.5945 11.5553 39.1575 11.8782C39.7289 12.2012 40.3623 12.3668 41.0578 12.375C41.803 12.375 42.4778 12.1846 43.0823 11.8037C43.6867 11.4146 44.1752 10.8846 44.5478 10.214L46.6716 10.7108C46.1748 11.812 45.4255 12.7145 44.4236 13.4183C43.4217 14.1138 42.2998 14.4616 41.0578 14.4616ZM37.0089 7.04685H45.1067C45.0405 6.35133 44.8169 5.71791 44.436 5.14659C44.0552 4.56699 43.5708 4.10331 42.9829 3.75555C42.395 3.40779 41.7533 3.23391 41.0578 3.23391C40.3623 3.23391 39.7247 3.40365 39.1451 3.74313C38.5655 4.08261 38.0853 4.54215 37.7044 5.12175C37.3318 5.69307 37.1 6.33477 37.0089 7.04685ZM59.5328 6.41343V14.1387H57.4462V6.87297C57.4462 6.24369 57.293 5.67237 56.9867 5.15901C56.6803 4.64565 56.2704 4.23993 55.7571 3.94185C55.2437 3.63549 54.6724 3.48231 54.0431 3.48231C53.4221 3.48231 52.8508 3.63549 52.3292 3.94185C51.8158 4.23993 51.4059 4.64565 51.0996 5.15901C50.7932 5.67237 50.64 6.24369 50.64 6.87297V14.1387H48.5535V1.71867H50.64V3.27117C51.0789 2.69157 51.6336 2.23203 52.3043 1.89255C52.975 1.54479 53.7036 1.37091 54.4902 1.37091C55.4176 1.37091 56.2622 1.59861 57.0239 2.05401C57.794 2.50113 58.4025 3.10557 58.8497 3.86733C59.3051 4.62909 59.5328 5.47779 59.5328 6.41343ZM71.0269 -4.49133H73.1134V14.1387H71.0269V12.0273C70.6046 12.7559 70.0374 13.3438 69.3253 13.7909C68.6133 14.238 67.777 14.4616 66.8165 14.4616C65.914 14.4616 65.0694 14.2919 64.2828 13.9524C63.4962 13.6129 62.8007 13.1451 62.1963 12.5489C61.6001 11.9445 61.1323 11.249 60.7928 10.4624C60.4533 9.67575 60.2836 8.83119 60.2836 7.92867C60.2836 7.02615 60.4533 6.18159 60.7928 5.39499C61.1323 4.60011 61.6001 3.90459 62.1963 3.30843C62.8007 2.70399 63.4962 2.23203 64.2828 1.89255C65.0694 1.55307 65.914 1.38333 66.8165 1.38333C67.777 1.38333 68.6133 1.60689 69.3253 2.05401C70.0374 2.50113 70.6046 3.08901 71.0269 3.81765V-4.49133ZM66.8413 12.4371C67.6611 12.4371 68.369 12.2384 68.9652 11.841C69.5696 11.4353 70.0333 10.8888 70.3562 10.2015C70.6874 9.51429 70.853 8.75667 70.853 7.92867C70.853 7.08411 70.6874 6.32235 70.3562 5.64339C70.025 4.95615 69.5572 4.41381 68.9527 4.01637C68.3566 3.61065 67.6528 3.40779 66.8413 3.40779C66.0216 3.40779 65.2764 3.61065 64.6057 4.01637C63.9433 4.42209 63.4134 4.96857 63.016 5.65581C62.6185 6.33477 62.4198 7.09239 62.4198 7.92867C62.4198 8.76495 62.6227 9.52671 63.0284 10.214C63.4341 10.8929 63.9723 11.4353 64.643 11.841C65.3137 12.2384 66.0465 12.4371 66.8413 12.4371ZM85.2121 1.71867H87.2986V14.1387H85.2121L85.1251 12.0397C84.736 12.7601 84.1978 13.3438 83.5105 13.7909C82.8316 14.238 82.0201 14.4616 81.0762 14.4616C80.1654 14.4616 79.3126 14.2919 78.5177 13.9524C77.7228 13.6046 77.019 13.1285 76.4063 12.5241C75.8019 11.9114 75.3299 11.2076 74.9904 10.4127C74.6509 9.61779 74.4812 8.76081 74.4812 7.84173C74.4812 6.95577 74.6468 6.11949 74.978 5.33289C75.3092 4.54629 75.7687 3.85905 76.3566 3.27117C76.9528 2.67501 77.64 2.21133 78.4183 1.88013C79.1967 1.54065 80.0329 1.37091 80.9272 1.37091C81.9042 1.37091 82.7612 1.60275 83.4981 2.06643C84.235 2.52183 84.8312 3.11385 85.2866 3.84249L85.2121 1.71867ZM81.039 12.4371C81.8587 12.4371 82.5666 12.2384 83.1628 11.841C83.7672 11.4353 84.2309 10.8888 84.5538 10.2015C84.885 9.51429 85.0506 8.75667 85.0506 7.92867C85.0506 7.08411 84.885 6.32235 84.5538 5.64339C84.2226 4.95615 83.7548 4.41381 83.1504 4.01637C82.5542 3.61065 81.8504 3.40779 81.039 3.40779C80.2192 3.40779 79.474 3.61065 78.8034 4.01637C78.1327 4.42209 77.5986 4.96857 77.2012 5.65581C76.812 6.33477 76.6174 7.09239 76.6174 7.92867C76.6174 8.76495 76.8203 9.52671 77.226 10.214C77.6317 10.8929 78.1699 11.4353 78.8406 11.841C79.5113 12.2384 80.2441 12.4371 81.039 12.4371ZM89.0359 14.1387V1.71867H91.1224V3.27117C91.5613 2.69157 92.116 2.23203 92.7867 1.89255C93.4574 1.54479 94.186 1.37091 94.9726 1.37091C95.4529 1.37091 95.9166 1.43301 96.3637 1.55721L95.5191 3.64377C95.1796 3.53613 94.8484 3.48231 94.5255 3.48231C93.9045 3.48231 93.3332 3.63549 92.8116 3.94185C92.2982 4.23993 91.8883 4.64565 91.582 5.15901C91.2756 5.67237 91.1224 6.24369 91.1224 6.87297V14.1387H89.0359ZM100.933 14.3747C100.262 14.3498 99.6081 14.2256 98.9705 14.0021C98.3412 13.7702 97.7865 13.4597 97.3062 13.0706C96.8343 12.6731 96.4907 12.2177 96.2754 11.7044L98.0639 10.9343C98.1881 11.2158 98.4116 11.4808 98.7345 11.7292C99.0575 11.9776 99.4301 12.1763 99.8523 12.3254C100.275 12.4744 100.701 12.5489 101.132 12.5489C101.587 12.5489 102.013 12.4785 102.411 12.3378C102.808 12.197 103.131 11.99 103.38 11.7168C103.636 11.4353 103.765 11.0999 103.765 10.7108C103.765 10.2968 103.624 9.97383 103.342 9.74199C103.069 9.50187 102.721 9.31557 102.299 9.18309C101.885 9.04233 101.463 8.90985 101.032 8.78565C100.179 8.57037 99.4176 8.31369 98.747 8.01561C98.0763 7.70925 97.5464 7.32423 97.1572 6.86055C96.7763 6.38859 96.5859 5.78829 96.5859 5.05965C96.5859 4.28961 96.797 3.62307 97.2193 3.06003C97.6499 2.49699 98.2129 2.06229 98.9084 1.75593C99.6039 1.44957 100.349 1.29639 101.144 1.29639C102.146 1.29639 103.061 1.51167 103.889 1.94223C104.717 2.37279 105.334 2.95653 105.739 3.69345L104.063 4.67463C103.922 4.37655 103.707 4.11573 103.417 3.89217C103.127 3.66033 102.796 3.47817 102.423 3.34569C102.051 3.21321 101.67 3.14283 101.281 3.13455C100.8 3.11799 100.349 3.18009 99.9269 3.32085C99.5129 3.46161 99.1775 3.67689 98.9208 3.96669C98.6724 4.24821 98.5482 4.60011 98.5482 5.02239C98.5482 5.43639 98.6807 5.75103 98.9457 5.96631C99.2189 6.18159 99.5708 6.35547 100.001 6.48795C100.44 6.61215 100.916 6.75705 101.43 6.92265C102.183 7.16277 102.887 7.44015 103.541 7.75479C104.195 8.06943 104.721 8.46273 105.118 8.93469C105.524 9.40665 105.723 9.99039 105.715 10.6859C105.715 11.4477 105.487 12.1142 105.031 12.6855C104.576 13.2486 103.984 13.6791 103.255 13.9772C102.535 14.2753 101.761 14.4078 100.933 14.3747Z" fill="#3A3A3A"/>
</g>
<g filter="url(#filter2_i_1316_1061)">
<path d="M1.4904 47.4199V30.0319H12.1592V32.1185H3.57696V37.0616H10.6067V39.1482H3.57696V45.3334H12.1592V47.4199H1.4904ZM14.1355 47.4199V34.9999H16.2221V36.5524C16.6609 35.9728 17.2115 35.5133 17.8739 35.1738C18.5446 34.826 19.2733 34.6522 20.0599 34.6522C20.9789 34.6522 21.8194 34.8757 22.5811 35.3228C23.3429 35.77 23.9432 36.362 24.382 37.0989C24.8209 36.362 25.417 35.77 26.1705 35.3228C26.9323 34.8757 27.7685 34.6522 28.6793 34.6522C29.615 34.6522 30.4637 34.8799 31.2254 35.3353C31.9872 35.7824 32.5916 36.3868 33.0388 37.1486C33.4942 37.9103 33.7219 38.759 33.7219 39.6947V47.4199H31.6353V40.1915C31.6353 39.5788 31.4863 39.0116 31.1882 38.4899C30.8901 37.9683 30.4885 37.5502 29.9834 37.2355C29.4784 36.9209 28.9195 36.7636 28.3067 36.7636C27.694 36.7636 27.1351 36.9126 26.63 37.2107C26.125 37.5005 25.7234 37.9062 25.4253 38.4278C25.1272 38.9412 24.9782 39.5291 24.9782 40.1915V47.4199H22.8916V40.1915C22.8916 39.5291 22.7426 38.9412 22.4445 38.4278C22.1464 37.9062 21.7407 37.5005 21.2273 37.2107C20.7223 36.9126 20.1634 36.7636 19.5506 36.7636C18.9462 36.7636 18.3873 36.9209 17.8739 37.2355C17.3689 37.5502 16.9673 37.9683 16.6692 38.4899C16.3711 39.0116 16.2221 39.5788 16.2221 40.1915V47.4199H14.1355ZM45.208 34.9999H47.2946V47.4199H45.208L45.1211 45.3209C44.7319 46.0413 44.1937 46.625 43.5065 47.0722C42.8275 47.5193 42.0161 47.7428 41.0722 47.7428C40.1614 47.7428 39.3085 47.5731 38.5136 47.2336C37.7188 46.8859 37.015 46.4098 36.4022 45.8053C35.7978 45.1926 35.3258 44.4888 34.9864 43.6939C34.6469 42.899 34.4771 42.0421 34.4771 41.123C34.4771 40.237 34.6427 39.4007 34.9739 38.6141C35.3051 37.8275 35.7647 37.1403 36.3526 36.5524C36.9487 35.9563 37.636 35.4926 38.4143 35.1614C39.1926 34.8219 40.0289 34.6522 40.9231 34.6522C41.9002 34.6522 42.7571 34.884 43.4941 35.3477C44.231 35.8031 44.8271 36.3951 45.2825 37.1237L45.208 34.9999ZM41.0349 45.7184C41.8546 45.7184 42.5626 45.5197 43.1587 45.1222C43.7632 44.7165 44.2268 44.17 44.5498 43.4828C44.881 42.7955 45.0466 42.0379 45.0466 41.2099C45.0466 40.3654 44.881 39.6036 44.5498 38.9246C44.2186 38.2374 43.7507 37.6951 43.1463 37.2976C42.5501 36.8919 41.8463 36.689 41.0349 36.689C40.2152 36.689 39.47 36.8919 38.7993 37.2976C38.1286 37.7033 37.5946 38.2498 37.1971 38.9371C36.808 39.616 36.6134 40.3736 36.6134 41.2099C36.6134 42.0462 36.8162 42.808 37.222 43.4952C37.6277 44.1742 38.1659 44.7165 38.8366 45.1222C39.5072 45.5197 40.24 45.7184 41.0349 45.7184ZM49.0318 34.9999H51.1184V47.4199H49.0318V34.9999ZM50.1 32.9755C49.7688 32.9755 49.4914 32.8678 49.2678 32.6525C49.0443 32.4373 48.9325 32.1682 48.9325 31.8452C48.9325 31.5223 49.0443 31.2532 49.2678 31.0379C49.4914 30.8227 49.7646 30.715 50.0875 30.715C50.4105 30.715 50.6837 30.8227 50.9073 31.0379C51.1308 31.2532 51.2426 31.5223 51.2426 31.8452C51.2426 32.1682 51.1308 32.4373 50.9073 32.6525C50.692 32.8678 50.4229 32.9755 50.1 32.9755ZM53.4293 47.4199V28.7899H55.5159V47.4199H53.4293ZM61.5421 47.6559C60.8714 47.6311 60.2173 47.5069 59.5797 47.2833C58.9504 47.0515 58.3957 46.741 57.9154 46.3518C57.4435 45.9544 57.0999 45.499 56.8846 44.9856L58.6731 44.2156C58.7973 44.4971 59.0208 44.762 59.3437 45.0104C59.6667 45.2588 60.0393 45.4576 60.4615 45.6066C60.8838 45.7556 61.3102 45.8302 61.7408 45.8302C62.1962 45.8302 62.6226 45.7598 63.0201 45.619C63.4175 45.4783 63.7404 45.2713 63.9888 44.998C64.2455 44.7165 64.3738 44.3812 64.3738 43.992C64.3738 43.578 64.2331 43.2551 63.9516 43.0232C63.6783 42.7831 63.3306 42.5968 62.9083 42.4643C62.4943 42.3236 62.072 42.1911 61.6414 42.0669C60.7886 41.8516 60.0268 41.5949 59.3562 41.2969C58.6855 40.9905 58.1556 40.6055 57.7664 40.1418C57.3855 39.6698 57.1951 39.0695 57.1951 38.3409C57.1951 37.5709 57.4062 36.9043 57.8285 36.3413C58.2591 35.7782 58.8221 35.3435 59.5176 35.0372C60.2131 34.7308 60.9583 34.5776 61.7532 34.5776C62.7551 34.5776 63.67 34.7929 64.498 35.2235C65.326 35.654 65.9429 36.2378 66.3486 36.9747L64.6719 37.9559C64.5312 37.6578 64.3159 37.397 64.0261 37.1734C63.7363 36.9416 63.4051 36.7594 63.0325 36.6269C62.6599 36.4945 62.279 36.4241 61.8898 36.4158C61.4096 36.3992 60.9583 36.4613 60.5361 36.6021C60.1221 36.7429 59.7867 36.9581 59.53 37.2479C59.2816 37.5295 59.1574 37.8814 59.1574 38.3036C59.1574 38.7176 59.2899 39.0323 59.5549 39.2476C59.8281 39.4628 60.18 39.6367 60.6106 39.7692C61.0494 39.8934 61.5255 40.0383 62.0389 40.2039C62.7924 40.444 63.4962 40.7214 64.1503 41.036C64.8044 41.3507 65.3302 41.744 65.7276 42.2159C66.1333 42.6879 66.3321 43.2716 66.3238 43.9672C66.3238 44.7289 66.0961 45.3955 65.6407 45.9668C65.1853 46.5298 64.5933 46.9604 63.8646 47.2585C63.1443 47.5565 62.3701 47.689 61.5421 47.6559Z" fill="#3A3A3A"/>
</g>
<g filter="url(#filter3_i_1316_1061)">
<path d="M1.4904 80.6992V63.3112H7.48926C8.35038 63.3112 9.13284 63.4892 9.83664 63.8453C10.5487 64.193 11.1118 64.7023 11.5258 65.3729C11.9398 66.0436 12.1468 66.8468 12.1468 67.7824C12.1468 68.2875 12.0598 68.776 11.8859 69.248C11.7203 69.7117 11.4885 70.1132 11.1904 70.4527C10.9006 70.7839 10.5694 71.0075 10.1968 71.1234C10.7185 71.2559 11.1614 71.4919 11.5258 71.8313C11.8901 72.1625 12.184 72.5517 12.4076 72.9988C12.6394 73.4459 12.805 73.9138 12.9044 74.4023C13.0037 74.8908 13.0534 75.3628 13.0534 75.8182C13.0534 76.7786 12.834 77.6273 12.3952 78.3643C11.9646 79.0929 11.385 79.6642 10.6564 80.0782C9.92772 80.4922 9.12456 80.6992 8.24688 80.6992H1.4904ZM3.57696 78.8611H8.06058C8.6319 78.8611 9.1494 78.7162 9.61308 78.4264C10.085 78.1283 10.4618 77.7226 10.7433 77.2092C11.0248 76.6958 11.1656 76.1162 11.1656 75.4704C11.1656 74.8991 11.0248 74.3609 10.7433 73.8558C10.4618 73.3424 10.085 72.9284 9.61308 72.6138C9.1494 72.2992 8.6319 72.1418 8.06058 72.1418H3.57696V78.8611ZM3.57696 70.3409H7.29054C8.0523 70.3409 8.70228 70.1174 9.24048 69.6703C9.78696 69.2149 10.0602 68.5814 10.0602 67.77C10.0602 66.8923 9.78696 66.2382 9.24048 65.8076C8.70228 65.3688 8.0523 65.1494 7.29054 65.1494H3.57696V70.3409ZM14.4994 80.6992V62.0692H16.5859V80.6992H14.4994ZM24.1676 81.0221C23.0249 81.0221 21.9817 80.7282 21.0377 80.1403C20.1021 79.5524 19.3528 78.7658 18.7897 77.7805C18.235 76.7869 17.9576 75.6898 17.9576 74.4892C17.9576 73.5784 18.119 72.7297 18.442 71.9431C18.7649 71.1482 19.2079 70.4527 19.7709 69.8566C20.3422 69.2521 21.0046 68.7802 21.7581 68.4407C22.5116 68.1012 23.3147 67.9315 24.1676 67.9315C25.3102 67.9315 26.3494 68.2254 27.285 68.8133C28.2289 69.4012 28.9783 70.1919 29.533 71.1855C30.0961 72.1791 30.3776 73.2803 30.3776 74.4892C30.3776 75.3917 30.2161 76.2363 29.8932 77.0229C29.5703 77.8095 29.1232 78.505 28.5518 79.1095C27.9888 79.7056 27.3305 80.1734 26.5771 80.5129C25.8319 80.8524 25.0287 81.0221 24.1676 81.0221ZM24.1676 78.9356C24.9459 78.9356 25.6456 78.7327 26.2666 78.327C26.8958 77.913 27.3885 77.3707 27.7445 76.7C28.1089 76.021 28.291 75.2841 28.291 74.4892C28.291 73.6778 28.1047 72.9326 27.7321 72.2536C27.3678 71.5747 26.8751 71.0323 26.2541 70.6266C25.6331 70.2209 24.9376 70.018 24.1676 70.018C23.3893 70.018 22.6896 70.225 22.0686 70.639C21.4476 71.0447 20.9549 71.5871 20.5906 72.266C20.2263 72.945 20.0441 73.6861 20.0441 74.4892C20.0441 75.3172 20.2304 76.0707 20.603 76.7497C20.9756 77.4203 21.4766 77.9544 22.1059 78.3518C22.7351 78.741 23.4224 78.9356 24.1676 78.9356ZM41.3147 68.2792H43.4013V81.0967C43.4013 81.9164 43.2233 82.6781 42.8672 83.3819C42.5195 84.094 42.0475 84.7109 41.4514 85.2325C40.8552 85.7624 40.1762 86.1723 39.4145 86.4621C38.6527 86.7602 37.8578 86.9092 37.0298 86.9092C36.1687 86.9092 35.3366 86.7146 34.5334 86.3255C33.7303 85.9446 33.0265 85.4312 32.422 84.7854C31.8259 84.1478 31.3953 83.4316 31.1303 82.6367L33.043 81.7673C33.2003 82.3387 33.4819 82.852 33.8876 83.3074C34.3016 83.7711 34.7818 84.1354 35.3283 84.4004C35.8831 84.6736 36.4502 84.8102 37.0298 84.8102C37.5763 84.8102 38.1021 84.715 38.6072 84.5246C39.1205 84.3341 39.5801 84.0692 39.9858 83.7297C40.3998 83.3985 40.7227 83.0052 40.9546 82.5498C41.1947 82.1027 41.3147 81.6183 41.3147 81.0967V78.6251C40.8925 79.3372 40.3336 79.9168 39.638 80.3639C38.9508 80.8027 38.1476 81.0221 37.2286 81.0221C36.3509 81.0221 35.527 80.8524 34.757 80.5129C33.9869 80.1734 33.3121 79.7056 32.7325 79.1095C32.1529 78.505 31.6975 77.8095 31.3663 77.0229C31.0351 76.2363 30.8695 75.3917 30.8695 74.4892C30.8695 73.5867 31.0351 72.7421 31.3663 71.9555C31.6975 71.1607 32.1529 70.4651 32.7325 69.869C33.3121 69.2645 33.9869 68.7926 34.757 68.4531C35.527 68.1136 36.3509 67.9439 37.2286 67.9439C38.1476 67.9439 38.9508 68.1633 39.638 68.6021C40.3336 69.041 40.8925 69.6206 41.3147 70.3409V68.2792ZM37.241 78.9977C38.0441 78.9977 38.7397 78.7907 39.3275 78.3767C39.9237 77.9627 40.3832 77.4121 40.7062 76.7248C41.0291 76.0376 41.1905 75.2924 41.1905 74.4892C41.1905 73.6612 41.0249 72.9077 40.6937 72.2288C40.3708 71.5415 39.9113 70.9951 39.3151 70.5893C38.7272 70.1753 38.0359 69.9683 37.241 69.9683C36.4627 69.9683 35.7506 70.1712 35.1047 70.5769C34.4589 70.9826 33.9455 71.5291 33.5647 72.2164C33.1921 72.8953 33.0058 73.6529 33.0058 74.4892C33.0058 75.3255 33.1962 76.0873 33.5771 76.7745C33.9662 77.4535 34.4796 77.9958 35.1172 78.4015C35.763 78.799 36.4709 78.9977 37.241 78.9977ZM49.4306 80.9352C48.76 80.9104 48.1058 80.7862 47.4683 80.5626C46.839 80.3308 46.2842 80.0203 45.804 79.6311C45.332 79.2337 44.9884 78.7783 44.7731 78.2649L46.5616 77.4949C46.6858 77.7764 46.9094 78.0413 47.2323 78.2897C47.5552 78.5381 47.9278 78.7369 48.3501 78.8859C48.7724 79.0349 49.1988 79.1095 49.6294 79.1095C50.0848 79.1095 50.5112 79.0391 50.9086 78.8983C51.3061 78.7576 51.629 78.5506 51.8774 78.2773C52.1341 77.9958 52.2624 77.6605 52.2624 77.2713C52.2624 76.8573 52.1216 76.5344 51.8401 76.3025C51.5669 76.0624 51.2191 75.8761 50.7968 75.7436C50.3828 75.6029 49.9606 75.4704 49.53 75.3462C48.6772 75.1309 47.9154 74.8742 47.2447 74.5762C46.574 74.2698 46.0441 73.8848 45.655 73.4211C45.2741 72.9491 45.0836 72.3488 45.0836 71.6202C45.0836 70.8502 45.2948 70.1836 45.7171 69.6206C46.1476 69.0575 46.7107 68.6228 47.4062 68.3165C48.1017 68.0101 48.8469 67.8569 49.6418 67.8569C50.6437 67.8569 51.5586 68.0722 52.3866 68.5028C53.2146 68.9333 53.8315 69.5171 54.2372 70.254L52.5605 71.2352C52.4197 70.9371 52.2044 70.6763 51.9146 70.4527C51.6248 70.2209 51.2936 70.0387 50.921 69.9062C50.5484 69.7738 50.1676 69.7034 49.7784 69.6951C49.2982 69.6785 48.8469 69.7406 48.4246 69.8814C48.0106 70.0222 47.6753 70.2374 47.4186 70.5272C47.1702 70.8088 47.046 71.1607 47.046 71.5829C47.046 71.9969 47.1785 72.3116 47.4434 72.5269C47.7167 72.7421 48.0686 72.916 48.4991 73.0485C48.938 73.1727 49.4141 73.3176 49.9274 73.4832C50.6809 73.7233 51.3847 74.0007 52.0388 74.3153C52.693 74.63 53.2187 75.0233 53.6162 75.4952C54.0219 75.9672 54.2206 76.5509 54.2123 77.2465C54.2123 78.0082 53.9846 78.6748 53.5292 79.2461C53.0738 79.8091 52.4818 80.2397 51.7532 80.5378C51.0328 80.8358 50.2586 80.9683 49.4306 80.9352Z" fill="#3A3A3A"/>
</g>
<g filter="url(#filter4_i_1316_1061)">
<path d="M1.4904 113.979V96.5905H7.60104C8.5284 96.5905 9.36468 96.8182 10.1099 97.2736C10.8634 97.729 11.4595 98.3459 11.8984 99.1242C12.3455 99.8942 12.569 100.755 12.569 101.708C12.569 102.544 12.4034 103.306 12.0722 103.993C11.741 104.68 11.2856 105.256 10.706 105.719C10.1347 106.175 9.48474 106.489 8.7561 106.663L12.9789 113.979H10.5694L6.42114 106.837H3.57696V113.979H1.4904ZM3.57696 104.75H7.3899C7.95294 104.75 8.47044 104.614 8.9424 104.341C9.41436 104.059 9.78696 103.682 10.0602 103.21C10.3417 102.73 10.4825 102.192 10.4825 101.596C10.4825 100.991 10.3417 100.453 10.0602 99.9812C9.78696 99.5009 9.41436 99.1242 8.9424 98.851C8.47044 98.5694 7.95294 98.4287 7.3899 98.4287H3.57696V104.75ZM19.7459 114.301C18.6032 114.301 17.5599 114.007 16.616 113.42C15.6804 112.832 14.931 112.045 14.368 111.06C13.8132 110.066 13.5359 108.969 13.5359 107.769C13.5359 106.858 13.6973 106.009 14.0202 105.222C14.3432 104.428 14.7861 103.732 15.3492 103.136C15.9205 102.531 16.5829 102.059 17.3364 101.72C18.0899 101.38 18.893 101.211 19.7459 101.211C20.6815 101.211 21.5385 101.401 22.3168 101.782C23.1034 102.155 23.7741 102.676 24.3288 103.347C24.8919 104.018 25.31 104.796 25.5833 105.682C25.8648 106.568 25.9683 107.516 25.8938 108.526H15.759C15.8584 109.23 16.0902 109.859 16.4546 110.414C16.8189 110.96 17.2826 111.395 17.8456 111.718C18.4169 112.041 19.0503 112.207 19.7459 112.215C20.4911 112.215 21.1659 112.024 21.7703 111.644C22.3748 111.254 22.8633 110.724 23.2359 110.054L25.3597 110.551C24.8629 111.652 24.1136 112.554 23.1117 113.258C22.1098 113.954 20.9879 114.301 19.7459 114.301ZM15.6969 106.887H23.7948C23.7285 106.191 23.505 105.558 23.1241 104.986C22.7432 104.407 22.2588 103.943 21.671 103.595C21.0831 103.248 20.4414 103.074 19.7459 103.074C19.0503 103.074 18.4128 103.243 17.8332 103.583C17.2536 103.922 16.7733 104.382 16.3925 104.962C16.0199 105.533 15.788 106.175 15.6969 106.887ZM29.3281 120.189H27.2415V101.559H29.3281V103.682C29.7504 102.954 30.3134 102.366 31.0172 101.919C31.721 101.463 32.5573 101.236 33.526 101.236C34.4286 101.236 35.2731 101.405 36.0597 101.745C36.8546 102.084 37.5501 102.556 38.1463 103.161C38.7424 103.757 39.2103 104.448 39.5497 105.235C39.8892 106.021 40.059 106.866 40.059 107.769C40.059 108.671 39.8892 109.52 39.5497 110.315C39.2103 111.109 38.7424 111.809 38.1463 112.414C37.5501 113.01 36.8546 113.478 36.0597 113.817C35.2731 114.157 34.4286 114.326 33.526 114.326C32.5573 114.326 31.721 114.103 31.0172 113.656C30.3134 113.2 29.7504 112.608 29.3281 111.88V120.189ZM33.5012 103.26C32.698 103.26 31.9942 103.463 31.3898 103.869C30.7854 104.274 30.3175 104.817 29.9863 105.496C29.6634 106.175 29.502 106.932 29.502 107.769C29.502 108.597 29.6634 109.354 29.9863 110.041C30.3175 110.729 30.7812 111.275 31.3774 111.681C31.9818 112.087 32.6898 112.289 33.5012 112.289C34.3044 112.289 35.0413 112.091 35.712 111.693C36.3826 111.288 36.9208 110.745 37.3266 110.066C37.7323 109.379 37.9351 108.613 37.9351 107.769C37.9351 106.941 37.7364 106.187 37.339 105.508C36.9415 104.821 36.4075 104.274 35.7368 103.869C35.0661 103.463 34.3209 103.26 33.5012 103.26ZM46.7827 114.301C45.64 114.301 44.5967 114.007 43.6528 113.42C42.7172 112.832 41.9678 112.045 41.4048 111.06C40.85 110.066 40.5726 108.969 40.5726 107.769C40.5726 106.858 40.7341 106.009 41.057 105.222C41.38 104.428 41.8229 103.732 42.386 103.136C42.9573 102.531 43.6197 102.059 44.3732 101.72C45.1267 101.38 45.9298 101.211 46.7827 101.211C47.9253 101.211 48.9644 101.505 49.9001 102.093C50.844 102.68 51.5933 103.471 52.1481 104.465C52.7111 105.458 52.9927 106.56 52.9927 107.769C52.9927 108.671 52.8312 109.516 52.5083 110.302C52.1854 111.089 51.7382 111.784 51.1669 112.389C50.6039 112.985 49.9456 113.453 49.1921 113.792C48.4469 114.132 47.6438 114.301 46.7827 114.301ZM46.7827 112.215C47.561 112.215 48.2606 112.012 48.8816 111.606C49.5109 111.192 50.0036 110.65 50.3596 109.979C50.7239 109.3 50.9061 108.563 50.9061 107.769C50.9061 106.957 50.7198 106.212 50.3472 105.533C49.9829 104.854 49.4902 104.312 48.8692 103.906C48.2482 103.5 47.5527 103.297 46.7827 103.297C46.0043 103.297 45.3047 103.504 44.6837 103.918C44.0627 104.324 43.57 104.866 43.2057 105.545C42.8414 106.224 42.6592 106.965 42.6592 107.769C42.6592 108.597 42.8455 109.35 43.2181 110.029C43.5907 110.7 44.0917 111.234 44.7209 111.631C45.3502 112.02 46.0375 112.215 46.7827 112.215ZM54.3026 113.979V101.559H56.3891V103.111C56.828 102.531 57.3827 102.072 58.0534 101.732C58.7241 101.385 59.4527 101.211 60.2393 101.211C60.7196 101.211 61.1833 101.273 61.6304 101.397L60.7858 103.484C60.4463 103.376 60.1151 103.322 59.7922 103.322C59.1712 103.322 58.5999 103.475 58.0783 103.782C57.5649 104.08 57.155 104.485 56.8487 104.999C56.5423 105.512 56.3891 106.084 56.3891 106.713V113.979H54.3026ZM69.0634 103.645H66.244L66.2316 113.979H64.145L64.1575 103.645H62.0212V101.559H64.1575L64.145 97.6586H66.2316L66.244 101.559H69.0634V103.645ZM74.2114 114.214C73.5408 114.19 72.8866 114.065 72.2491 113.842C71.6198 113.61 71.065 113.3 70.5848 112.91C70.1128 112.513 69.7692 112.058 69.5539 111.544L71.3424 110.774C71.4666 111.056 71.6902 111.321 72.0131 111.569C72.336 111.817 72.7086 112.016 73.1309 112.165C73.5532 112.314 73.9796 112.389 74.4102 112.389C74.8656 112.389 75.292 112.318 75.6894 112.178C76.0869 112.037 76.4098 111.83 76.6582 111.557C76.9149 111.275 77.0432 110.94 77.0432 110.551C77.0432 110.137 76.9024 109.814 76.6209 109.582C76.3477 109.342 75.9999 109.155 75.5776 109.023C75.1636 108.882 74.7414 108.75 74.3108 108.625C73.458 108.41 72.6962 108.154 72.0255 107.855C71.3548 107.549 70.8249 107.164 70.4358 106.7C70.0549 106.228 69.8644 105.628 69.8644 104.899C69.8644 104.129 70.0756 103.463 70.4979 102.9C70.9284 102.337 71.4915 101.902 72.187 101.596C72.8825 101.289 73.6277 101.136 74.4226 101.136C75.4245 101.136 76.3394 101.352 77.1674 101.782C77.9954 102.213 78.6123 102.796 79.018 103.533L77.3413 104.514C77.2005 104.216 76.9852 103.956 76.6954 103.732C76.4056 103.5 76.0744 103.318 75.7018 103.186C75.3292 103.053 74.9484 102.983 74.5592 102.974C74.079 102.958 73.6277 103.02 73.2054 103.161C72.7914 103.301 72.4561 103.517 72.1994 103.807C71.951 104.088 71.8268 104.44 71.8268 104.862C71.8268 105.276 71.9593 105.591 72.2242 105.806C72.4975 106.021 72.8494 106.195 73.2799 106.328C73.7188 106.452 74.1949 106.597 74.7082 106.762C75.4617 107.003 76.1655 107.28 76.8196 107.595C77.4738 107.909 77.9995 108.303 78.397 108.775C78.8027 109.246 79.0014 109.83 78.9931 110.526C78.9931 111.288 78.7654 111.954 78.31 112.525C77.8546 113.088 77.2626 113.519 76.534 113.817C75.8136 114.115 75.0394 114.248 74.2114 114.214Z" fill="#3A3A3A"/>
</g>
<g filter="url(#filter5_i_1316_1061)">
<path d="M9.55098 147.583C8.35038 147.583 7.22844 147.351 6.18516 146.887C5.15016 146.415 4.2435 145.765 3.46518 144.937C2.69514 144.101 2.0907 143.14 1.65186 142.056C1.21302 140.963 0.9936 139.795 0.9936 138.553C0.9936 137.27 1.2213 136.082 1.6767 134.989C2.14038 133.896 2.76966 132.944 3.56454 132.132C4.3677 131.321 5.28264 130.691 6.30936 130.244C7.34436 129.789 8.43732 129.561 9.58824 129.561C10.8965 129.561 12.1426 129.868 13.3267 130.48C14.5107 131.093 15.5291 131.979 16.382 133.138L14.519 134.144C13.8814 133.333 13.1238 132.712 12.2461 132.281C11.3767 131.851 10.4825 131.635 9.5634 131.635C8.68572 131.635 7.85358 131.813 7.06698 132.169C6.28866 132.526 5.59728 133.022 4.99284 133.66C4.39668 134.297 3.92886 135.034 3.58938 135.871C3.2499 136.707 3.08016 137.614 3.08016 138.591C3.08016 139.543 3.2499 140.437 3.58938 141.273C3.92886 142.11 4.39254 142.847 4.98042 143.484C5.57658 144.113 6.26796 144.606 7.05456 144.962C7.84116 145.318 8.68158 145.496 9.57582 145.496C10.2879 145.496 10.9627 145.376 11.6003 145.136C12.2461 144.896 12.8381 144.556 13.3763 144.118C13.9228 143.679 14.3865 143.161 14.7674 142.565C15.1565 141.969 15.4505 141.315 15.6492 140.603H11.3643V138.74H18.0835C18.0752 139.957 17.8434 141.099 17.388 142.168C16.9409 143.236 16.324 144.175 15.5374 144.987C14.7591 145.798 13.8566 146.436 12.8299 146.9C11.8114 147.355 10.7185 147.583 9.55098 147.583ZM25.0583 147.583C23.9157 147.583 22.8724 147.289 21.9285 146.701C20.9928 146.113 20.2435 145.326 19.6805 144.341C19.1257 143.347 18.8483 142.25 18.8483 141.05C18.8483 140.139 19.0098 139.29 19.3327 138.504C19.6556 137.709 20.0986 137.013 20.6616 136.417C21.233 135.813 21.8954 135.341 22.6488 135.001C23.4023 134.662 24.2055 134.492 25.0583 134.492C26.201 134.492 27.2401 134.786 28.1757 135.374C29.1197 135.962 29.869 136.752 30.4238 137.746C30.9868 138.74 31.2683 139.841 31.2683 141.05C31.2683 141.952 31.1069 142.797 30.7839 143.583C30.461 144.37 30.0139 145.066 29.4426 145.67C28.8795 146.266 28.2213 146.734 27.4678 147.073C26.7226 147.413 25.9194 147.583 25.0583 147.583ZM25.0583 145.496C25.8366 145.496 26.5363 145.293 27.1573 144.888C27.7866 144.474 28.2792 143.931 28.6353 143.261C28.9996 142.582 29.1818 141.845 29.1818 141.05C29.1818 140.238 28.9955 139.493 28.6229 138.814C28.2585 138.135 27.7659 137.593 27.1449 137.187C26.5239 136.781 25.8284 136.579 25.0583 136.579C24.28 136.579 23.5803 136.786 22.9593 137.2C22.3383 137.605 21.8457 138.148 21.4814 138.827C21.117 139.506 20.9349 140.247 20.9349 141.05C20.9349 141.878 21.1212 142.631 21.4938 143.31C21.8664 143.981 22.3673 144.515 22.9966 144.912C23.6259 145.302 24.3131 145.496 25.0583 145.496ZM37.9703 147.583C36.8276 147.583 35.7844 147.289 34.8404 146.701C33.9048 146.113 33.1555 145.326 32.5924 144.341C32.0377 143.347 31.7603 142.25 31.7603 141.05C31.7603 140.139 31.9217 139.29 32.2447 138.504C32.5676 137.709 33.0106 137.013 33.5736 136.417C34.1449 135.813 34.8073 135.341 35.5608 135.001C36.3143 134.662 37.1174 134.492 37.9703 134.492C39.1129 134.492 40.1521 134.786 41.0877 135.374C42.0316 135.962 42.781 136.752 43.3357 137.746C43.8988 138.74 44.1803 139.841 44.1803 141.05C44.1803 141.952 44.0188 142.797 43.6959 143.583C43.373 144.37 42.9259 145.066 42.3545 145.67C41.7915 146.266 41.1332 146.734 40.3798 147.073C39.6346 147.413 38.8314 147.583 37.9703 147.583ZM37.9703 145.496C38.7486 145.496 39.4483 145.293 40.0693 144.888C40.6985 144.474 41.1912 143.931 41.5472 143.261C41.9116 142.582 42.0937 141.845 42.0937 141.05C42.0937 140.238 41.9074 139.493 41.5348 138.814C41.1705 138.135 40.6778 137.593 40.0568 137.187C39.4358 136.781 38.7403 136.579 37.9703 136.579C37.192 136.579 36.4923 136.786 35.8713 137.2C35.2503 137.605 34.7576 138.148 34.3933 138.827C34.029 139.506 33.8468 140.247 33.8468 141.05C33.8468 141.878 34.0331 142.631 34.4057 143.31C34.7783 143.981 35.2793 144.515 35.9086 144.912C36.5378 145.302 37.2251 145.496 37.9703 145.496ZM55.1174 134.84H57.204V147.657C57.204 148.477 57.026 149.239 56.6699 149.942C56.3222 150.655 55.8502 151.271 55.2541 151.793C54.6579 152.323 53.9789 152.733 53.2172 153.023C52.4554 153.321 51.6605 153.47 50.8325 153.47C49.9714 153.47 49.1393 153.275 48.3361 152.886C47.533 152.505 46.8292 151.992 46.2247 151.346C45.6286 150.708 45.198 149.992 44.933 149.197L46.8457 148.328C47.003 148.899 47.2846 149.413 47.6903 149.868C48.1043 150.332 48.5845 150.696 49.131 150.961C49.6858 151.234 50.2529 151.371 50.8325 151.371C51.379 151.371 51.9048 151.276 52.4099 151.085C52.9232 150.895 53.3828 150.63 53.7885 150.29C54.2025 149.959 54.5254 149.566 54.7573 149.11C54.9974 148.663 55.1174 148.179 55.1174 147.657V145.186C54.6952 145.898 54.1363 146.477 53.4407 146.924C52.7535 147.363 51.9503 147.583 51.0313 147.583C50.1536 147.583 49.3297 147.413 48.5597 147.073C47.7896 146.734 47.1148 146.266 46.5352 145.67C45.9556 145.066 45.5002 144.37 45.169 143.583C44.8378 142.797 44.6722 141.952 44.6722 141.05C44.6722 140.147 44.8378 139.303 45.169 138.516C45.5002 137.721 45.9556 137.026 46.5352 136.43C47.1148 135.825 47.7896 135.353 48.5597 135.014C49.3297 134.674 50.1536 134.504 51.0313 134.504C51.9503 134.504 52.7535 134.724 53.4407 135.163C54.1363 135.602 54.6952 136.181 55.1174 136.901V134.84ZM51.0437 145.558C51.8468 145.558 52.5424 145.351 53.1302 144.937C53.7264 144.523 54.1859 143.973 54.5089 143.285C54.8318 142.598 54.9932 141.853 54.9932 141.05C54.9932 140.222 54.8276 139.468 54.4964 138.789C54.1735 138.102 53.714 137.556 53.1178 137.15C52.5299 136.736 51.8386 136.529 51.0437 136.529C50.2654 136.529 49.5533 136.732 48.9074 137.137C48.2616 137.543 47.7482 138.09 47.3674 138.777C46.9948 139.456 46.8085 140.213 46.8085 141.05C46.8085 141.886 46.9989 142.648 47.3798 143.335C47.7689 144.014 48.2823 144.556 48.9199 144.962C49.5657 145.36 50.2736 145.558 51.0437 145.558ZM59.4452 147.26V128.63H61.5318V147.26H59.4452ZM69.1134 147.583C67.9708 147.583 66.9275 147.289 65.9836 146.701C65.0479 146.113 64.2986 145.326 63.7356 144.341C63.1808 143.347 62.9034 142.25 62.9034 141.05C62.9034 140.139 63.0649 139.29 63.3878 138.504C63.7107 137.709 64.1537 137.013 64.7167 136.417C65.2881 135.813 65.9505 135.341 66.7039 135.001C67.4574 134.662 68.2606 134.492 69.1134 134.492C70.0491 134.492 70.906 134.682 71.6844 135.063C72.471 135.436 73.1416 135.958 73.6964 136.628C74.2594 137.299 74.6776 138.077 74.9508 138.963C75.2323 139.849 75.3358 140.797 75.2613 141.807H65.1266C65.226 142.511 65.4578 143.14 65.8221 143.695C66.1864 144.242 66.6501 144.676 67.2132 144.999C67.7845 145.322 68.4179 145.488 69.1134 145.496C69.8586 145.496 70.5334 145.306 71.1379 144.925C71.7423 144.536 72.2308 144.006 72.6034 143.335L74.7273 143.832C74.2305 144.933 73.4811 145.836 72.4792 146.539C71.4774 147.235 70.3554 147.583 69.1134 147.583ZM65.0645 140.168H73.1623C73.0961 139.472 72.8725 138.839 72.4917 138.268C72.1108 137.688 71.6264 137.224 71.0385 136.877C70.4506 136.529 69.8089 136.355 69.1134 136.355C68.4179 136.355 67.7803 136.525 67.2007 136.864C66.6211 137.204 66.1409 137.663 65.76 138.243C65.3874 138.814 65.1556 139.456 65.0645 140.168ZM91.9992 128.63H94.0858V147.26H91.9992V145.148C91.5769 145.877 91.0098 146.465 90.2977 146.912C89.5856 147.359 88.7493 147.583 87.7888 147.583C86.8863 147.583 86.0418 147.413 85.2552 147.073C84.4686 146.734 83.773 146.266 83.1686 145.67C82.5724 145.066 82.1046 144.37 81.7651 143.583C81.4257 142.797 81.2559 141.952 81.2559 141.05C81.2559 140.147 81.4257 139.303 81.7651 138.516C82.1046 137.721 82.5724 137.026 83.1686 136.43C83.773 135.825 84.4686 135.353 85.2552 135.014C86.0418 134.674 86.8863 134.504 87.7888 134.504C88.7493 134.504 89.5856 134.728 90.2977 135.175C91.0098 135.622 91.5769 136.21 91.9992 136.939V128.63ZM87.8137 145.558C88.6334 145.558 89.3413 145.36 89.9375 144.962C90.5419 144.556 91.0056 144.01 91.3285 143.323C91.6597 142.635 91.8253 141.878 91.8253 141.05C91.8253 140.205 91.6597 139.443 91.3285 138.764C90.9973 138.077 90.5295 137.535 89.9251 137.137C89.3289 136.732 88.6251 136.529 87.8137 136.529C86.994 136.529 86.2488 136.732 85.5781 137.137C84.9157 137.543 84.3858 138.09 83.9883 138.777C83.5909 139.456 83.3922 140.213 83.3922 141.05C83.3922 141.886 83.595 142.648 84.0007 143.335C84.4065 144.014 84.9447 144.556 85.6153 144.962C86.286 145.36 87.0188 145.558 87.8137 145.558ZM96.32 147.26V134.84H98.4066V136.392C98.8454 135.813 99.4002 135.353 100.071 135.014C100.742 134.666 101.47 134.492 102.257 134.492C102.737 134.492 103.201 134.554 103.648 134.678L102.803 136.765C102.464 136.657 102.133 136.603 101.81 136.603C101.189 136.603 100.617 136.757 100.096 137.063C99.5823 137.361 99.1725 137.767 98.8661 138.28C98.5598 138.793 98.4066 139.365 98.4066 139.994V147.26H96.32ZM104.429 134.84H106.515V147.26H104.429V134.84ZM105.497 132.815C105.166 132.815 104.888 132.708 104.665 132.492C104.441 132.277 104.33 132.008 104.33 131.685C104.33 131.362 104.441 131.093 104.665 130.878C104.888 130.663 105.162 130.555 105.485 130.555C105.808 130.555 106.081 130.663 106.304 130.878C106.528 131.093 106.64 131.362 106.64 131.685C106.64 132.008 106.528 132.277 106.304 132.492C106.089 132.708 105.82 132.815 105.497 132.815ZM114.994 147.26H112.323L107.79 134.815H110.013L113.652 144.838L117.291 134.815H119.515L114.994 147.26ZM125.772 147.583C124.629 147.583 123.586 147.289 122.642 146.701C121.706 146.113 120.957 145.326 120.394 144.341C119.839 143.347 119.562 142.25 119.562 141.05C119.562 140.139 119.723 139.29 120.046 138.504C120.369 137.709 120.812 137.013 121.375 136.417C121.947 135.813 122.609 135.341 123.362 135.001C124.116 134.662 124.919 134.492 125.772 134.492C126.708 134.492 127.565 134.682 128.343 135.063C129.129 135.436 129.8 135.958 130.355 136.628C130.918 137.299 131.336 138.077 131.609 138.963C131.891 139.849 131.994 140.797 131.92 141.807H121.785C121.884 142.511 122.116 143.14 122.481 143.695C122.845 144.242 123.309 144.676 123.872 144.999C124.443 145.322 125.076 145.488 125.772 145.496C126.517 145.496 127.192 145.306 127.796 144.925C128.401 144.536 128.889 144.006 129.262 143.335L131.386 143.832C130.889 144.933 130.14 145.836 129.138 146.539C128.136 147.235 127.014 147.583 125.772 147.583ZM121.723 140.168H129.821C129.755 139.472 129.531 138.839 129.15 138.268C128.769 137.688 128.285 137.224 127.697 136.877C127.109 136.529 126.467 136.355 125.772 136.355C125.076 136.355 124.439 136.525 123.859 136.864C123.28 137.204 122.799 137.663 122.419 138.243C122.046 138.814 121.814 139.456 121.723 140.168Z" fill="#3A3A3A"/>
</g>
<g filter="url(#filter6_i_1316_1061)">
<rect x="231" y="44.1992" width="56" height="56" rx="28" fill="#F5F5F7"/>
</g>
<rect x="231.339" y="44.5378" width="55.3229" height="55.3229" rx="27.6614" stroke="#3A3A3A" stroke-width="0.677143"/>
<path d="M255.538 72.251C252.888 72.4389 252.897 76.292 255.538 76.48H261.806C262.567 76.4893 263.301 76.198 263.864 75.6906C265.725 74.0648 264.729 70.8037 262.286 70.4936C261.412 65.1932 253.752 67.2043 255.566 72.251M249.796 75.2112C249.796 78.8482 252.737 81.7897 256.374 81.7897L255.388 80.1451M268.591 69.5726C268.591 65.9356 265.65 62.9941 262.013 62.9941L263 64.6388" stroke="#0077FF" stroke-width="1.5" stroke-linecap="round" stroke-linejoin="round"/>
<g filter="url(#filter7_i_1316_1061)">
<path d="M388.062 14.4616C386.887 14.4616 385.781 14.2298 384.746 13.7661C383.711 13.2941 382.8 12.6483 382.014 11.8286C381.235 11.0006 380.623 10.0401 380.176 8.94711C379.737 7.85415 379.517 6.68667 379.517 5.44467C379.517 4.20267 379.737 3.03519 380.176 1.94223C380.623 0.84927 381.235 -0.10707 382.014 -0.92679C382.8 -1.75479 383.711 -2.40063 384.746 -2.86431C385.781 -3.33627 386.887 -3.57225 388.062 -3.57225C389.47 -3.57225 390.766 -3.24519 391.95 -2.59107C393.134 -1.93695 394.115 -1.06755 394.893 0.0171297L393.043 1.01073C392.463 0.24897 391.73 -0.35547 390.844 -0.80259C389.967 -1.25799 389.039 -1.48569 388.062 -1.48569C387.16 -1.48569 386.315 -1.30353 385.529 -0.939211C384.75 -0.57489 384.067 -0.0739502 383.479 0.56361C382.891 1.20117 382.432 1.93809 382.101 2.77437C381.77 3.61065 381.604 4.50075 381.604 5.44467C381.604 6.39687 381.77 7.29111 382.101 8.12739C382.44 8.96367 382.904 9.70059 383.492 10.3382C384.088 10.9757 384.775 11.4767 385.553 11.841C386.34 12.197 387.176 12.375 388.062 12.375C389.072 12.375 390.008 12.1473 390.869 11.6919C391.739 11.2283 392.463 10.6238 393.043 9.87861L394.893 10.8846C394.115 11.9693 393.134 12.8387 391.95 13.4928C390.766 14.1387 389.47 14.4616 388.062 14.4616ZM407.641 6.41343V14.1387H405.555V6.87297C405.555 6.24369 405.401 5.67237 405.095 5.15901C404.789 4.64565 404.379 4.23993 403.865 3.94185C403.352 3.63549 402.781 3.48231 402.151 3.48231C401.53 3.48231 400.959 3.63549 400.437 3.94185C399.924 4.23993 399.514 4.64565 399.208 5.15901C398.902 5.67237 398.748 6.24369 398.748 6.87297V14.1387H396.662V-4.49133H398.748V3.27117C399.187 2.69157 399.742 2.23203 400.413 1.89255C401.083 1.54479 401.812 1.37091 402.599 1.37091C403.526 1.37091 404.37 1.59861 405.132 2.05401C405.902 2.50113 406.511 3.10557 406.958 3.86733C407.413 4.62909 407.641 5.47779 407.641 6.41343ZM419.123 1.71867H421.209V14.1387H419.123L419.036 12.0397C418.647 12.7601 418.108 13.3438 417.421 13.7909C416.742 14.238 415.931 14.4616 414.987 14.4616C414.076 14.4616 413.223 14.2919 412.428 13.9524C411.634 13.6046 410.93 13.1285 410.317 12.5241C409.713 11.9114 409.241 11.2076 408.901 10.4127C408.562 9.61779 408.392 8.76081 408.392 7.84173C408.392 6.95577 408.558 6.11949 408.889 5.33289C409.22 4.54629 409.679 3.85905 410.267 3.27117C410.863 2.67501 411.551 2.21133 412.329 1.88013C413.107 1.54065 413.944 1.37091 414.838 1.37091C415.815 1.37091 416.672 1.60275 417.409 2.06643C418.146 2.52183 418.742 3.11385 419.197 3.84249L419.123 1.71867ZM414.95 12.4371C415.769 12.4371 416.477 12.2384 417.073 11.841C417.678 11.4353 418.142 10.8888 418.465 10.2015C418.796 9.51429 418.961 8.75667 418.961 7.92867C418.961 7.08411 418.796 6.32235 418.465 5.64339C418.133 4.95615 417.666 4.41381 417.061 4.01637C416.465 3.61065 415.761 3.40779 414.95 3.40779C414.13 3.40779 413.385 3.61065 412.714 4.01637C412.043 4.42209 411.509 4.96857 411.112 5.65581C410.723 6.33477 410.528 7.09239 410.528 7.92867C410.528 8.76495 410.731 9.52671 411.137 10.214C411.542 10.8929 412.081 11.4353 412.751 11.841C413.422 12.2384 414.155 12.4371 414.95 12.4371ZM429.38 3.80523H426.561L426.548 14.1387H424.462L424.474 3.80523H422.338V1.71867H424.474L424.462 -2.18121H426.548L426.561 1.71867H429.38V3.80523ZM442.368 1.37091C443.577 1.37091 444.674 1.66485 445.659 2.25273C446.653 2.84061 447.444 3.63135 448.032 4.62495C448.62 5.61027 448.914 6.70737 448.914 7.91625C448.914 8.81877 448.744 9.66747 448.404 10.4624C448.065 11.249 447.593 11.9445 446.988 12.5489C446.392 13.1451 445.697 13.6129 444.902 13.9524C444.115 14.2919 443.271 14.4616 442.368 14.4616C441.408 14.4616 440.571 14.238 439.859 13.7909C439.156 13.3355 438.592 12.7435 438.17 12.0149V14.1387H436.084V-4.49133H438.17V3.81765C438.592 3.08901 439.156 2.50113 439.859 2.05401C440.571 1.59861 441.408 1.37091 442.368 1.37091ZM442.343 12.4247C443.163 12.4247 443.908 12.2219 444.579 11.8161C445.25 11.4104 445.784 10.8681 446.181 10.1891C446.579 9.50187 446.777 8.74425 446.777 7.91625C446.777 7.07169 446.574 6.30993 446.169 5.63097C445.763 4.94373 445.225 4.40139 444.554 4.00395C443.883 3.59823 443.146 3.39537 442.343 3.39537C441.532 3.39537 440.824 3.59823 440.22 4.00395C439.623 4.40967 439.16 4.95615 438.828 5.64339C438.506 6.33063 438.344 7.08825 438.344 7.91625C438.344 8.75253 438.506 9.51429 438.828 10.2015C439.16 10.8805 439.627 11.4228 440.232 11.8286C440.836 12.226 441.54 12.4247 442.343 12.4247ZM455.625 14.4616C454.482 14.4616 453.439 14.1677 452.495 13.5798C451.559 12.9919 450.81 12.2053 450.247 11.22C449.692 10.2264 449.415 9.12927 449.415 7.92867C449.415 7.01787 449.576 6.16917 449.899 5.38257C450.222 4.58769 450.665 3.89217 451.228 3.29601C451.799 2.69157 452.462 2.21961 453.215 1.88013C453.969 1.54065 454.772 1.37091 455.625 1.37091C456.767 1.37091 457.807 1.66485 458.742 2.25273C459.686 2.84061 460.435 3.63135 460.99 4.62495C461.553 5.61855 461.835 6.71979 461.835 7.92867C461.835 8.83119 461.673 9.67575 461.35 10.4624C461.027 11.249 460.58 11.9445 460.009 12.5489C459.446 13.1451 458.788 13.6129 458.034 13.9524C457.289 14.2919 456.486 14.4616 455.625 14.4616ZM455.625 12.375C456.403 12.375 457.103 12.1722 457.724 11.7665C458.353 11.3525 458.846 10.8101 459.202 10.1394C459.566 9.46047 459.748 8.72355 459.748 7.92867C459.748 7.11723 459.562 6.37203 459.189 5.69307C458.825 5.01411 458.332 4.47177 457.711 4.06605C457.09 3.66033 456.395 3.45747 455.625 3.45747C454.846 3.45747 454.147 3.66447 453.526 4.07847C452.905 4.48419 452.412 5.02653 452.048 5.70549C451.683 6.38445 451.501 7.12551 451.501 7.92867C451.501 8.75667 451.688 9.51015 452.06 10.1891C452.433 10.8598 452.934 11.3939 453.563 11.7913C454.192 12.1805 454.88 12.375 455.625 12.375ZM469.433 3.80523H466.613L466.601 14.1387H464.514L464.527 3.80523H462.391V1.71867H464.527L464.514 -2.18121H466.601L466.613 1.71867H469.433V3.80523ZM474.581 14.3747C473.91 14.3498 473.256 14.2256 472.618 14.0021C471.989 13.7702 471.434 13.4597 470.954 13.0706C470.482 12.6731 470.139 12.2177 469.923 11.7044L471.712 10.9343C471.836 11.2158 472.06 11.4808 472.382 11.7292C472.705 11.9776 473.078 12.1763 473.5 12.3254C473.923 12.4744 474.349 12.5489 474.78 12.5489C475.235 12.5489 475.661 12.4785 476.059 12.3378C476.456 12.197 476.779 11.99 477.028 11.7168C477.284 11.4353 477.413 11.0999 477.413 10.7108C477.413 10.2968 477.272 9.97383 476.99 9.74199C476.717 9.50187 476.369 9.31557 475.947 9.18309C475.533 9.04233 475.111 8.90985 474.68 8.78565C473.827 8.57037 473.066 8.31369 472.395 8.01561C471.724 7.70925 471.194 7.32423 470.805 6.86055C470.424 6.38859 470.234 5.78829 470.234 5.05965C470.234 4.28961 470.445 3.62307 470.867 3.06003C471.298 2.49699 471.861 2.06229 472.556 1.75593C473.252 1.44957 473.997 1.29639 474.792 1.29639C475.794 1.29639 476.709 1.51167 477.537 1.94223C478.365 2.37279 478.982 2.95653 479.387 3.69345L477.711 4.67463C477.57 4.37655 477.355 4.11573 477.065 3.89217C476.775 3.66033 476.444 3.47817 476.071 3.34569C475.699 3.21321 475.318 3.14283 474.929 3.13455C474.448 3.11799 473.997 3.18009 473.575 3.32085C473.161 3.46161 472.825 3.67689 472.569 3.96669C472.32 4.24821 472.196 4.60011 472.196 5.02239C472.196 5.43639 472.329 5.75103 472.594 5.96631C472.867 6.18159 473.219 6.35547 473.649 6.48795C474.088 6.61215 474.564 6.75705 475.078 6.92265C475.831 7.16277 476.535 7.44015 477.189 7.75479C477.843 8.06943 478.369 8.46273 478.766 8.93469C479.172 9.40665 479.371 9.99039 479.363 10.6859C479.363 11.4477 479.135 12.1142 478.679 12.6855C478.224 13.2486 477.632 13.6791 476.903 13.9772C476.183 14.2753 475.409 14.4078 474.581 14.3747Z" fill="#3A3A3A"/>
</g>
<g filter="url(#filter8_i_1316_1061)">
<path d="M401.86 47.418V30.03H407.97C408.898 30.03 409.734 30.2577 410.479 30.7131C411.233 31.1685 411.829 31.7853 412.268 32.5636C412.715 33.3337 412.938 34.1948 412.938 35.147C412.938 35.9833 412.773 36.745 412.442 37.4323C412.11 38.1195 411.655 38.695 411.075 39.1587C410.504 39.6141 409.854 39.9287 409.125 40.1026L413.348 47.418H410.939L406.79 40.2765H403.946V47.418H401.86ZM403.946 38.1899H407.759C408.322 38.1899 408.84 38.0533 409.312 37.78C409.784 37.4985 410.156 37.1218 410.43 36.6498C410.711 36.1696 410.852 35.6314 410.852 35.0352C410.852 34.4308 410.711 33.8926 410.43 33.4206C410.156 32.9404 409.784 32.5636 409.312 32.2904C408.84 32.0089 408.322 31.8681 407.759 31.8681H403.946V38.1899ZM420.115 47.7409C418.973 47.7409 417.929 47.4469 416.985 46.8591C416.05 46.2712 415.3 45.4846 414.737 44.4993C414.183 43.5057 413.905 42.4086 413.905 41.208C413.905 40.2972 414.067 39.4485 414.39 38.6619C414.713 37.867 415.155 37.1715 415.719 36.5753C416.29 35.9709 416.952 35.4989 417.706 35.1594C418.459 34.8199 419.262 34.6502 420.115 34.6502C421.051 34.6502 421.908 34.8406 422.686 35.2215C423.473 35.5941 424.143 36.1158 424.698 36.7864C425.261 37.4571 425.679 38.2354 425.953 39.1214C426.234 40.0074 426.338 40.9554 426.263 41.9656H416.128C416.228 42.6694 416.46 43.2987 416.824 43.8534C417.188 44.3999 417.652 44.8346 418.215 45.1575C418.786 45.4804 419.42 45.646 420.115 45.6543C420.86 45.6543 421.535 45.4639 422.14 45.083C422.744 44.6938 423.233 44.1639 423.605 43.4932L425.729 43.99C425.232 45.0913 424.483 45.9938 423.481 46.6976C422.479 47.3931 421.357 47.7409 420.115 47.7409ZM416.066 40.3261H424.164C424.098 39.6306 423.874 38.9972 423.493 38.4259C423.113 37.8463 422.628 37.3826 422.04 37.0348C421.452 36.6871 420.811 36.5132 420.115 36.5132C419.42 36.5132 418.782 36.6829 418.203 37.0224C417.623 37.3619 417.143 37.8214 416.762 38.401C416.389 38.9724 416.157 39.6141 416.066 40.3261ZM429.697 53.628H427.611V34.998H429.697V37.1218C430.12 36.3931 430.683 35.8053 431.387 35.3581C432.09 34.9027 432.927 34.675 433.895 34.675C434.798 34.675 435.642 34.8448 436.429 35.1843C437.224 35.5237 437.919 35.9957 438.516 36.6001C439.112 37.1963 439.58 37.8877 439.919 38.6743C440.259 39.4609 440.428 40.3054 440.428 41.208C440.428 42.1105 440.259 42.9592 439.919 43.7541C439.58 44.5489 439.112 45.2486 438.516 45.853C437.919 46.4492 437.224 46.917 436.429 47.2565C435.642 47.596 434.798 47.7657 433.895 47.7657C432.927 47.7657 432.09 47.5422 431.387 47.095C430.683 46.6396 430.12 46.0476 429.697 45.319V53.628ZM433.871 36.6995C433.067 36.6995 432.364 36.9024 431.759 37.3081C431.155 37.7138 430.687 38.2561 430.356 38.9351C430.033 39.6141 429.871 40.3717 429.871 41.208C429.871 42.036 430.033 42.7936 430.356 43.4808C430.687 44.1681 431.151 44.7145 431.747 45.1203C432.351 45.526 433.059 45.7288 433.871 45.7288C434.674 45.7288 435.411 45.5301 436.081 45.1327C436.752 44.727 437.29 44.1846 437.696 43.5057C438.102 42.8184 438.305 42.0525 438.305 41.208C438.305 40.38 438.106 39.6265 437.708 38.9475C437.311 38.2603 436.777 37.7138 436.106 37.3081C435.435 36.9024 434.69 36.6995 433.871 36.6995ZM447.152 47.7409C446.009 47.7409 444.966 47.4469 444.022 46.8591C443.087 46.2712 442.337 45.4846 441.774 44.4993C441.219 43.5057 440.942 42.4086 440.942 41.208C440.942 40.2972 441.103 39.4485 441.426 38.6619C441.749 37.867 442.192 37.1715 442.755 36.5753C443.327 35.9709 443.989 35.4989 444.743 35.1594C445.496 34.8199 446.299 34.6502 447.152 34.6502C448.295 34.6502 449.334 34.9441 450.269 35.532C451.213 36.1199 451.963 36.9106 452.517 37.9042C453.08 38.8978 453.362 39.9991 453.362 41.208C453.362 42.1105 453.201 42.955 452.878 43.7416C452.555 44.5282 452.108 45.2238 451.536 45.8282C450.973 46.4244 450.315 46.8922 449.561 47.2317C448.816 47.5711 448.013 47.7409 447.152 47.7409ZM447.152 45.6543C447.93 45.6543 448.63 45.4515 449.251 45.0457C449.88 44.6317 450.373 44.0894 450.729 43.4187C451.093 42.7398 451.275 42.0028 451.275 41.208C451.275 40.3965 451.089 39.6513 450.717 38.9724C450.352 38.2934 449.86 37.7511 449.239 37.3453C448.618 36.9396 447.922 36.7368 447.152 36.7368C446.374 36.7368 445.674 36.9438 445.053 37.3578C444.432 37.7635 443.939 38.3058 443.575 38.9848C443.211 39.6637 443.029 40.4048 443.029 41.208C443.029 42.036 443.215 42.7894 443.587 43.4684C443.96 44.1391 444.461 44.6731 445.09 45.0706C445.72 45.4597 446.407 45.6543 447.152 45.6543ZM454.672 47.418V34.998H456.758V36.5505C457.197 35.9709 457.752 35.5113 458.423 35.1718C459.093 34.8241 459.822 34.6502 460.609 34.6502C461.089 34.6502 461.553 34.7123 462 34.8365L461.155 36.9231C460.816 36.8154 460.484 36.7616 460.162 36.7616C459.541 36.7616 458.969 36.9148 458.448 37.2211C457.934 37.5192 457.524 37.9249 457.218 38.4383C456.912 38.9517 456.758 39.523 456.758 40.1523V47.418H454.672ZM469.433 37.0845H466.613L466.601 47.418H464.514L464.527 37.0845H462.391V34.998H464.527L464.514 31.0981H466.601L466.613 34.998H469.433V37.0845ZM474.581 47.6539C473.91 47.6291 473.256 47.5049 472.618 47.2813C471.989 47.0495 471.434 46.739 470.954 46.3498C470.482 45.9524 470.139 45.497 469.923 44.9836L471.712 44.2136C471.836 44.4951 472.06 44.7601 472.382 45.0085C472.705 45.2569 473.078 45.4556 473.5 45.6046C473.923 45.7537 474.349 45.8282 474.78 45.8282C475.235 45.8282 475.661 45.7578 476.059 45.6171C476.456 45.4763 476.779 45.2693 477.028 44.9961C477.284 44.7145 477.413 44.3792 477.413 43.99C477.413 43.576 477.272 43.2531 476.99 43.0213C476.717 42.7812 476.369 42.5949 475.947 42.4624C475.533 42.3216 475.111 42.1891 474.68 42.0649C473.827 41.8497 473.066 41.593 472.395 41.2949C471.724 40.9885 471.194 40.6035 470.805 40.1398C470.424 39.6679 470.234 39.0676 470.234 38.3389C470.234 37.5689 470.445 36.9024 470.867 36.3393C471.298 35.7763 471.861 35.3416 472.556 35.0352C473.252 34.7289 473.997 34.5757 474.792 34.5757C475.794 34.5757 476.709 34.791 477.537 35.2215C478.365 35.6521 478.982 36.2358 479.387 36.9727L477.711 37.9539C477.57 37.6558 477.355 37.395 477.065 37.1715C476.775 36.9396 476.444 36.7575 476.071 36.625C475.699 36.4925 475.318 36.4221 474.929 36.4138C474.448 36.3973 473.997 36.4594 473.575 36.6001C473.161 36.7409 472.825 36.9562 472.569 37.246C472.32 37.5275 472.196 37.8794 472.196 38.3017C472.196 38.7157 472.329 39.0303 472.594 39.2456C472.867 39.4609 473.219 39.6348 473.649 39.7672C474.088 39.8914 474.564 40.0363 475.078 40.2019C475.831 40.4421 476.535 40.7194 477.189 41.0341C477.843 41.3487 478.369 41.742 478.766 42.214C479.172 42.6859 479.371 43.2697 479.363 43.9652C479.363 44.727 479.135 45.3935 478.679 45.9648C478.224 46.5279 477.632 46.9584 476.903 47.2565C476.183 47.5546 475.409 47.6871 474.581 47.6539Z" fill="#3A3A3A"/>
</g>
<g filter="url(#filter9_i_1316_1061)">
<path d="M435.964 81.0221C434.788 81.0221 433.683 80.7903 432.648 80.3266C431.613 79.8547 430.702 79.2088 429.915 78.3891C429.137 77.5611 428.524 76.6006 428.077 75.5077C427.638 74.4147 427.419 73.2472 427.419 72.0052C427.419 70.7632 427.638 69.5957 428.077 68.5028C428.524 67.4098 429.137 66.4535 429.915 65.6338C430.702 64.8058 431.613 64.1599 432.648 63.6962C433.683 63.2243 434.788 62.9883 435.964 62.9883C437.371 62.9883 438.667 63.3154 439.851 63.9695C441.035 64.6236 442.016 65.493 442.795 66.5777L440.944 67.5713C440.365 66.8095 439.632 66.2051 438.746 65.758C437.868 65.3026 436.941 65.0749 435.964 65.0749C435.061 65.0749 434.217 65.257 433.43 65.6213C432.652 65.9857 431.969 66.4866 431.381 67.1242C430.793 67.7617 430.333 68.4986 430.002 69.3349C429.671 70.1712 429.505 71.0613 429.505 72.0052C429.505 72.9574 429.671 73.8517 430.002 74.6879C430.342 75.5242 430.805 76.2611 431.393 76.8987C431.989 77.5363 432.677 78.0372 433.455 78.4015C434.241 78.7576 435.078 78.9356 435.964 78.9356C436.974 78.9356 437.91 78.7079 438.771 78.2525C439.64 77.7888 440.365 77.1844 440.944 76.4392L442.795 77.4452C442.016 78.5299 441.035 79.3993 439.851 80.0534C438.667 80.6992 437.371 81.0221 435.964 81.0221ZM444.66 80.6992L448.026 63.3112H449.628L454.323 75.6567L459.005 63.3112H460.608L463.986 80.6992H461.862L459.415 68.0805L455.006 79.7553H453.627L449.218 68.0805L446.784 80.6992H444.66ZM472.355 81.0221C471.42 81.0221 470.517 80.8772 469.648 80.5874C468.778 80.2894 468.017 79.8671 467.362 79.3206C466.717 78.7741 466.257 78.1241 465.984 77.3707L467.934 76.6379C468.099 77.1016 468.406 77.5073 468.853 77.855C469.308 78.1945 469.842 78.4595 470.455 78.6499C471.068 78.8404 471.701 78.9356 472.355 78.9356C473.1 78.9356 473.792 78.8155 474.429 78.5754C475.075 78.327 475.597 77.9834 475.994 77.5445C476.392 77.1057 476.591 76.5923 476.591 76.0045C476.591 75.4 476.384 74.9074 475.97 74.5265C475.556 74.1373 475.026 73.831 474.38 73.6074C473.734 73.3756 473.059 73.1975 472.355 73.0733C471.155 72.8746 470.078 72.5931 469.126 72.2288C468.182 71.8562 467.433 71.3387 466.878 70.6763C466.332 70.0139 466.058 69.1403 466.058 68.0557C466.058 67.0455 466.348 66.1637 466.928 65.4102C467.516 64.6567 468.29 64.073 469.25 63.659C470.211 63.245 471.246 63.038 472.355 63.038C473.274 63.038 474.164 63.1829 475.026 63.4727C475.895 63.7542 476.661 64.1682 477.323 64.7147C477.986 65.2612 478.462 65.9277 478.752 66.7143L476.777 67.4347C476.611 66.9627 476.301 66.557 475.845 66.2175C475.398 65.8697 474.868 65.6048 474.256 65.4226C473.651 65.2322 473.018 65.137 472.355 65.137C471.618 65.1287 470.931 65.2487 470.294 65.4971C469.656 65.7455 469.139 66.0892 468.741 66.528C468.344 66.9668 468.145 67.4761 468.145 68.0557C468.145 68.7512 468.327 69.2852 468.691 69.6578C469.064 70.0222 469.569 70.2954 470.207 70.4776C470.844 70.6597 471.56 70.8212 472.355 70.9619C473.481 71.1524 474.525 71.4546 475.485 71.8686C476.446 72.2743 477.216 72.8167 477.795 73.4956C478.383 74.1746 478.677 75.0109 478.677 76.0045C478.677 77.0146 478.383 77.8964 477.795 78.6499C477.216 79.4034 476.446 79.9871 475.485 80.4011C474.525 80.8151 473.481 81.0221 472.355 81.0221Z" fill="#3A3A3A"/>
</g>
<g filter="url(#filter10_i_1316_1061)">
<path d="M393.327 113.979L388.881 96.5905H391.029L394.532 110.315L398.022 96.5905H399.897L403.4 110.315L406.89 96.5905H409.038L404.617 113.979H402.182L398.966 101.385L395.749 113.979H393.327ZM414.505 114.301C413.362 114.301 412.319 114.007 411.375 113.42C410.439 112.832 409.69 112.045 409.127 111.06C408.572 110.066 408.295 108.969 408.295 107.769C408.295 106.858 408.456 106.009 408.779 105.222C409.102 104.428 409.545 103.732 410.108 103.136C410.68 102.531 411.342 102.059 412.095 101.72C412.849 101.38 413.652 101.211 414.505 101.211C415.441 101.211 416.297 101.401 417.076 101.782C417.862 102.155 418.533 102.676 419.088 103.347C419.651 104.018 420.069 104.796 420.342 105.682C420.624 106.568 420.727 107.516 420.653 108.526H410.518C410.617 109.23 410.849 109.859 411.214 110.414C411.578 110.96 412.042 111.395 412.605 111.718C413.176 112.041 413.809 112.207 414.505 112.215C415.25 112.215 415.925 112.024 416.529 111.644C417.134 111.254 417.622 110.724 417.995 110.054L420.119 110.551C419.622 111.652 418.873 112.554 417.871 113.258C416.869 113.954 415.747 114.301 414.505 114.301ZM410.456 106.887H418.554C418.488 106.191 418.264 105.558 417.883 104.986C417.502 104.407 417.018 103.943 416.43 103.595C415.842 103.248 415.2 103.074 414.505 103.074C413.809 103.074 413.172 103.243 412.592 103.583C412.013 103.922 411.532 104.382 411.151 104.962C410.779 105.533 410.547 106.175 410.456 106.887ZM428.164 101.211C429.373 101.211 430.47 101.505 431.455 102.093C432.449 102.68 433.239 103.471 433.827 104.465C434.415 105.45 434.709 106.547 434.709 107.756C434.709 108.659 434.539 109.507 434.2 110.302C433.86 111.089 433.388 111.784 432.784 112.389C432.188 112.985 431.492 113.453 430.697 113.792C429.911 114.132 429.066 114.301 428.164 114.301C427.203 114.301 426.367 114.078 425.655 113.631C424.951 113.175 424.388 112.583 423.966 111.855V113.979H421.879V95.3485H423.966V103.657C424.388 102.929 424.951 102.341 425.655 101.894C426.367 101.438 427.203 101.211 428.164 101.211ZM428.139 112.265C428.959 112.265 429.704 112.062 430.375 111.656C431.045 111.25 431.579 110.708 431.977 110.029C432.374 109.342 432.573 108.584 432.573 107.756C432.573 106.912 432.37 106.15 431.964 105.471C431.559 104.784 431.02 104.241 430.35 103.844C429.679 103.438 428.942 103.235 428.139 103.235C427.327 103.235 426.62 103.438 426.015 103.844C425.419 104.25 424.955 104.796 424.624 105.483C424.301 106.17 424.14 106.928 424.14 107.756C424.14 108.592 424.301 109.354 424.624 110.041C424.955 110.72 425.423 111.263 426.028 111.668C426.632 112.066 427.336 112.265 428.139 112.265ZM439.865 114.214C439.194 114.19 438.54 114.065 437.903 113.842C437.273 113.61 436.719 113.3 436.238 112.91C435.766 112.513 435.423 112.058 435.207 111.544L436.996 110.774C437.12 111.056 437.344 111.321 437.667 111.569C437.99 111.817 438.362 112.016 438.784 112.165C439.207 112.314 439.633 112.389 440.064 112.389C440.519 112.389 440.945 112.318 441.343 112.178C441.74 112.037 442.063 111.83 442.312 111.557C442.568 111.275 442.697 110.94 442.697 110.551C442.697 110.137 442.556 109.814 442.274 109.582C442.001 109.342 441.653 109.155 441.231 109.023C440.817 108.882 440.395 108.75 439.964 108.625C439.111 108.41 438.35 108.154 437.679 107.855C437.008 107.549 436.478 107.164 436.089 106.7C435.708 106.228 435.518 105.628 435.518 104.899C435.518 104.129 435.729 103.463 436.151 102.9C436.582 102.337 437.145 101.902 437.84 101.596C438.536 101.289 439.281 101.136 440.076 101.136C441.078 101.136 441.993 101.352 442.821 101.782C443.649 102.213 444.266 102.796 444.671 103.533L442.995 104.514C442.854 104.216 442.639 103.956 442.349 103.732C442.059 103.5 441.728 103.318 441.355 103.186C440.983 103.053 440.602 102.983 440.213 102.974C439.732 102.958 439.281 103.02 438.859 103.161C438.445 103.301 438.11 103.517 437.853 103.807C437.605 104.088 437.48 104.44 437.48 104.862C437.48 105.276 437.613 105.591 437.878 105.806C438.151 106.021 438.503 106.195 438.933 106.328C439.372 106.452 439.848 106.597 440.362 106.762C441.115 107.003 441.819 107.28 442.473 107.595C443.127 107.909 443.653 108.303 444.05 108.775C444.456 109.246 444.655 109.83 444.647 110.526C444.647 111.288 444.419 111.954 443.964 112.525C443.508 113.088 442.916 113.519 442.187 113.817C441.467 114.115 440.693 114.248 439.865 114.214ZM445.86 101.559H447.946V113.979H445.86V101.559ZM446.928 99.5341C446.596 99.5341 446.319 99.4264 446.096 99.2111C445.872 98.9959 445.76 98.7268 445.76 98.4038C445.76 98.0809 445.872 97.8118 446.096 97.5965C446.319 97.3813 446.592 97.2736 446.915 97.2736C447.238 97.2736 447.511 97.3813 447.735 97.5965C447.959 97.8118 448.07 98.0809 448.07 98.4038C448.07 98.7268 447.959 98.9959 447.735 99.2111C447.52 99.4264 447.251 99.5341 446.928 99.5341ZM456.618 103.645H453.798L453.786 113.979H451.699L451.712 103.645H449.576V101.559H451.712L451.699 97.6586H453.786L453.798 101.559H456.618V103.645ZM463.249 114.301C462.106 114.301 461.063 114.007 460.119 113.42C459.183 112.832 458.434 112.045 457.871 111.06C457.316 110.066 457.039 108.969 457.039 107.769C457.039 106.858 457.2 106.009 457.523 105.222C457.846 104.428 458.289 103.732 458.852 103.136C459.423 102.531 460.086 102.059 460.839 101.72C461.593 101.38 462.396 101.211 463.249 101.211C464.184 101.211 465.041 101.401 465.819 101.782C466.606 102.155 467.277 102.676 467.832 103.347C468.395 104.018 468.813 104.796 469.086 105.682C469.367 106.568 469.471 107.516 469.396 108.526H459.262C459.361 109.23 459.593 109.859 459.957 110.414C460.322 110.96 460.785 111.395 461.348 111.718C461.92 112.041 462.553 112.207 463.249 112.215C463.994 112.215 464.669 112.024 465.273 111.644C465.877 111.254 466.366 110.724 466.739 110.054L468.862 110.551C468.366 111.652 467.616 112.554 466.614 113.258C465.612 113.954 464.491 114.301 463.249 114.301ZM459.2 106.887H467.297C467.231 106.191 467.008 105.558 466.627 104.986C466.246 104.407 465.762 103.943 465.174 103.595C464.586 103.248 463.944 103.074 463.249 103.074C462.553 103.074 461.915 103.243 461.336 103.583C460.756 103.922 460.276 104.382 459.895 104.962C459.523 105.533 459.291 106.175 459.2 106.887ZM474.581 114.214C473.91 114.19 473.256 114.065 472.618 113.842C471.989 113.61 471.434 113.3 470.954 112.91C470.482 112.513 470.139 112.058 469.923 111.544L471.712 110.774C471.836 111.056 472.06 111.321 472.382 111.569C472.705 111.817 473.078 112.016 473.5 112.165C473.923 112.314 474.349 112.389 474.78 112.389C475.235 112.389 475.661 112.318 476.059 112.178C476.456 112.037 476.779 111.83 477.028 111.557C477.284 111.275 477.413 110.94 477.413 110.551C477.413 110.137 477.272 109.814 476.99 109.582C476.717 109.342 476.369 109.155 475.947 109.023C475.533 108.882 475.111 108.75 474.68 108.625C473.827 108.41 473.066 108.154 472.395 107.855C471.724 107.549 471.194 107.164 470.805 106.7C470.424 106.228 470.234 105.628 470.234 104.899C470.234 104.129 470.445 103.463 470.867 102.9C471.298 102.337 471.861 101.902 472.556 101.596C473.252 101.289 473.997 101.136 474.792 101.136C475.794 101.136 476.709 101.352 477.537 101.782C478.365 102.213 478.982 102.796 479.387 103.533L477.711 104.514C477.57 104.216 477.355 103.956 477.065 103.732C476.775 103.5 476.444 103.318 476.071 103.186C475.699 103.053 475.318 102.983 474.929 102.974C474.448 102.958 473.997 103.02 473.575 103.161C473.161 103.301 472.825 103.517 472.569 103.807C472.32 104.088 472.196 104.44 472.196 104.862C472.196 105.276 472.329 105.591 472.594 105.806C472.867 106.021 473.219 106.195 473.649 106.328C474.088 106.452 474.564 106.597 475.078 106.762C475.831 107.003 476.535 107.28 477.189 107.595C477.843 107.909 478.369 108.303 478.766 108.775C479.172 109.246 479.371 109.83 479.363 110.526C479.363 111.288 479.135 111.954 478.679 112.525C478.224 113.088 477.632 113.519 476.903 113.817C476.183 114.115 475.409 114.248 474.581 114.214Z" fill="#3A3A3A"/>
</g>
<g filter="url(#filter11_i_1316_1061)">
<path d="M362.081 147.258L365.447 129.87H367.049L371.744 142.215L376.426 129.87H378.028L381.406 147.258H379.283L376.836 134.639L372.427 146.314H371.048L366.639 134.639L364.205 147.258H362.081ZM388.026 147.581C386.883 147.581 385.84 147.287 384.896 146.699C383.961 146.111 383.211 145.324 382.648 144.339C382.093 143.346 381.816 142.248 381.816 141.048C381.816 140.137 381.977 139.288 382.3 138.502C382.623 137.707 383.066 137.011 383.629 136.415C384.201 135.811 384.863 135.339 385.617 134.999C386.37 134.66 387.173 134.49 388.026 134.49C389.169 134.49 390.208 134.784 391.143 135.372C392.087 135.96 392.837 136.75 393.391 137.744C393.954 138.738 394.236 139.839 394.236 141.048C394.236 141.95 394.075 142.795 393.752 143.581C393.429 144.368 392.982 145.064 392.41 145.668C391.847 146.264 391.189 146.732 390.435 147.072C389.69 147.411 388.887 147.581 388.026 147.581ZM388.026 145.494C388.804 145.494 389.504 145.291 390.125 144.886C390.754 144.472 391.247 143.929 391.603 143.259C391.967 142.58 392.149 141.843 392.149 141.048C392.149 140.236 391.963 139.491 391.591 138.812C391.226 138.133 390.734 137.591 390.113 137.185C389.492 136.779 388.796 136.577 388.026 136.577C387.248 136.577 386.548 136.784 385.927 137.198C385.306 137.603 384.813 138.146 384.449 138.825C384.085 139.504 383.903 140.245 383.903 141.048C383.903 141.876 384.089 142.629 384.461 143.308C384.834 143.979 385.335 144.513 385.964 144.91C386.594 145.3 387.281 145.494 388.026 145.494ZM401.709 134.49C402.918 134.49 404.015 134.784 405 135.372C405.994 135.96 406.785 136.75 407.373 137.744C407.961 138.729 408.255 139.827 408.255 141.035C408.255 141.938 408.085 142.787 407.745 143.581C407.406 144.368 406.934 145.064 406.329 145.668C405.733 146.264 405.038 146.732 404.243 147.072C403.456 147.411 402.612 147.581 401.709 147.581C400.749 147.581 399.912 147.357 399.2 146.91C398.497 146.455 397.933 145.863 397.511 145.134V147.258H395.425V128.628H397.511V136.937C397.933 136.208 398.497 135.62 399.2 135.173C399.912 134.718 400.749 134.49 401.709 134.49ZM401.684 145.544C402.504 145.544 403.249 145.341 403.92 144.935C404.591 144.53 405.125 143.987 405.522 143.308C405.92 142.621 406.118 141.863 406.118 141.035C406.118 140.191 405.915 139.429 405.51 138.75C405.104 138.063 404.566 137.521 403.895 137.123C403.224 136.717 402.487 136.515 401.684 136.515C400.873 136.515 400.165 136.717 399.561 137.123C398.964 137.529 398.501 138.075 398.169 138.763C397.847 139.45 397.685 140.207 397.685 141.035C397.685 141.872 397.847 142.633 398.169 143.321C398.501 144 398.968 144.542 399.573 144.948C400.177 145.345 400.881 145.544 401.684 145.544ZM409.404 134.838H411.491V147.258H409.404V134.838ZM410.472 132.813C410.141 132.813 409.863 132.706 409.64 132.49C409.416 132.275 409.305 132.006 409.305 131.683C409.305 131.36 409.416 131.091 409.64 130.876C409.863 130.661 410.137 130.553 410.46 130.553C410.783 130.553 411.056 130.661 411.279 130.876C411.503 131.091 411.615 131.36 411.615 131.683C411.615 132.006 411.503 132.275 411.279 132.49C411.064 132.706 410.795 132.813 410.472 132.813ZM413.801 147.258V128.628H415.888V147.258H413.801ZM423.47 147.581C422.327 147.581 421.284 147.287 420.34 146.699C419.404 146.111 418.655 145.324 418.092 144.339C417.537 143.346 417.26 142.248 417.26 141.048C417.26 140.137 417.421 139.288 417.744 138.502C418.067 137.707 418.51 137.011 419.073 136.415C419.644 135.811 420.307 135.339 421.06 134.999C421.814 134.66 422.617 134.49 423.47 134.49C424.405 134.49 425.262 134.68 426.041 135.061C426.827 135.434 427.498 135.956 428.053 136.626C428.616 137.297 429.034 138.075 429.307 138.961C429.589 139.847 429.692 140.795 429.617 141.805H419.483C419.582 142.509 419.814 143.139 420.178 143.693C420.543 144.24 421.006 144.674 421.569 144.997C422.141 145.32 422.774 145.486 423.47 145.494C424.215 145.494 424.89 145.304 425.494 144.923C426.098 144.534 426.587 144.004 426.96 143.333L429.083 143.83C428.587 144.931 427.837 145.834 426.835 146.537C425.834 147.233 424.712 147.581 423.47 147.581ZM419.421 140.166H427.519C427.452 139.47 427.229 138.837 426.848 138.266C426.467 137.686 425.983 137.222 425.395 136.875C424.807 136.527 424.165 136.353 423.47 136.353C422.774 136.353 422.137 136.523 421.557 136.862C420.977 137.202 420.497 137.661 420.116 138.241C419.744 138.812 419.512 139.454 419.421 140.166ZM442.182 129.87H444.704L451.025 147.258H448.815L447.523 143.706H439.363L438.084 147.258H435.86L442.182 129.87ZM440.133 141.619H446.753L443.437 132.54L440.133 141.619ZM454.364 153.468H452.277V134.838H454.364V136.962C454.786 136.233 455.349 135.645 456.053 135.198C456.757 134.743 457.593 134.515 458.562 134.515C459.464 134.515 460.309 134.685 461.095 135.024C461.89 135.364 462.586 135.836 463.182 136.44C463.778 137.036 464.246 137.728 464.585 138.514C464.925 139.301 465.095 140.145 465.095 141.048C465.095 141.95 464.925 142.799 464.585 143.594C464.246 144.389 463.778 145.088 463.182 145.693C462.586 146.289 461.89 146.757 461.095 147.096C460.309 147.436 459.464 147.606 458.562 147.606C457.593 147.606 456.757 147.382 456.053 146.935C455.349 146.479 454.786 145.887 454.364 145.159V153.468ZM458.537 136.539C457.734 136.539 457.03 136.742 456.425 137.148C455.821 137.554 455.353 138.096 455.022 138.775C454.699 139.454 454.538 140.212 454.538 141.048C454.538 141.876 454.699 142.633 455.022 143.321C455.353 144.008 455.817 144.554 456.413 144.96C457.018 145.366 457.725 145.569 458.537 145.569C459.34 145.569 460.077 145.37 460.748 144.973C461.418 144.567 461.957 144.024 462.362 143.346C462.768 142.658 462.971 141.892 462.971 141.048C462.971 140.22 462.772 139.466 462.375 138.787C461.977 138.1 461.443 137.554 460.772 137.148C460.102 136.742 459.357 136.539 458.537 136.539ZM468.513 153.468H466.426V134.838H468.513V136.962C468.935 136.233 469.498 135.645 470.202 135.198C470.906 134.743 471.742 134.515 472.711 134.515C473.613 134.515 474.458 134.685 475.244 135.024C476.039 135.364 476.735 135.836 477.331 136.44C477.927 137.036 478.395 137.728 478.735 138.514C479.074 139.301 479.244 140.145 479.244 141.048C479.244 141.95 479.074 142.799 478.735 143.594C478.395 144.389 477.927 145.088 477.331 145.693C476.735 146.289 476.039 146.757 475.244 147.096C474.458 147.436 473.613 147.606 472.711 147.606C471.742 147.606 470.906 147.382 470.202 146.935C469.498 146.479 468.935 145.887 468.513 145.159V153.468ZM472.686 136.539C471.883 136.539 471.179 136.742 470.575 137.148C469.97 137.554 469.502 138.096 469.171 138.775C468.848 139.454 468.687 140.212 468.687 141.048C468.687 141.876 468.848 142.633 469.171 143.321C469.502 144.008 469.966 144.554 470.562 144.96C471.167 145.366 471.875 145.569 472.686 145.569C473.489 145.569 474.226 145.37 474.897 144.973C475.567 144.567 476.106 144.024 476.511 143.346C476.917 142.658 477.12 141.892 477.12 141.048C477.12 140.22 476.921 139.466 476.524 138.787C476.126 138.1 475.592 137.554 474.922 137.148C474.251 136.742 473.506 136.539 472.686 136.539Z" fill="#3A3A3A"/>
</g>
</g>
<rect x="0.5" y="1.19922" width="479" height="142" stroke="white"/>
</g>
<defs>
<filter id="filter0_i_1316_1061" x="0" y="0.699219" width="480" height="143" filterUnits="userSpaceOnUse" color-interpolation-filters="sRGB">
<feFlood flood-opacity="0" result="BackgroundImageFix"/>
<feBlend mode="normal" in="SourceGraphic" in2="BackgroundImageFix" result="shape"/>
<feColorMatrix in="SourceAlpha" type="matrix" values="0 0 0 0 0 0 0 0 0 0 0 0 0 0 0 0 0 0 127 0" result="hardAlpha"/>
<feMorphology radius="40" operator="erode" in="SourceAlpha" result="effect1_innerShadow_1316_1061"/>
<feOffset/>
<feGaussianBlur stdDeviation="40"/>
<feComposite in2="hardAlpha" operator="arithmetic" k2="-1" k3="1"/>
<feColorMatrix type="matrix" values="0 0 0 0 1 0 0 0 0 1 0 0 0 0 1 0 0 0 1 0"/>
<feBlend mode="normal" in2="shape" result="effect1_innerShadow_1316_1061"/>
</filter>
<filter id="filter1_i_1316_1061" x="0.993164" y="-4.49219" width="104.746" height="18.9531" filterUnits="userSpaceOnUse" color-interpolation-filters="sRGB">
<feFlood flood-opacity="0" result="BackgroundImageFix"/>
<feBlend mode="normal" in="SourceGraphic" in2="BackgroundImageFix" result="shape"/>
<feColorMatrix in="SourceAlpha" type="matrix" values="0 0 0 0 0 0 0 0 0 0 0 0 0 0 0 0 0 0 127 0" result="hardAlpha"/>
<feOffset/>
<feGaussianBlur stdDeviation="11.2135"/>
<feComposite in2="hardAlpha" operator="arithmetic" k2="-1" k3="1"/>
<feColorMatrix type="matrix" values="0 0 0 0 0 0 0 0 0 0.466667 0 0 0 0 1 0 0 0 0.2 0"/>
<feBlend mode="normal" in2="shape" result="effect1_innerShadow_1316_1061"/>
</filter>
<filter id="filter2_i_1316_1061" x="1.49023" y="28.7891" width="64.8584" height="18.9531" filterUnits="userSpaceOnUse" color-interpolation-filters="sRGB">
<feFlood flood-opacity="0" result="BackgroundImageFix"/>
<feBlend mode="normal" in="SourceGraphic" in2="BackgroundImageFix" result="shape"/>
<feColorMatrix in="SourceAlpha" type="matrix" values="0 0 0 0 0 0 0 0 0 0 0 0 0 0 0 0 0 0 127 0" result="hardAlpha"/>
<feOffset/>
<feGaussianBlur stdDeviation="11.2135"/>
<feComposite in2="hardAlpha" operator="arithmetic" k2="-1" k3="1"/>
<feColorMatrix type="matrix" values="0 0 0 0 0 0 0 0 0 0.466667 0 0 0 0 1 0 0 0 0.2 0"/>
<feBlend mode="normal" in2="shape" result="effect1_innerShadow_1316_1061"/>
</filter>
<filter id="filter3_i_1316_1061" x="1.49023" y="62.0684" width="52.7471" height="24.8418" filterUnits="userSpaceOnUse" color-interpolation-filters="sRGB">
<feFlood flood-opacity="0" result="BackgroundImageFix"/>
<feBlend mode="normal" in="SourceGraphic" in2="BackgroundImageFix" result="shape"/>
<feColorMatrix in="SourceAlpha" type="matrix" values="0 0 0 0 0 0 0 0 0 0 0 0 0 0 0 0 0 0 127 0" result="hardAlpha"/>
<feOffset/>
<feGaussianBlur stdDeviation="11.2135"/>
<feComposite in2="hardAlpha" operator="arithmetic" k2="-1" k3="1"/>
<feColorMatrix type="matrix" values="0 0 0 0 0 0 0 0 0 0.466667 0 0 0 0 1 0 0 0 0.2 0"/>
<feBlend mode="normal" in2="shape" result="effect1_innerShadow_1316_1061"/>
</filter>
<filter id="filter4_i_1316_1061" x="1.49023" y="96.5898" width="77.5273" height="23.5996" filterUnits="userSpaceOnUse" color-interpolation-filters="sRGB">
<feFlood flood-opacity="0" result="BackgroundImageFix"/>
<feBlend mode="normal" in="SourceGraphic" in2="BackgroundImageFix" result="shape"/>
<feColorMatrix in="SourceAlpha" type="matrix" values="0 0 0 0 0 0 0 0 0 0 0 0 0 0 0 0 0 0 127 0" result="hardAlpha"/>
<feOffset/>
<feGaussianBlur stdDeviation="11.2135"/>
<feComposite in2="hardAlpha" operator="arithmetic" k2="-1" k3="1"/>
<feColorMatrix type="matrix" values="0 0 0 0 0 0 0 0 0 0.466667 0 0 0 0 1 0 0 0 0.2 0"/>
<feBlend mode="normal" in2="shape" result="effect1_innerShadow_1316_1061"/>
</filter>
<filter id="filter5_i_1316_1061" x="0.993164" y="128.629" width="131.038" height="24.8418" filterUnits="userSpaceOnUse" color-interpolation-filters="sRGB">
<feFlood flood-opacity="0" result="BackgroundImageFix"/>
<feBlend mode="normal" in="SourceGraphic" in2="BackgroundImageFix" result="shape"/>
<feColorMatrix in="SourceAlpha" type="matrix" values="0 0 0 0 0 0 0 0 0 0 0 0 0 0 0 0 0 0 127 0" result="hardAlpha"/>
<feOffset/>
<feGaussianBlur stdDeviation="11.2135"/>
<feComposite in2="hardAlpha" operator="arithmetic" k2="-1" k3="1"/>
<feColorMatrix type="matrix" values="0 0 0 0 0 0 0 0 0 0.466667 0 0 0 0 1 0 0 0 0.2 0"/>
<feBlend mode="normal" in2="shape" result="effect1_innerShadow_1316_1061"/>
</filter>
<filter id="filter6_i_1316_1061" x="231" y="44.1992" width="56" height="56" filterUnits="userSpaceOnUse" color-interpolation-filters="sRGB">
<feFlood flood-opacity="0" result="BackgroundImageFix"/>
<feBlend mode="normal" in="SourceGraphic" in2="BackgroundImageFix" result="shape"/>
<feColorMatrix in="SourceAlpha" type="matrix" values="0 0 0 0 0 0 0 0 0 0 0 0 0 0 0 0 0 0 127 0" result="hardAlpha"/>
<feOffset/>
<feGaussianBlur stdDeviation="13.5429"/>
<feComposite in2="hardAlpha" operator="arithmetic" k2="-1" k3="1"/>
<feColorMatrix type="matrix" values="0 0 0 0 0 0 0 0 0 0.466667 0 0 0 0 1 0 0 0 0.6 0"/>
<feBlend mode="normal" in2="shape" result="effect1_innerShadow_1316_1061"/>
</filter>
<filter id="filter7_i_1316_1061" x="379.518" y="-4.49219" width="99.8701" height="18.9531" filterUnits="userSpaceOnUse" color-interpolation-filters="sRGB">
<feFlood flood-opacity="0" result="BackgroundImageFix"/>
<feBlend mode="normal" in="SourceGraphic" in2="BackgroundImageFix" result="shape"/>
<feColorMatrix in="SourceAlpha" type="matrix" values="0 0 0 0 0 0 0 0 0 0 0 0 0 0 0 0 0 0 127 0" result="hardAlpha"/>
<feOffset/>
<feGaussianBlur stdDeviation="11.2135"/>
<feComposite in2="hardAlpha" operator="arithmetic" k2="-1" k3="1"/>
<feColorMatrix type="matrix" values="0 0 0 0 0 0 0 0 0 0.466667 0 0 0 0 1 0 0 0 0.2 0"/>
<feBlend mode="normal" in2="shape" result="effect1_innerShadow_1316_1061"/>
</filter>
<filter id="filter8_i_1316_1061" x="401.859" y="30.0293" width="77.5283" height="23.5996" filterUnits="userSpaceOnUse" color-interpolation-filters="sRGB">
<feFlood flood-opacity="0" result="BackgroundImageFix"/>
<feBlend mode="normal" in="SourceGraphic" in2="BackgroundImageFix" result="shape"/>
<feColorMatrix in="SourceAlpha" type="matrix" values="0 0 0 0 0 0 0 0 0 0 0 0 0 0 0 0 0 0 127 0" result="hardAlpha"/>
<feOffset/>
<feGaussianBlur stdDeviation="11.2135"/>
<feComposite in2="hardAlpha" operator="arithmetic" k2="-1" k3="1"/>
<feColorMatrix type="matrix" values="0 0 0 0 0 0 0 0 0 0.466667 0 0 0 0 1 0 0 0 0.2 0"/>
<feBlend mode="normal" in2="shape" result="effect1_innerShadow_1316_1061"/>
</filter>
<filter id="filter9_i_1316_1061" x="427.419" y="62.9883" width="51.333" height="18.0332" filterUnits="userSpaceOnUse" color-interpolation-filters="sRGB">
<feFlood flood-opacity="0" result="BackgroundImageFix"/>
<feBlend mode="normal" in="SourceGraphic" in2="BackgroundImageFix" result="shape"/>
<feColorMatrix in="SourceAlpha" type="matrix" values="0 0 0 0 0 0 0 0 0 0 0 0 0 0 0 0 0 0 127 0" result="hardAlpha"/>
<feOffset/>
<feGaussianBlur stdDeviation="11.2135"/>
<feComposite in2="hardAlpha" operator="arithmetic" k2="-1" k3="1"/>
<feColorMatrix type="matrix" values="0 0 0 0 0 0 0 0 0 0.466667 0 0 0 0 1 0 0 0 0.2 0"/>
<feBlend mode="normal" in2="shape" result="effect1_innerShadow_1316_1061"/>
</filter>
<filter id="filter10_i_1316_1061" x="388.881" y="95.3477" width="90.5068" height="18.9531" filterUnits="userSpaceOnUse" color-interpolation-filters="sRGB">
<feFlood flood-opacity="0" result="BackgroundImageFix"/>
<feBlend mode="normal" in="SourceGraphic" in2="BackgroundImageFix" result="shape"/>
<feColorMatrix in="SourceAlpha" type="matrix" values="0 0 0 0 0 0 0 0 0 0 0 0 0 0 0 0 0 0 127 0" result="hardAlpha"/>
<feOffset/>
<feGaussianBlur stdDeviation="11.2135"/>
<feComposite in2="hardAlpha" operator="arithmetic" k2="-1" k3="1"/>
<feColorMatrix type="matrix" values="0 0 0 0 0 0 0 0 0 0.466667 0 0 0 0 1 0 0 0 0.2 0"/>
<feBlend mode="normal" in2="shape" result="effect1_innerShadow_1316_1061"/>
</filter>
<filter id="filter11_i_1316_1061" x="362.081" y="128.627" width="117.163" height="24.8418" filterUnits="userSpaceOnUse" color-interpolation-filters="sRGB">
<feFlood flood-opacity="0" result="BackgroundImageFix"/>
<feBlend mode="normal" in="SourceGraphic" in2="BackgroundImageFix" result="shape"/>
<feColorMatrix in="SourceAlpha" type="matrix" values="0 0 0 0 0 0 0 0 0 0 0 0 0 0 0 0 0 0 127 0" result="hardAlpha"/>
<feOffset/>
<feGaussianBlur stdDeviation="11.2135"/>
<feComposite in2="hardAlpha" operator="arithmetic" k2="-1" k3="1"/>
<feColorMatrix type="matrix" values="0 0 0 0 0 0 0 0 0 0.466667 0 0 0 0 1 0 0 0 0.2 0"/>
<feBlend mode="normal" in2="shape" result="effect1_innerShadow_1316_1061"/>
</filter>
<clipPath id="clip0_1316_1061">
<rect y="0.699219" width="480" height="143" fill="white"/>
</clipPath>
</defs>
</svg>
