<svg width="466" height="106" viewBox="0 0 466 106" fill="none" xmlns="http://www.w3.org/2000/svg">
<g filter="url(#filter0_d_1384_173)">
<path d="M8.60156 30.4331C8.60156 19.0371 17.8398 9.79883 29.2358 9.79883H436.763C448.159 9.79883 457.397 19.0371 457.397 30.4331V81.2446C457.397 92.6406 448.159 101.879 436.763 101.879H29.2359C17.8399 101.879 8.60156 92.6406 8.60156 81.2446V30.4331Z" fill="white" shape-rendering="crispEdges"/>
<path d="M29.2358 10.4436H436.763C447.803 10.4436 456.752 19.3932 456.752 30.4331V81.2446C456.752 92.2845 447.803 101.234 436.763 101.234H29.2359C18.196 101.234 9.24638 92.2845 9.24638 81.2446V30.4331C9.24638 19.3932 18.196 10.4436 29.2358 10.4436Z" stroke="#E4E4E7" stroke-width="1.28964" shape-rendering="crispEdges"/>
<path d="M24.0781 47.8816C24.0781 42.1836 28.6973 37.5645 34.3953 37.5645H49.871C55.569 37.5645 60.1881 42.1836 60.1881 47.8816V63.3573C60.1881 69.0553 55.569 73.6744 49.871 73.6744H34.3953C28.6973 73.6744 24.0781 69.0553 24.0781 63.3573V47.8816Z" fill="#2C2C2C"/>
<path d="M32.6328 64.883H50.6878V46.828H32.6328V64.883Z" fill="black"/>
<path d="M72.3541 50.2754V31.517H79.3885C80.8296 31.517 82.0386 31.7856 83.0156 32.323C83.9987 32.8603 84.7407 33.5992 85.2414 34.5396C85.7482 35.4738 86.0016 36.5363 86.0016 37.727C86.0016 38.93 85.7482 39.9986 85.2414 40.9328C84.7345 41.8671 83.9865 42.6029 82.9973 43.1402C82.0081 43.6715 80.7899 43.9371 79.3427 43.9371H74.6806V41.1435H78.8847C79.7274 41.1435 80.4174 40.9969 80.9548 40.7038C81.4921 40.4107 81.889 40.0077 82.1455 39.4948C82.4081 38.9819 82.5393 38.3926 82.5393 37.727C82.5393 37.0614 82.4081 36.4752 82.1455 35.9684C81.889 35.4616 81.4891 35.0678 80.9456 34.7869C80.4083 34.4999 79.7152 34.3564 78.8664 34.3564H75.7522V50.2754H72.3541ZM88.8067 50.2754V36.2066H92.0216V38.5514H92.1682C92.4246 37.7392 92.8643 37.1133 93.4871 36.6737C94.116 36.2279 94.8335 36.0051 95.6396 36.0051C95.8227 36.0051 96.0273 36.0142 96.2532 36.0325C96.4853 36.0448 96.6776 36.0661 96.8303 36.0967V39.1467C96.6898 39.0979 96.467 39.0551 96.1616 39.0185C95.8624 38.9758 95.5724 38.9544 95.2915 38.9544C94.687 38.9544 94.1435 39.0857 93.6611 39.3482C93.1848 39.6047 92.8093 39.9619 92.5345 40.4199C92.2597 40.8779 92.1224 41.406 92.1224 42.0045V50.2754H88.8067ZM104.591 50.5502C103.217 50.5502 102.026 50.2479 101.018 49.6434C100.011 49.0389 99.2293 48.1932 98.6736 47.1062C98.124 46.0193 97.8493 44.7492 97.8493 43.2959C97.8493 41.8426 98.124 40.5695 98.6736 39.4765C99.2293 38.3835 100.011 37.5347 101.018 36.9302C102.026 36.3256 103.217 36.0234 104.591 36.0234C105.964 36.0234 107.155 36.3256 108.163 36.9302C109.17 37.5347 109.949 38.3835 110.498 39.4765C111.054 40.5695 111.332 41.8426 111.332 43.2959C111.332 44.7492 111.054 46.0193 110.498 47.1062C109.949 48.1932 109.17 49.0389 108.163 49.6434C107.155 50.2479 105.964 50.5502 104.591 50.5502ZM104.609 47.8939C105.354 47.8939 105.977 47.6894 106.477 47.2803C106.978 46.865 107.351 46.3094 107.595 45.6133C107.845 44.9171 107.97 44.1417 107.97 43.2868C107.97 42.4258 107.845 41.6472 107.595 40.9511C107.351 40.2489 106.978 39.6902 106.477 39.275C105.977 38.8597 105.354 38.6521 104.609 38.6521C103.846 38.6521 103.211 38.8597 102.704 39.275C102.203 39.6902 101.827 40.2489 101.577 40.9511C101.333 41.6472 101.211 42.4258 101.211 43.2868C101.211 44.1417 101.333 44.9171 101.577 45.6133C101.827 46.3094 102.203 46.865 102.704 47.2803C103.211 47.6894 103.846 47.8939 104.609 47.8939ZM114.146 36.2066H117.462V51.0814C117.462 52.0951 117.269 52.9316 116.885 53.5911C116.5 54.2506 115.944 54.7421 115.218 55.0658C114.491 55.3894 113.609 55.5512 112.571 55.5512C112.449 55.5512 112.336 55.5481 112.232 55.542C112.128 55.542 112.015 55.539 111.893 55.5329V52.8309C111.984 52.837 112.067 52.84 112.14 52.84C112.213 52.8461 112.29 52.8492 112.369 52.8492C113.004 52.8492 113.459 52.6935 113.734 52.3821C114.009 52.0767 114.146 51.6279 114.146 51.0356V36.2066ZM115.795 34.2098C115.264 34.2098 114.809 34.0358 114.43 33.6877C114.058 33.3336 113.871 32.9092 113.871 32.4146C113.871 31.9139 114.058 31.4895 114.43 31.1414C114.809 30.7873 115.264 30.6102 115.795 30.6102C116.32 30.6102 116.769 30.7873 117.141 31.1414C117.52 31.4895 117.709 31.9139 117.709 32.4146C117.709 32.9092 117.52 33.3336 117.141 33.6877C116.769 34.0358 116.32 34.2098 115.795 34.2098ZM127.1 50.5502C125.689 50.5502 124.471 50.2571 123.445 49.6709C122.425 49.0786 121.641 48.242 121.091 47.1612C120.542 46.0743 120.267 44.795 120.267 43.3234C120.267 41.8762 120.542 40.6061 121.091 39.5131C121.647 38.414 122.422 37.5591 123.418 36.9485C124.413 36.3317 125.582 36.0234 126.926 36.0234C127.793 36.0234 128.611 36.1638 129.38 36.4447C130.156 36.7195 130.84 37.1469 131.432 37.727C132.031 38.3071 132.501 39.046 132.843 39.9436C133.185 40.8351 133.356 41.8976 133.356 43.1311V44.1478H121.824V41.9129H130.177C130.171 41.2778 130.034 40.713 129.765 40.2184C129.496 39.7177 129.121 39.3238 128.639 39.0368C128.162 38.7498 127.607 38.6063 126.972 38.6063C126.294 38.6063 125.698 38.7712 125.185 39.1009C124.673 39.4246 124.273 39.852 123.986 40.3833C123.705 40.9084 123.561 41.4854 123.555 42.1144V44.0653C123.555 44.8836 123.705 45.5858 124.004 46.172C124.303 46.7521 124.721 47.1978 125.259 47.5093C125.796 47.8146 126.425 47.9672 127.146 47.9672C127.628 47.9672 128.065 47.9001 128.455 47.7657C128.846 47.6253 129.185 47.4207 129.472 47.152C129.759 46.8834 129.976 46.5506 130.122 46.1537L133.218 46.5017C133.023 47.32 132.65 48.0344 132.101 48.645C131.557 49.2495 130.861 49.7197 130.012 50.0556C129.164 50.3853 128.193 50.5502 127.1 50.5502ZM142.297 50.5502C140.893 50.5502 139.687 50.2418 138.68 49.6251C137.678 49.0083 136.906 48.1565 136.362 47.0696C135.825 45.9766 135.556 44.7187 135.556 43.2959C135.556 41.8671 135.831 40.6061 136.381 39.5131C136.93 38.414 137.706 37.5591 138.707 36.9485C139.715 36.3317 140.905 36.0234 142.279 36.0234C143.421 36.0234 144.432 36.234 145.311 36.6554C146.196 37.0706 146.902 37.6599 147.427 38.4231C147.952 39.1803 148.251 40.0657 148.324 41.0794H145.155C145.027 40.4016 144.722 39.8367 144.239 39.3849C143.763 38.9269 143.125 38.6979 142.325 38.6979C141.647 38.6979 141.052 38.8811 140.539 39.2475C140.026 39.6078 139.626 40.1268 139.339 40.8046C139.058 41.4824 138.918 42.2945 138.918 43.241C138.918 44.1997 139.058 45.024 139.339 45.714C139.62 46.3979 140.014 46.9261 140.521 47.2986C141.033 47.665 141.635 47.8482 142.325 47.8482C142.813 47.8482 143.25 47.7566 143.635 47.5734C144.026 47.3841 144.352 47.1123 144.615 46.7582C144.877 46.404 145.058 45.9735 145.155 45.4667H148.324C148.245 46.462 147.952 47.3444 147.445 48.1138C146.938 48.8771 146.248 49.4755 145.375 49.909C144.502 50.3365 143.476 50.5502 142.297 50.5502ZM158.072 36.2066V38.7712H149.985V36.2066H158.072ZM151.981 32.8359H155.297V46.0438C155.297 46.4895 155.364 46.8315 155.498 47.0696C155.639 47.3016 155.822 47.4604 156.048 47.5459C156.274 47.6314 156.524 47.6741 156.799 47.6741C157.007 47.6741 157.196 47.6589 157.367 47.6283C157.544 47.5978 157.678 47.5703 157.77 47.5459L158.329 50.138C158.152 50.1991 157.898 50.2662 157.568 50.3395C157.245 50.4128 156.848 50.4555 156.378 50.4677C155.547 50.4922 154.799 50.367 154.134 50.0922C153.468 49.8113 152.94 49.3778 152.549 48.7916C152.164 48.2054 151.975 47.4726 151.981 46.5933V32.8359ZM167.243 50.2754V36.2066H170.559V50.2754H167.243ZM168.91 34.2098C168.385 34.2098 167.933 34.0358 167.555 33.6877C167.176 33.3336 166.987 32.9092 166.987 32.4146C166.987 31.9139 167.176 31.4895 167.555 31.1414C167.933 30.7873 168.385 30.6102 168.91 30.6102C169.441 30.6102 169.893 30.7873 170.266 31.1414C170.644 31.4895 170.834 31.9139 170.834 32.4146C170.834 32.9092 170.644 33.3336 170.266 33.6877C169.893 34.0358 169.441 34.2098 168.91 34.2098ZM177.284 42.0319V50.2754H173.968V36.2066H177.138V38.5972H177.302C177.626 37.8095 178.142 37.1836 178.85 36.7195C179.565 36.2554 180.447 36.0234 181.497 36.0234C182.468 36.0234 183.314 36.231 184.035 36.6462C184.761 37.0614 185.323 37.6629 185.72 38.4506C186.123 39.2383 186.321 40.194 186.315 41.3175V50.2754H183V41.8304C183 40.8901 182.755 40.1543 182.267 39.623C181.784 39.0918 181.116 38.8262 180.261 38.8262C179.681 38.8262 179.165 38.9544 178.713 39.2108C178.267 39.4612 177.916 39.8245 177.66 40.3008C177.409 40.7771 177.284 41.3541 177.284 42.0319ZM196.084 50.2754V36.2066H199.299V38.5514H199.445C199.702 37.7392 200.141 37.1133 200.764 36.6737C201.393 36.2279 202.111 36.0051 202.917 36.0051C203.1 36.0051 203.304 36.0142 203.53 36.0325C203.762 36.0448 203.955 36.0661 204.107 36.0967V39.1467C203.967 39.0979 203.744 39.0551 203.439 39.0185C203.139 38.9758 202.849 38.9544 202.569 38.9544C201.964 38.9544 201.421 39.0857 200.938 39.3482C200.462 39.6047 200.086 39.9619 199.812 40.4199C199.537 40.8779 199.399 41.406 199.399 42.0045V50.2754H196.084ZM211.959 50.5502C210.549 50.5502 209.33 50.2571 208.305 49.6709C207.285 49.0786 206.5 48.242 205.951 47.1612C205.401 46.0743 205.126 44.795 205.126 43.3234C205.126 41.8762 205.401 40.6061 205.951 39.5131C206.506 38.414 207.282 37.5591 208.277 36.9485C209.272 36.3317 210.442 36.0234 211.785 36.0234C212.652 36.0234 213.471 36.1638 214.24 36.4447C215.015 36.7195 215.699 37.1469 216.292 37.727C216.89 38.3071 217.36 39.046 217.702 39.9436C218.044 40.8351 218.215 41.8976 218.215 43.1311V44.1478H206.683V41.9129H215.037C215.031 41.2778 214.893 40.713 214.625 40.2184C214.356 39.7177 213.98 39.3238 213.498 39.0368C213.022 38.7498 212.466 38.6063 211.831 38.6063C211.153 38.6063 210.558 38.7712 210.045 39.1009C209.532 39.4246 209.132 39.852 208.845 40.3833C208.564 40.9084 208.421 41.4854 208.415 42.1144V44.0653C208.415 44.8836 208.564 45.5858 208.863 46.172C209.163 46.7521 209.581 47.1978 210.118 47.5093C210.656 47.8146 211.284 47.9672 212.005 47.9672C212.487 47.9672 212.924 47.9001 213.315 47.7657C213.706 47.6253 214.045 47.4207 214.332 47.152C214.618 46.8834 214.835 46.5506 214.982 46.1537L218.078 46.5017C217.882 47.32 217.51 48.0344 216.96 48.645C216.417 49.2495 215.721 49.7197 214.872 50.0556C214.023 50.3853 213.052 50.5502 211.959 50.5502ZM233.184 36.2066L228.174 50.2754H224.51L219.5 36.2066H223.035L226.268 46.6574H226.415L229.657 36.2066H233.184ZM235.478 50.2754V36.2066H238.794V50.2754H235.478ZM237.145 34.2098C236.62 34.2098 236.168 34.0358 235.79 33.6877C235.411 33.3336 235.222 32.9092 235.222 32.4146C235.222 31.9139 235.411 31.4895 235.79 31.1414C236.168 30.7873 236.62 30.6102 237.145 30.6102C237.676 30.6102 238.128 30.7873 238.501 31.1414C238.879 31.4895 239.069 31.9139 239.069 32.4146C239.069 32.9092 238.879 33.3336 238.501 33.6877C238.128 34.0358 237.676 34.2098 237.145 34.2098ZM248.432 50.5502C247.021 50.5502 245.803 50.2571 244.777 49.6709C243.758 49.0786 242.973 48.242 242.423 47.1612C241.874 46.0743 241.599 44.795 241.599 43.3234C241.599 41.8762 241.874 40.6061 242.423 39.5131C242.979 38.414 243.755 37.5591 244.75 36.9485C245.745 36.3317 246.915 36.0234 248.258 36.0234C249.125 36.0234 249.943 36.1638 250.713 36.4447C251.488 36.7195 252.172 37.1469 252.764 37.727C253.363 38.3071 253.833 39.046 254.175 39.9436C254.517 40.8351 254.688 41.8976 254.688 43.1311V44.1478H243.156V41.9129H251.509C251.503 41.2778 251.366 40.713 251.097 40.2184C250.829 39.7177 250.453 39.3238 249.971 39.0368C249.494 38.7498 248.939 38.6063 248.304 38.6063C247.626 38.6063 247.031 38.7712 246.518 39.1009C246.005 39.4246 245.605 39.852 245.318 40.3833C245.037 40.9084 244.893 41.4854 244.887 42.1144V44.0653C244.887 44.8836 245.037 45.5858 245.336 46.172C245.635 46.7521 246.054 47.1978 246.591 47.5093C247.128 47.8146 247.757 47.9672 248.478 47.9672C248.96 47.9672 249.397 47.9001 249.787 47.7657C250.178 47.6253 250.517 47.4207 250.804 47.152C251.091 46.8834 251.308 46.5506 251.455 46.1537L254.55 46.5017C254.355 47.32 253.982 48.0344 253.433 48.645C252.889 49.2495 252.193 49.7197 251.345 50.0556C250.496 50.3853 249.525 50.5502 248.432 50.5502ZM260.321 50.2754L256.346 36.2066H259.725L262.198 46.0987H262.327L264.855 36.2066H268.198L270.726 46.0438H270.863L273.3 36.2066H276.689L272.704 50.2754H269.251L266.613 40.7679H266.421L263.783 50.2754H260.321Z" fill="#09090B"/>
<path d="M405.568 36.3962V45.7754H403.869V38.0494H403.814L401.621 39.4508V37.8937L403.952 36.3962H405.568ZM410.578 45.899C410.026 45.899 409.531 45.7571 409.095 45.4731C408.658 45.1892 408.313 44.777 408.06 44.2366C407.806 43.6962 407.68 43.0398 407.68 42.2673C407.68 41.4857 407.808 40.8263 408.064 40.2889C408.324 39.7485 408.673 39.3409 409.113 39.0661C409.553 38.7883 410.043 38.6494 410.583 38.6494C410.995 38.6494 411.334 38.7196 411.6 38.8601C411.865 38.9974 412.076 39.1638 412.232 39.3592C412.387 39.5516 412.508 39.7332 412.594 39.9042H412.662V36.3962H414.325V45.7754H412.694V44.6671H412.594C412.508 44.8381 412.384 45.0197 412.223 45.2121C412.061 45.4014 411.847 45.5632 411.581 45.6975C411.316 45.8319 410.982 45.899 410.578 45.899ZM411.041 44.5389C411.392 44.5389 411.691 44.4442 411.939 44.2549C412.186 44.0626 412.374 43.7954 412.502 43.4535C412.63 43.1115 412.694 42.7131 412.694 42.2582C412.694 41.8033 412.63 41.4079 412.502 41.072C412.377 40.7362 412.191 40.4752 411.943 40.2889C411.699 40.1027 411.398 40.0096 411.041 40.0096C410.672 40.0096 410.363 40.1057 410.116 40.2981C409.869 40.4904 409.682 40.756 409.557 41.0949C409.432 41.4338 409.369 41.8216 409.369 42.2582C409.369 42.6978 409.432 43.0902 409.557 43.4352C409.685 43.7771 409.873 44.0473 410.121 44.2458C410.371 44.4412 410.678 44.5389 411.041 44.5389ZM421.314 45.9174C420.869 45.9174 420.467 45.838 420.11 45.6792C419.756 45.5174 419.475 45.2793 419.267 44.9648C419.063 44.6503 418.96 44.2626 418.96 43.8015C418.96 43.4046 419.034 43.0764 419.18 42.8169C419.327 42.5574 419.527 42.3498 419.78 42.1941C420.034 42.0384 420.319 41.9208 420.637 41.8414C420.957 41.759 421.288 41.6995 421.63 41.6628C422.043 41.6201 422.377 41.5819 422.633 41.5483C422.89 41.5117 423.076 41.4567 423.192 41.3835C423.311 41.3071 423.371 41.1896 423.371 41.0308V41.0033C423.371 40.6583 423.268 40.3912 423.064 40.2019C422.859 40.0126 422.565 39.918 422.18 39.918C421.774 39.918 421.452 40.0065 421.214 40.1836C420.979 40.3607 420.82 40.5698 420.737 40.811L419.189 40.5912C419.312 40.1637 419.513 39.8065 419.794 39.5195C420.075 39.2295 420.418 39.0127 420.824 38.8692C421.23 38.7227 421.679 38.6494 422.171 38.6494C422.51 38.6494 422.847 38.6891 423.183 38.7685C423.519 38.8478 423.826 38.9791 424.103 39.1623C424.381 39.3424 424.604 39.5882 424.772 39.8996C424.943 40.2111 425.029 40.6003 425.029 41.0675V45.7754H423.435V44.8091H423.38C423.279 45.0045 423.137 45.1877 422.954 45.3586C422.774 45.5266 422.546 45.6624 422.272 45.7662C422 45.867 421.681 45.9174 421.314 45.9174ZM421.745 44.6992C422.078 44.6992 422.366 44.6335 422.611 44.5022C422.855 44.3679 423.043 44.1908 423.174 43.971C423.308 43.7512 423.375 43.5115 423.375 43.252V42.4231C423.323 42.4658 423.235 42.5055 423.11 42.5421C422.988 42.5788 422.85 42.6108 422.698 42.6383C422.545 42.6658 422.394 42.6902 422.244 42.7116C422.095 42.7329 421.965 42.7513 421.855 42.7665C421.608 42.8001 421.386 42.8551 421.191 42.9314C420.995 43.0077 420.841 43.1146 420.728 43.252C420.615 43.3863 420.559 43.5603 420.559 43.7741C420.559 44.0794 420.67 44.3099 420.893 44.4656C421.116 44.6213 421.4 44.6992 421.745 44.6992ZM429.755 48.5598C429.159 48.5598 428.648 48.4789 428.221 48.3171C427.793 48.1584 427.45 47.9446 427.19 47.676C426.931 47.4073 426.751 47.1096 426.65 46.7829L428.143 46.4211C428.21 46.5585 428.308 46.6944 428.436 46.8287C428.564 46.9661 428.737 47.0791 428.953 47.1676C429.173 47.2592 429.45 47.305 429.782 47.305C430.252 47.305 430.642 47.1905 430.95 46.9615C431.258 46.7356 431.413 46.3631 431.413 45.8441V44.5114H431.33C431.245 44.6824 431.12 44.8579 430.955 45.0381C430.793 45.2182 430.578 45.3693 430.309 45.4914C430.043 45.6136 429.709 45.6746 429.306 45.6746C428.766 45.6746 428.276 45.5479 427.836 45.2945C427.399 45.0381 427.051 44.6564 426.792 44.1496C426.535 43.6397 426.407 43.0016 426.407 42.2353C426.407 41.4628 426.535 40.811 426.792 40.2798C427.051 39.7455 427.401 39.3409 427.841 39.0661C428.28 38.7883 428.77 38.6494 429.311 38.6494C429.723 38.6494 430.062 38.7196 430.327 38.8601C430.596 38.9974 430.81 39.1638 430.968 39.3592C431.127 39.5516 431.248 39.7332 431.33 39.9042H431.422V38.741H433.057V45.8899C433.057 46.4913 432.913 46.989 432.626 47.3829C432.339 47.7767 431.947 48.0713 431.449 48.2667C430.952 48.4621 430.387 48.5598 429.755 48.5598ZM429.769 44.374C430.12 44.374 430.419 44.2885 430.666 44.1175C430.913 43.9466 431.101 43.7008 431.229 43.3802C431.358 43.0596 431.422 42.6749 431.422 42.2261C431.422 41.7834 431.358 41.3957 431.229 41.0629C431.104 40.7301 430.918 40.4721 430.671 40.2889C430.427 40.1027 430.126 40.0096 429.769 40.0096C429.399 40.0096 429.091 40.1057 428.843 40.2981C428.596 40.4904 428.41 40.7545 428.285 41.0904C428.16 41.4232 428.097 41.8017 428.097 42.2261C428.097 42.6566 428.16 43.0337 428.285 43.3573C428.413 43.6779 428.601 43.9282 428.848 44.1084C429.098 44.2855 429.405 44.374 429.769 44.374ZM437.824 45.9128C437.137 45.9128 436.542 45.7617 436.038 45.4594C435.534 45.1571 435.144 44.7343 434.866 44.1908C434.591 43.6474 434.454 43.0123 434.454 42.2857C434.454 41.559 434.591 40.9224 434.866 40.3759C435.144 39.8294 435.534 39.405 436.038 39.1028C436.542 38.8005 437.137 38.6494 437.824 38.6494C438.511 38.6494 439.107 38.8005 439.61 39.1028C440.114 39.405 440.503 39.8294 440.778 40.3759C441.056 40.9224 441.195 41.559 441.195 42.2857C441.195 43.0123 441.056 43.6474 440.778 44.1908C440.503 44.7343 440.114 45.1571 439.61 45.4594C439.107 45.7617 438.511 45.9128 437.824 45.9128ZM437.833 44.5847C438.206 44.5847 438.517 44.4824 438.768 44.2778C439.018 44.0702 439.204 43.7924 439.326 43.4443C439.452 43.0963 439.514 42.7085 439.514 42.2811C439.514 41.8506 439.452 41.4613 439.326 41.1133C439.204 40.7622 439.018 40.4828 438.768 40.2752C438.517 40.0676 438.206 39.9638 437.833 39.9638C437.452 39.9638 437.134 40.0676 436.881 40.2752C436.63 40.4828 436.443 40.7622 436.318 41.1133C436.195 41.4613 436.134 41.8506 436.134 42.2811C436.134 42.7085 436.195 43.0963 436.318 43.4443C436.443 43.7924 436.63 44.0702 436.881 44.2778C437.134 44.4824 437.452 44.5847 437.833 44.5847Z" fill="#09090B"/>
<path d="M71.3759 70.2425V68.832H81.2241V70.2425H77.095V81.9629H75.5049V70.2425H71.3759ZM85.0309 82.1937C84.4069 82.1937 83.8405 82.0762 83.3319 81.8411C82.8232 81.6017 82.4193 81.2576 82.1201 80.8088C81.8209 80.3557 81.6713 79.8086 81.6713 79.1674C81.6713 78.6032 81.7824 78.1459 82.0047 77.7954C82.2269 77.4406 82.524 77.1628 82.8959 76.9619C83.2677 76.761 83.6781 76.6114 84.1269 76.5131C84.58 76.4105 85.0352 76.3293 85.4926 76.2694C86.091 76.1925 86.5761 76.1348 86.948 76.0963C87.3241 76.0536 87.5977 75.983 87.7687 75.8847C87.9439 75.7864 88.0315 75.6154 88.0315 75.3718V75.3205C88.0315 74.6879 87.8584 74.1963 87.5122 73.8458C87.1703 73.4953 86.6509 73.3201 85.9542 73.3201C85.2318 73.3201 84.6655 73.4782 84.2551 73.7945C83.8448 74.1109 83.5563 74.4485 83.3896 74.8076L81.9534 74.2946C82.2098 73.6962 82.5518 73.2303 82.9792 72.8969C83.4109 72.5593 83.8811 72.3242 84.3898 72.1917C84.9027 72.0549 85.4071 71.9865 85.9029 71.9865C86.2192 71.9865 86.5825 72.025 86.9929 72.1019C87.4075 72.1746 87.8071 72.3263 88.1918 72.5571C88.5808 72.7879 88.9035 73.1363 89.16 73.6022C89.4164 74.0681 89.5447 74.6922 89.5447 75.4744V81.9629H88.0315V80.6293H87.9546C87.852 80.843 87.681 81.0717 87.4417 81.3153C87.2023 81.559 86.8839 81.7663 86.4864 81.9372C86.0888 82.1082 85.6037 82.1937 85.0309 82.1937ZM85.2617 80.8345C85.8602 80.8345 86.3645 80.7169 86.7749 80.4818C87.1895 80.2467 87.5015 79.9432 87.711 79.5714C87.9247 79.1995 88.0315 78.8084 88.0315 78.3981V77.0132C87.9674 77.0901 87.8264 77.1606 87.6084 77.2247C87.3947 77.2846 87.1467 77.338 86.8646 77.385C86.5868 77.4278 86.3154 77.4662 86.0504 77.5004C85.7896 77.5304 85.578 77.556 85.4156 77.5774C85.0224 77.6287 84.6548 77.712 84.3128 77.8274C83.9752 77.9386 83.7016 78.1074 83.4921 78.3339C83.287 78.5562 83.1844 78.8597 83.1844 79.2444C83.1844 79.7701 83.3789 80.1677 83.7678 80.4369C84.1611 80.7019 84.6591 80.8345 85.2617 80.8345ZM93.717 78.3724L93.6914 76.5002H93.9991L98.3077 72.1147H100.18L95.5892 76.7567H95.461L93.717 78.3724ZM92.3065 81.9629V68.832H93.8196V81.9629H92.3065ZM98.5642 81.9629L94.7172 77.0901L95.7944 76.0386L100.488 81.9629H98.5642ZM105.851 82.1681C104.902 82.1681 104.083 81.9586 103.395 81.5397C102.711 81.1166 102.183 80.5267 101.812 79.7701C101.444 79.0093 101.26 78.1245 101.26 77.1157C101.26 76.107 101.444 75.2179 101.812 74.4485C102.183 73.6749 102.701 73.0722 103.363 72.6405C104.03 72.2045 104.808 71.9865 105.697 71.9865C106.21 71.9865 106.716 72.072 107.217 72.2429C107.717 72.4139 108.172 72.6918 108.582 73.0765C108.993 73.4569 109.32 73.9612 109.563 74.5896C109.807 75.2179 109.929 75.9916 109.929 76.9106V77.5517H102.337V76.2438H108.39C108.39 75.6881 108.279 75.1923 108.056 74.7563C107.838 74.3203 107.526 73.9762 107.12 73.724C106.719 73.4718 106.244 73.3457 105.697 73.3457C105.094 73.3457 104.573 73.4953 104.133 73.7945C103.697 74.0895 103.361 74.4742 103.126 74.9486C102.891 75.4231 102.773 75.9317 102.773 76.4746V77.3466C102.773 78.0903 102.902 78.7208 103.158 79.238C103.419 79.7509 103.78 80.142 104.242 80.4113C104.703 80.6763 105.24 80.8088 105.851 80.8088C106.248 80.8088 106.607 80.7532 106.928 80.6421C107.253 80.5267 107.533 80.3557 107.768 80.1292C108.003 79.8984 108.185 79.612 108.313 79.27L109.775 79.6804C109.621 80.1762 109.362 80.6122 108.999 80.9883C108.636 81.3602 108.187 81.6509 107.653 81.8603C107.118 82.0655 106.518 82.1681 105.851 82.1681ZM121.591 72.1147V73.397H116.488V72.1147H121.591ZM117.975 69.7553H119.488V79.1418C119.488 79.5692 119.55 79.8898 119.674 80.1035C119.802 80.313 119.965 80.454 120.162 80.5267C120.362 80.5951 120.574 80.6293 120.796 80.6293C120.963 80.6293 121.1 80.6207 121.207 80.6036C121.313 80.5823 121.399 80.5652 121.463 80.5523L121.771 81.9116C121.668 81.9501 121.525 81.9885 121.341 82.027C121.157 82.0698 120.925 82.0911 120.642 82.0911C120.215 82.0911 119.796 81.9992 119.386 81.8154C118.98 81.6316 118.642 81.3517 118.373 80.9755C118.108 80.5994 117.975 80.1249 117.975 79.5521V69.7553ZM127.762 82.1681C126.873 82.1681 126.093 81.9565 125.422 81.5333C124.755 81.1102 124.234 80.5181 123.858 79.7573C123.486 78.9965 123.3 78.1074 123.3 77.0901C123.3 76.0642 123.486 75.1688 123.858 74.4036C124.234 73.6385 124.755 73.0444 125.422 72.6212C126.093 72.1981 126.873 71.9865 127.762 71.9865C128.652 71.9865 129.429 72.1981 130.096 72.6212C130.767 73.0444 131.289 73.6385 131.661 74.4036C132.037 75.1688 132.225 76.0642 132.225 77.0901C132.225 78.1074 132.037 78.9965 131.661 79.7573C131.289 80.5181 130.767 81.1102 130.096 81.5333C129.429 81.9565 128.652 82.1681 127.762 82.1681ZM127.762 80.8088C128.438 80.8088 128.993 80.6357 129.429 80.2895C129.865 79.9432 130.188 79.488 130.398 78.9238C130.607 78.3596 130.712 77.7483 130.712 77.0901C130.712 76.4318 130.607 75.8185 130.398 75.25C130.188 74.6815 129.865 74.222 129.429 73.8715C128.993 73.521 128.438 73.3457 127.762 73.3457C127.087 73.3457 126.531 73.521 126.095 73.8715C125.659 74.222 125.337 74.6815 125.127 75.25C124.918 75.8185 124.813 76.4318 124.813 77.0901C124.813 77.7483 124.918 78.3596 125.127 78.9238C125.337 79.488 125.659 79.9432 126.095 80.2895C126.531 80.6357 127.087 80.8088 127.762 80.8088ZM134.535 81.9629V72.1147H135.997V73.6535H136.125C136.33 73.1277 136.661 72.7195 137.119 72.4289C137.576 72.1339 138.125 71.9865 138.766 71.9865C139.416 71.9865 139.957 72.1339 140.388 72.4289C140.824 72.7195 141.164 73.1277 141.408 73.6535H141.51C141.763 73.1448 142.141 72.7409 142.645 72.4417C143.15 72.1382 143.755 71.9865 144.46 71.9865C145.34 71.9865 146.061 72.2622 146.62 72.8136C147.18 73.3607 147.46 74.2134 147.46 75.3718V81.9629H145.947V75.3718C145.947 74.6451 145.749 74.1258 145.351 73.8138C144.953 73.5018 144.485 73.3457 143.947 73.3457C143.254 73.3457 142.718 73.5552 142.338 73.9741C141.957 74.3887 141.767 74.9144 141.767 75.5513V81.9629H140.228V75.2179C140.228 74.658 140.046 74.207 139.683 73.8651C139.32 73.5188 138.852 73.3457 138.279 73.3457C137.886 73.3457 137.518 73.4505 137.176 73.6599C136.839 73.8693 136.565 74.16 136.356 74.5319C136.15 74.8995 136.048 75.3248 136.048 75.8078V81.9629H134.535ZM154.356 82.1681C153.407 82.1681 152.589 81.9586 151.9 81.5397C151.217 81.1166 150.689 80.5267 150.317 79.7701C149.949 79.0093 149.765 78.1245 149.765 77.1157C149.765 76.107 149.949 75.2179 150.317 74.4485C150.689 73.6749 151.206 73.0722 151.868 72.6405C152.535 72.2045 153.313 71.9865 154.202 71.9865C154.715 71.9865 155.222 72.072 155.722 72.2429C156.222 72.4139 156.677 72.6918 157.087 73.0765C157.498 73.4569 157.825 73.9612 158.068 74.5896C158.312 75.2179 158.434 75.9916 158.434 76.9106V77.5517H150.843V76.2438H156.895C156.895 75.6881 156.784 75.1923 156.562 74.7563C156.344 74.3203 156.032 73.9762 155.626 73.724C155.224 73.4718 154.749 73.3457 154.202 73.3457C153.599 73.3457 153.078 73.4953 152.638 73.7945C152.202 74.0895 151.866 74.4742 151.631 74.9486C151.396 75.4231 151.278 75.9317 151.278 76.4746V77.3466C151.278 78.0903 151.407 78.7208 151.663 79.238C151.924 79.7509 152.285 80.142 152.747 80.4113C153.208 80.6763 153.745 80.8088 154.356 80.8088C154.754 80.8088 155.113 80.7532 155.433 80.6421C155.758 80.5267 156.038 80.3557 156.273 80.1292C156.508 79.8984 156.69 79.612 156.818 79.27L158.28 79.6804C158.126 80.1762 157.867 80.6122 157.504 80.9883C157.141 81.3602 156.692 81.6509 156.158 81.8603C155.623 82.0655 155.023 82.1681 154.356 82.1681ZM170.096 72.1147V73.397H164.993V72.1147H170.096ZM166.48 69.7553H167.993V79.1418C167.993 79.5692 168.055 79.8898 168.179 80.1035C168.308 80.313 168.47 80.454 168.667 80.5267C168.868 80.5951 169.079 80.6293 169.301 80.6293C169.468 80.6293 169.605 80.6207 169.712 80.6036C169.819 80.5823 169.904 80.5652 169.968 80.5523L170.276 81.9116C170.173 81.9501 170.03 81.9885 169.846 82.027C169.663 82.0698 169.43 82.0911 169.148 82.0911C168.72 82.0911 168.301 81.9992 167.891 81.8154C167.485 81.6316 167.147 81.3517 166.878 80.9755C166.613 80.5994 166.48 80.1249 166.48 79.5521V69.7553ZM176.268 82.1681C175.379 82.1681 174.598 81.9565 173.927 81.5333C173.261 81.1102 172.739 80.5181 172.363 79.7573C171.991 78.9965 171.805 78.1074 171.805 77.0901C171.805 76.0642 171.991 75.1688 172.363 74.4036C172.739 73.6385 173.261 73.0444 173.927 72.6212C174.598 72.1981 175.379 71.9865 176.268 71.9865C177.157 71.9865 177.935 72.1981 178.601 72.6212C179.273 73.0444 179.794 73.6385 180.166 74.4036C180.542 75.1688 180.73 76.0642 180.73 77.0901C180.73 78.1074 180.542 78.9965 180.166 79.7573C179.794 80.5181 179.273 81.1102 178.601 81.5333C177.935 81.9565 177.157 82.1681 176.268 82.1681ZM176.268 80.8088C176.943 80.8088 177.499 80.6357 177.935 80.2895C178.371 79.9432 178.693 79.488 178.903 78.9238C179.112 78.3596 179.217 77.7483 179.217 77.0901C179.217 76.4318 179.112 75.8185 178.903 75.25C178.693 74.6815 178.371 74.222 177.935 73.8715C177.499 73.521 176.943 73.3457 176.268 73.3457C175.592 73.3457 175.037 73.521 174.601 73.8715C174.165 74.222 173.842 74.6815 173.632 75.25C173.423 75.8185 173.318 76.4318 173.318 77.0901C173.318 77.7483 173.423 78.3596 173.632 78.9238C173.842 79.488 174.165 79.9432 174.601 80.2895C175.037 80.6357 175.592 80.8088 176.268 80.8088ZM188.118 81.9629V72.1147H189.58V73.6022H189.682C189.862 73.1149 190.187 72.7195 190.657 72.4161C191.127 72.1126 191.657 71.9608 192.247 71.9608C192.358 71.9608 192.497 71.963 192.664 71.9672C192.83 71.9715 192.956 71.9779 193.042 71.9865V73.5253C192.991 73.5124 192.873 73.4932 192.689 73.4676C192.51 73.4376 192.32 73.4227 192.119 73.4227C191.64 73.4227 191.212 73.5231 190.836 73.724C190.464 73.9206 190.169 74.1942 189.952 74.5447C189.738 74.8909 189.631 75.2863 189.631 75.7308V81.9629H188.118ZM198.665 82.1681C197.716 82.1681 196.897 81.9586 196.209 81.5397C195.525 81.1166 194.997 80.5267 194.626 79.7701C194.258 79.0093 194.074 78.1245 194.074 77.1157C194.074 76.107 194.258 75.2179 194.626 74.4485C194.997 73.6749 195.515 73.0722 196.177 72.6405C196.844 72.2045 197.622 71.9865 198.511 71.9865C199.024 71.9865 199.53 72.072 200.031 72.2429C200.531 72.4139 200.986 72.6918 201.396 73.0765C201.807 73.4569 202.134 73.9612 202.377 74.5896C202.621 75.2179 202.743 75.9916 202.743 76.9106V77.5517H195.151V76.2438H201.204C201.204 75.6881 201.093 75.1923 200.87 74.7563C200.652 74.3203 200.34 73.9762 199.934 73.724C199.533 73.4718 199.058 73.3457 198.511 73.3457C197.908 73.3457 197.387 73.4953 196.947 73.7945C196.511 74.0895 196.175 74.4742 195.94 74.9486C195.705 75.4231 195.587 75.9317 195.587 76.4746V77.3466C195.587 78.0903 195.716 78.7208 195.972 79.238C196.233 79.7509 196.594 80.142 197.056 80.4113C197.517 80.6763 198.054 80.8088 198.665 80.8088C199.062 80.8088 199.421 80.7532 199.742 80.6421C200.067 80.5267 200.347 80.3557 200.582 80.1292C200.817 79.8984 200.999 79.612 201.127 79.27L202.589 79.6804C202.435 80.1762 202.176 80.6122 201.813 80.9883C201.45 81.3602 201.001 81.6509 200.466 81.8603C199.932 82.0655 199.332 82.1681 198.665 82.1681ZM212.798 72.1147L209.156 81.9629H207.617L203.975 72.1147H205.617L208.335 79.9625H208.438L211.156 72.1147H212.798ZM214.795 81.9629V72.1147H216.308V81.9629H214.795ZM215.564 70.4734C215.269 70.4734 215.015 70.3729 214.801 70.172C214.592 69.9711 214.487 69.7296 214.487 69.4475C214.487 69.1654 214.592 68.9239 214.801 68.723C215.015 68.5221 215.269 68.4216 215.564 68.4216C215.859 68.4216 216.111 68.5221 216.321 68.723C216.534 68.9239 216.641 69.1654 216.641 69.4475C216.641 69.7296 216.534 69.9711 216.321 70.172C216.111 70.3729 215.859 70.4734 215.564 70.4734ZM223.208 82.1681C222.259 82.1681 221.441 81.9586 220.753 81.5397C220.069 81.1166 219.541 80.5267 219.169 79.7701C218.801 79.0093 218.618 78.1245 218.618 77.1157C218.618 76.107 218.801 75.2179 219.169 74.4485C219.541 73.6749 220.058 73.0722 220.721 72.6405C221.387 72.2045 222.165 71.9865 223.054 71.9865C223.567 71.9865 224.074 72.072 224.574 72.2429C225.074 72.4139 225.529 72.6918 225.94 73.0765C226.35 73.4569 226.677 73.9612 226.921 74.5896C227.164 75.2179 227.286 75.9916 227.286 76.9106V77.5517H219.695V76.2438H225.747C225.747 75.6881 225.636 75.1923 225.414 74.7563C225.196 74.3203 224.884 73.9762 224.478 73.724C224.076 73.4718 223.602 73.3457 223.054 73.3457C222.452 73.3457 221.93 73.4953 221.49 73.7945C221.054 74.0895 220.719 74.4742 220.483 74.9486C220.248 75.4231 220.131 75.9317 220.131 76.4746V77.3466C220.131 78.0903 220.259 78.7208 220.515 79.238C220.776 79.7509 221.137 80.142 221.599 80.4113C222.061 80.6763 222.597 80.8088 223.208 80.8088C223.606 80.8088 223.965 80.7532 224.285 80.6421C224.61 80.5267 224.89 80.3557 225.125 80.1292C225.36 79.8984 225.542 79.612 225.67 79.27L227.132 79.6804C226.978 80.1762 226.72 80.6122 226.356 80.9883C225.993 81.3602 225.544 81.6509 225.01 81.8603C224.476 82.0655 223.875 82.1681 223.208 82.1681ZM231.819 81.9629L228.818 72.1147H230.409L232.537 79.6547H232.64L234.743 72.1147H236.358L238.436 79.6291H238.538L240.667 72.1147H242.257L239.257 81.9629H237.769L235.615 74.3972H235.461L233.307 81.9629H231.819ZM250.31 85.656C250.054 85.656 249.825 85.6346 249.624 85.5918C249.423 85.5534 249.284 85.5149 249.207 85.4764L249.592 84.1428C249.96 84.2369 250.284 84.2711 250.567 84.2454C250.849 84.2198 251.099 84.0937 251.317 83.8671C251.539 83.6449 251.742 83.2837 251.926 82.7836L252.208 82.0142L248.566 72.1147H250.207L252.926 79.9625H253.029L255.747 72.1147H257.388L253.208 83.3991C253.02 83.9077 252.787 84.3288 252.509 84.6622C252.231 84.9998 251.909 85.2499 251.541 85.4123C251.178 85.5747 250.767 85.656 250.31 85.656ZM263.034 82.1681C262.145 82.1681 261.365 81.9565 260.694 81.5333C260.027 81.1102 259.505 80.5181 259.129 79.7573C258.757 78.9965 258.571 78.1074 258.571 77.0901C258.571 76.0642 258.757 75.1688 259.129 74.4036C259.505 73.6385 260.027 73.0444 260.694 72.6212C261.365 72.1981 262.145 71.9865 263.034 71.9865C263.923 71.9865 264.701 72.1981 265.368 72.6212C266.039 73.0444 266.56 73.6385 266.932 74.4036C267.308 75.1688 267.496 76.0642 267.496 77.0901C267.496 78.1074 267.308 78.9965 266.932 79.7573C266.56 80.5181 266.039 81.1102 265.368 81.5333C264.701 81.9565 263.923 82.1681 263.034 82.1681ZM263.034 80.8088C263.709 80.8088 264.265 80.6357 264.701 80.2895C265.137 79.9432 265.46 79.488 265.669 78.9238C265.878 78.3596 265.983 77.7483 265.983 77.0901C265.983 76.4318 265.878 75.8185 265.669 75.25C265.46 74.6815 265.137 74.222 264.701 73.8715C264.265 73.521 263.709 73.3457 263.034 73.3457C262.358 73.3457 261.803 73.521 261.367 73.8715C260.931 74.222 260.608 74.6815 260.399 75.25C260.189 75.8185 260.084 76.4318 260.084 77.0901C260.084 77.7483 260.189 78.3596 260.399 78.9238C260.608 79.488 260.931 79.9432 261.367 80.2895C261.803 80.6357 262.358 80.8088 263.034 80.8088ZM276.012 77.9364V72.1147H277.526V81.9629H276.012V80.2959H275.91C275.679 80.796 275.32 81.2213 274.833 81.5718C274.345 81.918 273.73 82.0911 272.986 82.0911C272.371 82.0911 271.824 81.9565 271.345 81.6872C270.866 81.4136 270.49 81.0033 270.216 80.4562C269.943 79.9048 269.806 79.2102 269.806 78.3724V72.1147H271.319V78.2698C271.319 78.9879 271.52 79.5607 271.922 79.9881C272.328 80.4156 272.845 80.6293 273.473 80.6293C273.85 80.6293 274.232 80.5331 274.621 80.3408C275.014 80.1484 275.344 79.8535 275.609 79.456C275.878 79.0584 276.012 78.5519 276.012 77.9364ZM280.297 81.9629V72.1147H281.759V73.6022H281.861C282.041 73.1149 282.366 72.7195 282.836 72.4161C283.306 72.1126 283.836 71.9608 284.426 71.9608C284.537 71.9608 284.676 71.963 284.843 71.9672C285.009 71.9715 285.136 71.9779 285.221 71.9865V73.5253C285.17 73.5124 285.052 73.4932 284.868 73.4676C284.689 73.4376 284.499 73.4227 284.298 73.4227C283.819 73.4227 283.392 73.5231 283.015 73.724C282.644 73.9206 282.349 74.1942 282.131 74.5447C281.917 74.8909 281.81 75.2863 281.81 75.7308V81.9629H280.297ZM292.093 85.656V72.1147H293.555V73.6791H293.734C293.845 73.5082 293.999 73.2902 294.196 73.0252C294.397 72.7559 294.683 72.5165 295.055 72.3071C295.431 72.0933 295.94 71.9865 296.581 71.9865C297.41 71.9865 298.141 72.1938 298.774 72.6084C299.406 73.023 299.9 73.6107 300.255 74.3716C300.609 75.1324 300.787 76.03 300.787 77.0644C300.787 78.1074 300.609 79.0114 300.255 79.7765C299.9 80.5374 299.408 81.1272 298.78 81.5461C298.152 81.9608 297.427 82.1681 296.606 82.1681C295.974 82.1681 295.467 82.0633 295.087 81.8539C294.706 81.6402 294.414 81.3987 294.208 81.1294C294.003 80.8558 293.845 80.6293 293.734 80.4498H293.606V85.656H292.093ZM293.58 77.0388C293.58 77.7825 293.689 78.4387 293.907 79.0072C294.125 79.5714 294.444 80.0138 294.862 80.3344C295.281 80.6507 295.794 80.8088 296.401 80.8088C297.034 80.8088 297.562 80.6421 297.985 80.3087C298.412 79.971 298.733 79.5179 298.947 78.9495C299.165 78.3767 299.274 77.7398 299.274 77.0388C299.274 76.3464 299.167 75.7223 298.953 75.1666C298.744 74.6067 298.425 74.1643 297.998 73.8394C297.575 73.5103 297.042 73.3457 296.401 73.3457C295.786 73.3457 295.269 73.5018 294.85 73.8138C294.431 74.1215 294.114 74.5532 293.901 75.1089C293.687 75.6603 293.58 76.3036 293.58 77.0388ZM303.095 81.9629V72.1147H304.557V73.6022H304.659C304.839 73.1149 305.164 72.7195 305.634 72.4161C306.104 72.1126 306.634 71.9608 307.224 71.9608C307.335 71.9608 307.474 71.963 307.641 71.9672C307.807 71.9715 307.934 71.9779 308.019 71.9865V73.5253C307.968 73.5124 307.85 73.4932 307.666 73.4676C307.487 73.4376 307.297 73.4227 307.096 73.4227C306.617 73.4227 306.19 73.5231 305.813 73.724C305.442 73.9206 305.147 74.1942 304.929 74.5447C304.715 74.8909 304.608 75.2863 304.608 75.7308V81.9629H303.095ZM313.514 82.1681C312.625 82.1681 311.845 81.9565 311.174 81.5333C310.507 81.1102 309.985 80.5181 309.609 79.7573C309.237 78.9965 309.051 78.1074 309.051 77.0901C309.051 76.0642 309.237 75.1688 309.609 74.4036C309.985 73.6385 310.507 73.0444 311.174 72.6212C311.845 72.1981 312.625 71.9865 313.514 71.9865C314.403 71.9865 315.181 72.1981 315.848 72.6212C316.519 73.0444 317.04 73.6385 317.412 74.4036C317.788 75.1688 317.976 76.0642 317.976 77.0901C317.976 78.1074 317.788 78.9965 317.412 79.7573C317.04 80.5181 316.519 81.1102 315.848 81.5333C315.181 81.9565 314.403 82.1681 313.514 82.1681ZM313.514 80.8088C314.189 80.8088 314.745 80.6357 315.181 80.2895C315.617 79.9432 315.939 79.488 316.149 78.9238C316.358 78.3596 316.463 77.7483 316.463 77.0901C316.463 76.4318 316.358 75.8185 316.149 75.25C315.939 74.6815 315.617 74.222 315.181 73.8715C314.745 73.521 314.189 73.3457 313.514 73.3457C312.838 73.3457 312.283 73.521 311.847 73.8715C311.411 74.222 311.088 74.6815 310.879 75.25C310.669 75.8185 310.564 76.4318 310.564 77.0901C310.564 77.7483 310.669 78.3596 310.879 78.9238C311.088 79.488 311.411 79.9432 311.847 80.2895C312.283 80.6357 312.838 80.8088 313.514 80.8088ZM320.286 72.1147H321.799V82.681C321.799 83.2879 321.694 83.8137 321.485 84.2582C321.28 84.7028 320.968 85.0469 320.549 85.2905C320.134 85.5341 319.611 85.656 318.978 85.656C318.927 85.656 318.875 85.656 318.824 85.656C318.773 85.656 318.722 85.656 318.67 85.656V84.2454C318.722 84.2454 318.769 84.2454 318.811 84.2454C318.854 84.2454 318.901 84.2454 318.952 84.2454C319.414 84.2454 319.752 84.1086 319.965 83.8351C320.179 83.5658 320.286 83.1811 320.286 82.681V72.1147ZM321.03 70.4734C320.735 70.4734 320.48 70.3729 320.267 70.172C320.057 69.9711 319.953 69.7296 319.953 69.4475C319.953 69.1654 320.057 68.9239 320.267 68.723C320.48 68.5221 320.735 68.4216 321.03 68.4216C321.325 68.4216 321.577 68.5221 321.786 68.723C322 68.9239 322.107 69.1654 322.107 69.4475C322.107 69.7296 322 69.9711 321.786 70.172C321.577 70.3729 321.325 70.4734 321.03 70.4734ZM328.7 82.1681C327.751 82.1681 326.932 81.9586 326.244 81.5397C325.56 81.1166 325.032 80.5267 324.66 79.7701C324.293 79.0093 324.109 78.1245 324.109 77.1157C324.109 76.107 324.293 75.2179 324.66 74.4485C325.032 73.6749 325.549 73.0722 326.212 72.6405C326.879 72.2045 327.657 71.9865 328.546 71.9865C329.059 71.9865 329.565 72.072 330.065 72.2429C330.565 72.4139 331.021 72.6918 331.431 73.0765C331.841 73.4569 332.168 73.9612 332.412 74.5896C332.655 75.2179 332.777 75.9916 332.777 76.9106V77.5517H325.186V76.2438H331.239C331.239 75.6881 331.127 75.1923 330.905 74.7563C330.687 74.3203 330.375 73.9762 329.969 73.724C329.567 73.4718 329.093 73.3457 328.546 73.3457C327.943 73.3457 327.422 73.4953 326.981 73.7945C326.545 74.0895 326.21 74.4742 325.975 74.9486C325.74 75.4231 325.622 75.9317 325.622 76.4746V77.3466C325.622 78.0903 325.75 78.7208 326.007 79.238C326.267 79.7509 326.629 80.142 327.09 80.4113C327.552 80.6763 328.088 80.8088 328.7 80.8088C329.097 80.8088 329.456 80.7532 329.777 80.6421C330.102 80.5267 330.382 80.3557 330.617 80.1292C330.852 79.8984 331.033 79.612 331.162 79.27L332.623 79.6804C332.47 80.1762 332.211 80.6122 331.848 80.9883C331.484 81.3602 331.035 81.6509 330.501 81.8603C329.967 82.0655 329.366 82.1681 328.7 82.1681ZM339.08 82.1681C338.157 82.1681 337.362 81.9501 336.695 81.5141C336.028 81.0781 335.515 80.4775 335.156 79.7124C334.797 78.9473 334.617 78.0732 334.617 77.0901C334.617 76.0899 334.801 75.2072 335.169 74.4421C335.541 73.6727 336.058 73.0722 336.72 72.6405C337.387 72.2045 338.165 71.9865 339.054 71.9865C339.747 71.9865 340.371 72.1147 340.926 72.3712C341.482 72.6276 341.937 72.9867 342.292 73.4483C342.647 73.91 342.867 74.4485 342.952 75.064H341.439C341.324 74.6152 341.067 74.2177 340.67 73.8715C340.277 73.521 339.747 73.3457 339.08 73.3457C338.49 73.3457 337.973 73.4996 337.528 73.8074C337.088 74.1109 336.744 74.5404 336.496 75.0961C336.252 75.6475 336.131 76.2951 336.131 77.0388C336.131 77.7996 336.25 78.4622 336.49 79.0264C336.733 79.5906 337.075 80.0287 337.515 80.3408C337.96 80.6528 338.481 80.8088 339.08 80.8088C339.473 80.8088 339.83 80.7404 340.151 80.6036C340.471 80.4669 340.743 80.2702 340.965 80.0138C341.187 79.7573 341.345 79.4496 341.439 79.0905H342.952C342.867 79.6718 342.655 80.1954 342.318 80.6613C341.984 81.123 341.542 81.4906 340.991 81.7641C340.443 82.0334 339.807 82.1681 339.08 82.1681ZM349.447 72.1147V73.397H344.344V72.1147H349.447ZM345.831 69.7553H347.344V79.1418C347.344 79.5692 347.406 79.8898 347.53 80.1035C347.659 80.313 347.821 80.454 348.018 80.5267C348.219 80.5951 348.43 80.6293 348.652 80.6293C348.819 80.6293 348.956 80.6207 349.063 80.6036C349.17 80.5823 349.255 80.5652 349.319 80.5523L349.627 81.9116C349.524 81.9501 349.381 81.9885 349.197 82.027C349.014 82.0698 348.781 82.0911 348.498 82.0911C348.071 82.0911 347.652 81.9992 347.242 81.8154C346.836 81.6316 346.498 81.3517 346.229 80.9755C345.964 80.5994 345.831 80.1249 345.831 79.5521V69.7553ZM353.98 80.1677L353.878 80.8601C353.805 81.3474 353.694 81.8689 353.544 82.4245C353.399 82.9802 353.247 83.5038 353.089 83.9954C352.931 84.4869 352.801 84.878 352.698 85.1687H351.544C351.6 84.8951 351.672 84.5339 351.762 84.0851C351.852 83.6363 351.941 83.1341 352.031 82.5784C352.125 82.027 352.202 81.4628 352.262 80.8857L352.339 80.1677H353.98ZM363.375 68.832V81.9629H361.862V68.832H363.375ZM370.275 82.1681C369.326 82.1681 368.508 81.9586 367.82 81.5397C367.136 81.1166 366.608 80.5267 366.236 79.7701C365.869 79.0093 365.685 78.1245 365.685 77.1157C365.685 76.107 365.869 75.2179 366.236 74.4485C366.608 73.6749 367.125 73.0722 367.788 72.6405C368.455 72.2045 369.232 71.9865 370.122 71.9865C370.634 71.9865 371.141 72.072 371.641 72.2429C372.141 72.4139 372.596 72.6918 373.007 73.0765C373.417 73.4569 373.744 73.9612 373.988 74.5896C374.231 75.2179 374.353 75.9916 374.353 76.9106V77.5517H366.762V76.2438H372.814C372.814 75.6881 372.703 75.1923 372.481 74.7563C372.263 74.3203 371.951 73.9762 371.545 73.724C371.143 73.4718 370.669 73.3457 370.122 73.3457C369.519 73.3457 368.997 73.4953 368.557 73.7945C368.121 74.0895 367.786 74.4742 367.55 74.9486C367.315 75.4231 367.198 75.9317 367.198 76.4746V77.3466C367.198 78.0903 367.326 78.7208 367.583 79.238C367.843 79.7509 368.204 80.142 368.666 80.4113C369.128 80.6763 369.664 80.8088 370.275 80.8088C370.673 80.8088 371.032 80.7532 371.353 80.6421C371.677 80.5267 371.957 80.3557 372.192 80.1292C372.428 79.8984 372.609 79.612 372.737 79.27L374.199 79.6804C374.045 80.1762 373.787 80.6122 373.423 80.9883C373.06 81.3602 372.611 81.6509 372.077 81.8603C371.543 82.0655 370.942 82.1681 370.275 82.1681ZM380.938 72.1147V73.397H375.834V72.1147H380.938ZM377.322 69.7553H378.835V79.1418C378.835 79.5692 378.897 79.8898 379.021 80.1035C379.149 80.313 379.311 80.454 379.508 80.5267C379.709 80.5951 379.921 80.6293 380.143 80.6293C380.31 80.6293 380.446 80.6207 380.553 80.6036C380.66 80.5823 380.746 80.5652 380.81 80.5523L381.117 81.9116C381.015 81.9501 380.872 81.9885 380.688 82.027C380.504 82.0698 380.271 82.0911 379.989 82.0911C379.561 82.0911 379.143 81.9992 378.732 81.8154C378.326 81.6316 377.989 81.3517 377.719 80.9755C377.454 80.5994 377.322 80.1249 377.322 79.5521V69.7553ZM394.498 77.9364V72.1147H396.011V81.9629H394.498V80.2959H394.396C394.165 80.796 393.806 81.2213 393.319 81.5718C392.831 81.918 392.216 82.0911 391.472 82.0911C390.857 82.0911 390.309 81.9565 389.831 81.6872C389.352 81.4136 388.976 81.0033 388.702 80.4562C388.429 79.9048 388.292 79.2102 388.292 78.3724V72.1147H389.805V78.2698C389.805 78.9879 390.006 79.5607 390.408 79.9881C390.814 80.4156 391.331 80.6293 391.959 80.6293C392.335 80.6293 392.718 80.5331 393.107 80.3408C393.5 80.1484 393.829 79.8535 394.094 79.456C394.364 79.0584 394.498 78.5519 394.498 77.9364ZM405.759 74.3203L404.399 74.705C404.314 74.4784 404.188 74.2583 404.021 74.0446C403.859 73.8266 403.636 73.6471 403.354 73.506C403.072 73.365 402.711 73.2944 402.271 73.2944C401.668 73.2944 401.166 73.4334 400.764 73.7112C400.367 73.9848 400.168 74.3331 400.168 74.7563C400.168 75.1324 400.305 75.4295 400.578 75.6475C400.852 75.8655 401.279 76.0471 401.86 76.1925L403.322 76.5515C404.203 76.7652 404.859 77.0922 405.291 77.5325C405.722 77.9685 405.938 78.5306 405.938 79.2187C405.938 79.783 405.776 80.2873 405.451 80.7319C405.13 81.1764 404.681 81.5269 404.104 81.7834C403.527 82.0398 402.856 82.1681 402.091 82.1681C401.087 82.1681 400.255 81.9501 399.597 81.5141C398.939 81.0781 398.522 80.4412 398.347 79.6034L399.783 79.2444C399.92 79.7744 400.178 80.1719 400.559 80.4369C400.944 80.7019 401.446 80.8345 402.066 80.8345C402.771 80.8345 403.331 80.6849 403.745 80.3856C404.164 80.0822 404.374 79.7188 404.374 79.2957C404.374 78.9537 404.254 78.6673 404.015 78.4365C403.775 78.2014 403.408 78.0262 402.912 77.9108L401.271 77.5261C400.369 77.3124 399.706 76.9811 399.283 76.5323C398.864 76.0792 398.655 75.5128 398.655 74.8332C398.655 74.2776 398.811 73.786 399.123 73.3586C399.439 72.9311 399.869 72.5956 400.411 72.3519C400.959 72.1083 401.578 71.9865 402.271 71.9865C403.245 71.9865 404.01 72.2002 404.566 72.6276C405.126 73.0551 405.524 73.6193 405.759 74.3203ZM414.704 78.3724L414.679 76.5002H414.986L419.295 72.1147H421.167L416.577 76.7567H416.448L414.704 78.3724ZM413.294 81.9629V68.832H414.807V81.9629H413.294ZM419.552 81.9629L415.705 77.0901L416.782 76.0386L421.475 81.9629H419.552ZM424.218 82.0655C423.901 82.0655 423.63 81.9522 423.403 81.7257C423.177 81.4991 423.063 81.2277 423.063 80.9114C423.063 80.5951 423.177 80.3237 423.403 80.0971C423.63 79.8706 423.901 79.7573 424.218 79.7573C424.534 79.7573 424.805 79.8706 425.032 80.0971C425.258 80.3237 425.372 80.5951 425.372 80.9114C425.372 81.1208 425.318 81.3132 425.211 81.4884C425.109 81.6637 424.97 81.8047 424.795 81.9116C424.624 82.0142 424.431 82.0655 424.218 82.0655ZM429.19 82.0655C428.873 82.0655 428.602 81.9522 428.375 81.7257C428.149 81.4991 428.036 81.2277 428.036 80.9114C428.036 80.5951 428.149 80.3237 428.375 80.0971C428.602 79.8706 428.873 79.7573 429.19 79.7573C429.506 79.7573 429.777 79.8706 430.004 80.0971C430.231 80.3237 430.344 80.5951 430.344 80.9114C430.344 81.1208 430.29 81.3132 430.184 81.4884C430.081 81.6637 429.942 81.8047 429.767 81.9116C429.596 82.0142 429.403 82.0655 429.19 82.0655ZM434.162 82.0655C433.846 82.0655 433.574 81.9522 433.348 81.7257C433.121 81.4991 433.008 81.2277 433.008 80.9114C433.008 80.5951 433.121 80.3237 433.348 80.0971C433.574 79.8706 433.846 79.7573 434.162 79.7573C434.478 79.7573 434.75 79.8706 434.976 80.0971C435.203 80.3237 435.316 80.5951 435.316 80.9114C435.316 81.1208 435.263 81.3132 435.156 81.4884C435.053 81.6637 434.914 81.8047 434.739 81.9116C434.568 82.0142 434.376 82.0655 434.162 82.0655Z" fill="#71717A"/>
</g>
<g filter="url(#filter1_d_1384_173)">
<path d="M3.32227 22.9987C3.32227 11.3346 12.7779 1.87891 24.442 1.87891H441.558C453.222 1.87891 462.678 11.3346 462.678 22.9987V74.4782C462.678 86.1423 453.222 95.5979 441.558 95.5979H24.442C12.7779 95.5979 3.32227 86.1423 3.32227 74.4782V22.9987Z" fill="white" shape-rendering="crispEdges"/>
<path d="M24.442 2.5389H441.558C452.857 2.5389 462.018 11.6991 462.018 22.9987V74.4781C462.018 85.7778 452.857 94.938 441.558 94.938H24.442C13.1424 94.938 3.98226 85.7778 3.98226 74.4782V22.9987C3.98226 11.6991 13.1424 2.5389 24.442 2.5389Z" stroke="#E4E4E7" stroke-width="1.31999" shape-rendering="crispEdges"/>
<path d="M19.1621 40.599C19.1621 34.7669 23.8899 30.0391 29.722 30.0391H45.5618C51.3939 30.0391 56.1217 34.7669 56.1217 40.599V56.4388C56.1217 62.2709 51.3939 66.9987 45.5618 66.9987H29.722C23.8899 66.9987 19.1621 62.2709 19.1621 56.4388V40.599Z" fill="#2C2C2C"/>
<path d="M43.0832 54.5496L44.0932 55.5095L46.1832 53.4895M28.8132 43.9595L37.6432 49.0695L46.4132 43.9895M37.6432 58.1295V49.0595M48.6432 54.4295C48.6632 55.1795 48.4632 55.8895 48.1032 56.4995C47.9032 56.8595 47.6332 57.1895 47.3332 57.4595C46.6432 58.0995 45.7332 58.4895 44.7232 58.5195C43.2632 58.5495 41.9732 57.7995 41.2632 56.6495C40.8832 56.0595 40.6532 55.3496 40.6432 54.5996C40.6132 53.3396 41.1732 52.1995 42.0732 51.4495C42.7532 50.8895 43.6132 50.5395 44.5532 50.5195C46.7632 50.4695 48.5932 52.2195 48.6432 54.4295ZM47.2532 45.6895V51.3496C47.2532 51.3996 47.2532 51.4395 47.2432 51.4895C46.5432 50.8795 45.6432 50.5196 44.6432 50.5196C43.7032 50.5196 42.8332 50.8496 42.1432 51.3996C41.2232 52.1296 40.6432 53.2596 40.6432 54.5196C40.6432 55.2696 40.8532 55.9795 41.2232 56.5795C41.3132 56.7395 41.4232 56.8896 41.5432 57.0296L39.7132 58.0396C38.5732 58.6796 36.7132 58.6796 35.5732 58.0396L30.2332 55.0795C29.0232 54.4095 28.0332 52.7296 28.0332 51.3496V45.6895C28.0332 44.3095 29.0232 42.6296 30.2332 41.9596L35.5732 38.9995C36.7132 38.3595 38.5732 38.3595 39.7132 38.9995L45.0532 41.9596C46.2632 42.6296 47.2532 44.3095 47.2532 45.6895Z" stroke="#D9D9D9" stroke-width="1.5" stroke-linecap="round" stroke-linejoin="round"/>
<path d="M68.5754 43.7188V24.5189H75.7753C77.2503 24.5189 78.4878 24.7939 79.4878 25.3439C80.494 25.8939 81.2534 26.6502 81.7659 27.6127C82.2846 28.5689 82.544 29.6564 82.544 30.8751C82.544 32.1064 82.2846 33.2001 81.7659 34.1563C81.2471 35.1126 80.4815 35.8657 79.469 36.4157C78.4565 36.9594 77.2097 37.2313 75.7284 37.2313H70.9566V34.372H75.2597C76.1222 34.372 76.8284 34.222 77.3784 33.922C77.9284 33.622 78.3346 33.2095 78.5971 32.6845C78.8659 32.1595 79.0003 31.5564 79.0003 30.8751C79.0003 30.1939 78.8659 29.5939 78.5971 29.0752C78.3346 28.5564 77.9253 28.1533 77.369 27.8658C76.819 27.572 76.1097 27.4252 75.2409 27.4252H72.0535V43.7188H68.5754ZM85.415 43.7188V29.3189H88.7056V31.7189H88.8556C89.1181 30.8876 89.5681 30.247 90.2056 29.797C90.8494 29.3408 91.5837 29.1126 92.4087 29.1126C92.5962 29.1126 92.8056 29.122 93.0368 29.1408C93.2743 29.1533 93.4712 29.1751 93.6275 29.2064V32.3282C93.4837 32.2782 93.2556 32.2345 92.9431 32.197C92.6368 32.1532 92.34 32.1314 92.0525 32.1314C91.4337 32.1314 90.8775 32.2657 90.3837 32.5345C89.8962 32.797 89.5119 33.1626 89.2306 33.6314C88.9494 34.1001 88.8088 34.6407 88.8088 35.2532V43.7188H85.415ZM101.57 44C100.164 44 98.9454 43.6906 97.9141 43.0719C96.8829 42.4531 96.0829 41.5875 95.5142 40.475C94.9517 39.3625 94.6704 38.0626 94.6704 36.5751C94.6704 35.0876 94.9517 33.7845 95.5142 32.6657C96.0829 31.547 96.8829 30.6783 97.9141 30.0595C98.9454 29.4408 100.164 29.1314 101.57 29.1314C102.977 29.1314 104.195 29.4408 105.227 30.0595C106.258 30.6783 107.055 31.547 107.617 32.6657C108.186 33.7845 108.47 35.0876 108.47 36.5751C108.47 38.0626 108.186 39.3625 107.617 40.475C107.055 41.5875 106.258 42.4531 105.227 43.0719C104.195 43.6906 102.977 44 101.57 44ZM101.589 41.2813C102.352 41.2813 102.989 41.0719 103.502 40.6532C104.014 40.2282 104.395 39.6594 104.645 38.9469C104.902 38.2344 105.03 37.4407 105.03 36.5657C105.03 35.6845 104.902 34.8876 104.645 34.1751C104.395 33.4564 104.014 32.8845 103.502 32.4595C102.989 32.0345 102.352 31.822 101.589 31.822C100.808 31.822 100.158 32.0345 99.6391 32.4595C99.1266 32.8845 98.7422 33.4564 98.486 34.1751C98.236 34.8876 98.111 35.6845 98.111 36.5657C98.111 37.4407 98.236 38.2344 98.486 38.9469C98.7422 39.6594 99.1266 40.2282 99.6391 40.6532C100.158 41.0719 100.808 41.2813 101.589 41.2813ZM111.351 29.3189H114.744V44.5437C114.744 45.5812 114.548 46.4375 114.154 47.1125C113.76 47.7875 113.191 48.2906 112.448 48.6218C111.704 48.9531 110.801 49.1187 109.738 49.1187C109.613 49.1187 109.498 49.1156 109.391 49.1093C109.285 49.1093 109.169 49.1062 109.044 49.0999V46.3343C109.138 46.3406 109.223 46.3437 109.298 46.3437C109.373 46.35 109.451 46.3531 109.532 46.3531C110.182 46.3531 110.648 46.1937 110.929 45.875C111.21 45.5625 111.351 45.1031 111.351 44.4969V29.3189ZM113.038 27.2752C112.494 27.2752 112.029 27.097 111.641 26.7408C111.26 26.3783 111.069 25.9439 111.069 25.4377C111.069 24.9252 111.26 24.4908 111.641 24.1346C112.029 23.7721 112.494 23.5908 113.038 23.5908C113.576 23.5908 114.035 23.7721 114.416 24.1346C114.804 24.4908 114.998 24.9252 114.998 25.4377C114.998 25.9439 114.804 26.3783 114.416 26.7408C114.035 27.097 113.576 27.2752 113.038 27.2752ZM124.609 44C123.165 44 121.919 43.7 120.869 43.1C119.825 42.4938 119.022 41.6375 118.459 40.5313C117.897 39.4188 117.615 38.1094 117.615 36.6032C117.615 35.122 117.897 33.822 118.459 32.7032C119.028 31.5782 119.822 30.7033 120.84 30.0783C121.859 29.447 123.056 29.1314 124.431 29.1314C125.319 29.1314 126.156 29.2751 126.944 29.5626C127.737 29.8439 128.437 30.2814 129.044 30.8751C129.656 31.4689 130.137 32.2251 130.487 33.1439C130.837 34.0563 131.012 35.1438 131.012 36.4063V37.4469H119.209V35.1595H127.759C127.753 34.5095 127.612 33.9314 127.337 33.4251C127.062 32.9126 126.678 32.5095 126.184 32.2157C125.697 31.922 125.128 31.7751 124.478 31.7751C123.784 31.7751 123.175 31.9439 122.65 32.2814C122.125 32.6126 121.715 33.0501 121.422 33.5939C121.134 34.1313 120.987 34.722 120.981 35.3657V37.3626C120.981 38.2001 121.134 38.9188 121.44 39.5188C121.747 40.1125 122.175 40.5688 122.725 40.8875C123.275 41.2 123.919 41.3563 124.656 41.3563C125.15 41.3563 125.597 41.2875 125.997 41.15C126.397 41.0063 126.744 40.7969 127.037 40.5219C127.331 40.2469 127.553 39.9063 127.703 39.5L130.872 39.8563C130.672 40.6938 130.29 41.425 129.728 42.05C129.172 42.6688 128.459 43.15 127.59 43.4938C126.722 43.8312 125.728 44 124.609 44ZM140.164 44C138.727 44 137.493 43.6844 136.461 43.0531C135.436 42.4219 134.646 41.55 134.09 40.4375C133.54 39.3188 133.265 38.0313 133.265 36.5751C133.265 35.1126 133.546 33.822 134.108 32.7032C134.671 31.5782 135.465 30.7033 136.49 30.0783C137.521 29.447 138.739 29.1314 140.146 29.1314C141.314 29.1314 142.349 29.347 143.249 29.7783C144.155 30.2033 144.877 30.8064 145.414 31.5876C145.952 32.3626 146.258 33.2689 146.333 34.3063H143.089C142.958 33.6126 142.646 33.0345 142.152 32.572C141.664 32.1032 141.011 31.8689 140.193 31.8689C139.499 31.8689 138.889 32.0564 138.365 32.4314C137.84 32.8001 137.43 33.3314 137.136 34.0251C136.849 34.7188 136.705 35.5501 136.705 36.5188C136.705 37.5001 136.849 38.3438 137.136 39.05C137.424 39.75 137.827 40.2907 138.346 40.6719C138.871 41.0469 139.486 41.2344 140.193 41.2344C140.693 41.2344 141.139 41.1407 141.533 40.9532C141.933 40.7594 142.268 40.4813 142.536 40.1188C142.805 39.7563 142.989 39.3157 143.089 38.7969H146.333C146.252 39.8157 145.952 40.7188 145.433 41.5063C144.914 42.2875 144.208 42.9 143.314 43.3438C142.421 43.7812 141.371 44 140.164 44ZM156.31 29.3189V31.9439H148.032V29.3189H156.31ZM150.076 25.8689H153.47V39.3875C153.47 39.8438 153.539 40.1938 153.676 40.4375C153.82 40.675 154.007 40.8375 154.239 40.925C154.47 41.0125 154.726 41.0563 155.007 41.0563C155.22 41.0563 155.414 41.0407 155.589 41.0094C155.77 40.9782 155.907 40.95 156.001 40.925L156.573 43.5781C156.392 43.6406 156.132 43.7094 155.795 43.7844C155.464 43.8594 155.057 43.9031 154.576 43.9156C153.726 43.9406 152.96 43.8125 152.279 43.5313C151.598 43.2438 151.057 42.8 150.657 42.2C150.264 41.6 150.07 40.85 150.076 39.95V25.8689ZM171.041 43.9719C169.909 43.9719 168.897 43.6813 168.003 43.1C167.11 42.5188 166.403 41.675 165.885 40.5688C165.366 39.4625 165.106 38.1188 165.106 36.5376C165.106 34.9376 165.369 33.5876 165.894 32.4876C166.425 31.3814 167.141 30.547 168.041 29.9845C168.941 29.4158 169.944 29.1314 171.05 29.1314C171.894 29.1314 172.588 29.2751 173.131 29.5626C173.675 29.8439 174.106 30.1845 174.425 30.5845C174.744 30.9783 174.991 31.3501 175.166 31.7001H175.306V24.5189H178.709V43.7188H175.372V41.45H175.166C174.991 41.8 174.738 42.1719 174.406 42.5656C174.075 42.9531 173.638 43.2844 173.094 43.5594C172.55 43.8344 171.866 43.9719 171.041 43.9719ZM171.988 41.1875C172.706 41.1875 173.319 40.9938 173.825 40.6063C174.331 40.2125 174.716 39.6657 174.978 38.9657C175.241 38.2657 175.372 37.4501 175.372 36.5188C175.372 35.5876 175.241 34.7782 174.978 34.0907C174.722 33.4032 174.341 32.8689 173.834 32.4876C173.334 32.1064 172.719 31.9157 171.988 31.9157C171.231 31.9157 170.6 32.1126 170.094 32.5064C169.588 32.9001 169.206 33.4439 168.95 34.1376C168.694 34.8313 168.566 35.6251 168.566 36.5188C168.566 37.4188 168.694 38.2219 168.95 38.9282C169.213 39.6282 169.597 40.1813 170.103 40.5875C170.616 40.9875 171.244 41.1875 171.988 41.1875ZM188.701 44C187.257 44 186.01 43.7 184.96 43.1C183.916 42.4938 183.113 41.6375 182.551 40.5313C181.988 39.4188 181.707 38.1094 181.707 36.6032C181.707 35.122 181.988 33.822 182.551 32.7032C183.12 31.5782 183.913 30.7033 184.932 30.0783C185.951 29.447 187.148 29.1314 188.523 29.1314C189.41 29.1314 190.248 29.2751 191.035 29.5626C191.829 29.8439 192.529 30.2814 193.135 30.8751C193.748 31.4689 194.229 32.2251 194.579 33.1439C194.929 34.0563 195.104 35.1438 195.104 36.4063V37.4469H183.301V35.1595H191.851C191.844 34.5095 191.704 33.9314 191.429 33.4251C191.154 32.9126 190.769 32.5095 190.276 32.2157C189.788 31.922 189.219 31.7751 188.569 31.7751C187.876 31.7751 187.266 31.9439 186.741 32.2814C186.216 32.6126 185.807 33.0501 185.513 33.5939C185.226 34.1313 185.079 34.722 185.073 35.3657V37.3626C185.073 38.2001 185.226 38.9188 185.532 39.5188C185.838 40.1125 186.266 40.5688 186.816 40.8875C187.366 41.2 188.01 41.3563 188.748 41.3563C189.241 41.3563 189.688 41.2875 190.088 41.15C190.488 41.0063 190.835 40.7969 191.129 40.5219C191.423 40.2469 191.644 39.9063 191.794 39.5L194.963 39.8563C194.763 40.6938 194.382 41.425 193.819 42.05C193.263 42.6688 192.551 43.15 191.682 43.4938C190.813 43.8312 189.819 44 188.701 44ZM201.369 24.5189V43.7188H197.975V24.5189H201.369ZM204.858 43.7188V29.3189H208.252V43.7188H204.858ZM206.565 27.2752C206.027 27.2752 205.565 27.097 205.177 26.7408C204.79 26.3783 204.596 25.9439 204.596 25.4377C204.596 24.9252 204.79 24.4908 205.177 24.1346C205.565 23.7721 206.027 23.5908 206.565 23.5908C207.108 23.5908 207.571 23.7721 207.952 24.1346C208.34 24.4908 208.533 24.9252 208.533 25.4377C208.533 25.9439 208.34 26.3783 207.952 26.7408C207.571 27.097 207.108 27.2752 206.565 27.2752ZM224.604 29.3189L219.476 43.7188H215.726L210.598 29.3189H214.217L217.526 40.0157H217.676L220.995 29.3189H224.604ZM232.838 44C231.394 44 230.147 43.7 229.097 43.1C228.053 42.4938 227.25 41.6375 226.688 40.5313C226.125 39.4188 225.844 38.1094 225.844 36.6032C225.844 35.122 226.125 33.822 226.688 32.7032C227.257 31.5782 228.05 30.7033 229.069 30.0783C230.088 29.447 231.285 29.1314 232.66 29.1314C233.547 29.1314 234.385 29.2751 235.172 29.5626C235.966 29.8439 236.666 30.2814 237.272 30.8751C237.885 31.4689 238.366 32.2251 238.716 33.1439C239.066 34.0563 239.241 35.1438 239.241 36.4063V37.4469H227.438V35.1595H235.988C235.981 34.5095 235.841 33.9314 235.566 33.4251C235.291 32.9126 234.906 32.5095 234.413 32.2157C233.925 31.922 233.356 31.7751 232.707 31.7751C232.013 31.7751 231.403 31.9439 230.878 32.2814C230.353 32.6126 229.944 33.0501 229.65 33.5939C229.363 34.1313 229.216 34.722 229.21 35.3657V37.3626C229.21 38.2001 229.363 38.9188 229.669 39.5188C229.975 40.1125 230.403 40.5688 230.953 40.8875C231.503 41.2 232.147 41.3563 232.885 41.3563C233.378 41.3563 233.825 41.2875 234.225 41.15C234.625 41.0063 234.972 40.7969 235.266 40.5219C235.56 40.2469 235.781 39.9063 235.931 39.5L239.1 39.8563C238.9 40.6938 238.519 41.425 237.956 42.05C237.4 42.6688 236.688 43.15 235.819 43.4938C234.95 43.8312 233.956 44 232.838 44ZM242.112 43.7188V29.3189H245.402V31.7189H245.552C245.815 30.8876 246.265 30.247 246.902 29.797C247.546 29.3408 248.281 29.1126 249.106 29.1126C249.293 29.1126 249.502 29.122 249.734 29.1408C249.971 29.1533 250.168 29.1751 250.324 29.2064V32.3282C250.181 32.2782 249.952 32.2345 249.64 32.197C249.334 32.1532 249.037 32.1314 248.749 32.1314C248.131 32.1314 247.574 32.2657 247.081 32.5345C246.593 32.797 246.209 33.1626 245.927 33.6314C245.646 34.1001 245.506 34.6407 245.506 35.2532V43.7188H242.112ZM258.361 44C256.917 44 255.67 43.7 254.62 43.1C253.577 42.4938 252.773 41.6375 252.211 40.5313C251.648 39.4188 251.367 38.1094 251.367 36.6032C251.367 35.122 251.648 33.822 252.211 32.7032C252.78 31.5782 253.573 30.7033 254.592 30.0783C255.611 29.447 256.808 29.1314 258.183 29.1314C259.07 29.1314 259.908 29.2751 260.695 29.5626C261.489 29.8439 262.189 30.2814 262.795 30.8751C263.408 31.4689 263.889 32.2251 264.239 33.1439C264.589 34.0563 264.764 35.1438 264.764 36.4063V37.4469H252.961V35.1595H261.511C261.505 34.5095 261.364 33.9314 261.089 33.4251C260.814 32.9126 260.43 32.5095 259.936 32.2157C259.448 31.922 258.88 31.7751 258.23 31.7751C257.536 31.7751 256.927 31.9439 256.402 32.2814C255.877 32.6126 255.467 33.0501 255.173 33.5939C254.886 34.1313 254.739 34.722 254.733 35.3657V37.3626C254.733 38.2001 254.886 38.9188 255.192 39.5188C255.498 40.1125 255.927 40.5688 256.477 40.8875C257.027 41.2 257.67 41.3563 258.408 41.3563C258.902 41.3563 259.348 41.2875 259.748 41.15C260.148 41.0063 260.495 40.7969 260.789 40.5219C261.083 40.2469 261.305 39.9063 261.455 39.5L264.623 39.8563C264.423 40.6938 264.042 41.425 263.48 42.05C262.923 42.6688 262.211 43.15 261.342 43.4938C260.473 43.8312 259.48 44 258.361 44ZM272.979 43.9719C271.848 43.9719 270.835 43.6813 269.941 43.1C269.048 42.5188 268.341 41.675 267.823 40.5688C267.304 39.4625 267.044 38.1188 267.044 36.5376C267.044 34.9376 267.307 33.5876 267.832 32.4876C268.363 31.3814 269.079 30.547 269.979 29.9845C270.879 29.4158 271.882 29.1314 272.988 29.1314C273.832 29.1314 274.526 29.2751 275.069 29.5626C275.613 29.8439 276.044 30.1845 276.363 30.5845C276.682 30.9783 276.929 31.3501 277.104 31.7001H277.244V24.5189H280.647V43.7188H277.31V41.45H277.104C276.929 41.8 276.676 42.1719 276.344 42.5656C276.013 42.9531 275.576 43.2844 275.032 43.5594C274.488 43.8344 273.804 43.9719 272.979 43.9719ZM273.926 41.1875C274.644 41.1875 275.257 40.9938 275.763 40.6063C276.269 40.2125 276.654 39.6657 276.916 38.9657C277.179 38.2657 277.31 37.4501 277.31 36.5188C277.31 35.5876 277.179 34.7782 276.916 34.0907C276.66 33.4032 276.279 32.8689 275.772 32.4876C275.272 32.1064 274.657 31.9157 273.926 31.9157C273.169 31.9157 272.538 32.1126 272.032 32.5064C271.526 32.9001 271.144 33.4439 270.888 34.1376C270.632 34.8313 270.504 35.6251 270.504 36.5188C270.504 37.4188 270.632 38.2219 270.888 38.9282C271.151 39.6282 271.535 40.1813 272.041 40.5875C272.554 40.9875 273.182 41.1875 273.926 41.1875Z" fill="#09090B"/>
<path d="M393.572 29.1188H395.297V35.8688C395.294 36.4875 395.163 37.0203 394.903 37.4672C394.644 37.9109 394.282 38.2531 393.816 38.4938C393.353 38.7312 392.814 38.85 392.199 38.85C391.636 38.85 391.13 38.75 390.68 38.55C390.233 38.3469 389.879 38.0469 389.616 37.65C389.354 37.2531 389.222 36.7594 389.222 36.1688H390.952C390.955 36.4281 391.011 36.6516 391.121 36.8391C391.233 37.0266 391.388 37.1703 391.585 37.2703C391.782 37.3703 392.008 37.4203 392.264 37.4203C392.543 37.4203 392.778 37.3625 392.972 37.2469C393.166 37.1281 393.313 36.9531 393.413 36.7219C393.516 36.4906 393.569 36.2063 393.572 35.8688V29.1188ZM401.698 35.6907V31.5188H403.395V38.7188H401.749V37.4391H401.674C401.512 37.8422 401.245 38.1719 400.873 38.4281C400.504 38.6844 400.049 38.8125 399.509 38.8125C399.037 38.8125 398.62 38.7078 398.257 38.4984C397.898 38.2859 397.617 37.9781 397.414 37.575C397.21 37.1688 397.109 36.6781 397.109 36.1032V31.5188H398.806V35.8407C398.806 36.2969 398.931 36.6594 399.181 36.9281C399.431 37.1969 399.759 37.3313 400.165 37.3313C400.415 37.3313 400.657 37.2703 400.892 37.1485C401.126 37.0266 401.318 36.8453 401.468 36.6047C401.621 36.361 401.698 36.0563 401.698 35.6907ZM410.83 33.4219L409.283 33.5907C409.24 33.4344 409.163 33.2876 409.054 33.1501C408.947 33.0126 408.804 32.9016 408.622 32.8172C408.441 32.7329 408.219 32.6907 407.957 32.6907C407.604 32.6907 407.307 32.7672 407.066 32.9204C406.829 33.0735 406.712 33.2719 406.715 33.5157C406.712 33.7251 406.788 33.8954 406.944 34.0266C407.104 34.1579 407.366 34.2657 407.732 34.35L408.96 34.6125C409.641 34.7594 410.147 34.9922 410.479 35.311C410.813 35.6297 410.982 36.0469 410.985 36.5625C410.982 37.0156 410.849 37.4156 410.586 37.7625C410.327 38.1063 409.966 38.375 409.504 38.5688C409.041 38.7625 408.51 38.8594 407.91 38.8594C407.029 38.8594 406.319 38.675 405.782 38.3063C405.244 37.9344 404.924 37.4172 404.821 36.7547L406.476 36.5953C406.551 36.9203 406.71 37.1656 406.954 37.3313C407.197 37.4969 407.515 37.5797 407.905 37.5797C408.308 37.5797 408.632 37.4969 408.876 37.3313C409.122 37.1656 409.246 36.961 409.246 36.7172C409.246 36.511 409.166 36.3406 409.007 36.2063C408.851 36.0719 408.607 35.9688 408.276 35.8969L407.047 35.6391C406.357 35.4953 405.846 35.2532 405.515 34.9125C405.183 34.5688 405.019 34.1344 405.022 33.6094C405.019 33.1657 405.14 32.7813 405.383 32.4563C405.63 32.1282 405.972 31.8751 406.41 31.6969C406.851 31.5157 407.358 31.4251 407.933 31.4251C408.777 31.4251 409.441 31.6048 409.926 31.9641C410.413 32.3235 410.715 32.8094 410.83 33.4219ZM415.979 31.5188V32.8313H411.84V31.5188H415.979ZM412.862 29.7938H414.559V36.5531C414.559 36.7813 414.593 36.9563 414.662 37.0781C414.734 37.1969 414.828 37.2781 414.943 37.3219C415.059 37.3656 415.187 37.3875 415.328 37.3875C415.434 37.3875 415.531 37.3797 415.618 37.3641C415.709 37.3485 415.778 37.3344 415.825 37.3219L416.111 38.6484C416.02 38.6797 415.89 38.7141 415.722 38.7516C415.556 38.7891 415.353 38.8109 415.112 38.8172C414.687 38.8297 414.304 38.7656 413.964 38.625C413.623 38.4813 413.353 38.2594 413.153 37.9594C412.956 37.6594 412.859 37.2844 412.862 36.8344V29.7938ZM422.37 34.5V38.7188H420.673V31.5188H422.295V32.7422H422.379C422.545 32.3391 422.809 32.0188 423.171 31.7813C423.537 31.5438 423.988 31.4251 424.526 31.4251C425.023 31.4251 425.455 31.5313 425.824 31.7438C426.196 31.9563 426.484 32.2641 426.687 32.6672C426.893 33.0704 426.995 33.5594 426.991 34.1344V38.7188H425.295V34.3969C425.295 33.9157 425.17 33.5391 424.92 33.2672C424.673 32.9954 424.33 32.8594 423.893 32.8594C423.596 32.8594 423.332 32.9251 423.101 33.0563C422.873 33.1844 422.693 33.3704 422.562 33.6141C422.434 33.8579 422.37 34.1532 422.37 34.5ZM431.857 38.8594C431.154 38.8594 430.544 38.7047 430.029 38.3953C429.513 38.0859 429.113 37.6531 428.829 37.0969C428.548 36.5406 428.407 35.8907 428.407 35.1469C428.407 34.4032 428.548 33.7516 428.829 33.1922C429.113 32.6329 429.513 32.1985 430.029 31.8891C430.544 31.5798 431.154 31.4251 431.857 31.4251C432.56 31.4251 433.169 31.5798 433.685 31.8891C434.201 32.1985 434.599 32.6329 434.88 33.1922C435.165 33.7516 435.307 34.4032 435.307 35.1469C435.307 35.8907 435.165 36.5406 434.88 37.0969C434.599 37.6531 434.201 38.0859 433.685 38.3953C433.169 38.7047 432.56 38.8594 431.857 38.8594ZM431.866 37.5C432.248 37.5 432.566 37.3953 432.823 37.186C433.079 36.9735 433.269 36.6891 433.394 36.3328C433.523 35.9766 433.587 35.5797 433.587 35.1422C433.587 34.7016 433.523 34.3032 433.394 33.9469C433.269 33.5876 433.079 33.3016 432.823 33.0891C432.566 32.8766 432.248 32.7704 431.866 32.7704C431.476 32.7704 431.151 32.8766 430.891 33.0891C430.635 33.3016 430.443 33.5876 430.315 33.9469C430.19 34.3032 430.127 34.7016 430.127 35.1422C430.127 35.5797 430.19 35.9766 430.315 36.3328C430.443 36.6891 430.635 36.9735 430.891 37.186C431.151 37.3953 431.476 37.5 431.866 37.5ZM438.027 38.7188L435.992 31.5188H437.722L438.988 36.5813H439.053L440.347 31.5188H442.058L443.352 36.5531H443.422L444.669 31.5188H446.403L444.364 38.7188H442.597L441.247 33.8532H441.149L439.799 38.7188H438.027Z" fill="#09090B"/>
<path d="M67.1541 61.8785H69.0179L72.7453 68.1522H72.9028L76.6303 61.8785H78.494L73.6378 69.7797V75.3184H72.0103V69.7797L67.1541 61.8785ZM83.0582 75.5284C82.1482 75.5284 81.3498 75.3118 80.6629 74.8787C79.9804 74.4456 79.4467 73.8396 79.0617 73.0609C78.681 72.2821 78.4907 71.3721 78.4907 70.3309C78.4907 69.2809 78.681 68.3644 79.0617 67.5813C79.4467 66.7981 79.9804 66.19 80.6629 65.7569C81.3498 65.3238 82.1482 65.1072 83.0582 65.1072C83.9682 65.1072 84.7644 65.3238 85.4469 65.7569C86.1338 66.19 86.6675 66.7981 87.0482 67.5813C87.4331 68.3644 87.6256 69.2809 87.6256 70.3309C87.6256 71.3721 87.4331 72.2821 87.0482 73.0609C86.6675 73.8396 86.1338 74.4456 85.4469 74.8787C84.7644 75.3118 83.9682 75.5284 83.0582 75.5284ZM83.0582 74.1371C83.7494 74.1371 84.3182 73.9599 84.7644 73.6056C85.2107 73.2512 85.541 72.7853 85.7554 72.2078C85.9697 71.6303 86.0769 71.0047 86.0769 70.3309C86.0769 69.6572 85.9697 69.0294 85.7554 68.4475C85.541 67.8656 85.2107 67.3953 84.7644 67.0366C84.3182 66.6778 83.7494 66.4984 83.0582 66.4984C82.3669 66.4984 81.7982 66.6778 81.352 67.0366C80.9057 67.3953 80.5754 67.8656 80.361 68.4475C80.1467 69.0294 80.0395 69.6572 80.0395 70.3309C80.0395 71.0047 80.1467 71.6303 80.361 72.2078C80.5754 72.7853 80.9057 73.2512 81.352 73.6056C81.7982 73.9599 82.3669 74.1371 83.0582 74.1371ZM96.3422 71.1972V65.2385H97.8909V75.3184H96.3422V73.6121H96.2372C96.0009 74.124 95.6335 74.5593 95.1347 74.9181C94.636 75.2724 94.006 75.4496 93.2447 75.4496C92.6147 75.4496 92.0547 75.3118 91.5647 75.0362C91.0747 74.7562 90.6898 74.3362 90.4098 73.7762C90.1298 73.2118 89.9898 72.5009 89.9898 71.6434V65.2385H91.5385V71.5384C91.5385 72.2734 91.7441 72.8596 92.1554 73.2971C92.571 73.7346 93.1004 73.9534 93.7435 73.9534C94.1285 73.9534 94.52 73.8549 94.9181 73.6581C95.3206 73.4612 95.6575 73.1593 95.9288 72.7524C96.2044 72.3456 96.3422 71.8271 96.3422 71.1972ZM100.728 75.3184V65.2385H102.224V66.7609H102.329C102.513 66.2622 102.845 65.8575 103.326 65.5469C103.808 65.2363 104.35 65.081 104.954 65.081C105.067 65.081 105.21 65.0832 105.38 65.0875C105.551 65.0919 105.68 65.0985 105.767 65.1072V66.6822C105.715 66.6691 105.595 66.6494 105.407 66.6231C105.223 66.5925 105.028 66.5772 104.822 66.5772C104.333 66.5772 103.895 66.68 103.51 66.8856C103.129 67.0869 102.828 67.3669 102.604 67.7256C102.386 68.08 102.276 68.4847 102.276 68.9397V75.3184H100.728ZM115.085 75.3184L112.013 65.2385H113.641L115.819 72.9559H115.924L118.077 65.2385H119.731L121.857 72.9296H121.962L124.141 65.2385H125.768L122.697 75.3184H121.174L118.969 67.5747H118.812L116.607 75.3184H115.085ZM131.699 75.5284C130.728 75.5284 129.89 75.314 129.186 74.8852C128.486 74.4521 127.945 73.8484 127.565 73.074C127.188 72.2953 127 71.3896 127 70.3572C127 69.3247 127.188 68.4147 127.565 67.6272C127.945 66.8353 128.475 66.2185 129.153 65.7766C129.835 65.3303 130.631 65.1072 131.541 65.1072C132.066 65.1072 132.585 65.1947 133.097 65.3697C133.609 65.5447 134.075 65.8291 134.495 66.2228C134.915 66.6122 135.249 67.1284 135.499 67.7716C135.748 68.4147 135.873 69.2065 135.873 70.1472V70.8034H128.103V69.4647H134.298C134.298 68.8959 134.184 68.3884 133.956 67.9422C133.733 67.4959 133.414 67.1438 132.998 66.8856C132.587 66.6275 132.101 66.4984 131.541 66.4984C130.925 66.4984 130.391 66.6516 129.94 66.9578C129.494 67.2597 129.151 67.6534 128.91 68.1391C128.669 68.6247 128.549 69.1453 128.549 69.7009V70.5934C128.549 71.3546 128.68 72 128.943 72.5293C129.21 73.0543 129.579 73.4546 130.052 73.7303C130.524 74.0015 131.073 74.1371 131.699 74.1371C132.106 74.1371 132.473 74.0802 132.801 73.9665C133.134 73.8484 133.42 73.6734 133.661 73.4415C133.902 73.2053 134.088 72.9121 134.219 72.5621L135.715 72.9821C135.558 73.4896 135.293 73.9359 134.921 74.3209C134.549 74.7015 134.09 74.999 133.543 75.2134C132.996 75.4234 132.381 75.5284 131.699 75.5284ZM138.439 75.3184V61.8785H139.987V66.8397H140.119C140.232 66.6647 140.39 66.4416 140.591 66.1703C140.797 65.8947 141.09 65.6497 141.47 65.4353C141.855 65.2166 142.376 65.1072 143.032 65.1072C143.881 65.1072 144.629 65.3194 145.277 65.7438C145.924 66.1681 146.429 66.7697 146.793 67.5484C147.156 68.3272 147.337 69.2459 147.337 70.3047C147.337 71.3721 147.156 72.2975 146.793 73.0806C146.429 73.8593 145.926 74.4631 145.283 74.8918C144.64 75.3162 143.899 75.5284 143.059 75.5284C142.411 75.5284 141.893 75.4212 141.503 75.2068C141.114 74.9881 140.814 74.7409 140.604 74.4652C140.394 74.1852 140.232 73.9534 140.119 73.7696H139.935V75.3184H138.439ZM139.961 70.2784C139.961 71.0397 140.073 71.7112 140.296 72.2931C140.519 72.8706 140.845 73.3234 141.274 73.6515C141.702 73.9752 142.227 74.1371 142.849 74.1371C143.496 74.1371 144.036 73.9665 144.469 73.6253C144.907 73.2796 145.235 72.8159 145.454 72.234C145.677 71.6478 145.788 70.9959 145.788 70.2784C145.788 69.5697 145.679 68.9309 145.46 68.3622C145.246 67.7891 144.92 67.3363 144.483 67.0038C144.049 66.6669 143.505 66.4984 142.849 66.4984C142.219 66.4984 141.689 66.6581 141.26 66.9775C140.832 67.2925 140.508 67.7344 140.289 68.3031C140.07 68.8675 139.961 69.5259 139.961 70.2784ZM156.846 67.4959L155.455 67.8897C155.367 67.6578 155.238 67.4325 155.068 67.2138C154.902 66.9906 154.674 66.8069 154.385 66.6625C154.097 66.5181 153.727 66.4459 153.276 66.4459C152.659 66.4459 152.145 66.5881 151.734 66.8725C151.327 67.1525 151.124 67.5091 151.124 67.9422C151.124 68.3272 151.264 68.6312 151.544 68.8544C151.824 69.0775 152.261 69.2634 152.856 69.4122L154.352 69.7797C155.254 69.9984 155.925 70.3331 156.367 70.7837C156.809 71.23 157.03 71.8053 157.03 72.5096C157.03 73.0871 156.864 73.6034 156.531 74.0584C156.203 74.5134 155.744 74.8721 155.153 75.1346C154.562 75.3971 153.876 75.5284 153.092 75.5284C152.064 75.5284 151.213 75.3052 150.54 74.859C149.866 74.4127 149.439 73.7609 149.26 72.9034L150.73 72.5359C150.87 73.0784 151.135 73.4853 151.524 73.7565C151.918 74.0277 152.432 74.1634 153.066 74.1634C153.788 74.1634 154.361 74.0102 154.786 73.704C155.214 73.3934 155.429 73.0215 155.429 72.5884C155.429 72.2384 155.306 71.9453 155.061 71.709C154.816 71.4684 154.44 71.289 153.932 71.1709L152.252 70.7772C151.329 70.5584 150.651 70.2193 150.218 69.76C149.789 69.2962 149.575 68.7166 149.575 68.0209C149.575 67.4522 149.735 66.9491 150.054 66.5116C150.378 66.0741 150.817 65.7306 151.373 65.4813C151.933 65.2319 152.567 65.1072 153.276 65.1072C154.274 65.1072 155.057 65.326 155.626 65.7635C156.199 66.201 156.606 66.7784 156.846 67.4959ZM159.361 75.3184V65.2385H160.91V75.3184H159.361ZM160.149 63.5585C159.847 63.5585 159.587 63.4557 159.368 63.25C159.153 63.0444 159.046 62.7972 159.046 62.5085C159.046 62.2197 159.153 61.9726 159.368 61.7669C159.587 61.5613 159.847 61.4585 160.149 61.4585C160.451 61.4585 160.709 61.5613 160.923 61.7669C161.142 61.9726 161.251 62.2197 161.251 62.5085C161.251 62.7972 161.142 63.0444 160.923 63.25C160.709 63.4557 160.451 63.5585 160.149 63.5585ZM168.13 65.2385V66.5509H162.907V65.2385H168.13ZM164.429 62.8235H165.978V72.4309C165.978 72.8684 166.041 73.1965 166.168 73.4153C166.299 73.6296 166.466 73.774 166.667 73.8484C166.872 73.9184 167.089 73.9534 167.317 73.9534C167.487 73.9534 167.627 73.9446 167.737 73.9271C167.846 73.9052 167.933 73.8877 167.999 73.8746L168.314 75.2659C168.209 75.3052 168.062 75.3446 167.874 75.384C167.686 75.4277 167.448 75.4496 167.159 75.4496C166.722 75.4496 166.293 75.3555 165.873 75.1674C165.457 74.9793 165.112 74.6927 164.836 74.3077C164.565 73.9227 164.429 73.4371 164.429 72.8509V62.8235ZM174.578 75.5284C173.607 75.5284 172.769 75.314 172.064 74.8852C171.364 74.4521 170.824 73.8484 170.444 73.074C170.067 72.2953 169.879 71.3896 169.879 70.3572C169.879 69.3247 170.067 68.4147 170.444 67.6272C170.824 66.8353 171.354 66.2185 172.032 65.7766C172.714 65.3303 173.51 65.1072 174.42 65.1072C174.945 65.1072 175.464 65.1947 175.976 65.3697C176.488 65.5447 176.953 65.8291 177.373 66.2228C177.793 66.6122 178.128 67.1284 178.378 67.7716C178.627 68.4147 178.752 69.2065 178.752 70.1472V70.8034H170.982V69.4647H177.177C177.177 68.8959 177.063 68.3884 176.835 67.9422C176.612 67.4959 176.293 67.1438 175.877 66.8856C175.466 66.6275 174.98 66.4984 174.42 66.4984C173.804 66.4984 173.27 66.6516 172.819 66.9578C172.373 67.2597 172.029 67.6534 171.789 68.1391C171.548 68.6247 171.428 69.1453 171.428 69.7009V70.5934C171.428 71.3546 171.559 72 171.822 72.5293C172.089 73.0543 172.458 73.4546 172.931 73.7303C173.403 74.0015 173.952 74.1371 174.578 74.1371C174.985 74.1371 175.352 74.0802 175.68 73.9665C176.013 73.8484 176.299 73.6734 176.54 73.4415C176.781 73.2053 176.967 72.9121 177.098 72.5621L178.594 72.9821C178.437 73.4896 178.172 73.9359 177.8 74.3209C177.428 74.7015 176.969 74.999 176.422 75.2134C175.875 75.4234 175.26 75.5284 174.578 75.5284ZM187.854 69.2547V75.3184H186.305V61.8785H187.854V66.8134H187.985C188.221 66.2928 188.576 65.8794 189.048 65.5731C189.525 65.2625 190.159 65.1072 190.951 65.1072C191.638 65.1072 192.24 65.245 192.756 65.5206C193.272 65.7919 193.672 66.2097 193.957 66.7741C194.245 67.3341 194.39 68.0472 194.39 68.9134V75.3184H192.841V69.0184C192.841 68.2178 192.633 67.5988 192.218 67.1613C191.806 66.7194 191.236 66.4984 190.505 66.4984C189.997 66.4984 189.542 66.6056 189.14 66.82C188.742 67.0344 188.427 67.3472 188.195 67.7584C187.967 68.1697 187.854 68.6684 187.854 69.2547ZM200.189 75.5546C199.551 75.5546 198.971 75.4343 198.45 75.1937C197.93 74.9487 197.516 74.5965 197.21 74.1371C196.904 73.6734 196.751 73.1134 196.751 72.4571C196.751 71.8796 196.864 71.4115 197.092 71.0528C197.319 70.6897 197.624 70.4053 198.004 70.1997C198.385 69.994 198.805 69.8409 199.264 69.7403C199.728 69.6353 200.194 69.5522 200.662 69.4909C201.274 69.4122 201.771 69.3531 202.152 69.3137C202.537 69.27 202.817 69.1978 202.992 69.0972C203.171 68.9965 203.261 68.8216 203.261 68.5722V68.5197C203.261 67.8722 203.083 67.3691 202.729 67.0103C202.379 66.6516 201.848 66.4722 201.134 66.4722C200.395 66.4722 199.815 66.6341 199.395 66.9578C198.975 67.2816 198.68 67.6272 198.509 67.9947L197.039 67.4697C197.302 66.8572 197.652 66.3803 198.089 66.0391C198.531 65.6935 199.013 65.4528 199.533 65.3172C200.058 65.1772 200.574 65.1072 201.082 65.1072C201.406 65.1072 201.778 65.1466 202.198 65.2253C202.622 65.2997 203.031 65.455 203.425 65.6913C203.823 65.9275 204.153 66.2841 204.416 66.7609C204.678 67.2378 204.809 67.8766 204.809 68.6772V75.3184H203.261V73.9534H203.182C203.077 74.1721 202.902 74.4062 202.657 74.6556C202.412 74.9049 202.086 75.1171 201.679 75.2921C201.272 75.4671 200.776 75.5546 200.189 75.5546ZM200.426 74.1634C201.038 74.1634 201.554 74.0431 201.974 73.8024C202.399 73.5618 202.718 73.2512 202.933 72.8706C203.151 72.49 203.261 72.0896 203.261 71.6696V70.2522C203.195 70.3309 203.051 70.4031 202.828 70.4687C202.609 70.53 202.355 70.5847 202.066 70.6328C201.782 70.6765 201.504 70.7159 201.233 70.7509C200.966 70.7815 200.749 70.8078 200.583 70.8297C200.181 70.8822 199.804 70.9675 199.454 71.0856C199.109 71.1993 198.829 71.3721 198.614 71.604C198.404 71.8315 198.299 72.1421 198.299 72.5359C198.299 73.074 198.498 73.4809 198.897 73.7565C199.299 74.0277 199.809 74.1634 200.426 74.1634ZM214.776 67.4959L213.385 67.8897C213.297 67.6578 213.168 67.4325 212.998 67.2138C212.831 66.9906 212.604 66.8069 212.315 66.6625C212.026 66.5181 211.657 66.4459 211.206 66.4459C210.589 66.4459 210.075 66.5881 209.664 66.8725C209.257 67.1525 209.054 67.5091 209.054 67.9422C209.054 68.3272 209.194 68.6312 209.474 68.8544C209.754 69.0775 210.191 69.2634 210.786 69.4122L212.282 69.7797C213.184 69.9984 213.855 70.3331 214.297 70.7837C214.739 71.23 214.96 71.8053 214.96 72.5096C214.96 73.0871 214.794 73.6034 214.461 74.0584C214.133 74.5134 213.674 74.8721 213.083 75.1346C212.492 75.3971 211.805 75.5284 211.022 75.5284C209.994 75.5284 209.143 75.3052 208.47 74.859C207.796 74.4127 207.369 73.7609 207.19 72.9034L208.66 72.5359C208.8 73.0784 209.065 73.4853 209.454 73.7565C209.848 74.0277 210.362 74.1634 210.996 74.1634C211.718 74.1634 212.291 74.0102 212.715 73.704C213.144 73.3934 213.359 73.0215 213.359 72.5884C213.359 72.2384 213.236 71.9453 212.991 71.709C212.746 71.4684 212.37 71.289 211.862 71.1709L210.182 70.7772C209.259 70.5584 208.581 70.2193 208.148 69.76C207.719 69.2962 207.505 68.7166 207.505 68.0209C207.505 67.4522 207.665 66.9491 207.984 66.5116C208.308 66.0741 208.747 65.7306 209.303 65.4813C209.863 65.2319 210.497 65.1072 211.206 65.1072C212.204 65.1072 212.987 65.326 213.555 65.7635C214.129 66.201 214.535 66.7784 214.776 67.4959ZM222.699 75.3184V61.8785H224.247V66.8397H224.379C224.492 66.6647 224.65 66.4416 224.851 66.1703C225.057 65.8947 225.35 65.6497 225.73 65.4353C226.115 65.2166 226.636 65.1072 227.292 65.1072C228.141 65.1072 228.889 65.3194 229.537 65.7438C230.184 66.1681 230.689 66.7697 231.053 67.5484C231.416 68.3272 231.597 69.2459 231.597 70.3047C231.597 71.3721 231.416 72.2975 231.053 73.0806C230.689 73.8593 230.186 74.4631 229.543 74.8918C228.9 75.3162 228.159 75.5284 227.319 75.5284C226.671 75.5284 226.153 75.4212 225.763 75.2068C225.374 74.9881 225.074 74.7409 224.864 74.4652C224.654 74.1852 224.492 73.9534 224.379 73.7696H224.195V75.3184H222.699ZM224.221 70.2784C224.221 71.0397 224.333 71.7112 224.556 72.2931C224.779 72.8706 225.105 73.3234 225.534 73.6515C225.962 73.9752 226.487 74.1371 227.109 74.1371C227.756 74.1371 228.296 73.9665 228.729 73.6253C229.167 73.2796 229.495 72.8159 229.714 72.234C229.937 71.6478 230.048 70.9959 230.048 70.2784C230.048 69.5697 229.939 68.9309 229.72 68.3622C229.506 67.7891 229.18 67.3363 228.743 67.0038C228.309 66.6669 227.765 66.4984 227.109 66.4984C226.479 66.4984 225.949 66.6581 225.52 66.9775C225.092 67.2925 224.768 67.7344 224.549 68.3031C224.33 68.8675 224.221 69.5259 224.221 70.2784ZM238.192 75.5284C237.221 75.5284 236.383 75.314 235.679 74.8852C234.979 74.4521 234.439 73.8484 234.058 73.074C233.682 72.2953 233.494 71.3896 233.494 70.3572C233.494 69.3247 233.682 68.4147 234.058 67.6272C234.439 66.8353 234.968 66.2185 235.646 65.7766C236.329 65.3303 237.125 65.1072 238.035 65.1072C238.56 65.1072 239.078 65.1947 239.59 65.3697C240.102 65.5447 240.568 65.8291 240.988 66.2228C241.408 66.6122 241.743 67.1284 241.992 67.7716C242.241 68.4147 242.366 69.2065 242.366 70.1472V70.8034H234.596V69.4647H240.791C240.791 68.8959 240.677 68.3884 240.45 67.9422C240.227 67.4959 239.907 67.1438 239.492 66.8856C239.081 66.6275 238.595 66.4984 238.035 66.4984C237.418 66.4984 236.884 66.6516 236.434 66.9578C235.987 67.2597 235.644 67.6534 235.403 68.1391C235.163 68.6247 235.042 69.1453 235.042 69.7009V70.5934C235.042 71.3546 235.174 72 235.436 72.5293C235.703 73.0543 236.073 73.4546 236.545 73.7303C237.018 74.0015 237.567 74.1371 238.192 74.1371C238.599 74.1371 238.967 74.0802 239.295 73.9665C239.627 73.8484 239.914 73.6734 240.155 73.4415C240.395 73.2053 240.581 72.9121 240.712 72.5621L242.209 72.9821C242.051 73.4896 241.786 73.9359 241.415 74.3209C241.043 74.7015 240.583 74.999 240.037 75.2134C239.49 75.4234 238.875 75.5284 238.192 75.5284ZM248.948 75.5284C247.977 75.5284 247.139 75.314 246.435 74.8852C245.735 74.4521 245.195 73.8484 244.814 73.074C244.438 72.2953 244.25 71.3896 244.25 70.3572C244.25 69.3247 244.438 68.4147 244.814 67.6272C245.195 66.8353 245.724 66.2185 246.402 65.7766C247.085 65.3303 247.881 65.1072 248.791 65.1072C249.316 65.1072 249.834 65.1947 250.346 65.3697C250.858 65.5447 251.324 65.8291 251.744 66.2228C252.164 66.6122 252.499 67.1284 252.748 67.7716C252.997 68.4147 253.122 69.2065 253.122 70.1472V70.8034H245.352V69.4647H251.547C251.547 68.8959 251.433 68.3884 251.206 67.9422C250.983 67.4959 250.663 67.1438 250.248 66.8856C249.836 66.6275 249.351 66.4984 248.791 66.4984C248.174 66.4984 247.64 66.6516 247.19 66.9578C246.743 67.2597 246.4 67.6534 246.159 68.1391C245.919 68.6247 245.798 69.1453 245.798 69.7009V70.5934C245.798 71.3546 245.93 72 246.192 72.5293C246.459 73.0543 246.829 73.4546 247.301 73.7303C247.774 74.0015 248.323 74.1371 248.948 74.1371C249.355 74.1371 249.723 74.0802 250.051 73.9665C250.383 73.8484 250.67 73.6734 250.91 73.4415C251.151 73.2053 251.337 72.9121 251.468 72.5621L252.964 72.9821C252.807 73.4896 252.542 73.9359 252.17 74.3209C251.799 74.7015 251.339 74.999 250.792 75.2134C250.245 75.4234 249.631 75.5284 248.948 75.5284ZM257.027 69.2547V75.3184H255.478V65.2385H256.974V66.8134H257.105C257.342 66.3016 257.7 65.8903 258.182 65.5797C258.663 65.2647 259.284 65.1072 260.045 65.1072C260.728 65.1072 261.325 65.2472 261.837 65.5272C262.349 65.8028 262.747 66.2228 263.031 66.7872C263.316 67.3472 263.458 68.0559 263.458 68.9134V75.3184H261.909V69.0184C261.909 68.2266 261.703 67.6097 261.292 67.1678C260.881 66.7216 260.317 66.4984 259.599 66.4984C259.105 66.4984 258.663 66.6056 258.274 66.82C257.889 67.0344 257.584 67.3472 257.361 67.7584C257.138 68.1697 257.027 68.6684 257.027 69.2547ZM275.292 75.5284C274.452 75.5284 273.71 75.3162 273.067 74.8918C272.424 74.4631 271.921 73.8593 271.558 73.0806C271.194 72.2975 271.013 71.3721 271.013 70.3047C271.013 69.2459 271.194 68.3272 271.558 67.5484C271.921 66.7697 272.426 66.1681 273.073 65.7438C273.721 65.3194 274.469 65.1072 275.318 65.1072C275.974 65.1072 276.492 65.2166 276.873 65.4353C277.258 65.6497 277.551 65.8947 277.752 66.1703C277.958 66.4416 278.118 66.6647 278.232 66.8397H278.363V61.8785H279.911V75.3184H278.415V73.7696H278.232C278.118 73.9534 277.956 74.1852 277.746 74.4652C277.536 74.7409 277.236 74.9881 276.847 75.2068C276.457 75.4212 275.939 75.5284 275.292 75.5284ZM275.502 74.1371C276.123 74.1371 276.648 73.9752 277.077 73.6515C277.505 73.3234 277.831 72.8706 278.054 72.2931C278.277 71.7112 278.389 71.0397 278.389 70.2784C278.389 69.5259 278.28 68.8675 278.061 68.3031C277.842 67.7344 277.518 67.2925 277.09 66.9775C276.661 66.6581 276.132 66.4984 275.502 66.4984C274.845 66.4984 274.298 66.6669 273.861 67.0038C273.428 67.3363 273.102 67.7891 272.883 68.3622C272.669 68.9309 272.562 69.5697 272.562 70.2784C272.562 70.9959 272.671 71.6478 272.89 72.234C273.113 72.8159 273.441 73.2796 273.874 73.6253C274.312 73.9665 274.854 74.1371 275.502 74.1371ZM287.189 75.5284C286.218 75.5284 285.38 75.314 284.676 74.8852C283.976 74.4521 283.436 73.8484 283.055 73.074C282.679 72.2953 282.491 71.3896 282.491 70.3572C282.491 69.3247 282.679 68.4147 283.055 67.6272C283.436 66.8353 283.965 66.2185 284.643 65.7766C285.325 65.3303 286.122 65.1072 287.032 65.1072C287.557 65.1072 288.075 65.1947 288.587 65.3697C289.099 65.5447 289.565 65.8291 289.985 66.2228C290.405 66.6122 290.74 67.1284 290.989 67.7716C291.238 68.4147 291.363 69.2065 291.363 70.1472V70.8034H283.593V69.4647H289.788C289.788 68.8959 289.674 68.3884 289.447 67.9422C289.224 67.4959 288.904 67.1438 288.489 66.8856C288.077 66.6275 287.592 66.4984 287.032 66.4984C286.415 66.4984 285.881 66.6516 285.43 66.9578C284.984 67.2597 284.641 67.6534 284.4 68.1391C284.16 68.6247 284.039 69.1453 284.039 69.7009V70.5934C284.039 71.3546 284.171 72 284.433 72.5293C284.7 73.0543 285.07 73.4546 285.542 73.7303C286.015 74.0015 286.564 74.1371 287.189 74.1371C287.596 74.1371 287.964 74.0802 288.292 73.9665C288.624 73.8484 288.911 73.6734 289.151 73.4415C289.392 73.2053 289.578 72.9121 289.709 72.5621L291.205 72.9821C291.048 73.4896 290.783 73.9359 290.411 74.3209C290.04 74.7015 289.58 74.999 289.033 75.2134C288.486 75.4234 287.872 75.5284 287.189 75.5284ZM293.719 79.0983V65.2385H295.215V66.8397H295.399C295.513 66.6647 295.67 66.4416 295.871 66.1703C296.077 65.8947 296.37 65.6497 296.751 65.4353C297.136 65.2166 297.656 65.1072 298.313 65.1072C299.161 65.1072 299.909 65.3194 300.557 65.7438C301.204 66.1681 301.71 66.7697 302.073 67.5484C302.436 68.3272 302.618 69.2459 302.618 70.3047C302.618 71.3721 302.436 72.2975 302.073 73.0806C301.71 73.8593 301.207 74.4631 300.563 74.8918C299.92 75.3162 299.179 75.5284 298.339 75.5284C297.691 75.5284 297.173 75.4212 296.784 75.2068C296.394 74.9881 296.094 74.7409 295.884 74.4652C295.674 74.1852 295.513 73.9534 295.399 73.7696H295.268V79.0983H293.719ZM295.241 70.2784C295.241 71.0397 295.353 71.7112 295.576 72.2931C295.799 72.8706 296.125 73.3234 296.554 73.6515C296.983 73.9752 297.508 74.1371 298.129 74.1371C298.776 74.1371 299.317 73.9665 299.75 73.6253C300.187 73.2796 300.515 72.8159 300.734 72.234C300.957 71.6478 301.069 70.9959 301.069 70.2784C301.069 69.5697 300.959 68.9309 300.741 68.3622C300.526 67.7891 300.2 67.3363 299.763 67.0038C299.33 66.6669 298.785 66.4984 298.129 66.4984C297.499 66.4984 296.969 66.6581 296.541 66.9775C296.112 67.2925 295.788 67.7344 295.569 68.3031C295.351 68.8675 295.241 69.5259 295.241 70.2784ZM306.529 61.8785V75.3184H304.98V61.8785H306.529ZM313.46 75.5284C312.55 75.5284 311.752 75.3118 311.065 74.8787C310.383 74.4456 309.849 73.8396 309.464 73.0609C309.083 72.2821 308.893 71.3721 308.893 70.3309C308.893 69.2809 309.083 68.3644 309.464 67.5813C309.849 66.7981 310.383 66.19 311.065 65.7569C311.752 65.3238 312.55 65.1072 313.46 65.1072C314.37 65.1072 315.167 65.3238 315.849 65.7569C316.536 66.19 317.07 66.7981 317.45 67.5813C317.835 68.3644 318.028 69.2809 318.028 70.3309C318.028 71.3721 317.835 72.2821 317.45 73.0609C317.07 73.8396 316.536 74.4456 315.849 74.8787C315.167 75.3118 314.37 75.5284 313.46 75.5284ZM313.46 74.1371C314.152 74.1371 314.72 73.9599 315.167 73.6056C315.613 73.2512 315.943 72.7853 316.157 72.2078C316.372 71.6303 316.479 71.0047 316.479 70.3309C316.479 69.6572 316.372 69.0294 316.157 68.4475C315.943 67.8656 315.613 67.3953 315.167 67.0366C314.72 66.6778 314.152 66.4984 313.46 66.4984C312.769 66.4984 312.2 66.6778 311.754 67.0366C311.308 67.3953 310.978 67.8656 310.763 68.4475C310.549 69.0294 310.442 69.6572 310.442 70.3309C310.442 71.0047 310.549 71.6303 310.763 72.2078C310.978 72.7853 311.308 73.2512 311.754 73.6056C312.2 73.9599 312.769 74.1371 313.46 74.1371ZM321.028 79.0983C320.766 79.0983 320.532 79.0764 320.326 79.0327C320.121 78.9933 319.978 78.9539 319.9 78.9146L320.293 77.5496C320.67 77.6458 321.002 77.6808 321.291 77.6546C321.58 77.6283 321.836 77.4993 322.059 77.2674C322.286 77.0399 322.494 76.6702 322.682 76.1584L322.971 75.3709L319.243 65.2385H320.923L323.706 73.2709H323.811L326.593 65.2385H328.273L323.995 76.7883C323.802 77.309 323.564 77.7399 323.279 78.0811C322.995 78.4268 322.665 78.6827 322.288 78.8489C321.917 79.0152 321.497 79.0983 321.028 79.0983ZM334.183 75.5284C333.212 75.5284 332.374 75.314 331.669 74.8852C330.969 74.4521 330.429 73.8484 330.048 73.074C329.672 72.2953 329.484 71.3896 329.484 70.3572C329.484 69.3247 329.672 68.4147 330.048 67.6272C330.429 66.8353 330.958 66.2185 331.637 65.7766C332.319 65.3303 333.115 65.1072 334.025 65.1072C334.55 65.1072 335.069 65.1947 335.581 65.3697C336.092 65.5447 336.558 65.8291 336.978 66.2228C337.398 66.6122 337.733 67.1284 337.982 67.7716C338.232 68.4147 338.357 69.2065 338.357 70.1472V70.8034H330.587V69.4647H336.782C336.782 68.8959 336.668 68.3884 336.44 67.9422C336.217 67.4959 335.898 67.1438 335.482 66.8856C335.071 66.6275 334.585 66.4984 334.025 66.4984C333.408 66.4984 332.875 66.6516 332.424 66.9578C331.978 67.2597 331.634 67.6534 331.394 68.1391C331.153 68.6247 331.033 69.1453 331.033 69.7009V70.5934C331.033 71.3546 331.164 72 331.427 72.5293C331.693 73.0543 332.063 73.4546 332.536 73.7303C333.008 74.0015 333.557 74.1371 334.183 74.1371C334.59 74.1371 334.957 74.0802 335.285 73.9665C335.618 73.8484 335.904 73.6734 336.145 73.4415C336.386 73.2053 336.572 72.9121 336.703 72.5621L338.199 72.9821C338.042 73.4896 337.777 73.9359 337.405 74.3209C337.033 74.7015 336.574 74.999 336.027 75.2134C335.48 75.4234 334.865 75.5284 334.183 75.5284ZM344.519 75.5284C343.679 75.5284 342.937 75.3162 342.294 74.8918C341.651 74.4631 341.148 73.8593 340.785 73.0806C340.422 72.2975 340.24 71.3721 340.24 70.3047C340.24 69.2459 340.422 68.3272 340.785 67.5484C341.148 66.7697 341.653 66.1681 342.301 65.7438C342.948 65.3194 343.696 65.1072 344.545 65.1072C345.201 65.1072 345.72 65.2166 346.1 65.4353C346.485 65.6497 346.778 65.8947 346.98 66.1703C347.185 66.4416 347.345 66.6647 347.459 66.8397H347.59V61.8785H349.139V75.3184H347.642V73.7696H347.459C347.345 73.9534 347.183 74.1852 346.973 74.4652C346.763 74.7409 346.463 74.9881 346.074 75.2068C345.685 75.4212 345.166 75.5284 344.519 75.5284ZM344.729 74.1371C345.35 74.1371 345.875 73.9752 346.304 73.6515C346.732 73.3234 347.058 72.8706 347.281 72.2931C347.505 71.7112 347.616 71.0397 347.616 70.2784C347.616 69.5259 347.507 68.8675 347.288 68.3031C347.069 67.7344 346.746 67.2925 346.317 66.9775C345.888 66.6581 345.359 66.4984 344.729 66.4984C344.072 66.4984 343.526 66.6669 343.088 67.0038C342.655 67.3363 342.329 67.7891 342.11 68.3622C341.896 68.9309 341.789 69.5697 341.789 70.2784C341.789 70.9959 341.898 71.6478 342.117 72.234C342.34 72.8159 342.668 73.2796 343.101 73.6253C343.539 73.9665 344.081 74.1371 344.729 74.1371ZM353.319 75.4234C352.995 75.4234 352.717 75.3074 352.485 75.0755C352.254 74.8437 352.138 74.5659 352.138 74.2421C352.138 73.9184 352.254 73.6406 352.485 73.4087C352.717 73.1768 352.995 73.0609 353.319 73.0609C353.643 73.0609 353.92 73.1768 354.152 73.4087C354.384 73.6406 354.5 73.9184 354.5 74.2421C354.5 74.4565 354.445 74.6534 354.336 74.8327C354.231 75.0121 354.089 75.1565 353.909 75.2659C353.734 75.3709 353.538 75.4234 353.319 75.4234Z" fill="#71717A"/>
</g>
<defs>
<filter id="filter0_d_1384_173" x="6.02228" y="8.50919" width="453.953" height="97.2386" filterUnits="userSpaceOnUse" color-interpolation-filters="sRGB">
<feFlood flood-opacity="0" result="BackgroundImageFix"/>
<feColorMatrix in="SourceAlpha" type="matrix" values="0 0 0 0 0 0 0 0 0 0 0 0 0 0 0 0 0 0 127 0" result="hardAlpha"/>
<feOffset dy="1.28964"/>
<feGaussianBlur stdDeviation="1.28964"/>
<feComposite in2="hardAlpha" operator="out"/>
<feColorMatrix type="matrix" values="0 0 0 0 0 0 0 0 0 0 0 0 0 0 0 0 0 0 0.05 0"/>
<feBlend mode="normal" in2="BackgroundImageFix" result="effect1_dropShadow_1384_173"/>
<feBlend mode="normal" in="SourceGraphic" in2="effect1_dropShadow_1384_173" result="shape"/>
</filter>
<filter id="filter1_d_1384_173" x="0.682293" y="0.55892" width="464.635" height="98.9987" filterUnits="userSpaceOnUse" color-interpolation-filters="sRGB">
<feFlood flood-opacity="0" result="BackgroundImageFix"/>
<feColorMatrix in="SourceAlpha" type="matrix" values="0 0 0 0 0 0 0 0 0 0 0 0 0 0 0 0 0 0 127 0" result="hardAlpha"/>
<feOffset dy="1.31999"/>
<feGaussianBlur stdDeviation="1.31999"/>
<feComposite in2="hardAlpha" operator="out"/>
<feColorMatrix type="matrix" values="0 0 0 0 0 0 0 0 0 0 0 0 0 0 0 0 0 0 0.05 0"/>
<feBlend mode="normal" in2="BackgroundImageFix" result="effect1_dropShadow_1384_173"/>
<feBlend mode="normal" in="SourceGraphic" in2="effect1_dropShadow_1384_173" result="shape"/>
</filter>
</defs>
</svg>
