<svg width="500" height="151" viewBox="0 0 500 151" fill="none" xmlns="http://www.w3.org/2000/svg">
<g clip-path="url(#clip0_1219_2204)">
<rect x="4" y="8.69922" width="80.8462" height="171" rx="11.0577" fill="white"/>
<rect x="4" y="8.69922" width="80.8462" height="171" rx="11.0577" stroke="black" stroke-width="2"/>
<rect x="6.92285" y="11.6992" width="75" height="165" rx="8.61539" fill="white"/>
<rect x="6.92285" y="11.6992" width="75" height="165" rx="8.61539" stroke="#D9D9D9" stroke-width="2"/>
<rect x="33.3643" y="14.5449" width="24.0385" height="6.73077" rx="3.36538" fill="#D9D9D9"/>
<rect x="95.4619" y="9.69922" width="46.7981" height="55.4519" rx="10.0577" fill="white"/>
<rect x="95.4619" y="9.69922" width="46.7981" height="55.4519" rx="10.0577" stroke="black" stroke-width="2"/>
<rect x="97.3848" y="11.623" width="42.9519" height="51.6058" rx="8.13462" fill="white"/>
<rect x="97.3848" y="11.623" width="42.9519" height="51.6058" rx="8.13462" stroke="#D9D9D9" stroke-width="2"/>
<mask id="path-6-inside-1_1219_2204" fill="white">
<path d="M106.077 65.6992H132.077V158.699H106.077V65.6992Z"/>
</mask>
<path d="M132.077 158.699V159.449H132.827V158.699H132.077ZM106.077 158.699H105.327V159.449H106.077V158.699ZM131.327 65.6992V158.699H132.827V65.6992H131.327ZM132.077 157.949H106.077V159.449H132.077V157.949ZM106.827 158.699V65.6992H105.327V158.699H106.827Z" fill="black" mask="url(#path-6-inside-1_1219_2204)"/>
<rect x="115.177" y="76.7992" width="7.8" height="1.8" stroke="black" stroke-width="0.2"/>
<rect x="115.177" y="85.7992" width="7.8" height="1.8" stroke="black" stroke-width="0.2"/>
<rect x="115.177" y="94.7992" width="7.8" height="1.8" stroke="black" stroke-width="0.2"/>
<rect x="115.177" y="103.799" width="7.8" height="1.8" stroke="black" stroke-width="0.2"/>
<rect x="115.177" y="112.799" width="7.8" height="1.8" stroke="black" stroke-width="0.2"/>
<rect x="115.177" y="121.799" width="7.8" height="1.8" stroke="black" stroke-width="0.2"/>
<rect x="152.875" y="8.69922" width="328.155" height="213.301" rx="11.7931" fill="white"/>
<rect x="152.875" y="8.69922" width="328.155" height="213.301" rx="11.7931" stroke="black" stroke-width="2"/>
<rect x="155.926" y="11.75" width="322.053" height="207.199" rx="8.7421" fill="white"/>
<rect x="155.926" y="11.75" width="322.053" height="207.199" rx="8.7421" stroke="#D9D9D9" stroke-width="2"/>
</g>
<defs>
<clipPath id="clip0_1219_2204">
<rect width="500" height="150" fill="white" transform="translate(0 0.699219)"/>
</clipPath>
</defs>
</svg>
