<svg width="310" height="102" viewBox="0 0 310 102" fill="none" xmlns="http://www.w3.org/2000/svg">
<g clip-path="url(#clip0_1373_880)">
<rect width="310" height="102" fill="white"/>
<g filter="url(#filter0_dii_1373_880)">
<rect x="53" y="26" width="206" height="50" rx="25" fill="#6C38EC"/>
<rect x="53.5" y="26.5" width="205" height="49" rx="24.5" stroke="#5725D1"/>
<path d="M92.81 44H94.49V58H92.81V51.34H85.88V58H84.2V44H85.88V49.66H92.81V44ZM96.8953 48H98.5753V58H96.8953V48ZM97.7553 46.37C97.4886 46.37 97.2653 46.2833 97.0853 46.11C96.9053 45.9367 96.8153 45.72 96.8153 45.46C96.8153 45.2 96.9053 44.9833 97.0853 44.81C97.2653 44.6367 97.4853 44.55 97.7453 44.55C98.0053 44.55 98.2253 44.6367 98.4053 44.81C98.5853 44.9833 98.6753 45.2 98.6753 45.46C98.6753 45.72 98.5853 45.9367 98.4053 46.11C98.232 46.2833 98.0153 46.37 97.7553 46.37ZM100.919 58V48H102.599V49.25C102.952 48.7833 103.399 48.4133 103.939 48.14C104.479 47.86 105.065 47.72 105.699 47.72C106.085 47.72 106.459 47.77 106.819 47.87L106.139 49.55C105.865 49.4633 105.599 49.42 105.339 49.42C104.839 49.42 104.379 49.5433 103.959 49.79C103.545 50.03 103.215 50.3567 102.969 50.77C102.722 51.1833 102.599 51.6433 102.599 52.15V58H100.919ZM111.94 58.26C111.02 58.26 110.18 58.0233 109.42 57.55C108.667 57.0767 108.063 56.4433 107.61 55.65C107.163 54.85 106.94 53.9667 106.94 53C106.94 52.2667 107.07 51.5833 107.33 50.95C107.59 50.31 107.947 49.75 108.4 49.27C108.86 48.7833 109.393 48.4033 110 48.13C110.607 47.8567 111.253 47.72 111.94 47.72C112.693 47.72 113.383 47.8733 114.01 48.18C114.643 48.48 115.183 48.9 115.63 49.44C116.083 49.98 116.42 50.6067 116.64 51.32C116.867 52.0333 116.95 52.7967 116.89 53.61H108.73C108.81 54.1767 108.997 54.6833 109.29 55.13C109.583 55.57 109.957 55.92 110.41 56.18C110.87 56.44 111.38 56.5733 111.94 56.58C112.54 56.58 113.083 56.4267 113.57 56.12C114.057 55.8067 114.45 55.38 114.75 54.84L116.46 55.24C116.06 56.1267 115.457 56.8533 114.65 57.42C113.843 57.98 112.94 58.26 111.94 58.26ZM108.68 52.29H115.2C115.147 51.73 114.967 51.22 114.66 50.76C114.353 50.2933 113.963 49.92 113.49 49.64C113.017 49.36 112.5 49.22 111.94 49.22C111.38 49.22 110.867 49.3567 110.4 49.63C109.933 49.9033 109.547 50.2733 109.24 50.74C108.94 51.2 108.753 51.7167 108.68 52.29ZM134.106 44V45.68H129.446V58H127.766V45.68H123.116V44H134.106ZM144.954 51.78V58H143.274V52.15C143.274 51.6433 143.151 51.1833 142.904 50.77C142.657 50.3567 142.327 50.03 141.914 49.79C141.501 49.5433 141.041 49.42 140.534 49.42C140.034 49.42 139.574 49.5433 139.154 49.79C138.741 50.03 138.411 50.3567 138.164 50.77C137.917 51.1833 137.794 51.6433 137.794 52.15V58H136.114V43H137.794V49.25C138.147 48.7833 138.594 48.4133 139.134 48.14C139.674 47.86 140.261 47.72 140.894 47.72C141.641 47.72 142.321 47.9033 142.934 48.27C143.554 48.63 144.044 49.1167 144.404 49.73C144.771 50.3433 144.954 51.0267 144.954 51.78ZM151.159 58.26C150.239 58.26 149.399 58.0233 148.639 57.55C147.885 57.0767 147.282 56.4433 146.829 55.65C146.382 54.85 146.159 53.9667 146.159 53C146.159 52.2667 146.289 51.5833 146.549 50.95C146.809 50.31 147.165 49.75 147.619 49.27C148.079 48.7833 148.612 48.4033 149.219 48.13C149.825 47.8567 150.472 47.72 151.159 47.72C151.912 47.72 152.602 47.8733 153.229 48.18C153.862 48.48 154.402 48.9 154.849 49.44C155.302 49.98 155.639 50.6067 155.859 51.32C156.085 52.0333 156.169 52.7967 156.109 53.61H147.949C148.029 54.1767 148.215 54.6833 148.509 55.13C148.802 55.57 149.175 55.92 149.629 56.18C150.089 56.44 150.599 56.5733 151.159 56.58C151.759 56.58 152.302 56.4267 152.789 56.12C153.275 55.8067 153.669 55.38 153.969 54.84L155.679 55.24C155.279 56.1267 154.675 56.8533 153.869 57.42C153.062 57.98 152.159 58.26 151.159 58.26ZM147.899 52.29H154.419C154.365 51.73 154.185 51.22 153.879 50.76C153.572 50.2933 153.182 49.92 152.709 49.64C152.235 49.36 151.719 49.22 151.159 49.22C150.599 49.22 150.085 49.3567 149.619 49.63C149.152 49.9033 148.765 50.2733 148.459 50.74C148.159 51.2 147.972 51.7167 147.899 52.29ZM162.735 58V44H171.325V45.68H164.415V49.66H170.075V51.34H164.415V56.32H171.325V58H162.735ZM172.57 58L176.23 52.98L172.59 47.98H174.66L177.27 51.54L179.87 47.98H181.94L178.3 52.98L181.96 58H179.89L177.27 54.4L174.64 58H172.57ZM185.372 63H183.692V48H185.372V49.71C185.712 49.1233 186.166 48.65 186.732 48.29C187.299 47.9233 187.972 47.74 188.752 47.74C189.479 47.74 190.159 47.8767 190.792 48.15C191.432 48.4233 191.992 48.8033 192.472 49.29C192.952 49.77 193.329 50.3267 193.602 50.96C193.876 51.5933 194.012 52.2733 194.012 53C194.012 53.7267 193.876 54.41 193.602 55.05C193.329 55.69 192.952 56.2533 192.472 56.74C191.992 57.22 191.432 57.5967 190.792 57.87C190.159 58.1433 189.479 58.28 188.752 58.28C187.972 58.28 187.299 58.1 186.732 57.74C186.166 57.3733 185.712 56.8967 185.372 56.31V63ZM188.732 49.37C188.086 49.37 187.519 49.5333 187.032 49.86C186.546 50.1867 186.169 50.6233 185.902 51.17C185.642 51.7167 185.512 52.3267 185.512 53C185.512 53.6667 185.642 54.2767 185.902 54.83C186.169 55.3833 186.542 55.8233 187.022 56.15C187.509 56.4767 188.079 56.64 188.732 56.64C189.379 56.64 189.972 56.48 190.512 56.16C191.052 55.8333 191.486 55.3967 191.812 54.85C192.139 54.2967 192.302 53.68 192.302 53C192.302 52.3333 192.142 51.7267 191.822 51.18C191.502 50.6267 191.072 50.1867 190.532 49.86C189.992 49.5333 189.392 49.37 188.732 49.37ZM200.026 58.26C199.106 58.26 198.266 58.0233 197.506 57.55C196.752 57.0767 196.149 56.4433 195.696 55.65C195.249 54.85 195.026 53.9667 195.026 53C195.026 52.2667 195.156 51.5833 195.416 50.95C195.676 50.31 196.032 49.75 196.486 49.27C196.946 48.7833 197.479 48.4033 198.086 48.13C198.692 47.8567 199.339 47.72 200.026 47.72C200.779 47.72 201.469 47.8733 202.096 48.18C202.729 48.48 203.269 48.9 203.716 49.44C204.169 49.98 204.506 50.6067 204.726 51.32C204.952 52.0333 205.036 52.7967 204.976 53.61H196.816C196.896 54.1767 197.082 54.6833 197.376 55.13C197.669 55.57 198.042 55.92 198.496 56.18C198.956 56.44 199.466 56.5733 200.026 56.58C200.626 56.58 201.169 56.4267 201.656 56.12C202.142 55.8067 202.536 55.38 202.836 54.84L204.546 55.24C204.146 56.1267 203.542 56.8533 202.736 57.42C201.929 57.98 201.026 58.26 200.026 58.26ZM196.766 52.29H203.286C203.232 51.73 203.052 51.22 202.746 50.76C202.439 50.2933 202.049 49.92 201.576 49.64C201.102 49.36 200.586 49.22 200.026 49.22C199.466 49.22 198.952 49.3567 198.486 49.63C198.019 49.9033 197.632 50.2733 197.326 50.74C197.026 51.2 196.839 51.7167 196.766 52.29ZM206.661 58V48H208.341V49.25C208.694 48.7833 209.141 48.4133 209.681 48.14C210.221 47.86 210.808 47.72 211.441 47.72C211.828 47.72 212.201 47.77 212.561 47.87L211.881 49.55C211.608 49.4633 211.341 49.42 211.081 49.42C210.581 49.42 210.121 49.5433 209.701 49.79C209.288 50.03 208.958 50.3567 208.711 50.77C208.464 51.1833 208.341 51.6433 208.341 52.15V58H206.661ZM219.146 49.68H216.876L216.866 58H215.186L215.196 49.68H213.476V48H215.196L215.186 44.86H216.866L216.876 48H219.146V49.68ZM223.891 58.19C223.351 58.17 222.824 58.07 222.311 57.89C221.804 57.7033 221.357 57.4533 220.971 57.14C220.591 56.82 220.314 56.4533 220.141 56.04L221.581 55.42C221.681 55.6467 221.861 55.86 222.121 56.06C222.381 56.26 222.681 56.42 223.021 56.54C223.361 56.66 223.704 56.72 224.051 56.72C224.417 56.72 224.761 56.6633 225.081 56.55C225.401 56.4367 225.661 56.27 225.861 56.05C226.067 55.8233 226.171 55.5533 226.171 55.24C226.171 54.9067 226.057 54.6467 225.831 54.46C225.611 54.2667 225.331 54.1167 224.991 54.01C224.657 53.8967 224.317 53.79 223.971 53.69C223.284 53.5167 222.671 53.31 222.131 53.07C221.591 52.8233 221.164 52.5133 220.851 52.14C220.544 51.76 220.391 51.2767 220.391 50.69C220.391 50.07 220.561 49.5333 220.901 49.08C221.247 48.6267 221.701 48.2767 222.261 48.03C222.821 47.7833 223.421 47.66 224.061 47.66C224.867 47.66 225.604 47.8333 226.271 48.18C226.937 48.5267 227.434 48.9967 227.761 49.59L226.411 50.38C226.297 50.14 226.124 49.93 225.891 49.75C225.657 49.5633 225.391 49.4167 225.091 49.31C224.791 49.2033 224.484 49.1467 224.171 49.14C223.784 49.1267 223.421 49.1767 223.081 49.29C222.747 49.4033 222.477 49.5767 222.271 49.81C222.071 50.0367 221.971 50.32 221.971 50.66C221.971 50.9933 222.077 51.2467 222.291 51.42C222.511 51.5933 222.794 51.7333 223.141 51.84C223.494 51.94 223.877 52.0567 224.291 52.19C224.897 52.3833 225.464 52.6067 225.991 52.86C226.517 53.1133 226.941 53.43 227.261 53.81C227.587 54.19 227.747 54.66 227.741 55.22C227.741 55.8333 227.557 56.37 227.191 56.83C226.824 57.2833 226.347 57.63 225.761 57.87C225.181 58.11 224.557 58.2167 223.891 58.19Z" fill="white"/>
</g>
<mask id="path-4-inside-1_1373_880" fill="white">
<path d="M26 0H51V102H26V0Z"/>
</mask>
<path d="M26 0H51V102H26V0Z" fill="#F2F3F3" fill-opacity="0.15"/>
<path d="M50.25 0V102H51.75V0H50.25ZM26.75 102V0H25.25V102H26.75Z" fill="#F2F3F3" mask="url(#path-4-inside-1_1373_880)"/>
<mask id="path-6-inside-2_1373_880" fill="white">
<path d="M259 0H284V102H259V0Z"/>
</mask>
<path d="M259 0H284V102H259V0Z" fill="#F2F3F3" fill-opacity="0.15"/>
<path d="M283.25 0V102H284.75V0H283.25ZM259.75 102V0H258.25V102H259.75Z" fill="#F2F3F3" mask="url(#path-6-inside-2_1373_880)"/>
<mask id="path-8-inside-3_1373_880" fill="white">
<path d="M310 24V77H0V24H310Z"/>
</mask>
<path d="M310 76.25H0V77.75H310V76.25ZM0 24.75H310V23.25H0V24.75Z" fill="#F2F3F3" mask="url(#path-8-inside-3_1373_880)"/>
<path d="M56.652 21V16.87H55.028V16.1H59.186V16.87H57.562V21H56.652ZM58.9298 21L61.1348 16.1H62.0308L64.2428 21H63.2908L61.3938 16.583H61.7578L59.8678 21H58.9298ZM59.9448 19.866L60.1898 19.152H62.8358L63.0808 19.866H59.9448ZM64.866 21V16.1H65.776V21H64.866ZM67.1014 21V16.1H68.0114V20.23H70.5734V21H67.1014ZM72.0982 21L70.4742 16.1H71.4192L72.8682 20.531H72.3992L73.9042 16.1H74.7442L76.2072 20.531H75.7522L77.2362 16.1H78.1042L76.4802 21H75.5142L74.1772 17.003H74.4292L73.0712 21H72.0982ZM78.8455 21V16.1H79.7555V21H78.8455ZM81.0809 21V16.1H81.8299L84.9029 19.873H84.5319V16.1H85.4349V21H84.6859L81.6129 17.227H81.9839V21H81.0809ZM86.7478 21V16.1H88.8898C89.4218 16.1 89.8885 16.2027 90.2898 16.408C90.6912 16.6133 91.0038 16.898 91.2278 17.262C91.4518 17.626 91.5638 18.0553 91.5638 18.55C91.5638 19.04 91.4518 19.4693 91.2278 19.838C91.0038 20.202 90.6912 20.4867 90.2898 20.692C89.8885 20.8973 89.4218 21 88.8898 21H86.7478ZM87.6578 20.23H88.8478C89.2165 20.23 89.5338 20.16 89.7998 20.02C90.0705 19.88 90.2782 19.684 90.4228 19.432C90.5722 19.18 90.6468 18.886 90.6468 18.55C90.6468 18.2093 90.5722 17.9153 90.4228 17.668C90.2782 17.416 90.0705 17.22 89.7998 17.08C89.5338 16.94 89.2165 16.87 88.8478 16.87H87.6578V20.23ZM94.799 21.07C94.4257 21.07 94.078 21.0093 93.756 20.888C93.4387 20.762 93.161 20.587 92.923 20.363C92.6897 20.1343 92.5077 19.866 92.377 19.558C92.2464 19.25 92.181 18.914 92.181 18.55C92.181 18.186 92.2464 17.85 92.377 17.542C92.5077 17.234 92.692 16.968 92.93 16.744C93.168 16.5153 93.4457 16.3403 93.763 16.219C94.0804 16.093 94.428 16.03 94.806 16.03C95.2074 16.03 95.5737 16.1 95.905 16.24C96.2364 16.3753 96.5164 16.5783 96.745 16.849L96.157 17.402C95.9797 17.2107 95.7814 17.0683 95.562 16.975C95.3427 16.877 95.1047 16.828 94.848 16.828C94.5914 16.828 94.3557 16.87 94.141 16.954C93.931 17.038 93.7467 17.157 93.588 17.311C93.434 17.465 93.3127 17.647 93.224 17.857C93.14 18.067 93.098 18.298 93.098 18.55C93.098 18.802 93.14 19.033 93.224 19.243C93.3127 19.453 93.434 19.635 93.588 19.789C93.7467 19.943 93.931 20.062 94.141 20.146C94.3557 20.23 94.5914 20.272 94.848 20.272C95.1047 20.272 95.3427 20.2253 95.562 20.132C95.7814 20.034 95.9797 19.887 96.157 19.691L96.745 20.251C96.5164 20.517 96.2364 20.72 95.905 20.86C95.5737 21 95.205 21.07 94.799 21.07ZM99.1291 21.07C98.7465 21.07 98.3801 21.0163 98.0301 20.909C97.6801 20.797 97.4025 20.6547 97.1971 20.482L97.5121 19.775C97.7081 19.929 97.9508 20.0573 98.2401 20.16C98.5295 20.2627 98.8258 20.314 99.1291 20.314C99.3858 20.314 99.5935 20.286 99.7521 20.23C99.9108 20.174 100.027 20.0993 100.102 20.006C100.177 19.908 100.214 19.7983 100.214 19.677C100.214 19.5277 100.16 19.4087 100.053 19.32C99.9458 19.2267 99.8058 19.1543 99.6331 19.103C99.4651 19.047 99.2761 18.9957 99.0661 18.949C98.8608 18.9023 98.6531 18.8487 98.4431 18.788C98.2378 18.7227 98.0488 18.641 97.8761 18.543C97.7081 18.4403 97.5705 18.305 97.4631 18.137C97.3558 17.969 97.3021 17.7543 97.3021 17.493C97.3021 17.227 97.3721 16.9843 97.5121 16.765C97.6568 16.541 97.8738 16.3637 98.1631 16.233C98.4571 16.0977 98.8281 16.03 99.2761 16.03C99.5701 16.03 99.8618 16.0673 100.151 16.142C100.44 16.2167 100.692 16.324 100.907 16.464L100.62 17.171C100.401 17.0403 100.174 16.9447 99.9411 16.884C99.7078 16.8187 99.4838 16.786 99.2691 16.786C99.0171 16.786 98.8118 16.8163 98.6531 16.877C98.4991 16.9377 98.3848 17.017 98.3101 17.115C98.2401 17.213 98.2051 17.325 98.2051 17.451C98.2051 17.6003 98.2565 17.7217 98.3591 17.815C98.4665 17.9037 98.6041 17.9737 98.7721 18.025C98.9448 18.0763 99.1361 18.1277 99.3461 18.179C99.5561 18.2257 99.7638 18.2793 99.9691 18.34C100.179 18.4007 100.368 18.48 100.536 18.578C100.709 18.676 100.846 18.809 100.949 18.977C101.056 19.145 101.11 19.3573 101.11 19.614C101.11 19.8753 101.038 20.118 100.893 20.342C100.753 20.5613 100.536 20.7387 100.242 20.874C99.9481 21.0047 99.5771 21.07 99.1291 21.07ZM103.531 21.07C103.149 21.07 102.782 21.0163 102.432 20.909C102.082 20.797 101.805 20.6547 101.599 20.482L101.914 19.775C102.11 19.929 102.353 20.0573 102.642 20.16C102.932 20.2627 103.228 20.314 103.531 20.314C103.788 20.314 103.996 20.286 104.154 20.23C104.313 20.174 104.43 20.0993 104.504 20.006C104.579 19.908 104.616 19.7983 104.616 19.677C104.616 19.5277 104.563 19.4087 104.455 19.32C104.348 19.2267 104.208 19.1543 104.035 19.103C103.867 19.047 103.678 18.9957 103.468 18.949C103.263 18.9023 103.055 18.8487 102.845 18.788C102.64 18.7227 102.451 18.641 102.278 18.543C102.11 18.4403 101.973 18.305 101.865 18.137C101.758 17.969 101.704 17.7543 101.704 17.493C101.704 17.227 101.774 16.9843 101.914 16.765C102.059 16.541 102.276 16.3637 102.565 16.233C102.859 16.0977 103.23 16.03 103.678 16.03C103.972 16.03 104.264 16.0673 104.553 16.142C104.843 16.2167 105.095 16.324 105.309 16.464L105.022 17.171C104.803 17.0403 104.577 16.9447 104.343 16.884C104.11 16.8187 103.886 16.786 103.671 16.786C103.419 16.786 103.214 16.8163 103.055 16.877C102.901 16.9377 102.787 17.017 102.712 17.115C102.642 17.213 102.607 17.325 102.607 17.451C102.607 17.6003 102.659 17.7217 102.761 17.815C102.869 17.9037 103.006 17.9737 103.174 18.025C103.347 18.0763 103.538 18.1277 103.748 18.179C103.958 18.2257 104.166 18.2793 104.371 18.34C104.581 18.4007 104.77 18.48 104.938 18.578C105.111 18.676 105.249 18.809 105.351 18.977C105.459 19.145 105.512 19.3573 105.512 19.614C105.512 19.8753 105.44 20.118 105.295 20.342C105.155 20.5613 104.938 20.7387 104.644 20.874C104.35 21.0047 103.979 21.07 103.531 21.07Z" fill="#E01E5A"/>
<path d="M117.491 18.354H119.934V19.124H117.491V18.354ZM117.568 21H116.658V16.1H120.235V16.863H117.568V21ZM121.115 21V16.1H123.131C123.565 16.1 123.936 16.17 124.244 16.31C124.557 16.45 124.797 16.6507 124.965 16.912C125.133 17.1733 125.217 17.4837 125.217 17.843C125.217 18.2023 125.133 18.5127 124.965 18.774C124.797 19.0307 124.557 19.229 124.244 19.369C123.936 19.5043 123.565 19.572 123.131 19.572H121.619L122.025 19.159V21H121.115ZM124.321 21L123.082 19.222H124.055L125.301 21H124.321ZM122.025 19.257L121.619 18.823H123.089C123.49 18.823 123.791 18.7367 123.992 18.564C124.197 18.3913 124.3 18.151 124.3 17.843C124.3 17.5303 124.197 17.29 123.992 17.122C123.791 16.954 123.49 16.87 123.089 16.87H121.619L122.025 16.422V19.257ZM125.542 21L127.747 16.1H128.643L130.855 21H129.903L128.006 16.583H128.37L126.48 21H125.542ZM126.557 19.866L126.802 19.152H129.448L129.693 19.866H126.557ZM131.478 21V16.1H132.227L134.369 19.677H133.977L136.084 16.1H136.833L136.84 21H135.979L135.972 17.451H136.154L134.362 20.44H133.956L132.136 17.451H132.346V21H131.478ZM139.004 18.137H141.44V18.886H139.004V18.137ZM139.074 20.237H141.839V21H138.164V16.1H141.741V16.863H139.074V20.237ZM142.853 21V16.1H144.869C145.303 16.1 145.674 16.17 145.982 16.31C146.295 16.45 146.535 16.6507 146.703 16.912C146.871 17.1733 146.955 17.4837 146.955 17.843C146.955 18.2023 146.871 18.5127 146.703 18.774C146.535 19.0307 146.295 19.229 145.982 19.369C145.674 19.5043 145.303 19.572 144.869 19.572H143.357L143.763 19.159V21H142.853ZM146.059 21L144.82 19.222H145.793L147.039 21H146.059ZM143.763 19.257L143.357 18.823H144.827C145.229 18.823 145.53 18.7367 145.73 18.564C145.936 18.3913 146.038 18.151 146.038 17.843C146.038 17.5303 145.936 17.29 145.73 17.122C145.53 16.954 145.229 16.87 144.827 16.87H143.357L143.763 16.422V19.257Z" fill="#E01E5A"/>
<path d="M159.498 18.137H161.934V18.886H159.498V18.137ZM159.568 20.237H162.333V21H158.658V16.1H162.235V16.863H159.568V20.237ZM163.347 21V16.1H164.257V20.23H166.819V21H163.347ZM168.378 18.137H170.814V18.886H168.378V18.137ZM168.448 20.237H171.213V21H167.538V16.1H171.115V16.863H168.448V20.237ZM172.227 21V16.1H172.976L175.118 19.677H174.726L176.833 16.1H177.582L177.589 21H176.728L176.721 17.451H176.903L175.111 20.44H174.705L172.885 17.451H173.095V21H172.227ZM179.753 18.137H182.189V18.886H179.753V18.137ZM179.823 20.237H182.588V21H178.913V16.1H182.49V16.863H179.823V20.237ZM183.602 21V16.1H184.351L187.424 19.873H187.053V16.1H187.956V21H187.207L184.134 17.227H184.505V21H183.602ZM190.263 21V16.87H188.639V16.1H192.797V16.87H191.173V21H190.263ZM195.708 21.07C195.325 21.07 194.973 21.007 194.651 20.881C194.329 20.755 194.049 20.58 193.811 20.356C193.573 20.1273 193.389 19.8613 193.258 19.558C193.127 19.25 193.062 18.914 193.062 18.55C193.062 18.186 193.127 17.8523 193.258 17.549C193.389 17.241 193.573 16.975 193.811 16.751C194.049 16.5223 194.329 16.345 194.651 16.219C194.973 16.093 195.323 16.03 195.701 16.03C196.084 16.03 196.434 16.093 196.751 16.219C197.073 16.345 197.353 16.5223 197.591 16.751C197.829 16.975 198.013 17.241 198.144 17.549C198.275 17.8523 198.34 18.186 198.34 18.55C198.34 18.914 198.275 19.25 198.144 19.558C198.013 19.866 197.829 20.132 197.591 20.356C197.353 20.58 197.073 20.755 196.751 20.881C196.434 21.007 196.086 21.07 195.708 21.07ZM195.701 20.272C195.948 20.272 196.177 20.23 196.387 20.146C196.597 20.062 196.779 19.943 196.933 19.789C197.087 19.6303 197.206 19.4483 197.29 19.243C197.379 19.033 197.423 18.802 197.423 18.55C197.423 18.298 197.379 18.0693 197.29 17.864C197.206 17.654 197.087 17.472 196.933 17.318C196.779 17.1593 196.597 17.038 196.387 16.954C196.177 16.87 195.948 16.828 195.701 16.828C195.454 16.828 195.225 16.87 195.015 16.954C194.81 17.038 194.628 17.1593 194.469 17.318C194.315 17.472 194.194 17.654 194.105 17.864C194.021 18.0693 193.979 18.298 193.979 18.55C193.979 18.7973 194.021 19.026 194.105 19.236C194.194 19.446 194.315 19.6303 194.469 19.789C194.623 19.943 194.805 20.062 195.015 20.146C195.225 20.23 195.454 20.272 195.701 20.272ZM199.304 21V16.1H201.32C201.754 16.1 202.125 16.17 202.433 16.31C202.746 16.45 202.986 16.6507 203.154 16.912C203.322 17.1733 203.406 17.4837 203.406 17.843C203.406 18.2023 203.322 18.5127 203.154 18.774C202.986 19.0307 202.746 19.229 202.433 19.369C202.125 19.5043 201.754 19.572 201.32 19.572H199.808L200.214 19.159V21H199.304ZM202.51 21L201.271 19.222H202.244L203.49 21H202.51ZM200.214 19.257L199.808 18.823H201.278C201.68 18.823 201.981 18.7367 202.181 18.564C202.387 18.3913 202.489 18.151 202.489 17.843C202.489 17.5303 202.387 17.29 202.181 17.122C201.981 16.954 201.68 16.87 201.278 16.87H199.808L200.214 16.422V19.257Z" fill="#E01E5A"/>
<path d="M215.813 21L214.189 16.1H215.134L216.583 20.531H216.114L217.619 16.1H218.459L219.922 20.531H219.467L220.951 16.1H221.819L220.195 21H219.229L217.892 17.003H218.144L216.786 21H215.813ZM223.4 18.137H225.836V18.886H223.4V18.137ZM223.47 20.237H226.235V21H222.56V16.1H226.137V16.863H223.47V20.237ZM227.25 21V16.1H229.546C230.134 16.1 230.582 16.2167 230.89 16.45C231.198 16.6787 231.352 16.9867 231.352 17.374C231.352 17.6353 231.291 17.8593 231.17 18.046C231.048 18.228 230.885 18.3703 230.68 18.473C230.479 18.571 230.26 18.62 230.022 18.62L230.148 18.368C230.423 18.368 230.67 18.4193 230.89 18.522C231.109 18.62 231.282 18.7647 231.408 18.956C231.538 19.1473 231.604 19.3853 231.604 19.67C231.604 20.09 231.443 20.4167 231.121 20.65C230.799 20.8833 230.32 21 229.686 21H227.25ZM228.16 20.286H229.63C229.97 20.286 230.232 20.23 230.414 20.118C230.596 20.006 230.687 19.8263 230.687 19.579C230.687 19.3363 230.596 19.159 230.414 19.047C230.232 18.9303 229.97 18.872 229.63 18.872H228.09V18.165H229.448C229.765 18.165 230.008 18.109 230.176 17.997C230.348 17.885 230.435 17.717 230.435 17.493C230.435 17.2643 230.348 17.094 230.176 16.982C230.008 16.87 229.765 16.814 229.448 16.814H228.16V20.286ZM233.408 18.354H235.851V19.124H233.408V18.354ZM233.485 21H232.575V16.1H236.152V16.863H233.485V21ZM237.032 21V16.1H237.942V20.23H240.504V21H237.032ZM243.43 21.07C243.047 21.07 242.695 21.007 242.373 20.881C242.051 20.755 241.771 20.58 241.533 20.356C241.295 20.1273 241.11 19.8613 240.98 19.558C240.849 19.25 240.784 18.914 240.784 18.55C240.784 18.186 240.849 17.8523 240.98 17.549C241.11 17.241 241.295 16.975 241.533 16.751C241.771 16.5223 242.051 16.345 242.373 16.219C242.695 16.093 243.045 16.03 243.423 16.03C243.805 16.03 244.155 16.093 244.473 16.219C244.795 16.345 245.075 16.5223 245.313 16.751C245.551 16.975 245.735 17.241 245.866 17.549C245.996 17.8523 246.062 18.186 246.062 18.55C246.062 18.914 245.996 19.25 245.866 19.558C245.735 19.866 245.551 20.132 245.313 20.356C245.075 20.58 244.795 20.755 244.473 20.881C244.155 21.007 243.808 21.07 243.43 21.07ZM243.423 20.272C243.67 20.272 243.899 20.23 244.109 20.146C244.319 20.062 244.501 19.943 244.655 19.789C244.809 19.6303 244.928 19.4483 245.012 19.243C245.1 19.033 245.145 18.802 245.145 18.55C245.145 18.298 245.1 18.0693 245.012 17.864C244.928 17.654 244.809 17.472 244.655 17.318C244.501 17.1593 244.319 17.038 244.109 16.954C243.899 16.87 243.67 16.828 243.423 16.828C243.175 16.828 242.947 16.87 242.737 16.954C242.531 17.038 242.349 17.1593 242.191 17.318C242.037 17.472 241.915 17.654 241.827 17.864C241.743 18.0693 241.701 18.298 241.701 18.55C241.701 18.7973 241.743 19.026 241.827 19.236C241.915 19.446 242.037 19.6303 242.191 19.789C242.345 19.943 242.527 20.062 242.737 20.146C242.947 20.23 243.175 20.272 243.423 20.272ZM248.031 21L246.407 16.1H247.352L248.801 20.531H248.332L249.837 16.1H250.677L252.14 20.531H251.685L253.169 16.1H254.037L252.413 21H251.447L250.11 17.003H250.362L249.004 21H248.031Z" fill="#E01E5A"/>
<path d="M232 74.9955C232 70.0305 235.525 67.9905 239.83 70.4805L246.76 74.5005C251.065 76.9905 251.065 81.0555 246.76 83.5455L239.83 87.5655C235.525 90.0105 232 87.9855 232 83.0055V74.9955Z" fill="white" stroke="#0C0D0C" stroke-width="2.25" stroke-miterlimit="10" stroke-linecap="round" stroke-linejoin="round"/>
<path d="M287.788 28.024H287.492V27.264H285V26.9H287.492V26.136H287.788V28.024ZM287.492 28.8361H286.56V29.8521H286.26V28.8361H285.3V29.9721H285V28.4721H287.792V29.9721H287.492V28.8361ZM287.768 33.3508H285V32.9868H287.064L285 32.0668V31.8108L287.068 30.8868H285V30.5228H287.768V30.9148L285.48 31.9388L287.768 32.9628V33.3508ZM286.972 35.8322C286.74 35.8322 286.547 35.7522 286.392 35.5922C286.24 35.4348 286.164 35.1935 286.164 34.8682V34.3322H285V33.9682H287.788V34.8682C287.788 35.1828 287.712 35.4215 287.56 35.5842C287.408 35.7495 287.212 35.8322 286.972 35.8322ZM286.464 34.8682C286.464 35.0708 286.508 35.2202 286.596 35.3162C286.684 35.4122 286.809 35.4602 286.972 35.4602C287.316 35.4602 287.488 35.2628 287.488 34.8682V34.3322H286.464V34.8682ZM285.296 36.6486V37.6246H285V36.2846H287.788V36.6486H285.296ZM285.62 39.6591V38.4431L285 38.2191V37.8351L287.772 38.8431V39.2631L285 40.2671V39.8831L285.62 39.6591ZM285.916 39.5551L287.324 39.0511L285.916 38.5471V39.5551ZM287.788 42.4224H287.492V41.6624H285V41.2984H287.492V40.5344H287.788V42.4224ZM287.492 43.2345H286.56V44.2505H286.26V43.2345H285.3V44.3705H285V42.8705H287.792V44.3705H287.492V43.2345ZM284.972 45.8053C284.972 45.6213 285.004 45.4559 285.068 45.3093C285.135 45.1653 285.225 45.0519 285.34 44.9693C285.457 44.8866 285.592 44.8439 285.744 44.8413V45.2293C285.613 45.2426 285.503 45.2959 285.412 45.3893C285.324 45.4853 285.28 45.6239 285.28 45.8053C285.28 45.9786 285.323 46.1146 285.408 46.2133C285.496 46.3146 285.608 46.3653 285.744 46.3653C285.851 46.3653 285.937 46.3359 286.004 46.2773C286.071 46.2186 286.121 46.1453 286.156 46.0573C286.191 45.9693 286.228 45.8506 286.268 45.7013C286.316 45.5173 286.364 45.3693 286.412 45.2573C286.46 45.1479 286.535 45.0533 286.636 44.9733C286.74 44.8959 286.879 44.8573 287.052 44.8573C287.204 44.8573 287.339 44.8959 287.456 44.9733C287.573 45.0506 287.664 45.1586 287.728 45.2973C287.792 45.4386 287.824 45.5999 287.824 45.7813C287.824 46.0426 287.759 46.2559 287.628 46.4213C287.497 46.5893 287.324 46.6839 287.108 46.7053V46.3053C287.215 46.2919 287.308 46.2359 287.388 46.1373C287.471 46.0386 287.512 45.9079 287.512 45.7453C287.512 45.5933 287.472 45.4693 287.392 45.3733C287.315 45.2773 287.205 45.2293 287.064 45.2293C286.963 45.2293 286.88 45.2573 286.816 45.3133C286.752 45.3719 286.703 45.4426 286.668 45.5253C286.636 45.6106 286.599 45.7293 286.556 45.8813C286.505 46.0653 286.455 46.2133 286.404 46.3253C286.356 46.4373 286.28 46.5333 286.176 46.6133C286.075 46.6933 285.936 46.7333 285.76 46.7333C285.624 46.7333 285.496 46.6973 285.376 46.6253C285.256 46.5533 285.159 46.4466 285.084 46.3053C285.009 46.1639 284.972 45.9973 284.972 45.8053Z" fill="#0F172A"/>
<path d="M287.788 50.664H286.024C285.776 50.664 285.592 50.724 285.472 50.844C285.352 50.9667 285.292 51.136 285.292 51.352C285.292 51.5653 285.352 51.732 285.472 51.852C285.592 51.9747 285.776 52.036 286.024 52.036H287.788V52.4H286.028C285.796 52.4 285.6 52.3533 285.44 52.26C285.283 52.1667 285.165 52.04 285.088 51.88C285.011 51.7227 284.972 51.5453 284.972 51.348C284.972 51.1507 285.011 50.972 285.088 50.812C285.165 50.6547 285.283 50.5293 285.44 50.436C285.6 50.3453 285.796 50.3 286.028 50.3H287.788V50.664ZM287.788 53.3712H285V53.0072H287.788V53.3712ZM286.436 56.454C286.42 56.5553 286.379 56.6473 286.312 56.73C286.245 56.8153 286.163 56.882 286.064 56.93C285.965 56.9807 285.86 57.006 285.748 57.006C285.607 57.006 285.479 56.97 285.364 56.898C285.252 56.826 285.163 56.7207 285.096 56.582C285.032 56.446 285 56.2847 285 56.098V55.058H287.788V56.058C287.788 56.2473 287.756 56.4087 287.692 56.542C287.631 56.6753 287.547 56.7753 287.44 56.842C287.333 56.9087 287.213 56.942 287.08 56.942C286.915 56.942 286.777 56.8967 286.668 56.806C286.561 56.718 286.484 56.6007 286.436 56.454ZM286.584 55.422V56.034C286.584 56.2047 286.624 56.3367 286.704 56.43C286.784 56.5233 286.895 56.57 287.036 56.57C287.177 56.57 287.288 56.5233 287.368 56.43C287.448 56.3367 287.488 56.202 287.488 56.026V55.422H286.584ZM285.3 56.066C285.3 56.2473 285.343 56.3887 285.428 56.49C285.513 56.5913 285.632 56.642 285.784 56.642C285.939 56.642 286.06 56.5887 286.148 56.482C286.239 56.3753 286.284 56.2327 286.284 56.054V55.422H285.3V56.066ZM285.296 57.8751V58.8511H285V57.5111H287.788V57.8751H285.296ZM284.972 60.5017C284.972 60.243 285.032 60.007 285.152 59.7937C285.275 59.5804 285.444 59.411 285.66 59.2857C285.879 59.163 286.124 59.1017 286.396 59.1017C286.668 59.1017 286.912 59.163 287.128 59.2857C287.347 59.411 287.516 59.5804 287.636 59.7937C287.759 60.007 287.82 60.243 287.82 60.5017C287.82 60.763 287.759 61.0004 287.636 61.2137C287.516 61.427 287.348 61.595 287.132 61.7177C286.916 61.8404 286.671 61.9017 286.396 61.9017C286.121 61.9017 285.876 61.8404 285.66 61.7177C285.444 61.595 285.275 61.427 285.152 61.2137C285.032 61.0004 284.972 60.763 284.972 60.5017ZM285.288 60.5017C285.288 60.6964 285.333 60.871 285.424 61.0257C285.515 61.183 285.644 61.3057 285.812 61.3937C285.98 61.4844 286.175 61.5297 286.396 61.5297C286.62 61.5297 286.815 61.4844 286.98 61.3937C287.148 61.3057 287.277 61.1844 287.368 61.0297C287.459 60.875 287.504 60.699 287.504 60.5017C287.504 60.3044 287.459 60.1284 287.368 59.9737C287.277 59.819 287.148 59.6964 286.98 59.6057C286.815 59.5177 286.62 59.4737 286.396 59.4737C286.175 59.4737 285.98 59.5177 285.812 59.6057C285.644 59.6964 285.515 59.819 285.424 59.9737C285.333 60.131 285.288 60.307 285.288 60.5017ZM286.396 62.2462C286.668 62.2462 286.912 62.3076 287.128 62.4302C287.347 62.5529 287.517 62.7196 287.64 62.9302C287.763 63.1436 287.824 63.3796 287.824 63.6382C287.824 63.9422 287.751 64.2076 287.604 64.4342C287.457 64.6609 287.249 64.8262 286.98 64.9302V64.4942C287.148 64.4169 287.277 64.3049 287.368 64.1582C287.459 64.0142 287.504 63.8409 287.504 63.6382C287.504 63.4436 287.459 63.2689 287.368 63.1142C287.277 62.9596 287.148 62.8382 286.98 62.7502C286.815 62.6622 286.62 62.6182 286.396 62.6182C286.175 62.6182 285.98 62.6622 285.812 62.7502C285.647 62.8382 285.519 62.9596 285.428 63.1142C285.337 63.2689 285.292 63.4436 285.292 63.6382C285.292 63.8409 285.336 64.0142 285.424 64.1582C285.515 64.3049 285.644 64.4169 285.812 64.4942V64.9302C285.545 64.8262 285.339 64.6609 285.192 64.4342C285.048 64.2076 284.976 63.9422 284.976 63.6382C284.976 63.3796 285.036 63.1436 285.156 62.9302C285.279 62.7196 285.448 62.5529 285.664 62.4302C285.88 62.3076 286.124 62.2462 286.396 62.2462ZM285 66.9841L286.272 65.8361H285V65.4721H287.788V65.8361H286.496L287.788 66.9881V67.4481L286.392 66.1841L285 67.4601V66.9841ZM284.972 68.7506C284.972 68.5666 285.004 68.4013 285.068 68.2546C285.135 68.1106 285.225 67.9973 285.34 67.9146C285.457 67.8319 285.592 67.7893 285.744 67.7866V68.1746C285.613 68.1879 285.503 68.2413 285.412 68.3346C285.324 68.4306 285.28 68.5693 285.28 68.7506C285.28 68.9239 285.323 69.0599 285.408 69.1586C285.496 69.2599 285.608 69.3106 285.744 69.3106C285.851 69.3106 285.937 69.2813 286.004 69.2226C286.071 69.1639 286.121 69.0906 286.156 69.0026C286.191 68.9146 286.228 68.7959 286.268 68.6466C286.316 68.4626 286.364 68.3146 286.412 68.2026C286.46 68.0933 286.535 67.9986 286.636 67.9186C286.74 67.8413 286.879 67.8026 287.052 67.8026C287.204 67.8026 287.339 67.8413 287.456 67.9186C287.573 67.9959 287.664 68.1039 287.728 68.2426C287.792 68.3839 287.824 68.5453 287.824 68.7266C287.824 68.9879 287.759 69.2013 287.628 69.3666C287.497 69.5346 287.324 69.6293 287.108 69.6506V69.2506C287.215 69.2373 287.308 69.1813 287.388 69.0826C287.471 68.9839 287.512 68.8533 287.512 68.6906C287.512 68.5386 287.472 68.4146 287.392 68.3186C287.315 68.2226 287.205 68.1746 287.064 68.1746C286.963 68.1746 286.88 68.2026 286.816 68.2586C286.752 68.3173 286.703 68.3879 286.668 68.4706C286.636 68.5559 286.599 68.6746 286.556 68.8266C286.505 69.0106 286.455 69.1586 286.404 69.2706C286.356 69.3826 286.28 69.4786 286.176 69.5586C286.075 69.6386 285.936 69.6786 285.76 69.6786C285.624 69.6786 285.496 69.6426 285.376 69.5706C285.256 69.4986 285.159 69.3919 285.084 69.2506C285.009 69.1093 284.972 68.9426 284.972 68.7506Z" fill="#E01E5A"/>
<path d="M22.212 56.824C22.212 56.52 22.2693 56.2573 22.384 56.036C22.496 55.812 22.6573 55.6413 22.868 55.524C23.0787 55.404 23.3267 55.344 23.612 55.344C23.8973 55.344 24.1453 55.404 24.356 55.524C24.564 55.6413 24.724 55.812 24.836 56.036C24.9453 56.2573 25 56.52 25 56.824V57.692H22.212V56.824ZM24.7 56.824C24.7 56.464 24.6053 56.1893 24.416 56C24.224 55.8107 23.956 55.716 23.612 55.716C23.2653 55.716 22.9947 55.812 22.8 56.004C22.6053 56.1933 22.508 56.4667 22.508 56.824V57.328H24.7V56.824ZM22.508 54.4999H23.44V53.4839H23.74V54.4999H24.7V53.3639H25V54.8639H22.208V53.3639H22.508V54.4999ZM25.028 51.9291C25.028 52.1131 24.996 52.2784 24.932 52.4251C24.8653 52.5691 24.7747 52.6824 24.66 52.7651C24.5427 52.8478 24.408 52.8904 24.256 52.8931V52.5051C24.3867 52.4918 24.4973 52.4384 24.588 52.3451C24.676 52.2491 24.72 52.1104 24.72 51.9291C24.72 51.7558 24.6773 51.6198 24.592 51.5211C24.504 51.4198 24.392 51.3691 24.256 51.3691C24.1493 51.3691 24.0627 51.3984 23.996 51.4571C23.9293 51.5158 23.8787 51.5891 23.844 51.6771C23.8093 51.7651 23.772 51.8838 23.732 52.0331C23.684 52.2171 23.636 52.3651 23.588 52.4771C23.54 52.5864 23.4653 52.6811 23.364 52.7611C23.26 52.8384 23.1213 52.8771 22.948 52.8771C22.796 52.8771 22.6613 52.8384 22.544 52.7611C22.4267 52.6838 22.336 52.5758 22.272 52.4371C22.208 52.2958 22.176 52.1344 22.176 51.9531C22.176 51.6918 22.2413 51.4784 22.372 51.3131C22.5027 51.1451 22.676 51.0504 22.892 51.0291V51.4291C22.7853 51.4424 22.692 51.4984 22.612 51.5971C22.5293 51.6958 22.488 51.8264 22.488 51.9891C22.488 52.1411 22.528 52.2651 22.608 52.3611C22.6853 52.4571 22.7947 52.5051 22.936 52.5051C23.0373 52.5051 23.12 52.4771 23.184 52.4211C23.248 52.3624 23.2973 52.2918 23.332 52.2091C23.364 52.1238 23.4013 52.0051 23.444 51.8531C23.4947 51.6691 23.5453 51.5211 23.596 51.4091C23.644 51.2971 23.72 51.2011 23.824 51.1211C23.9253 51.0411 24.064 51.0011 24.24 51.0011C24.376 51.0011 24.504 51.0371 24.624 51.1091C24.744 51.1811 24.8413 51.2878 24.916 51.4291C24.9907 51.5704 25.028 51.7371 25.028 51.9291ZM22.212 50.1014H25V50.4654H22.212V50.1014ZM23.02 47.3691C22.8573 47.4464 22.732 47.5584 22.644 47.7051C22.5533 47.8517 22.508 48.0224 22.508 48.2171C22.508 48.4117 22.5533 48.5877 22.644 48.7451C22.732 48.8997 22.86 49.0224 23.028 49.1131C23.1933 49.2011 23.3853 49.2451 23.604 49.2451C23.8227 49.2451 24.0147 49.2011 24.18 49.1131C24.3453 49.0224 24.4733 48.8997 24.564 48.7451C24.652 48.5877 24.696 48.4117 24.696 48.2171C24.696 47.9451 24.6147 47.7211 24.452 47.5451C24.2893 47.3691 24.0693 47.2664 23.792 47.2371L23.792 48.3491H23.496L23.496 46.8491H23.776C24.0053 46.8704 24.216 46.9424 24.408 47.0651C24.5973 47.1877 24.748 47.3491 24.86 47.5491C24.9693 47.7491 25.024 47.9717 25.024 48.2171C25.024 48.4757 24.964 48.7117 24.844 48.9251C24.7213 49.1384 24.552 49.3077 24.336 49.4331C24.12 49.5557 23.876 49.6171 23.604 49.6171C23.332 49.6171 23.088 49.5557 22.872 49.4331C22.6533 49.3077 22.484 49.1384 22.364 48.9251C22.2413 48.7117 22.18 48.4757 22.18 48.2171C22.18 47.9211 22.2533 47.6597 22.4 47.4331C22.5467 47.2037 22.7533 47.0371 23.02 46.9331V47.3691ZM25 44.1758V44.5398L22.78 46.0038H25V46.3678H22.208V46.0038L24.424 44.5398H22.208V44.1758H25ZM25.028 41.6049C25.028 41.7889 24.996 41.9542 24.932 42.1009C24.8653 42.2449 24.7747 42.3582 24.66 42.4409C24.5427 42.5235 24.408 42.5662 24.256 42.5689V42.1809C24.3867 42.1675 24.4973 42.1142 24.588 42.0209C24.676 41.9249 24.72 41.7862 24.72 41.6049C24.72 41.4315 24.6773 41.2955 24.592 41.1969C24.504 41.0955 24.392 41.0449 24.256 41.0449C24.1493 41.0449 24.0627 41.0742 23.996 41.1329C23.9293 41.1915 23.8787 41.2649 23.844 41.3529C23.8093 41.4409 23.772 41.5595 23.732 41.7089C23.684 41.8929 23.636 42.0409 23.588 42.1529C23.54 42.2622 23.4653 42.3569 23.364 42.4369C23.26 42.5142 23.1213 42.5529 22.948 42.5529C22.796 42.5529 22.6613 42.5142 22.544 42.4369C22.4267 42.3595 22.336 42.2515 22.272 42.1129C22.208 41.9715 22.176 41.8102 22.176 41.6289C22.176 41.3675 22.2413 41.1542 22.372 40.9889C22.5027 40.8209 22.676 40.7262 22.892 40.7049V41.1049C22.7853 41.1182 22.692 41.1742 22.612 41.2729C22.5293 41.3715 22.488 41.5022 22.488 41.6649C22.488 41.8169 22.528 41.9409 22.608 42.0369C22.6853 42.1329 22.7947 42.1809 22.936 42.1809C23.0373 42.1809 23.12 42.1529 23.184 42.0969C23.248 42.0382 23.2973 41.9675 23.332 41.8849C23.364 41.7995 23.4013 41.6809 23.444 41.5289C23.4947 41.3449 23.5453 41.1969 23.596 41.0849C23.644 40.9729 23.72 40.8769 23.824 40.7969C23.9253 40.7169 24.064 40.6769 24.24 40.6769C24.376 40.6769 24.504 40.7129 24.624 40.7849C24.744 40.8569 24.8413 40.9635 24.916 41.1049C24.9907 41.2462 25.028 41.4129 25.028 41.6049ZM22.212 38.1892L23.948 39.0972H25V39.4612H23.948L22.212 40.3732V39.9692L23.624 39.2812L22.212 38.5932V38.1892ZM25.028 36.9213C25.028 37.1053 24.996 37.2706 24.932 37.4173C24.8653 37.5613 24.7747 37.6746 24.66 37.7573C24.5427 37.8399 24.408 37.8826 24.256 37.8853V37.4973C24.3867 37.4839 24.4973 37.4306 24.588 37.3373C24.676 37.2413 24.72 37.1026 24.72 36.9213C24.72 36.7479 24.6773 36.6119 24.592 36.5133C24.504 36.4119 24.392 36.3613 24.256 36.3613C24.1493 36.3613 24.0627 36.3906 23.996 36.4493C23.9293 36.5079 23.8787 36.5813 23.844 36.6693C23.8093 36.7573 23.772 36.8759 23.732 37.0253C23.684 37.2093 23.636 37.3573 23.588 37.4693C23.54 37.5786 23.4653 37.6733 23.364 37.7533C23.26 37.8306 23.1213 37.8693 22.948 37.8693C22.796 37.8693 22.6613 37.8306 22.544 37.7533C22.4267 37.6759 22.336 37.5679 22.272 37.4293C22.208 37.2879 22.176 37.1266 22.176 36.9453C22.176 36.6839 22.2413 36.4706 22.372 36.3053C22.5027 36.1373 22.676 36.0426 22.892 36.0213V36.4213C22.7853 36.4346 22.692 36.4906 22.612 36.5893C22.5293 36.6879 22.488 36.8186 22.488 36.9813C22.488 37.1333 22.528 37.2573 22.608 37.3533C22.6853 37.4493 22.7947 37.4973 22.936 37.4973C23.0373 37.4973 23.12 37.4693 23.184 37.4133C23.248 37.3546 23.2973 37.2839 23.332 37.2013C23.364 37.1159 23.4013 36.9973 23.444 36.8453C23.4947 36.6613 23.5453 36.5133 23.596 36.4013C23.644 36.2893 23.72 36.1933 23.824 36.1133C23.9253 36.0333 24.064 35.9933 24.24 35.9933C24.376 35.9933 24.504 36.0293 24.624 36.1013C24.744 36.1733 24.8413 36.2799 24.916 36.4213C24.9907 36.5626 25.028 36.7293 25.028 36.9213ZM22.212 33.7416H22.508V34.5016H25V34.8656H22.508V35.6296H22.212V33.7416ZM22.508 32.9296H23.44V31.9136H23.74V32.9296H24.7V31.7936H25V33.2936H22.208V31.7936H22.508V32.9296ZM22.232 28.4148H25V28.7788H22.936L25 29.6988V29.9548L22.932 30.8788H25V31.2428H22.232V30.8508L24.52 29.8268L22.232 28.8028V28.4148ZM25.028 26.9135C25.028 27.0975 24.996 27.2628 24.932 27.4095C24.8653 27.5535 24.7747 27.6668 24.66 27.7495C24.5427 27.8321 24.408 27.8748 24.256 27.8775V27.4895C24.3867 27.4761 24.4973 27.4228 24.588 27.3295C24.676 27.2335 24.72 27.0948 24.72 26.9135C24.72 26.7401 24.6773 26.6041 24.592 26.5055C24.504 26.4041 24.392 26.3535 24.256 26.3535C24.1493 26.3535 24.0627 26.3828 23.996 26.4415C23.9293 26.5001 23.8787 26.5735 23.844 26.6615C23.8093 26.7495 23.772 26.8681 23.732 27.0175C23.684 27.2015 23.636 27.3495 23.588 27.4615C23.54 27.5708 23.4653 27.6655 23.364 27.7455C23.26 27.8228 23.1213 27.8615 22.948 27.8615C22.796 27.8615 22.6613 27.8228 22.544 27.7455C22.4267 27.6681 22.336 27.5601 22.272 27.4215C22.208 27.2801 22.176 27.1188 22.176 26.9375C22.176 26.6761 22.2413 26.4628 22.372 26.2975C22.5027 26.1295 22.676 26.0348 22.892 26.0135V26.4135C22.7853 26.4268 22.692 26.4828 22.612 26.5815C22.5293 26.6801 22.488 26.8108 22.488 26.9735C22.488 27.1255 22.528 27.2495 22.608 27.3455C22.6853 27.4415 22.7947 27.4895 22.936 27.4895C23.0373 27.4895 23.12 27.4615 23.184 27.4055C23.248 27.3468 23.2973 27.2761 23.332 27.1935C23.364 27.1081 23.4013 26.9895 23.444 26.8375C23.4947 26.6535 23.5453 26.5055 23.596 26.3935C23.644 26.2815 23.72 26.1855 23.824 26.1055C23.9253 26.0255 24.064 25.9855 24.24 25.9855C24.376 25.9855 24.504 26.0215 24.624 26.0935C24.744 26.1655 24.8413 26.2721 24.916 26.4135C24.9907 26.5548 25.028 26.7215 25.028 26.9135Z" fill="#1D4ED8"/>
</g>
<defs>
<filter id="filter0_dii_1373_880" x="47" y="20" width="218" height="62" filterUnits="userSpaceOnUse" color-interpolation-filters="sRGB">
<feFlood flood-opacity="0" result="BackgroundImageFix"/>
<feColorMatrix in="SourceAlpha" type="matrix" values="0 0 0 0 0 0 0 0 0 0 0 0 0 0 0 0 0 0 127 0" result="hardAlpha"/>
<feMorphology radius="2" operator="dilate" in="SourceAlpha" result="effect1_dropShadow_1373_880"/>
<feOffset/>
<feGaussianBlur stdDeviation="2"/>
<feComposite in2="hardAlpha" operator="out"/>
<feColorMatrix type="matrix" values="0 0 0 0 0.203922 0 0 0 0 0.0823529 0 0 0 0 0.509804 0 0 0 0.2 0"/>
<feBlend mode="normal" in2="BackgroundImageFix" result="effect1_dropShadow_1373_880"/>
<feBlend mode="normal" in="SourceGraphic" in2="effect1_dropShadow_1373_880" result="shape"/>
<feColorMatrix in="SourceAlpha" type="matrix" values="0 0 0 0 0 0 0 0 0 0 0 0 0 0 0 0 0 0 127 0" result="hardAlpha"/>
<feMorphology radius="2" operator="erode" in="SourceAlpha" result="effect2_innerShadow_1373_880"/>
<feOffset/>
<feGaussianBlur stdDeviation="1"/>
<feComposite in2="hardAlpha" operator="arithmetic" k2="-1" k3="1"/>
<feColorMatrix type="matrix" values="0 0 0 0 0.470588 0 0 0 0 0.270588 0 0 0 0 0.968627 0 0 0 1 0"/>
<feBlend mode="normal" in2="shape" result="effect2_innerShadow_1373_880"/>
<feColorMatrix in="SourceAlpha" type="matrix" values="0 0 0 0 0 0 0 0 0 0 0 0 0 0 0 0 0 0 127 0" result="hardAlpha"/>
<feOffset dy="-2"/>
<feGaussianBlur stdDeviation="1"/>
<feComposite in2="hardAlpha" operator="arithmetic" k2="-1" k3="1"/>
<feColorMatrix type="matrix" values="0 0 0 0 0.341176 0 0 0 0 0.145098 0 0 0 0 0.819608 0 0 0 1 0"/>
<feBlend mode="normal" in2="effect2_innerShadow_1373_880" result="effect3_innerShadow_1373_880"/>
</filter>
<clipPath id="clip0_1373_880">
<rect width="310" height="102" fill="white"/>
</clipPath>
</defs>
</svg>
