<svg width="606" height="305" viewBox="0 0 606 305" fill="none" xmlns="http://www.w3.org/2000/svg">
<path d="M210.692 40.7658C209.68 41.5486 208.631 42.3654 207.547 43.216C206.462 44.0666 205.265 45.012 203.954 46.0524C202.643 47.0927 201.276 48.181 199.853 49.3172C198.43 50.4534 197.008 51.5907 195.587 52.7291C194.165 53.8675 192.802 54.9603 191.497 56.0077C190.192 57.055 189.002 58.01 187.927 58.8728C186.853 59.7355 185.951 60.4596 185.222 61.0452C184.492 61.6307 183.999 62.0383 183.742 62.2681C183.485 62.4978 183.325 62.6307 183.261 62.6669C183.198 62.703 183.131 62.7279 183.059 62.7416C182.988 62.7552 182.916 62.7574 182.844 62.748C182.772 62.7386 182.703 62.7176 182.638 62.6852C182.573 62.6527 182.515 62.611 182.463 62.56C182.411 62.509 182.369 62.4508 182.337 62.3854C182.305 62.32 182.283 62.2514 182.273 62.1797C182.263 62.1079 182.265 62.0362 182.279 61.9644C182.292 61.8926 182.317 61.8251 182.352 61.7621C182.388 61.699 182.433 61.6429 182.487 61.5939C182.541 61.5448 182.601 61.506 182.668 61.4775C182.735 61.4489 182.804 61.4315 182.877 61.4251C182.95 61.4187 183.021 61.4243 183.092 61.4421C183.162 61.4598 183.228 61.488 183.29 61.5267C183.351 61.5653 183.405 61.6132 183.45 61.6702C183.496 61.7272 183.531 61.7896 183.557 61.8574C183.582 61.9252 183.596 61.9956 183.598 62.0688C183.6 62.1419 183.59 62.213 183.569 62.2822C183.548 62.3513 183.516 62.4157 183.474 62.4754C183.431 62.535 183.381 62.5859 183.322 62.628C183.263 62.67 183.199 62.7021 183.129 62.7241C183.06 62.7461 182.988 62.7559 182.916 62.7536C182.843 62.7512 182.773 62.7379 182.704 62.7135C182.636 62.6891 182.573 62.6539 182.517 62.6079C182.46 62.5619 182.412 62.5085 182.372 62.4479C182.333 62.3872 182.304 62.3213 182.287 62.2503C182.27 62.1792 182.264 62.1077 182.269 62.0357C182.274 61.9637 182.292 61.894 182.321 61.8266C182.35 61.7592 182.388 61.6986 182.436 61.6449C182.484 61.5911 182.509 61.5636 182.509 61.5636C182.509 61.5636 182.649 61.4616 182.927 61.259C183.205 61.0564 183.708 60.6599 184.434 60.0697C185.16 59.4794 186.057 58.75 187.126 57.8814C188.196 57.0128 189.379 56.0504 190.678 54.9942C191.977 53.938 193.332 52.835 194.743 51.6853C196.155 50.5355 197.566 49.3843 198.976 48.2315C200.387 47.0787 201.738 45.9712 203.03 44.909C204.323 43.8468 205.499 42.8748 206.559 41.993C207.619 41.1112 208.638 40.2578 209.616 39.433C210.594 38.6081 211.134 38.1683 211.238 38.1137C211.342 38.059 211.452 38.0266 211.568 38.0166C211.683 38.0065 211.797 38.0186 211.909 38.0529C212.021 38.0871 212.122 38.1419 212.211 38.2172C212.3 38.2924 212.372 38.3815 212.427 38.4844C212.482 38.5872 212.514 38.6971 212.524 38.8139C212.534 38.9307 212.522 39.0445 212.488 39.1554C212.454 39.2662 212.399 39.3668 212.323 39.4571C212.248 39.5473 212.211 39.5916 212.211 39.5916C212.211 39.5916 211.706 39.9824 210.692 40.7658Z" fill="#1D1D1D" stroke="#1D1D1D" stroke-linecap="round" stroke-linejoin="round"/>
<path d="M195.523 39.4176C194.993 39.8286 194.444 40.2582 193.878 40.7063C193.311 41.1544 192.686 41.6534 192.003 42.2031C191.32 42.7528 190.607 43.3283 189.866 43.9296C189.125 44.5309 188.384 45.1329 187.645 45.7357C186.905 46.3385 186.195 46.9173 185.516 47.4722C184.837 48.0271 184.218 48.5331 183.659 48.9903C183.1 49.4475 182.561 49.8886 182.042 50.3136C181.523 50.7386 181.235 50.9679 181.178 51.0014C181.12 51.0349 181.059 51.0583 180.994 51.0716C180.929 51.0849 180.863 51.0875 180.797 51.0794C180.731 51.0713 180.668 51.0529 180.608 51.024C180.548 50.9951 180.494 50.9575 180.447 50.911C180.399 50.8645 180.36 50.8117 180.33 50.7525C180.299 50.6933 180.279 50.6308 180.27 50.5649C180.26 50.499 180.261 50.4334 180.272 50.368C180.284 50.3026 180.306 50.2407 180.338 50.1822C180.37 50.1237 180.411 50.0721 180.46 50.0272C180.508 49.9823 180.563 49.9463 180.624 49.919C180.685 49.8917 180.749 49.8751 180.815 49.8691C180.881 49.8631 180.946 49.8676 181.011 49.8827C181.076 49.8978 181.137 49.923 181.193 49.9583C181.249 49.9936 181.299 50.0369 181.341 50.088C181.384 50.1391 181.417 50.1959 181.44 50.2582C181.464 50.3205 181.477 50.3849 181.48 50.4512C181.483 50.5175 181.475 50.5827 181.456 50.6467C181.437 50.7107 181.408 50.7699 181.37 50.8243C181.333 50.8787 181.287 50.9257 181.233 50.9652C181.179 51.0047 181.12 51.0346 181.057 51.0549C180.994 51.0752 180.929 51.0848 180.863 51.0839C180.796 51.083 180.731 51.0714 180.669 51.0492C180.606 51.027 180.549 50.9954 180.496 50.9544C180.443 50.9134 180.399 50.8651 180.363 50.8094C180.326 50.7537 180.3 50.6937 180.283 50.6294C180.266 50.5651 180.26 50.4997 180.264 50.4333C180.269 50.3669 180.284 50.303 180.31 50.2415C180.335 50.18 180.37 50.1243 180.414 50.0743C180.458 50.0243 180.479 49.9992 180.479 49.9992C180.479 49.9992 180.737 49.785 181.253 49.3568C181.769 48.9286 182.305 48.4836 182.86 48.0217C183.415 47.5598 184.03 47.0484 184.704 46.4874C185.378 45.9264 186.081 45.3401 186.814 44.7285C187.547 44.1169 188.279 43.5046 189.01 42.8915C189.742 42.2784 190.442 41.6888 191.112 41.1225C191.782 40.5562 192.39 40.0377 192.938 39.567C193.486 39.0963 194.012 38.6397 194.517 38.1972C195.021 37.7547 195.32 37.5083 195.415 37.4579C195.509 37.4075 195.609 37.3768 195.715 37.3659C195.821 37.355 195.926 37.365 196.028 37.396C196.13 37.427 196.223 37.4762 196.306 37.5435C196.388 37.6108 196.455 37.6917 196.506 37.786C196.556 37.8803 196.587 37.9805 196.598 38.0866C196.608 38.1927 196.598 38.297 196.567 38.3995C196.537 38.502 196.488 38.5945 196.42 38.677C196.352 38.7595 196.319 38.8011 196.319 38.8011C196.319 38.8011 196.054 39.0069 195.523 39.4176Z" fill="#1D1D1D" stroke="#1D1D1D" stroke-linecap="round" stroke-linejoin="round"/>
<path d="M387.774 161.326C392.094 169.054 394.341 177.769 394.295 186.623C394.25 195.477 391.914 204.168 387.515 211.852C383.116 219.536 376.803 225.95 369.191 230.472C361.579 234.994 352.926 237.468 344.074 237.656C340.906 247.534 334.757 256.19 326.472 262.434C318.187 268.678 308.173 272.205 297.803 272.529C287.434 272.853 277.219 269.96 268.56 264.246C259.901 258.531 253.223 250.277 249.444 240.616C239.188 242.441 228.624 241.284 219.006 237.283C209.388 233.282 201.121 226.605 195.185 218.044C189.25 209.484 185.896 199.4 185.522 188.989C185.147 178.579 187.769 168.28 193.074 159.316C188.831 150.686 186.729 141.161 186.945 131.547C187.161 121.933 189.69 112.513 194.317 104.083C198.944 95.6528 205.533 88.4612 213.528 83.1162C221.522 77.7712 230.686 74.4302 240.244 73.3757C244.933 65.5501 251.63 59.1216 259.641 54.7569C267.652 50.3923 276.685 48.2503 285.803 48.5533C294.921 48.8564 303.792 51.5933 311.495 56.4802C319.199 61.3671 325.455 68.2261 329.614 76.3457C340.471 73.7333 351.865 74.4814 362.287 78.4907C372.709 82.5 381.667 89.5814 387.974 98.7966C394.281 108.012 397.639 118.926 397.603 130.092C397.567 141.259 394.14 152.151 387.774 161.326ZM389.104 163.306C393.055 171.321 394.87 180.22 394.373 189.143C393.876 198.065 391.083 206.708 386.265 214.234C381.447 221.761 374.768 227.915 366.873 232.103C358.979 236.29 350.137 238.368 341.204 238.136C337.864 247.705 331.638 256.003 323.385 261.887C315.133 267.771 305.258 270.952 295.123 270.99C284.987 271.028 275.089 267.923 266.792 262.102C258.495 256.28 252.207 248.03 248.794 238.486C238.602 240.129 228.153 238.906 218.617 234.951C209.081 230.997 200.832 224.467 194.794 216.094C188.756 207.72 185.166 197.831 184.426 187.534C183.686 177.237 185.825 166.937 190.604 157.786C187.817 148.972 186.96 139.662 188.089 130.488C189.218 121.314 192.307 112.49 197.148 104.615C201.988 96.7398 208.466 89.9985 216.142 84.8482C223.818 79.698 232.512 76.2593 241.634 74.7657C245.35 66.2913 251.541 59.1385 259.396 54.2462C267.25 49.3538 276.4 46.9505 285.644 47.3518C294.889 47.753 303.796 50.94 311.197 56.4945C318.598 62.0489 324.146 69.7112 327.114 78.4757C337.894 75.3324 349.372 75.5185 360.045 79.0095C370.718 82.5006 380.087 89.1338 386.926 98.0403C393.765 106.947 397.754 117.711 398.371 128.923C398.988 140.135 396.204 151.273 390.384 160.876L389.104 163.306Z" fill="#ECDCF2"/>
<path d="M387.774 161.326C392.094 169.054 394.341 177.769 394.295 186.623C394.25 195.477 391.914 204.168 387.515 211.852C383.116 219.536 376.803 225.95 369.191 230.472C361.579 234.994 352.926 237.468 344.074 237.656C340.906 247.534 334.757 256.19 326.472 262.434C318.187 268.678 308.173 272.205 297.803 272.529C287.434 272.853 277.219 269.96 268.56 264.246C259.901 258.531 253.223 250.277 249.444 240.616C239.188 242.441 228.624 241.284 219.006 237.283C209.388 233.282 201.121 226.605 195.185 218.044C189.25 209.484 185.896 199.4 185.522 188.989C185.147 178.579 187.769 168.28 193.074 159.316C188.831 150.686 186.729 141.161 186.945 131.547C187.161 121.933 189.69 112.513 194.317 104.083C198.944 95.6528 205.533 88.4612 213.528 83.1162C221.522 77.7712 230.686 74.4302 240.244 73.3757C244.933 65.5501 251.63 59.1216 259.641 54.7569C267.652 50.3923 276.685 48.2503 285.803 48.5533C294.921 48.8564 303.792 51.5933 311.495 56.4802C319.199 61.3671 325.455 68.2261 329.614 76.3457C340.471 73.7333 351.865 74.4814 362.287 78.4907C372.709 82.5 381.667 89.5814 387.974 98.7966C394.281 108.012 397.639 118.926 397.603 130.092C397.567 141.259 394.14 152.151 387.774 161.326ZM389.104 163.306C393.055 171.321 394.87 180.22 394.373 189.143C393.876 198.065 391.083 206.708 386.265 214.234C381.447 221.761 374.768 227.915 366.873 232.103C358.979 236.29 350.137 238.368 341.204 238.136C337.864 247.705 331.638 256.003 323.385 261.887C315.133 267.771 305.258 270.952 295.123 270.99C284.987 271.028 275.089 267.923 266.792 262.102C258.495 256.28 252.207 248.03 248.794 238.486C238.602 240.129 228.153 238.906 218.617 234.951C209.081 230.997 200.832 224.467 194.794 216.094C188.756 207.72 185.166 197.831 184.426 187.534C183.686 177.237 185.825 166.937 190.604 157.786C187.817 148.972 186.96 139.662 188.089 130.488C189.218 121.314 192.307 112.49 197.148 104.615C201.988 96.7398 208.466 89.9985 216.142 84.8482C223.818 79.698 232.512 76.2593 241.634 74.7657C245.35 66.2913 251.541 59.1385 259.396 54.2462C267.25 49.3538 276.4 46.9505 285.644 47.3518C294.889 47.753 303.796 50.94 311.197 56.4945C318.598 62.0489 324.146 69.7112 327.114 78.4757C337.894 75.3324 349.372 75.5185 360.045 79.0095C370.718 82.5006 380.087 89.1338 386.926 98.0403C393.765 106.947 397.754 117.711 398.371 128.923C398.988 140.135 396.204 151.273 390.384 160.876L389.104 163.306Z" stroke="#AE3EC9" stroke-width="10" stroke-linecap="round" stroke-linejoin="round"/>
<path d="M445.731 161.906C439.997 161.906 434.498 159.628 430.444 155.574C426.389 151.519 424.111 146.02 424.111 140.286C424.111 134.552 426.389 129.053 430.444 124.998C434.498 120.944 439.997 118.666 445.731 118.666H551.781C557.515 118.666 563.014 120.944 567.069 124.998C571.124 129.053 573.401 134.552 573.401 140.286C573.401 146.02 571.124 151.519 567.069 155.574C563.014 159.628 557.515 161.906 551.781 161.906H445.731Z" fill="#ECEEF0"/>
<path d="M445.731 161.906C439.997 161.906 434.498 159.628 430.444 155.574C426.389 151.519 424.111 146.02 424.111 140.286C424.111 134.552 426.389 129.053 430.444 124.998C434.498 120.944 439.997 118.666 445.731 118.666H551.781C557.515 118.666 563.014 120.944 567.069 124.998C571.124 129.053 573.401 134.552 573.401 140.286C573.401 146.02 571.124 151.519 567.069 155.574C563.014 159.628 557.515 161.906 551.781 161.906H445.731Z" stroke="#9FA8B2" stroke-width="2" stroke-linecap="round" stroke-linejoin="round"/>
<path d="M102.725 90.0232C96.9915 90.0232 91.4924 87.7454 87.4378 83.6909C83.3833 79.6363 81.1055 74.1372 81.1055 68.4032C81.1055 62.6692 83.3833 57.1701 87.4378 53.1156C91.4924 49.061 96.9915 46.7832 102.725 46.7832H208.775C214.509 46.7832 220.009 49.061 224.063 53.1156C228.118 57.1701 230.395 62.6692 230.395 68.4032C230.395 74.1372 228.118 79.6363 224.063 83.6909C220.009 87.7454 214.509 90.0232 208.775 90.0232H102.725Z" fill="#ECEEF0"/>
<path d="M102.725 90.0232C96.9915 90.0232 91.4924 87.7454 87.4378 83.6909C83.3833 79.6363 81.1055 74.1372 81.1055 68.4032C81.1055 62.6692 83.3833 57.1701 87.4378 53.1156C91.4924 49.061 96.9915 46.7832 102.725 46.7832H208.775C214.509 46.7832 220.009 49.061 224.063 53.1156C228.118 57.1701 230.395 62.6692 230.395 68.4032C230.395 74.1372 228.118 79.6363 224.063 83.6909C220.009 87.7454 214.509 90.0232 208.775 90.0232H102.725Z" stroke="#9FA8B2" stroke-width="2" stroke-linecap="round" stroke-linejoin="round"/>
<path d="M62.2952 258.139C59.6146 258.167 56.955 257.664 54.4703 256.658C51.9855 255.651 49.725 254.163 47.8194 252.277C45.9139 250.391 44.4011 248.147 43.3687 245.673C42.3363 243.199 41.8047 240.545 41.8047 237.864C41.8047 235.183 42.3363 232.529 43.3687 230.055C44.4011 227.581 45.9139 225.337 47.8194 223.451C49.725 221.566 51.9855 220.077 54.4703 219.07C56.955 218.064 59.6146 217.561 62.2952 217.589H161.765C164.446 217.561 167.105 218.064 169.59 219.07C172.075 220.077 174.335 221.566 176.241 223.451C178.147 225.337 179.659 227.581 180.692 230.055C181.724 232.529 182.256 235.183 182.256 237.864C182.256 240.545 181.724 243.199 180.692 245.673C179.659 248.147 178.147 250.391 176.241 252.277C174.335 254.163 172.075 255.651 169.59 256.658C167.105 257.664 164.446 258.167 161.765 258.139H62.2952Z" fill="#ECEEF0"/>
<path d="M62.2952 258.139C59.6146 258.167 56.955 257.664 54.4703 256.658C51.9855 255.651 49.725 254.163 47.8194 252.277C45.9139 250.391 44.4011 248.147 43.3687 245.673C42.3363 243.199 41.8047 240.545 41.8047 237.864C41.8047 235.183 42.3363 232.529 43.3687 230.055C44.4011 227.581 45.9139 225.337 47.8194 223.451C49.725 221.566 51.9855 220.077 54.4703 219.07C56.955 218.064 59.6146 217.561 62.2952 217.589H161.765C164.446 217.561 167.105 218.064 169.59 219.07C172.075 220.077 174.335 221.566 176.241 223.451C178.147 225.337 179.659 227.581 180.692 230.055C181.724 232.529 182.256 235.183 182.256 237.864C182.256 240.545 181.724 243.199 180.692 245.673C179.659 248.147 178.147 250.391 176.241 252.277C174.335 254.163 172.075 255.651 169.59 256.658C167.105 257.664 164.446 258.167 161.765 258.139H62.2952Z" stroke="#9FA8B2" stroke-width="2" stroke-linecap="round" stroke-linejoin="round"/>
<path d="M424.235 127.499C422.803 127.521 421.382 127.258 420.053 126.726C418.724 126.193 417.514 125.401 416.494 124.397C415.474 123.392 414.664 122.195 414.111 120.874C413.558 119.554 413.273 118.136 413.273 116.704C413.273 115.273 413.558 113.855 414.111 112.535C414.664 111.214 415.474 110.017 416.494 109.012C417.514 108.008 418.724 107.216 420.053 106.683C421.382 106.151 422.803 105.888 424.235 105.909H442.225C443.657 105.888 445.078 106.151 446.407 106.683C447.736 107.216 448.946 108.008 449.966 109.012C450.986 110.017 451.796 111.214 452.349 112.535C452.902 113.855 453.187 115.273 453.187 116.704C453.187 118.136 452.902 119.554 452.349 120.874C451.796 122.195 450.986 123.392 449.966 124.397C448.946 125.401 447.736 126.193 446.407 126.726C445.078 127.258 443.657 127.521 442.225 127.499H424.235Z" fill="#ECEEF0"/>
<path d="M424.235 127.499C422.803 127.521 421.382 127.258 420.053 126.726C418.724 126.193 417.514 125.401 416.494 124.397C415.474 123.392 414.664 122.195 414.111 120.874C413.558 119.554 413.273 118.136 413.273 116.704C413.273 115.273 413.558 113.855 414.111 112.535C414.664 111.214 415.474 110.017 416.494 109.012C417.514 108.008 418.724 107.216 420.053 106.683C421.382 106.151 422.803 105.888 424.235 105.909H442.225C443.657 105.888 445.078 106.151 446.407 106.683C447.736 107.216 448.946 108.008 449.966 109.012C450.986 110.017 451.796 111.214 452.349 112.535C452.902 113.855 453.187 115.273 453.187 116.704C453.187 118.136 452.902 119.554 452.349 120.874C451.796 122.195 450.986 123.392 449.966 124.397C448.946 125.401 447.736 126.193 446.407 126.726C445.078 127.258 443.657 127.521 442.225 127.499H424.235Z" stroke="#9FA8B2" stroke-width="2" stroke-linecap="round" stroke-linejoin="round"/>
<path d="M81.2272 55.6186C79.7957 55.6405 78.3741 55.3775 77.0451 54.8448C75.7162 54.3122 74.5065 53.5205 73.4864 52.5159C72.4664 51.5114 71.6563 50.3139 71.1033 48.9933C70.5504 47.6727 70.2656 46.2553 70.2656 44.8236C70.2656 43.3919 70.5504 41.9745 71.1033 40.6539C71.6563 39.3333 72.4664 38.1359 73.4864 37.1313C74.5065 36.1267 75.7162 35.335 77.0451 34.8024C78.3741 34.2697 79.7957 34.0067 81.2272 34.0286H99.2172C100.649 34.0067 102.07 34.2697 103.399 34.8024C104.728 35.335 105.938 36.1267 106.958 37.1313C107.978 38.1359 108.788 39.3333 109.341 40.6539C109.894 41.9745 110.179 43.3919 110.179 44.8236C110.179 46.2553 109.894 47.6727 109.341 48.9933C108.788 50.3139 107.978 51.5114 106.958 52.5159C105.938 53.5205 104.728 54.3122 103.399 54.8448C102.07 55.3775 100.649 55.6405 99.2172 55.6186H81.2272Z" fill="#ECEEF0"/>
<path d="M81.2272 55.6186C79.7957 55.6405 78.3741 55.3775 77.0451 54.8448C75.7162 54.3122 74.5065 53.5205 73.4864 52.5159C72.4664 51.5114 71.6563 50.3139 71.1033 48.9933C70.5504 47.6727 70.2656 46.2553 70.2656 44.8236C70.2656 43.3919 70.5504 41.9745 71.1033 40.6539C71.6563 39.3333 72.4664 38.1359 73.4864 37.1313C74.5065 36.1267 75.7162 35.335 77.0451 34.8024C78.3741 34.2697 79.7957 34.0067 81.2272 34.0286H99.2172C100.649 34.0067 102.07 34.2697 103.399 34.8024C104.728 35.335 105.938 36.1267 106.958 37.1313C107.978 38.1359 108.788 39.3333 109.341 40.6539C109.894 41.9745 110.179 43.3919 110.179 44.8236C110.179 46.2553 109.894 47.6727 109.341 48.9933C108.788 50.3139 107.978 51.5114 106.958 52.5159C105.938 53.5205 104.728 54.3122 103.399 54.8448C102.07 55.3775 100.649 55.6405 99.2172 55.6186H81.2272Z" stroke="#9FA8B2" stroke-width="2" stroke-linecap="round" stroke-linejoin="round"/>
<path d="M42.1306 225.876C40.7896 225.894 39.4584 225.645 38.2142 225.144C36.97 224.644 35.8377 223.901 34.8831 222.959C33.9284 222.017 33.1703 220.895 32.653 219.657C32.1356 218.42 31.8691 217.092 31.8691 215.751C31.8691 214.41 32.1356 213.082 32.653 211.845C33.1703 210.607 33.9284 209.485 34.8831 208.543C35.8377 207.601 36.97 206.858 38.2142 206.357C39.4584 205.857 40.7896 205.608 42.1306 205.626H59.0006C60.3417 205.608 61.6729 205.857 62.9171 206.357C64.1613 206.858 65.2936 207.601 66.2482 208.543C67.2029 209.485 67.961 210.607 68.4783 211.845C68.9957 213.082 69.2622 214.41 69.2622 215.751C69.2622 217.092 68.9957 218.42 68.4783 219.657C67.961 220.895 67.2029 222.017 66.2482 222.959C65.2936 223.901 64.1613 224.644 62.9171 225.144C61.6729 225.645 60.3417 225.894 59.0006 225.876H42.1306Z" fill="#ECEEF0"/>
<path d="M42.1306 225.876C40.7896 225.894 39.4584 225.645 38.2142 225.144C36.97 224.644 35.8377 223.901 34.8831 222.959C33.9284 222.017 33.1703 220.895 32.653 219.657C32.1356 218.42 31.8691 217.092 31.8691 215.751C31.8691 214.41 32.1356 213.082 32.653 211.845C33.1703 210.607 33.9284 209.485 34.8831 208.543C35.8377 207.601 36.97 206.858 38.2142 206.357C39.4584 205.857 40.7896 205.608 42.1306 205.626H59.0006C60.3417 205.608 61.6729 205.857 62.9171 206.357C64.1613 206.858 65.2936 207.601 66.2482 208.543C67.2029 209.485 67.961 210.607 68.4783 211.845C68.9957 213.082 69.2622 214.41 69.2622 215.751C69.2622 217.092 68.9957 218.42 68.4783 219.657C67.961 220.895 67.2029 222.017 66.2482 222.959C65.2936 223.901 64.1613 224.644 62.9171 225.144C61.6729 225.645 60.3417 225.894 59.0006 225.876H42.1306Z" stroke="#9FA8B2" stroke-width="2" stroke-linecap="round" stroke-linejoin="round"/>
<path d="M353.782 266.904C354.795 266.121 355.843 265.305 356.928 264.454C358.012 263.603 359.21 262.658 360.521 261.618C361.831 260.577 363.198 259.489 364.621 258.353C366.044 257.217 367.467 256.079 368.888 254.941C370.309 253.802 371.673 252.71 372.978 251.662C374.283 250.615 375.473 249.66 376.547 248.797C377.622 247.934 378.524 247.21 379.253 246.625C379.982 246.039 380.475 245.632 380.733 245.402C380.99 245.172 381.15 245.039 381.213 245.003C381.276 244.967 381.344 244.942 381.415 244.928C381.486 244.915 381.558 244.913 381.63 244.922C381.703 244.931 381.771 244.952 381.836 244.985C381.902 245.017 381.96 245.059 382.012 245.11C382.063 245.161 382.105 245.219 382.138 245.285C382.17 245.35 382.191 245.419 382.201 245.49C382.211 245.562 382.21 245.634 382.196 245.706C382.182 245.777 382.158 245.845 382.122 245.908C382.087 245.971 382.042 246.027 381.988 246.076C381.934 246.125 381.873 246.164 381.807 246.192C381.74 246.221 381.67 246.238 381.598 246.245C381.525 246.251 381.453 246.246 381.383 246.228C381.312 246.21 381.246 246.182 381.185 246.143C381.123 246.105 381.07 246.057 381.024 246C380.979 245.943 380.943 245.88 380.918 245.813C380.893 245.745 380.879 245.674 380.877 245.601C380.875 245.528 380.884 245.457 380.905 245.388C380.927 245.319 380.958 245.254 381.001 245.195C381.043 245.135 381.094 245.084 381.153 245.042C381.211 245 381.276 244.968 381.345 244.946C381.415 244.924 381.486 244.914 381.559 244.916C381.631 244.919 381.702 244.932 381.77 244.956C381.839 244.981 381.901 245.016 381.958 245.062C382.014 245.108 382.063 245.161 382.102 245.222C382.142 245.283 382.17 245.349 382.188 245.42C382.205 245.491 382.211 245.562 382.206 245.634C382.2 245.706 382.183 245.776 382.154 245.843C382.125 245.911 382.086 245.971 382.038 246.025C381.99 246.079 381.966 246.106 381.966 246.106C381.966 246.106 381.826 246.208 381.548 246.411C381.269 246.614 380.767 247.01 380.041 247.6C379.315 248.191 378.417 248.92 377.348 249.789C376.279 250.657 375.095 251.62 373.796 252.676C372.498 253.732 371.143 254.835 369.731 255.985C368.32 257.134 366.909 258.286 365.498 259.438C364.088 260.591 362.736 261.699 361.444 262.761C360.152 263.823 358.976 264.795 357.916 265.677C356.856 266.559 355.837 267.412 354.859 268.237C353.881 269.062 353.34 269.502 353.236 269.556C353.132 269.611 353.022 269.643 352.907 269.653C352.791 269.663 352.677 269.651 352.565 269.617C352.453 269.583 352.353 269.528 352.264 269.453C352.174 269.377 352.103 269.288 352.048 269.186C351.993 269.083 351.961 268.973 351.951 268.856C351.941 268.739 351.953 268.625 351.987 268.515C352.021 268.404 352.076 268.303 352.151 268.213C352.227 268.123 352.263 268.078 352.263 268.078C352.263 268.078 352.769 267.688 353.782 266.904Z" fill="#1D1D1D" stroke="#1D1D1D" stroke-linecap="round" stroke-linejoin="round"/>
<path d="M368.067 270.026C368.597 269.615 369.145 269.185 369.712 268.737C370.278 268.289 370.903 267.79 371.587 267.24C372.27 266.691 372.982 266.115 373.724 265.514C374.465 264.912 375.205 264.31 375.945 263.708C376.685 263.105 377.394 262.526 378.074 261.971C378.753 261.416 379.372 260.91 379.931 260.453C380.49 259.996 381.029 259.555 381.548 259.13C382.066 258.705 382.355 258.475 382.412 258.442C382.469 258.408 382.531 258.385 382.596 258.372C382.661 258.358 382.727 258.356 382.793 258.364C382.859 258.372 382.922 258.39 382.982 258.419C383.042 258.448 383.096 258.486 383.143 258.532C383.191 258.579 383.23 258.632 383.26 258.691C383.291 258.75 383.311 258.813 383.32 258.878C383.33 258.944 383.329 259.01 383.318 259.075C383.306 259.141 383.284 259.203 383.252 259.261C383.219 259.32 383.179 259.371 383.13 259.416C383.082 259.461 383.027 259.497 382.966 259.524C382.905 259.552 382.841 259.568 382.775 259.574C382.709 259.58 382.644 259.576 382.579 259.561C382.513 259.546 382.453 259.52 382.397 259.485C382.341 259.45 382.291 259.406 382.249 259.355C382.206 259.304 382.173 259.247 382.149 259.185C382.126 259.123 382.113 259.058 382.11 258.992C382.107 258.926 382.115 258.861 382.134 258.797C382.153 258.733 382.182 258.673 382.219 258.619C382.257 258.565 382.303 258.518 382.357 258.478C382.411 258.439 382.469 258.409 382.532 258.388C382.595 258.368 382.66 258.359 382.727 258.359C382.794 258.36 382.859 258.372 382.921 258.394C382.984 258.416 383.041 258.448 383.094 258.489C383.146 258.53 383.191 258.578 383.227 258.634C383.263 258.69 383.29 258.75 383.307 258.814C383.324 258.878 383.33 258.944 383.326 259.01C383.321 259.076 383.306 259.14 383.28 259.202C383.255 259.263 383.22 259.319 383.176 259.369C383.132 259.419 383.111 259.444 383.111 259.444C383.111 259.444 382.853 259.658 382.337 260.087C381.821 260.515 381.285 260.96 380.73 261.422C380.175 261.884 379.56 262.395 378.886 262.956C378.212 263.517 377.508 264.103 376.776 264.715C376.043 265.326 375.311 265.939 374.58 266.552C373.848 267.165 373.148 267.755 372.478 268.321C371.808 268.887 371.199 269.406 370.652 269.876C370.104 270.347 369.578 270.804 369.073 271.246C368.569 271.689 368.269 271.935 368.175 271.985C368.081 272.036 367.981 272.067 367.875 272.077C367.769 272.088 367.664 272.078 367.562 272.047C367.459 272.016 367.367 271.967 367.284 271.9C367.202 271.833 367.135 271.752 367.084 271.657C367.033 271.563 367.003 271.463 366.992 271.357C366.982 271.251 366.992 271.146 367.022 271.044C367.053 270.941 367.102 270.849 367.17 270.766C367.238 270.684 367.271 270.642 367.271 270.642C367.271 270.642 367.536 270.436 368.067 270.026Z" fill="#1D1D1D" stroke="#1D1D1D" stroke-linecap="round" stroke-linejoin="round"/>
<path d="M250.31 163.402H323.68L334.92 192.982H239.07L250.31 163.402Z" stroke="#1D1D1D" stroke-width="2" stroke-linecap="round" stroke-linejoin="round"/>
<path d="M257.828 110.244H315.598V157.634H257.828V110.244Z" stroke="#1D1D1D" stroke-width="4" stroke-linecap="round" stroke-linejoin="round"/>
<path d="M306.076 158.348V163.078" stroke="#1D1D1D" stroke-width="2" stroke-linecap="round" stroke-linejoin="round"/>
<path d="M266.355 158.625V163.355" stroke="#1D1D1D" stroke-width="2" stroke-linecap="round" stroke-linejoin="round"/>
<path d="M114.296 79V59.568H116.928V79H114.296ZM116.088 79V76.592H127.232V79H116.088ZM116.088 70.208V67.912H126.308V70.208H116.088ZM116.088 61.976V59.568H127.092V61.976H116.088ZM130.924 79V65.7H133.444V79H130.924ZM139.912 79V70.964C139.912 69.9747 139.604 69.2 138.988 68.64C138.39 68.0613 137.634 67.772 136.72 67.772C136.104 67.772 135.553 67.9027 135.068 68.164C134.582 68.4253 134.19 68.7893 133.892 69.256C133.593 69.7227 133.444 70.2827 133.444 70.936L132.408 70.432C132.408 69.424 132.622 68.5467 133.052 67.8C133.5 67.0533 134.106 66.4747 134.872 66.064C135.637 65.6347 136.496 65.42 137.448 65.42C138.381 65.42 139.221 65.6253 139.968 66.036C140.733 66.4467 141.33 67.0253 141.76 67.772C142.208 68.5187 142.432 69.4053 142.432 70.432V79H139.912ZM148.9 79V70.964C148.9 69.9747 148.592 69.2 147.976 68.64C147.378 68.0613 146.632 67.772 145.736 67.772C145.12 67.772 144.56 67.9027 144.056 68.164C143.57 68.4253 143.178 68.7893 142.88 69.256C142.581 69.7227 142.432 70.2827 142.432 70.936L141.004 70.432C141.06 69.4053 141.33 68.528 141.816 67.8C142.32 67.0533 142.964 66.4747 143.748 66.064C144.532 65.6347 145.39 65.42 146.324 65.42C147.294 65.42 148.162 65.6253 148.928 66.036C149.693 66.4467 150.3 67.0253 150.748 67.772C151.214 68.5187 151.448 69.4147 151.448 70.46V79H148.9ZM161.093 79.28C159.879 79.28 158.778 78.9813 157.789 78.384C156.799 77.768 156.015 76.9373 155.437 75.892C154.877 74.8467 154.597 73.6707 154.597 72.364C154.597 71.0573 154.877 69.8813 155.437 68.836C156.015 67.7907 156.79 66.96 157.761 66.344C158.75 65.728 159.861 65.42 161.093 65.42C162.101 65.42 162.997 65.6347 163.781 66.064C164.583 66.4747 165.227 67.0533 165.713 67.8C166.198 68.528 166.469 69.3773 166.525 70.348V74.352C166.469 75.304 166.198 76.1533 165.713 76.9C165.246 77.6467 164.611 78.2347 163.809 78.664C163.025 79.0747 162.119 79.28 161.093 79.28ZM161.513 76.9C162.763 76.9 163.771 76.48 164.537 75.64C165.302 74.7813 165.685 73.6893 165.685 72.364C165.685 71.4493 165.507 70.656 165.153 69.984C164.817 69.2933 164.331 68.7613 163.697 68.388C163.062 67.996 162.325 67.8 161.485 67.8C160.645 67.8 159.898 67.996 159.245 68.388C158.61 68.78 158.106 69.3213 157.733 70.012C157.378 70.684 157.201 71.4587 157.201 72.336C157.201 73.232 157.378 74.0253 157.733 74.716C158.106 75.388 158.619 75.92 159.273 76.312C159.926 76.704 160.673 76.9 161.513 76.9ZM165.517 79V75.416L165.993 72.168L165.517 68.948V65.7H168.065V79H165.517ZM172.322 79V65.7H174.842V79H172.322ZM173.582 63.04C173.115 63.04 172.732 62.8907 172.434 62.592C172.135 62.2747 171.986 61.8827 171.986 61.416C171.986 60.968 172.135 60.5947 172.434 60.296C172.732 59.9787 173.115 59.82 173.582 59.82C174.048 59.82 174.431 59.9787 174.73 60.296C175.028 60.5947 175.178 60.968 175.178 61.416C175.178 61.8827 175.028 62.2747 174.73 62.592C174.431 62.8907 174.048 63.04 173.582 63.04ZM179.115 79V59.008H181.635V79H179.115ZM190.11 79.28C189.364 79.28 188.654 79.1867 187.982 79C187.329 78.7947 186.722 78.5147 186.162 78.16C185.602 77.7867 185.117 77.348 184.706 76.844L186.33 75.22C186.816 75.8173 187.376 76.2653 188.01 76.564C188.645 76.844 189.354 76.984 190.138 76.984C190.922 76.984 191.529 76.8533 191.958 76.592C192.388 76.312 192.602 75.9293 192.602 75.444C192.602 74.9587 192.425 74.5853 192.07 74.324C191.734 74.044 191.296 73.82 190.754 73.652C190.213 73.4653 189.634 73.288 189.018 73.12C188.421 72.9333 187.852 72.7 187.31 72.42C186.769 72.14 186.321 71.7573 185.966 71.272C185.63 70.7867 185.462 70.1427 185.462 69.34C185.462 68.5373 185.658 67.8467 186.05 67.268C186.442 66.6707 186.984 66.2133 187.674 65.896C188.384 65.5787 189.233 65.42 190.222 65.42C191.268 65.42 192.192 65.6067 192.994 65.98C193.816 66.3347 194.488 66.876 195.01 67.604L193.386 69.228C193.013 68.7427 192.546 68.3693 191.986 68.108C191.445 67.8467 190.829 67.716 190.138 67.716C189.41 67.716 188.85 67.8467 188.458 68.108C188.085 68.3507 187.898 68.696 187.898 69.144C187.898 69.592 188.066 69.9373 188.402 70.18C188.738 70.4227 189.177 70.628 189.718 70.796C190.278 70.964 190.857 71.1413 191.454 71.328C192.052 71.496 192.621 71.7293 193.162 72.028C193.704 72.3267 194.142 72.728 194.478 73.232C194.833 73.736 195.01 74.3987 195.01 75.22C195.01 76.4707 194.562 77.46 193.666 78.188C192.789 78.916 191.604 79.28 190.11 79.28Z" fill="black"/>
<path d="M70.528 247.24C69.328 247.24 68.216 247.024 67.192 246.592C66.168 246.144 65.272 245.528 64.504 244.744C63.752 243.96 63.168 243.048 62.752 242.008C62.336 240.968 62.128 239.856 62.128 238.672C62.128 237.472 62.336 236.352 62.752 235.312C63.168 234.272 63.752 233.368 64.504 232.6C65.272 231.816 66.16 231.208 67.168 230.776C68.192 230.328 69.304 230.104 70.504 230.104C71.816 230.104 72.968 230.328 73.96 230.776C74.952 231.224 75.832 231.832 76.6 232.6L75.04 234.16C74.512 233.568 73.864 233.104 73.096 232.768C72.344 232.432 71.48 232.264 70.504 232.264C69.624 232.264 68.816 232.424 68.08 232.744C67.344 233.048 66.704 233.488 66.16 234.064C65.616 234.64 65.192 235.32 64.888 236.104C64.6 236.888 64.456 237.744 64.456 238.672C64.456 239.6 64.6 240.456 64.888 241.24C65.192 242.024 65.616 242.704 66.16 243.28C66.704 243.856 67.344 244.304 68.08 244.624C68.816 244.928 69.624 245.08 70.504 245.08C71.544 245.08 72.448 244.912 73.216 244.576C73.984 244.224 74.632 243.752 75.16 243.16L76.72 244.696C75.952 245.496 75.048 246.12 74.008 246.568C72.984 247.016 71.824 247.24 70.528 247.24ZM84.0604 247.24C83.0204 247.24 82.0764 246.984 81.2284 246.472C80.3804 245.944 79.7084 245.232 79.2124 244.336C78.7324 243.44 78.4924 242.432 78.4924 241.312C78.4924 240.192 78.7324 239.184 79.2124 238.288C79.7084 237.392 80.3724 236.68 81.2044 236.152C82.0524 235.624 83.0044 235.36 84.0604 235.36C84.9244 235.36 85.6924 235.544 86.3644 235.912C87.0524 236.264 87.6044 236.76 88.0204 237.4C88.4364 238.024 88.6684 238.752 88.7164 239.584V243.016C88.6684 243.832 88.4364 244.56 88.0204 245.2C87.6204 245.84 87.0764 246.344 86.3884 246.712C85.7164 247.064 84.9404 247.24 84.0604 247.24ZM84.4204 245.2C85.4924 245.2 86.3564 244.84 87.0124 244.12C87.6684 243.384 87.9964 242.448 87.9964 241.312C87.9964 240.528 87.8444 239.848 87.5404 239.272C87.2524 238.68 86.8364 238.224 86.2924 237.904C85.7484 237.568 85.1164 237.4 84.3964 237.4C83.6764 237.4 83.0364 237.568 82.4764 237.904C81.9324 238.24 81.5004 238.704 81.1804 239.296C80.8764 239.872 80.7244 240.536 80.7244 241.288C80.7244 242.056 80.8764 242.736 81.1804 243.328C81.5004 243.904 81.9404 244.36 82.5004 244.696C83.0604 245.032 83.7004 245.2 84.4204 245.2ZM87.8524 247V243.928L88.2604 241.144L87.8524 238.384V235.6H90.0364V247H87.8524ZM93.6612 247V229.864H95.8212V247H93.6612ZM104.741 247.24C103.605 247.24 102.581 246.984 101.669 246.472C100.757 245.944 100.037 245.232 99.5095 244.336C98.9815 243.44 98.7175 242.424 98.7175 241.288C98.7175 240.168 98.9735 239.16 99.4855 238.264C100.013 237.368 100.717 236.664 101.597 236.152C102.493 235.624 103.493 235.36 104.597 235.36C105.653 235.36 106.581 235.6 107.381 236.08C108.197 236.56 108.829 237.224 109.277 238.072C109.741 238.92 109.973 239.88 109.973 240.952C109.973 241.112 109.965 241.288 109.949 241.48C109.933 241.656 109.901 241.864 109.853 242.104H100.229V240.304H108.701L107.909 241C107.909 240.232 107.773 239.584 107.501 239.056C107.229 238.512 106.845 238.096 106.349 237.808C105.853 237.504 105.253 237.352 104.549 237.352C103.813 237.352 103.165 237.512 102.605 237.832C102.045 238.152 101.613 238.6 101.309 239.176C101.005 239.752 100.853 240.432 100.853 241.216C100.853 242.016 101.013 242.72 101.333 243.328C101.653 243.92 102.109 244.384 102.701 244.72C103.293 245.04 103.973 245.2 104.741 245.2C105.381 245.2 105.965 245.088 106.493 244.864C107.037 244.64 107.501 244.304 107.885 243.856L109.277 245.272C108.733 245.912 108.061 246.4 107.261 246.736C106.477 247.072 105.637 247.24 104.741 247.24ZM120.873 247V240.352C120.873 239.488 120.601 238.776 120.057 238.216C119.513 237.656 118.809 237.376 117.945 237.376C117.369 237.376 116.857 237.504 116.409 237.76C115.961 238.016 115.609 238.368 115.353 238.816C115.097 239.264 114.969 239.776 114.969 240.352L114.081 239.848C114.081 238.984 114.273 238.216 114.657 237.544C115.041 236.872 115.577 236.344 116.265 235.96C116.953 235.56 117.729 235.36 118.593 235.36C119.457 235.36 120.217 235.576 120.873 236.008C121.545 236.44 122.073 237.008 122.457 237.712C122.841 238.4 123.033 239.136 123.033 239.92V247H120.873ZM112.809 247V235.6H114.969V247H112.809ZM131.261 247.24C130.205 247.24 129.261 246.984 128.429 246.472C127.597 245.944 126.933 245.232 126.437 244.336C125.957 243.44 125.717 242.432 125.717 241.312C125.717 240.192 125.957 239.184 126.437 238.288C126.933 237.392 127.597 236.68 128.429 236.152C129.261 235.624 130.205 235.36 131.261 235.36C132.109 235.36 132.877 235.544 133.565 235.912C134.253 236.264 134.805 236.76 135.221 237.4C135.653 238.024 135.893 238.752 135.941 239.584V243.016C135.893 243.832 135.661 244.56 135.245 245.2C134.829 245.84 134.277 246.344 133.589 246.712C132.901 247.064 132.125 247.24 131.261 247.24ZM131.621 245.2C132.341 245.2 132.965 245.032 133.493 244.696C134.037 244.36 134.461 243.904 134.765 243.328C135.069 242.736 135.221 242.064 135.221 241.312C135.221 240.528 135.061 239.848 134.741 239.272C134.437 238.696 134.013 238.24 133.469 237.904C132.941 237.568 132.317 237.4 131.597 237.4C130.877 237.4 130.245 237.568 129.701 237.904C129.157 238.24 128.725 238.704 128.405 239.296C128.101 239.872 127.949 240.536 127.949 241.288C127.949 242.056 128.101 242.736 128.405 243.328C128.725 243.904 129.157 244.36 129.701 244.696C130.261 245.032 130.901 245.2 131.621 245.2ZM137.261 247H135.077V243.928L135.485 241.144L135.077 238.384V229.864H137.261V247ZM145.734 247.24C144.694 247.24 143.75 246.984 142.902 246.472C142.054 245.944 141.382 245.232 140.886 244.336C140.406 243.44 140.166 242.432 140.166 241.312C140.166 240.192 140.406 239.184 140.886 238.288C141.382 237.392 142.046 236.68 142.878 236.152C143.726 235.624 144.678 235.36 145.734 235.36C146.598 235.36 147.366 235.544 148.038 235.912C148.726 236.264 149.278 236.76 149.694 237.4C150.11 238.024 150.342 238.752 150.39 239.584V243.016C150.342 243.832 150.11 244.56 149.694 245.2C149.294 245.84 148.75 246.344 148.062 246.712C147.39 247.064 146.614 247.24 145.734 247.24ZM146.094 245.2C147.166 245.2 148.03 244.84 148.686 244.12C149.342 243.384 149.67 242.448 149.67 241.312C149.67 240.528 149.518 239.848 149.214 239.272C148.926 238.68 148.51 238.224 147.966 237.904C147.422 237.568 146.79 237.4 146.07 237.4C145.35 237.4 144.71 237.568 144.15 237.904C143.606 238.24 143.174 238.704 142.854 239.296C142.55 239.872 142.398 240.536 142.398 241.288C142.398 242.056 142.55 242.736 142.854 243.328C143.174 243.904 143.614 244.36 144.174 244.696C144.734 245.032 145.374 245.2 146.094 245.2ZM149.526 247V243.928L149.934 241.144L149.526 238.384V235.6H151.71V247H149.526ZM155.335 247V235.6H157.495V247H155.335ZM157.495 240.496L156.679 240.136C156.679 238.68 157.015 237.52 157.687 236.656C158.359 235.792 159.327 235.36 160.591 235.36C161.167 235.36 161.687 235.464 162.151 235.672C162.615 235.864 163.047 236.192 163.447 236.656L162.031 238.12C161.791 237.864 161.527 237.68 161.239 237.568C160.951 237.456 160.615 237.4 160.231 237.4C159.431 237.4 158.775 237.656 158.263 238.168C157.751 238.68 157.495 239.456 157.495 240.496Z" fill="black"/>
<path d="M455.77 141.148V139.094H460.658C461.715 139.094 462.53 138.825 463.102 138.288C463.674 137.751 463.96 137.023 463.96 136.104C463.96 135.237 463.674 134.518 463.102 133.946C462.547 133.374 461.741 133.088 460.684 133.088H455.77V130.956H460.762C461.906 130.956 462.903 131.181 463.752 131.632C464.601 132.065 465.251 132.663 465.702 133.426C466.17 134.189 466.404 135.064 466.404 136.052C466.404 137.075 466.17 137.967 465.702 138.73C465.251 139.493 464.601 140.091 463.752 140.524C462.903 140.94 461.906 141.148 460.762 141.148H455.77ZM454.132 149V130.956H456.576V149H454.132ZM464.532 149L457.98 140.914L460.294 140.108L467.626 149H464.532ZM475.571 149.26C474.341 149.26 473.231 148.983 472.243 148.428C471.255 147.856 470.475 147.085 469.903 146.114C469.331 145.143 469.045 144.043 469.045 142.812C469.045 141.599 469.323 140.507 469.877 139.536C470.449 138.565 471.212 137.803 472.165 137.248C473.136 136.676 474.219 136.39 475.415 136.39C476.559 136.39 477.565 136.65 478.431 137.17C479.315 137.69 480 138.409 480.485 139.328C480.988 140.247 481.239 141.287 481.239 142.448C481.239 142.621 481.231 142.812 481.213 143.02C481.196 143.211 481.161 143.436 481.109 143.696H470.683V141.746H479.861L479.003 142.5C479.003 141.668 478.856 140.966 478.561 140.394C478.267 139.805 477.851 139.354 477.313 139.042C476.776 138.713 476.126 138.548 475.363 138.548C474.566 138.548 473.864 138.721 473.257 139.068C472.651 139.415 472.183 139.9 471.853 140.524C471.524 141.148 471.359 141.885 471.359 142.734C471.359 143.601 471.533 144.363 471.879 145.022C472.226 145.663 472.72 146.166 473.361 146.53C474.003 146.877 474.739 147.05 475.571 147.05C476.265 147.05 476.897 146.929 477.469 146.686C478.059 146.443 478.561 146.079 478.977 145.594L480.485 147.128C479.896 147.821 479.168 148.35 478.301 148.714C477.452 149.078 476.542 149.26 475.571 149.26ZM490.811 149.26C489.875 149.26 489.025 149.069 488.263 148.688C487.517 148.289 486.919 147.743 486.469 147.05C486.018 146.357 485.767 145.568 485.715 144.684V140.966C485.767 140.065 486.018 139.276 486.469 138.6C486.937 137.907 487.543 137.369 488.289 136.988C489.051 136.589 489.892 136.39 490.811 136.39C491.937 136.39 492.951 136.676 493.853 137.248C494.771 137.82 495.491 138.591 496.011 139.562C496.531 140.533 496.791 141.625 496.791 142.838C496.791 144.051 496.531 145.143 496.011 146.114C495.491 147.085 494.771 147.856 493.853 148.428C492.951 148.983 491.937 149.26 490.811 149.26ZM484.311 154.174V136.65H486.651V139.9L486.209 142.89L486.651 145.906V154.174H484.311ZM490.421 147.05C491.201 147.05 491.885 146.868 492.475 146.504C493.064 146.14 493.532 145.646 493.879 145.022C494.225 144.381 494.399 143.644 494.399 142.812C494.399 141.997 494.225 141.269 493.879 140.628C493.532 139.987 493.064 139.493 492.475 139.146C491.885 138.782 491.209 138.6 490.447 138.6C489.667 138.6 488.982 138.782 488.393 139.146C487.803 139.493 487.344 139.987 487.015 140.628C486.685 141.269 486.521 142.006 486.521 142.838C486.521 143.653 486.677 144.381 486.989 145.022C487.318 145.646 487.777 146.14 488.367 146.504C488.973 146.868 489.658 147.05 490.421 147.05ZM505.606 149.26C504.392 149.26 503.3 148.974 502.33 148.402C501.359 147.83 500.588 147.059 500.016 146.088C499.444 145.1 499.158 143.999 499.158 142.786C499.158 141.59 499.444 140.515 500.016 139.562C500.588 138.591 501.359 137.82 502.33 137.248C503.3 136.676 504.392 136.39 505.606 136.39C506.802 136.39 507.885 136.676 508.856 137.248C509.844 137.803 510.624 138.565 511.196 139.536C511.768 140.507 512.054 141.59 512.054 142.786C512.054 143.999 511.768 145.1 511.196 146.088C510.624 147.059 509.844 147.83 508.856 148.402C507.885 148.974 506.802 149.26 505.606 149.26ZM505.606 146.998C506.386 146.998 507.079 146.816 507.686 146.452C508.292 146.088 508.769 145.594 509.116 144.97C509.462 144.329 509.636 143.601 509.636 142.786C509.636 141.989 509.454 141.278 509.09 140.654C508.743 140.03 508.266 139.545 507.66 139.198C507.07 138.834 506.386 138.652 505.606 138.652C504.826 138.652 504.132 138.834 503.526 139.198C502.919 139.545 502.442 140.03 502.096 140.654C501.749 141.278 501.576 141.989 501.576 142.786C501.576 143.601 501.749 144.329 502.096 144.97C502.442 145.594 502.919 146.088 503.526 146.452C504.132 146.816 504.826 146.998 505.606 146.998ZM515.21 149V136.65H517.55V149H515.21ZM517.55 141.954L516.666 141.564C516.666 139.987 517.03 138.73 517.758 137.794C518.486 136.858 519.535 136.39 520.904 136.39C521.528 136.39 522.091 136.503 522.594 136.728C523.097 136.936 523.565 137.291 523.998 137.794L522.464 139.38C522.204 139.103 521.918 138.903 521.606 138.782C521.294 138.661 520.93 138.6 520.514 138.6C519.647 138.6 518.937 138.877 518.382 139.432C517.827 139.987 517.55 140.827 517.55 141.954ZM528.038 149V131.476H530.378V149H528.038ZM524.996 138.782V136.65H533.42V138.782H524.996ZM539.905 149.26C539.211 149.26 538.553 149.173 537.929 149C537.322 148.809 536.759 148.549 536.239 148.22C535.719 147.873 535.268 147.466 534.887 146.998L536.395 145.49C536.845 146.045 537.365 146.461 537.955 146.738C538.544 146.998 539.203 147.128 539.931 147.128C540.659 147.128 541.222 147.007 541.621 146.764C542.019 146.504 542.219 146.149 542.219 145.698C542.219 145.247 542.054 144.901 541.725 144.658C541.413 144.398 541.005 144.19 540.503 144.034C540 143.861 539.463 143.696 538.891 143.54C538.336 143.367 537.807 143.15 537.305 142.89C536.802 142.63 536.386 142.275 536.057 141.824C535.745 141.373 535.589 140.775 535.589 140.03C535.589 139.285 535.771 138.643 536.135 138.106C536.499 137.551 537.001 137.127 537.643 136.832C538.301 136.537 539.09 136.39 540.009 136.39C540.979 136.39 541.837 136.563 542.583 136.91C543.345 137.239 543.969 137.742 544.455 138.418L542.947 139.926C542.6 139.475 542.167 139.129 541.647 138.886C541.144 138.643 540.572 138.522 539.931 138.522C539.255 138.522 538.735 138.643 538.371 138.886C538.024 139.111 537.851 139.432 537.851 139.848C537.851 140.264 538.007 140.585 538.319 140.81C538.631 141.035 539.038 141.226 539.541 141.382C540.061 141.538 540.598 141.703 541.153 141.876C541.707 142.032 542.236 142.249 542.739 142.526C543.241 142.803 543.649 143.176 543.961 143.644C544.29 144.112 544.455 144.727 544.455 145.49C544.455 146.651 544.039 147.57 543.207 148.246C542.392 148.922 541.291 149.26 539.905 149.26Z" fill="black"/>
<path d="M427.534 118.356V116.25H438.558V118.356H427.534ZM431.98 111.518H434.138V123.088H431.98V111.518Z" fill="black"/>
<path d="M82.534 45.356V43.25H93.558V45.356H82.534ZM86.98 38.518H89.138V50.088H86.98V38.518Z" fill="black"/>
<path d="M44.534 217.356V215.25H55.558V217.356H44.534ZM48.98 210.518H51.138V222.088H48.98V210.518Z" fill="black"/>
</svg>
