<svg width="103" height="103" viewBox="0 0 103 103" fill="none" xmlns="http://www.w3.org/2000/svg">
<path d="M66.6213 52.3912C78.7286 52.3912 88.5435 42.5764 88.5435 30.4691C88.5435 18.3618 78.7286 8.54688 66.6213 8.54688C54.514 8.54688 44.6991 18.3618 44.6991 30.4691C44.6991 42.5764 54.514 52.3912 66.6213 52.3912Z" stroke="#1076E4" stroke-width="8" stroke-miterlimit="10"/>
<path d="M27.1784 83.0738C34.4475 83.0738 40.3404 77.181 40.3404 69.9119C40.3404 62.6428 34.4475 56.7501 27.1784 56.7501C19.9093 56.7501 14.0166 62.6428 14.0166 69.9119C14.0166 77.181 19.9093 83.0738 27.1784 83.0738Z" stroke="#1076E4" stroke-width="8" stroke-miterlimit="10"/>
<path d="M71.0229 94.0135C77.0647 94.0135 81.9626 89.1157 81.9626 83.0738C81.9626 77.032 77.0647 72.1341 71.0229 72.1341C64.981 72.1341 60.0831 77.032 60.0831 83.0738C60.0831 89.1157 64.981 94.0135 71.0229 94.0135Z" stroke="#1076E4" stroke-width="8" stroke-miterlimit="10"/>
</svg>
