<svg width="150" height="40" viewBox="0 0 150 40" fill="none" xmlns="http://www.w3.org/2000/svg">
<path d="M0 39.2761V0.723769H7.92953L11.4781 19.1895V0.723769H18.9257V39.2761H11.3905L7.53521 19.9999V39.2761H0ZM28.8512 39.6266C25.7699 39.6266 23.4115 38.6993 21.7759 36.8447C20.155 34.9755 19.3445 32.2812 19.3445 28.7618V10.4495C19.3445 7.14914 20.1477 4.64473 21.754 2.93614C23.375 1.22758 25.7407 0.373291 28.8512 0.373291C31.9616 0.373291 34.3201 1.22758 35.9264 2.93614C37.5474 4.64473 38.3578 7.14914 38.3578 10.4495V28.7618C38.3578 32.2812 37.5401 34.9755 35.9045 36.8447C34.2835 38.6993 31.9324 39.6266 28.8512 39.6266ZM28.9169 32.5294C30.0851 32.5294 30.6692 31.3977 30.6692 29.1342V10.3181C30.6692 8.41963 30.0997 7.47042 28.9607 7.47042C27.6756 7.47042 27.0331 8.44155 27.0331 10.3838V29.178C27.0331 30.3755 27.1791 31.2371 27.4712 31.7628C27.7632 32.2739 28.2451 32.5294 28.9169 32.5294ZM38.7767 39.2761V0.723769H49.3787C52.1531 0.723769 54.2412 1.49774 55.6434 3.04567C57.0451 4.57899 57.7462 6.82787 57.7462 9.79234V27.8418C57.7462 31.4926 57.1034 34.311 55.8184 36.2971C54.5481 38.2831 52.3139 39.2761 49.1159 39.2761H38.7767ZM46.5307 32.4637H47.8669C49.2838 32.4637 49.992 31.7774 49.992 30.4047V10.5152C49.992 9.2301 49.8165 8.40502 49.466 8.03996C49.1301 7.66025 48.4366 7.47042 47.385 7.47042H46.5307V32.4637ZM58.2089 39.2761V0.723769H73.6299V8.17136H66.0508V15.6847H73.323V22.9352H66.0508V31.7628H74.1337V39.2761H58.2089ZM74.0045 39.2761V0.723769H84.6066C87.3811 0.723769 89.4696 1.49774 90.8713 3.04567C92.2735 4.57899 92.9741 6.82787 92.9741 9.79234V27.8418C92.9741 31.4926 92.3318 34.311 91.0468 36.2971C89.7761 38.2831 87.5419 39.2761 84.3438 39.2761H74.0045ZM81.7591 32.4637H83.0953C84.5118 32.4637 85.22 31.7774 85.22 30.4047V10.5152C85.22 9.2301 85.0449 8.40502 84.6944 8.03996C84.3585 7.66025 83.6646 7.47042 82.6134 7.47042H81.7591V32.4637ZM93.4369 39.2761V0.723769H105.265C107.237 0.723769 108.726 1.17647 109.734 2.08186C110.742 2.97265 111.413 4.22853 111.749 5.84948C112.1 7.45581 112.275 9.34693 112.275 11.5228C112.275 13.6257 112.005 15.305 111.464 16.5609C110.939 17.8168 109.938 18.6857 108.464 19.1676C109.676 19.4158 110.522 20.0219 111.004 20.9856C111.501 21.9349 111.749 23.1688 111.749 24.6875V39.2761H104.148V24.1837C104.148 23.0593 103.915 22.3657 103.447 22.1028C102.995 21.8253 102.257 21.6866 101.235 21.6866V39.2761H93.4369ZM101.279 15.0056H103.141C104.206 15.0056 104.74 13.8447 104.74 11.5228C104.74 10.0187 104.623 9.03296 104.389 8.56568C104.156 8.09836 103.717 7.8647 103.075 7.8647H101.279V15.0056ZM121.324 39.6266C118.243 39.6266 115.885 38.6993 114.249 36.8447C112.628 34.9755 111.818 32.2812 111.818 28.7618V10.4495C111.818 7.14914 112.621 4.64473 114.227 2.93614C115.848 1.22758 118.214 0.373291 121.324 0.373291C124.435 0.373291 126.793 1.22758 128.399 2.93614C130.02 4.64473 130.831 7.14914 130.831 10.4495V28.7618C130.831 32.2812 130.013 34.9755 128.378 36.8447C126.757 38.6993 124.405 39.6266 121.324 39.6266ZM121.39 32.5294C122.558 32.5294 123.142 31.3977 123.142 29.1342V10.3181C123.142 8.41963 122.573 7.47042 121.434 7.47042C120.149 7.47042 119.506 8.44155 119.506 10.3838V29.178C119.506 30.3755 119.652 31.2371 119.944 31.7628C120.236 32.2739 120.718 32.5294 121.39 32.5294ZM131.25 39.2761V0.723769H141.435C143.567 0.723769 145.254 1.19837 146.496 2.14758C147.751 3.09678 148.65 4.44757 149.19 6.19993C149.73 7.95235 150 10.0406 150 12.4647C150 14.8012 149.774 16.8383 149.321 18.5761C148.868 20.2993 148.058 21.6355 146.89 22.5847C145.736 23.5339 144.093 24.0085 141.961 24.0085H138.829V39.2761H131.25ZM138.829 17.0866H139.267C140.698 17.0866 141.574 16.685 141.895 15.8819C142.216 15.0787 142.377 13.8958 142.377 12.3333C142.377 10.873 142.216 9.74851 141.895 8.95996C141.589 8.1568 140.851 7.75517 139.683 7.75517H138.829V17.0866Z" fill="white"/>
</svg>
