<svg width="644" height="367" viewBox="0 0 644 367" fill="none" xmlns="http://www.w3.org/2000/svg">
<g opacity="0.75">
<path d="M155.332 32H611.182V320.62H155.332V32Z" stroke="#1D1D1D" stroke-width="5" stroke-linecap="round" stroke-linejoin="round"/>
</g>
<path d="M177.992 146.275H239.172V196.105H177.992V146.275Z" fill="#E8E8E8"/>
<path d="M177.992 146.275H239.172V196.105H177.992V146.275Z" stroke="#1D1D1D" stroke-width="2" stroke-linecap="round" stroke-linejoin="round"/>
<path d="M249.172 146.275H310.352V196.105H249.172V146.275Z" fill="#E8E8E8"/>
<path d="M249.172 146.275H310.352V196.105H249.172V146.275Z" stroke="#1D1D1D" stroke-width="2" stroke-linecap="round" stroke-linejoin="round"/>
<path d="M320.352 146.275H381.532V196.105H320.352V146.275Z" fill="#DCE1F8"/>
<path d="M320.352 146.275H381.532V196.105H320.352V146.275Z" stroke="#4465E9" stroke-width="2" stroke-linecap="round" stroke-linejoin="round"/>
<path d="M391.531 146.275H452.711V196.105H391.531V146.275Z" fill="#E8E8E8"/>
<path d="M391.531 146.275H452.711V196.105H391.531V146.275Z" stroke="#1D1D1D" stroke-width="2" stroke-linecap="round" stroke-linejoin="round"/>
<path d="M462.711 146.275H523.891V196.105H462.711V146.275Z" fill="#E8E8E8"/>
<path d="M462.711 146.275H523.891V196.105H462.711V146.275Z" stroke="#1D1D1D" stroke-width="2" stroke-linecap="round" stroke-linejoin="round"/>
<path d="M533.891 146.275H595.071V196.105H533.891V146.275Z" fill="#E8E8E8"/>
<path d="M533.891 146.275H595.071V196.105H533.891V146.275Z" stroke="#1D1D1D" stroke-width="2" stroke-linecap="round" stroke-linejoin="round"/>
<path d="M177.107 215.441H238.287V265.271H177.107V215.441Z" fill="#E8E8E8"/>
<path d="M177.107 215.441H238.287V265.271H177.107V215.441Z" stroke="#1D1D1D" stroke-width="2" stroke-linecap="round" stroke-linejoin="round"/>
<path d="M248.287 215.441H309.467V265.271H248.287V215.441Z" fill="#E8E8E8"/>
<path d="M248.287 215.441H309.467V265.271H248.287V215.441Z" stroke="#1D1D1D" stroke-width="2" stroke-linecap="round" stroke-linejoin="round"/>
<path d="M319.467 215.441H380.647V265.271H319.467V215.441Z" fill="#E8E8E8"/>
<path d="M319.467 215.441H380.647V265.271H319.467V215.441Z" stroke="#1D1D1D" stroke-width="2" stroke-linecap="round" stroke-linejoin="round"/>
<path d="M390.646 215.441H451.826V265.271H390.646V215.441Z" fill="#E8E8E8"/>
<path d="M390.646 215.441H451.826V265.271H390.646V215.441Z" stroke="#1D1D1D" stroke-width="2" stroke-linecap="round" stroke-linejoin="round"/>
<path d="M461.824 215.441H523.004V265.271H461.824V215.441Z" fill="#D3E9E3"/>
<path d="M461.824 215.441H523.004V265.271H461.824V215.441Z" stroke="#099268" stroke-width="2" stroke-linecap="round" stroke-linejoin="round"/>
<path d="M533.004 215.441H594.184V265.271H533.004V215.441Z" stroke="#1D1D1D" stroke-width="2" stroke-linecap="round" stroke-linejoin="round"/>
<path d="M32 233.936C32 207.313 42.576 181.78 61.4015 162.954C80.227 144.129 105.76 133.553 132.383 133.553C159.006 133.553 184.539 144.129 203.365 162.954C222.19 181.78 232.766 207.313 232.766 233.936C232.766 260.559 222.19 286.092 203.365 304.917C184.539 323.743 159.006 334.319 132.383 334.319C105.76 334.319 80.227 323.743 61.4015 304.917C42.576 286.092 32 260.559 32 233.936Z" fill="#E8E8E8"/>
<path d="M32 233.936C32 207.313 42.576 181.78 61.4015 162.954C80.227 144.129 105.76 133.553 132.383 133.553C159.006 133.553 184.539 144.129 203.365 162.954C222.19 181.78 232.766 207.313 232.766 233.936C232.766 260.559 222.19 286.092 203.365 304.917C184.539 323.743 159.006 334.319 132.383 334.319C105.76 334.319 80.227 323.743 61.4015 304.917C42.576 286.092 32 260.559 32 233.936Z" stroke="#1D1D1D" stroke-width="5" stroke-linecap="round" stroke-linejoin="round"/>
<path d="M133.16 236.156L133.257 171.508L133.272 161.508L133.322 171.508L133.644 236.807" stroke="#1D1D1D" stroke-width="5" stroke-linecap="round" stroke-linejoin="round"/>
<path d="M135.45 239.226L158.212 218.916L165.8 212.146L157.593 218.864L132.973 239.016" stroke="#1D1D1D" stroke-width="10" stroke-linecap="round" stroke-linejoin="round"/>
<path d="M129.945 240.507C129.945 239.66 130.282 238.847 130.881 238.248C131.48 237.649 132.293 237.312 133.14 237.312C133.987 237.312 134.799 237.649 135.399 238.248C135.998 238.847 136.334 239.66 136.334 240.507C136.334 241.354 135.998 242.167 135.399 242.766C134.799 243.365 133.987 243.701 133.14 243.701C132.293 243.701 131.48 243.365 130.881 242.766C130.282 242.167 129.945 241.354 129.945 240.507Z" stroke="#1D1D1D" stroke-width="5" stroke-linecap="round" stroke-linejoin="round"/>
<path d="M178.879 79.9922H240.059V129.822H178.879V79.9922Z" fill="#F4DADB"/>
<path d="M178.879 79.9922H240.059V129.822H178.879V79.9922Z" stroke="#E03131" stroke-width="2" stroke-linecap="round" stroke-linejoin="round"/>
<path d="M250.059 79.9922H311.239V129.822H250.059V79.9922Z" fill="#E8E8E8"/>
<path d="M250.059 79.9922H311.239V129.822H250.059V79.9922Z" stroke="#1D1D1D" stroke-width="2" stroke-linecap="round" stroke-linejoin="round"/>
<path d="M321.238 79.9922H382.418V129.822H321.238V79.9922Z" fill="#E8E8E8"/>
<path d="M321.238 79.9922H382.418V129.822H321.238V79.9922Z" stroke="#1D1D1D" stroke-width="2" stroke-linecap="round" stroke-linejoin="round"/>
<path d="M392.418 79.9922H453.598V129.822H392.418V79.9922Z" fill="#E8E8E8"/>
<path d="M392.418 79.9922H453.598V129.822H392.418V79.9922Z" stroke="#1D1D1D" stroke-width="2" stroke-linecap="round" stroke-linejoin="round"/>
<path d="M463.598 79.9922H524.778V129.822H463.598V79.9922Z" fill="#F9F0E6"/>
<path d="M463.598 79.9922H524.778V129.822H463.598V79.9922Z" stroke="#F1AC4B" stroke-width="2" stroke-linecap="round" stroke-linejoin="round"/>
<path d="M534.777 79.9922H595.957V129.822H534.777V79.9922Z" fill="#E8E8E8"/>
<path d="M534.777 79.9922H595.957V129.822H534.777V79.9922Z" stroke="#1D1D1D" stroke-width="2" stroke-linecap="round" stroke-linejoin="round"/>
<g opacity="0.25">
<path d="M123.542 175.893H104.822" stroke="#1D1D1D" stroke-width="2" stroke-linecap="round" stroke-linejoin="round"/>
</g>
<g opacity="0.25">
<path d="M115.316 183.113H96.5957" stroke="#1D1D1D" stroke-width="2" stroke-linecap="round" stroke-linejoin="round"/>
</g>
<g opacity="0.25">
<path d="M123.757 190.059H105.037" stroke="#1D1D1D" stroke-width="2" stroke-linecap="round" stroke-linejoin="round"/>
</g>
</svg>
