<svg width="644" height="367" viewBox="0 0 644 367" fill="none" xmlns="http://www.w3.org/2000/svg">
<g opacity="0.75">
<path d="M154 54H560.668V311.481H154V54Z" stroke="#1D1D1D" stroke-width="4.46055" stroke-linecap="round" stroke-linejoin="round"/>
</g>
<path d="M174.217 155.947H228.796V200.401H174.217V155.947Z" fill="#E8E8E8"/>
<path d="M174.217 155.947H228.796V200.401H174.217V155.947Z" stroke="#1D1D1D" stroke-width="1.78422" stroke-linecap="round" stroke-linejoin="round"/>
<path d="M237.717 155.947H292.296V200.401H237.717V155.947Z" fill="#E8E8E8"/>
<path d="M237.717 155.947H292.296V200.401H237.717V155.947Z" stroke="#1D1D1D" stroke-width="1.78422" stroke-linecap="round" stroke-linejoin="round"/>
<path d="M301.217 155.947H355.796V200.401H301.217V155.947Z" fill="#DCE1F8"/>
<path d="M301.217 155.947H355.796V200.401H301.217V155.947Z" stroke="#4465E9" stroke-width="1.78422" stroke-linecap="round" stroke-linejoin="round"/>
<path d="M364.717 155.947H419.296V200.401H364.717V155.947Z" fill="#E8E8E8"/>
<path d="M364.717 155.947H419.296V200.401H364.717V155.947Z" stroke="#1D1D1D" stroke-width="1.78422" stroke-linecap="round" stroke-linejoin="round"/>
<path d="M428.217 155.947H482.796V200.401H428.217V155.947Z" fill="#E8E8E8"/>
<path d="M428.217 155.947H482.796V200.401H428.217V155.947Z" stroke="#1D1D1D" stroke-width="1.78422" stroke-linecap="round" stroke-linejoin="round"/>
<path d="M491.717 155.947H546.296V200.401H491.717V155.947Z" fill="#E8E8E8"/>
<path d="M491.717 155.947H546.296V200.401H491.717V155.947Z" stroke="#1D1D1D" stroke-width="1.78422" stroke-linecap="round" stroke-linejoin="round"/>
<path d="M173.426 217.648H228.005V262.102H173.426V217.648Z" fill="#E8E8E8"/>
<path d="M173.426 217.648H228.005V262.102H173.426V217.648Z" stroke="#1D1D1D" stroke-width="1.78422" stroke-linecap="round" stroke-linejoin="round"/>
<path d="M236.926 217.648H291.505V262.102H236.926V217.648Z" fill="#E8E8E8"/>
<path d="M236.926 217.648H291.505V262.102H236.926V217.648Z" stroke="#1D1D1D" stroke-width="1.78422" stroke-linecap="round" stroke-linejoin="round"/>
<path d="M300.426 217.648H355.005V262.102H300.426V217.648Z" fill="#E8E8E8"/>
<path d="M300.426 217.648H355.005V262.102H300.426V217.648Z" stroke="#1D1D1D" stroke-width="1.78422" stroke-linecap="round" stroke-linejoin="round"/>
<path d="M363.926 217.648H418.505V262.102H363.926V217.648Z" fill="#E8E8E8"/>
<path d="M363.926 217.648H418.505V262.102H363.926V217.648Z" stroke="#1D1D1D" stroke-width="1.78422" stroke-linecap="round" stroke-linejoin="round"/>
<path d="M427.426 217.648H482.005V262.102H427.426V217.648Z" fill="#D3E9E3"/>
<path d="M427.426 217.648H482.005V262.102H427.426V217.648Z" stroke="#099268" stroke-width="1.78422" stroke-linecap="round" stroke-linejoin="round"/>
<path d="M490.926 217.648H545.505V262.102H490.926V217.648Z" stroke="#1D1D1D" stroke-width="1.78422" stroke-linecap="round" stroke-linejoin="round"/>
<path d="M175.008 96.8145H229.587V141.268H175.008V96.8145Z" fill="#F4DADB"/>
<path d="M175.008 96.8145H229.587V141.268H175.008V96.8145Z" stroke="#E03131" stroke-width="1.78422" stroke-linecap="round" stroke-linejoin="round"/>
<path d="M238.508 96.8145H293.087V141.268H238.508V96.8145Z" fill="#E8E8E8"/>
<path d="M238.508 96.8145H293.087V141.268H238.508V96.8145Z" stroke="#1D1D1D" stroke-width="1.78422" stroke-linecap="round" stroke-linejoin="round"/>
<path d="M302.008 96.8145H356.587V141.268H302.008V96.8145Z" fill="#E8E8E8"/>
<path d="M302.008 96.8145H356.587V141.268H302.008V96.8145Z" stroke="#1D1D1D" stroke-width="1.78422" stroke-linecap="round" stroke-linejoin="round"/>
<path d="M365.508 96.8145H420.087V141.268H365.508V96.8145Z" fill="#E8E8E8"/>
<path d="M365.508 96.8145H420.087V141.268H365.508V96.8145Z" stroke="#1D1D1D" stroke-width="1.78422" stroke-linecap="round" stroke-linejoin="round"/>
<path d="M429.008 96.8145H483.587V141.268H429.008V96.8145Z" fill="#F9F0E6"/>
<path d="M429.008 96.8145H483.587V141.268H429.008V96.8145Z" stroke="#F1AC4B" stroke-width="1.78422" stroke-linecap="round" stroke-linejoin="round"/>
<path d="M492.508 96.8145H547.087V141.268H492.508V96.8145Z" fill="#E8E8E8"/>
<path d="M492.508 96.8145H547.087V141.268H492.508V96.8145Z" stroke="#1D1D1D" stroke-width="1.78422" stroke-linecap="round" stroke-linejoin="round"/>
<path d="M87 247.5C87 230.394 93.7955 213.988 105.892 201.892C117.988 189.796 134.394 183 151.5 183C168.606 183 185.012 189.796 197.108 201.892C209.204 213.988 216 230.394 216 247.5C216 264.606 209.204 281.012 197.108 293.108C185.012 305.204 168.606 312 151.5 312C134.394 312 117.988 305.204 105.892 293.108C93.7955 281.012 87 264.606 87 247.5Z" fill="#E8E8E8"/>
<path d="M87 247.5C87 230.394 93.7955 213.988 105.892 201.892C117.988 189.796 134.394 183 151.5 183C168.606 183 185.012 189.796 197.108 201.892C209.204 213.988 216 230.394 216 247.5C216 264.606 209.204 281.012 197.108 293.108C185.012 305.204 168.606 312 151.5 312C134.394 312 117.988 305.204 105.892 293.108C93.7955 281.012 87 264.606 87 247.5Z" stroke="#1D1D1D" stroke-width="3.21269" stroke-linecap="round" stroke-linejoin="round"/>
<path d="M151.998 248.925L152.06 207.386L152.07 200.961L152.102 207.386L152.309 249.343" stroke="#1D1D1D" stroke-width="3.21269" stroke-linecap="round" stroke-linejoin="round"/>
<path d="M153.47 250.898L168.096 237.848L172.972 233.498L167.698 237.814L151.879 250.763" stroke="#1D1D1D" stroke-width="6.42538" stroke-linecap="round" stroke-linejoin="round"/>
<path d="M149.934 251.722C149.934 251.178 150.15 250.656 150.535 250.271C150.92 249.886 151.442 249.67 151.986 249.67C152.531 249.67 153.053 249.886 153.438 250.271C153.822 250.656 154.039 251.178 154.039 251.722C154.039 252.267 153.822 252.789 153.438 253.174C153.053 253.559 152.531 253.775 151.986 253.775C151.442 253.775 150.92 253.559 150.535 253.174C150.15 252.789 149.934 252.267 149.934 251.722Z" stroke="#1D1D1D" stroke-width="3.21269" stroke-linecap="round" stroke-linejoin="round"/>
<g opacity="0.25">
<path d="M142.72 211H124" stroke="#1D1D1D" stroke-width="2" stroke-linecap="round" stroke-linejoin="round"/>
</g>
<g opacity="0.25">
<path d="M146.72 223H128" stroke="#1D1D1D" stroke-width="2" stroke-linecap="round" stroke-linejoin="round"/>
</g>
<g opacity="0.25">
<path d="M139.72 217H121" stroke="#1D1D1D" stroke-width="2" stroke-linecap="round" stroke-linejoin="round"/>
</g>
</svg>
