<svg width="103" height="103" viewBox="0 0 103 103" fill="none" xmlns="http://www.w3.org/2000/svg">
<path d="M51.2801 33.7167L46.7076 41.6651C45.682 43.4171 46.5367 44.8701 48.5451 44.8701H53.9723C56.0235 44.8701 56.8354 46.323 55.8098 48.0751L51.2801 56.0235M36.3234 94.0134C46.1093 91.2357 56.4508 91.2357 66.2367 94.0134M35.4687 77.091V72.1339C25.6401 66.194 17.5635 54.6133 17.5635 42.3061C17.5635 21.1531 37.0071 4.57254 58.9721 9.35867C68.6298 11.4953 77.091 17.9053 81.4925 26.7511C90.4238 44.6991 81.0225 63.7582 67.2196 72.0912V77.0483C67.2196 78.2875 67.6897 81.1507 63.1172 81.1507H39.5711C34.8705 81.1934 35.4687 79.3559 35.4687 77.091Z" stroke="#1076E4" stroke-width="8" stroke-linecap="round" stroke-linejoin="round"/>
</svg>
