<svg width="139" height="139" viewBox="0 0 139 139" fill="none" xmlns="http://www.w3.org/2000/svg">
<rect x="3" y="3" width="133.537" height="133.537" rx="30" fill="#7CBBFF"/>
<rect x="3" y="3" width="133.537" height="133.537" rx="30" stroke="#1076E4" stroke-width="4.2732"/>
<path d="M55.5799 36.093V91.6463M86.2197 47.2891V104.466M28.7861 52.2462V93.8257C28.7861 101.945 34.5551 105.278 41.5634 101.261L51.6057 95.535C53.7851 94.2958 57.4175 94.1676 59.6823 95.3214L82.1173 106.56C84.3822 107.671 88.0145 107.586 90.1939 106.347L108.697 95.7487C111.048 94.3812 113.014 91.048 113.014 88.3131V46.7336C113.014 38.6142 107.245 35.281 100.236 39.298L90.1939 45.0242C88.0145 46.2635 84.3822 46.3917 82.1173 45.2379L59.6823 34.0418C57.4175 32.9307 53.7851 33.0162 51.6057 34.2554L33.1022 44.8533C30.7091 46.2208 28.7861 49.554 28.7861 52.2462Z" stroke="#1076E4" stroke-width="8" stroke-linecap="round" stroke-linejoin="round"/>
</svg>
