<svg width="103" height="103" viewBox="0 0 103 103" fill="none" xmlns="http://www.w3.org/2000/svg">
<path d="M51.2798 68.3735C52.8182 68.3735 54.3139 68.2454 55.7668 67.989C64.2707 66.7497 71.5781 61.9209 76.1933 55.0835C79.3556 50.3401 81.1931 44.6565 81.1931 38.4602C81.1931 21.9224 67.8176 8.54688 51.2798 8.54688C34.742 8.54688 21.3665 21.9224 21.3665 38.4602C21.3665 44.6565 23.204 50.3401 26.3663 55.0835C30.9815 61.9209 38.2889 66.7497 46.7928 67.989C48.2457 68.2454 49.7414 68.3735 51.2798 68.3735ZM51.2798 68.3735L71.6636 91.7915C73.9285 94.4837 78.2873 93.458 79.0992 90.0394L80.5949 83.7576C80.9367 82.1764 82.176 80.9798 83.7571 80.5952L90.8081 78.9287C94.0559 78.1595 95.2097 74.0998 92.8593 71.7922L76.1933 55.1262C71.5781 61.9635 64.2707 66.7925 55.7668 68.0317C54.3139 68.2881 52.8182 68.4163 51.2798 68.4163C49.7414 68.4163 48.2457 68.2881 46.7928 68.0317C38.2889 66.7925 30.9815 61.9635 26.3663 55.1262L9.70027 71.7922C7.34994 74.1425 8.50374 78.2023 11.7515 78.9715L18.8025 80.638C20.3409 80.9798 21.5801 82.2191 21.9647 83.8002L23.4604 90.082C24.2723 93.5007 28.6311 94.5263 30.896 91.8341L51.2798 68.3735ZM53.7583 25.5547L56.2796 30.5972C56.6215 31.281 57.5189 31.9647 58.3308 32.0929L62.9033 32.8621C65.8091 33.3322 66.4929 35.4689 64.3989 37.5628L60.8521 41.1096C60.2538 41.7079 59.9119 42.8617 60.1256 43.7164L61.1512 48.1179C61.9631 51.5793 60.1256 52.9467 57.0488 51.1092L52.7755 48.5879C52.0063 48.1179 50.7243 48.1179 49.9551 48.5879L45.6817 51.1092C42.6049 52.904 40.7674 51.5793 41.5793 48.1179L42.6049 43.7164C42.7759 42.9045 42.4767 41.7079 41.8785 41.1096L38.3316 37.5628C36.2377 35.4689 36.9214 33.3749 39.8273 32.8621L44.3997 32.0929C45.1689 31.9647 46.0663 31.281 46.4082 30.5972L48.9295 25.5547C50.1687 22.8198 52.3909 22.8198 53.7583 25.5547Z" stroke="#1076E4" stroke-width="8" stroke-linecap="round" stroke-linejoin="round"/>
</svg>
