<svg width="244" height="76" viewBox="0 0 244 76" fill="none" xmlns="http://www.w3.org/2000/svg">
<path d="M0.0287256 75V0.972172H10.2013L20.2731 39.5472L21.1795 42.9716H21.7838V0.972172H31.7549V75H22.5896L11.5106 36.425L10.6041 33.0005H9.99982V75H0.0287256ZM47.7219 75.8057C44.7004 75.8057 42.0985 75.1007 39.9163 73.6907C37.7676 72.2806 36.1058 70.367 34.9307 67.9497C33.7892 65.5325 33.2185 62.8131 33.2185 59.7916V16.1806C33.2185 13.1255 33.7892 10.4061 34.9307 8.02244C36.1058 5.6052 37.7676 3.69156 39.9163 2.2815C42.0985 0.871451 44.7004 0.166425 47.7219 0.166425C50.7435 0.166425 53.3286 0.871451 55.4772 2.2815C57.6594 3.69156 59.3213 5.6052 60.4628 8.02244C61.6378 10.4397 62.2253 13.1591 62.2253 16.1806V59.7916C62.2253 62.8131 61.6378 65.5325 60.4628 67.9497C59.3213 70.367 57.6594 72.2806 55.4772 73.6907C53.3286 75.1007 50.7435 75.8057 47.7219 75.8057ZM47.7219 65.2303C49.0648 65.2303 50.0049 64.6764 50.542 63.5685C51.0792 62.427 51.3478 61.168 51.3478 59.7916V16.1806C51.3478 14.8041 51.0624 13.5619 50.4917 12.454C49.9209 11.3126 48.9977 10.7418 47.7219 10.7418C46.4797 10.7418 45.5565 11.3126 44.9522 12.454C44.3814 13.5619 44.0961 14.8041 44.0961 16.1806V59.7916C44.0961 61.168 44.3814 62.427 44.9522 63.5685C45.5229 64.6764 46.4461 65.2303 47.7219 65.2303ZM63.7762 75V0.972172H74.8552C78.3468 0.972172 81.3012 1.54291 83.7184 2.68438C86.1356 3.82585 88.0829 5.77307 89.5601 8.52603C91.0373 11.279 92.0948 15.0559 92.7327 19.8568C93.4041 24.6577 93.7399 30.7176 93.7399 38.0364C93.7399 45.3889 93.4041 51.4655 92.7327 56.2664C92.0948 61.0338 91.0373 64.7939 89.5601 67.5469C88.0829 70.2662 86.1356 72.1967 83.7184 73.3382C81.3012 74.4461 78.3468 75 74.8552 75H63.7762ZM74.6538 64.1224C77.3396 64.1224 79.2365 63.0649 80.3444 60.9498C81.4523 58.8347 82.1237 55.8132 82.3587 51.8852C82.5937 47.9572 82.7112 43.2906 82.7112 37.8854C82.7112 32.413 82.5937 27.7464 82.3587 23.8855C82.1237 19.9911 81.4355 17.0199 80.294 14.972C79.1861 12.8905 77.306 11.8497 74.6538 11.8497V64.1224ZM95.2074 75V0.972172H120.085V12.1519H106.085V32.0941H116.157V42.9716H106.085V63.8203H120.085V75H95.2074ZM122.114 75V0.972172H133.193C136.685 0.972172 139.639 1.54291 142.056 2.68438C144.473 3.82585 146.421 5.77307 147.898 8.52603C149.375 11.279 150.433 15.0559 151.071 19.8568C151.742 24.6577 152.078 30.7176 152.078 38.0364C152.078 45.3889 151.742 51.4655 151.071 56.2664C150.433 61.0338 149.375 64.7939 147.898 67.5469C146.421 70.2662 144.473 72.1967 142.056 73.3382C139.639 74.4461 136.685 75 133.193 75H122.114ZM132.992 64.1224C135.677 64.1224 137.574 63.0649 138.682 60.9498C139.79 58.8347 140.462 55.8132 140.697 51.8852C140.932 47.9572 141.049 43.2906 141.049 37.8854C141.049 32.413 140.932 27.7464 140.697 23.8855C140.462 19.9911 139.773 17.0199 138.632 14.972C137.524 12.8905 135.644 11.8497 132.992 11.8497V64.1224ZM153.545 75V0.972172H164.423C170.936 0.972172 175.737 2.7851 178.825 6.41095C181.914 10.0032 183.458 15.3077 183.458 22.3244C183.458 26.4874 182.72 30.0965 181.243 33.1516C179.799 36.1732 178.036 38.389 175.955 39.799L183.358 75H172.48L166.336 43.7774H164.423V75H153.545ZM164.423 33.7056C166.437 33.7056 168.032 33.2691 169.207 32.3962C170.382 31.4898 171.221 30.214 171.725 28.5689C172.228 26.9239 172.48 24.9767 172.48 22.7273C172.48 19.2022 171.893 16.4996 170.718 14.6195C169.576 12.7058 167.478 11.749 164.423 11.749V33.7056ZM197.501 75.8057C194.479 75.8057 191.877 75.1007 189.695 73.6907C187.546 72.2806 185.885 70.367 184.71 67.9497C183.568 65.5325 182.997 62.8131 182.997 59.7916V16.1806C182.997 13.1255 183.568 10.4061 184.71 8.02244C185.885 5.6052 187.546 3.69156 189.695 2.2815C191.877 0.871451 194.479 0.166425 197.501 0.166425C200.522 0.166425 203.107 0.871451 205.256 2.2815C207.438 3.69156 209.1 5.6052 210.242 8.02244C211.417 10.4397 212.004 13.1591 212.004 16.1806V59.7916C212.004 62.8131 211.417 65.5325 210.242 67.9497C209.1 70.367 207.438 72.2806 205.256 73.6907C203.107 75.1007 200.522 75.8057 197.501 75.8057ZM197.501 65.2303C198.844 65.2303 199.784 64.6764 200.321 63.5685C200.858 62.427 201.127 61.168 201.127 59.7916V16.1806C201.127 14.8041 200.841 13.5619 200.271 12.454C199.7 11.3126 198.777 10.7418 197.501 10.7418C196.259 10.7418 195.335 11.3126 194.731 12.454C194.16 13.5619 193.875 14.8041 193.875 16.1806V59.7916C193.875 61.168 194.16 62.427 194.731 63.5685C195.302 64.6764 196.225 65.2303 197.501 65.2303ZM213.555 75V0.972172H224.433C228.562 0.972172 232.003 1.87864 234.756 3.69156C237.543 5.50449 239.624 8.0728 241.001 11.3965C242.377 14.7202 243.066 18.6314 243.066 23.1302C243.066 27.6289 242.344 31.5066 240.9 34.7631C239.456 38.0197 237.341 40.5712 234.555 42.4177C231.802 44.2306 228.428 45.221 224.433 45.3889V75H213.555ZM224.433 34.3099C226.346 34.3099 227.857 33.9406 228.965 33.202C230.073 32.4298 230.862 31.2212 231.332 29.5761C231.835 27.9311 232.087 25.816 232.087 23.2309C232.087 20.6122 231.835 18.4803 231.332 16.8353C230.862 15.1902 230.056 13.9816 228.915 13.2094C227.807 12.4373 226.313 12.0512 224.433 12.0512V34.3099Z" fill="#121212"/>
</svg>
