<svg width="696" height="359" viewBox="0 0 696 359" fill="none" xmlns="http://www.w3.org/2000/svg">
<path d="M39 32H509.013C513.68 32 516.013 34.3333 516.013 39V319.991C516.013 324.658 513.68 326.991 509.013 326.991H39C34.3333 326.991 32 324.658 32 319.991V39C32 34.3333 34.3333 32 39 32Z" fill="#ECEEF0"/>
<path d="M39.0001 31.9982L509.313 31.8413C513.979 31.8397 516.319 34.1722 516.331 38.8389L517.046 320.969C517.058 325.636 514.731 327.963 510.064 327.952L39.4762 326.816C34.8095 326.805 32.4774 324.466 32.4799 319.799L32.6273 39.8671C32.6297 35.2004 34.9643 32.8603 39.631 32.8466L507.924 31.4727C512.59 31.459 514.937 33.7855 514.965 38.4521L516.613 319.379C516.641 324.045 514.321 326.387 509.654 326.404L39.0007 328.108C34.3341 328.125 32.007 325.8 32.0196 321.133L32.7789 37.8536C32.7913 33.187 34.8651 31.2352 39.0001 31.9982Z" stroke="#9FA8B2" stroke-width="3.5" stroke-linecap="round" stroke-linejoin="round"/>
<path d="M533.014 32H656.225C660.892 32 663.225 34.3333 663.225 39V319.991C663.225 324.658 660.892 326.991 656.225 326.991H533.014C528.347 326.991 526.014 324.658 526.014 319.991V39C526.014 34.3333 528.347 32 533.014 32Z" fill="#ECEEF0"/>
<path d="M533.015 32.0141L656.087 32.2527C660.754 32.2618 663.084 34.5997 663.079 39.2663L662.749 319.165C662.743 323.832 660.407 326.189 655.741 326.239L533.256 327.528C528.59 327.577 526.264 325.268 526.277 320.601L527.108 38.6893C527.122 34.0227 529.462 31.6835 534.129 31.6717L656.853 31.3633C661.52 31.3516 663.847 33.6791 663.833 38.3457L663.044 319.725C663.031 324.391 660.691 326.721 656.025 326.713L533.488 326.506C528.821 326.498 526.493 324.161 526.503 319.494L527.095 38.4257C527.104 33.7591 529.078 31.6219 533.015 32.0141Z" stroke="#9FA8B2" stroke-width="3.5" stroke-linecap="round" stroke-linejoin="round"/>
<path d="M123.101 187.929C106.344 188.514 90.0407 182.419 77.778 170.984C65.5153 159.549 58.2974 143.71 57.7122 126.954C57.1271 110.197 63.2225 93.8936 74.6577 81.6308C86.0929 69.3681 101.931 62.1503 118.688 61.5651L432.11 50.6201C448.867 50.035 465.17 56.1304 477.432 67.5656C489.695 79.0007 496.913 94.8389 497.498 111.596C498.083 128.353 491.988 144.656 480.553 156.919C469.118 169.181 453.279 176.399 436.523 176.984L123.101 187.929Z" fill="#E8E8E8"/>
<path d="M123.101 187.929C106.344 188.514 90.0407 182.419 77.778 170.984C65.5153 159.549 58.2974 143.71 57.7122 126.954C57.1271 110.197 63.2225 93.8936 74.6577 81.6308C86.0929 69.3681 101.931 62.1503 118.688 61.5651L432.11 50.6201C448.867 50.035 465.17 56.1304 477.432 67.5656C489.695 79.0007 496.913 94.8389 497.498 111.596C498.083 128.353 491.988 144.656 480.553 156.919C469.118 169.181 453.279 176.399 436.523 176.984L123.101 187.929Z" stroke="#1D1D1D" stroke-width="3.5" stroke-linecap="round" stroke-linejoin="round" stroke-dasharray="7.11 7.11"/>
<path d="M562.013 115.114C558.913 115.146 555.837 114.562 552.964 113.398C550.091 112.233 547.477 110.511 545.273 108.33C543.07 106.148 541.321 103.552 540.127 100.691C538.933 97.8294 538.318 94.7597 538.318 91.6593C538.318 88.5589 538.933 85.4893 540.127 82.6279C541.321 79.7666 543.07 77.1703 545.273 74.9891C547.477 72.808 550.091 71.0853 552.964 69.9208C555.837 68.7562 558.913 68.1728 562.013 68.2043H629.313C632.413 68.1728 635.489 68.7562 638.363 69.9208C641.236 71.0853 643.85 72.808 646.053 74.9891C648.257 77.1703 650.006 79.7666 651.2 82.6279C652.393 85.4893 653.008 88.5589 653.008 91.6593C653.008 94.7597 652.393 97.8294 651.2 100.691C650.006 103.552 648.257 106.148 646.053 108.33C643.85 110.511 641.236 112.233 638.363 113.398C635.489 114.562 632.413 115.146 629.313 115.114H562.013Z" fill="#E8E8E8"/>
<path d="M562.013 115.114C558.913 115.146 555.837 114.562 552.964 113.398C550.091 112.233 547.477 110.511 545.273 108.33C543.07 106.148 541.321 103.552 540.127 100.691C538.933 97.8294 538.318 94.7597 538.318 91.6593C538.318 88.5589 538.933 85.4893 540.127 82.6279C541.321 79.7666 543.07 77.1703 545.273 74.9891C547.477 72.808 550.091 71.0853 552.964 69.9208C555.837 68.7562 558.913 68.1728 562.013 68.2043H629.313C632.413 68.1728 635.489 68.7562 638.363 69.9208C641.236 71.0853 643.85 72.808 646.053 74.9891C648.257 77.1703 650.006 79.7666 651.2 82.6279C652.393 85.4893 653.008 88.5589 653.008 91.6593C653.008 94.7597 652.393 97.8294 651.2 100.691C650.006 103.552 648.257 106.148 646.053 108.33C643.85 110.511 641.236 112.233 638.363 113.398C635.489 114.562 632.413 115.146 629.313 115.114H562.013Z" stroke="#1D1D1D" stroke-width="2" stroke-linecap="round" stroke-linejoin="round" stroke-dasharray="4.41 4.41"/>
<path d="M77.0273 197.365H251.443C256.11 197.365 258.443 199.699 258.443 204.365V306.886C258.443 311.552 256.11 313.886 251.443 313.886H77.0273C72.3607 313.886 70.0273 311.552 70.0273 306.886V204.365C70.0273 199.699 72.3607 197.365 77.0273 197.365Z" fill="#E8E8E8"/>
<path d="M77.0273 197.393L251.2 198.091C255.866 198.11 258.184 200.452 258.153 205.119L257.472 306.581C257.44 311.248 255.091 313.59 250.425 313.609L77.7877 314.291C73.121 314.31 70.7721 311.986 70.7408 307.319L70.0554 205.153C70.0241 200.486 72.3417 198.149 77.0084 198.14L252.303 197.815C256.969 197.807 259.266 200.136 259.192 204.802L257.573 307.383C257.499 312.049 255.129 314.365 250.462 314.332L76.9964 313.087C72.3298 313.054 70.0088 310.704 70.0334 306.037L70.5659 204.82C70.5905 200.153 72.7443 197.678 77.0273 197.393Z" stroke="#1D1D1D" stroke-width="3.5" stroke-linecap="round" stroke-linejoin="round"/>
<path d="M294.129 193.698L468.3 202.82C472.961 203.064 475.169 205.516 474.924 210.176L469.563 312.553C469.319 317.213 466.867 319.421 462.206 319.177L288.035 310.055C283.375 309.811 281.167 307.359 281.411 302.699L286.773 200.322C287.017 195.662 289.469 193.454 294.129 193.698Z" fill="#E8E8E8"/>
<path d="M294.131 193.675L469.418 202.273C474.079 202.502 476.247 204.944 475.921 209.599L468.783 311.515C468.457 316.17 465.963 318.393 461.301 318.182L287.344 310.326C282.682 310.115 280.464 307.679 280.689 303.018L285.632 200.771C285.858 196.11 288.301 193.896 292.961 194.129L467.896 202.864C472.557 203.097 474.794 205.544 474.608 210.207L470.493 313.481C470.308 318.144 467.885 320.354 463.224 320.11L288.742 310.997C284.082 310.753 281.838 308.3 282.009 303.637L285.848 199.505C286.019 194.842 288.781 192.898 294.131 193.675Z" stroke="#1D1D1D" stroke-width="3.5" stroke-linecap="round" stroke-linejoin="round"/>
<path d="M546.02 130.807H645.806C648.473 130.807 649.806 132.14 649.806 134.807V202.46C649.806 205.127 648.473 206.46 645.806 206.46H546.02C543.353 206.46 542.02 205.127 542.02 202.46V134.807C542.02 132.14 543.353 130.807 546.02 130.807Z" fill="#E8E8E8"/>
<path d="M546.021 130.793L646.232 130.445C648.899 130.436 650.232 131.765 650.231 134.431L650.219 202.478C650.219 205.145 648.885 206.486 646.219 206.502L545.705 207.096C543.039 207.112 541.7 205.786 541.691 203.12L541.44 134.748C541.43 132.081 542.758 130.748 545.425 130.748L645.801 130.758C648.467 130.758 649.79 132.092 649.769 134.758L649.237 202.157C649.215 204.824 647.872 206.169 645.205 206.193L546.63 207.082C543.963 207.106 542.62 205.785 542.6 203.118L542.098 135.456C542.079 132.789 543.386 131.235 546.021 130.793Z" stroke="#1D1D1D" stroke-width="2" stroke-linecap="round" stroke-linejoin="round"/>
<path d="M542.002 233.787L641.549 226.822C644.209 226.636 645.633 227.873 645.819 230.533L650.541 298.024C650.727 300.685 649.49 302.108 646.83 302.294L547.283 309.259C544.622 309.445 543.199 308.208 543.013 305.548L538.291 238.057C538.105 235.397 539.342 233.973 542.002 233.787Z" fill="#E8E8E8"/>
<path d="M542.003 233.788L641.233 226.896C643.894 226.711 645.33 227.948 645.542 230.606L650.948 298.471C651.159 301.129 649.935 302.546 647.274 302.72L546.916 309.302C544.255 309.477 542.833 308.234 542.65 305.573L538.003 237.912C537.821 235.251 539.06 233.835 541.721 233.662L641.824 227.157C644.486 226.984 645.914 228.227 646.108 230.887L651.006 297.719C651.2 300.378 649.968 301.809 647.309 302.01L547.874 309.546C545.215 309.747 543.78 308.519 543.568 305.861L538.116 237.492C537.904 234.834 539.199 233.599 542.003 233.788Z" stroke="#1D1D1D" stroke-width="2" stroke-linecap="round" stroke-linejoin="round"/>
</svg>
