<svg width="634" height="474" viewBox="0 0 634 474" fill="none" xmlns="http://www.w3.org/2000/svg">
<path d="M186.921 46.891L571.538 47.357C576.205 47.3627 578.535 49.6988 578.528 54.3655L578.139 321.665C578.132 326.332 575.795 328.669 571.129 328.677L186.496 329.308C181.829 329.316 179.495 326.986 179.494 322.32L179.407 54.6768C179.405 50.0101 181.738 47.6655 186.405 47.6429L570.985 45.7814C575.652 45.7589 577.98 48.0809 577.969 52.7475L577.356 321.359C577.346 326.026 575.007 328.362 570.341 328.369L186.248 328.927C181.582 328.934 179.263 326.604 179.291 321.937L180.93 54.717C180.959 50.0504 182.956 47.4417 186.921 46.891Z" stroke="#1D1D1D" stroke-width="3.5" stroke-linecap="round" stroke-linejoin="round"/>
<path d="M109.666 134.876L326.097 123.006C330.757 122.75 333.208 124.953 333.452 129.613L340.845 271.143C341.089 275.803 338.881 278.262 334.221 278.52L118.142 290.454C113.483 290.712 111.035 288.51 110.797 283.85L103.541 141.405C103.303 136.744 105.515 134.303 110.177 134.08L326.844 123.729C331.505 123.507 333.958 125.725 334.203 130.385L341.617 271.78C341.862 276.44 339.653 278.887 334.993 279.123L118.658 290.039C113.997 290.274 111.521 288.063 111.23 283.405L102.441 142.811C102.15 138.153 104.558 135.508 109.666 134.876Z" stroke="#1D1D1D" stroke-width="3.5" stroke-linecap="round" stroke-linejoin="round"/>
<path d="M415.572 252.319L533.658 249.557C538.324 249.447 540.699 251.726 540.785 256.391L543.419 399.756C543.505 404.421 541.215 406.789 536.549 406.859L418.054 408.63C413.388 408.699 411.032 406.401 410.985 401.735L409.565 258.44C409.518 253.774 411.828 251.416 416.494 251.366L532.495 250.122C537.161 250.072 539.524 252.38 539.584 257.046L541.38 397.727C541.439 402.393 539.136 404.774 534.471 404.871L418.459 407.273C413.793 407.37 411.434 405.085 411.381 400.419L409.779 259.917C409.725 255.251 411.657 252.718 415.572 252.319Z" stroke="#1D1D1D" stroke-width="3.5" stroke-linecap="round" stroke-linejoin="round"/>
<path d="M265.811 66.8793L496.1 66.7166C500.767 66.7132 503.134 69.0447 503.2 73.7109L503.508 95.1944C503.574 99.8605 501.274 102.193 496.608 102.191L265.195 102.11C260.528 102.108 258.21 99.774 258.241 95.1074L258.383 73.4435C258.413 68.7769 260.762 66.4382 265.428 66.4274L497.35 65.8907C502.017 65.8799 504.332 68.2077 504.295 72.8743L504.12 95.147C504.083 99.8135 501.731 102.156 497.065 102.175L266.078 103.099C261.412 103.118 259.095 100.794 259.129 96.1274L259.289 73.933C259.323 69.2664 261.497 66.9152 265.811 66.8793Z" stroke="#1D1D1D" stroke-width="3.5" stroke-linecap="round" stroke-linejoin="round"/>
<path d="M569.92 82.0778C561.87 65.9678 537.7 57.9178 537.7 36.9678C537.7 12.4778 567.51 12.4777 569.92 32.1377C572.34 12.4777 602.14 12.4778 602.14 36.9678C602.14 57.9178 577.98 65.9678 570.49 83.2878C561.87 65.9678 537.7 57.9178 537.68 37.7278C537.7 12.4778 567.51 12.4778 571.58 30.9377C572.34 12.4778 602.14 12.4777 600.07 35.8477C602.14 57.9177 577.98 65.9678 569.92 82.0778Z" fill="#ECDCF2"/>
<path d="M569.92 82.0778C561.87 65.9678 537.7 57.9178 537.7 36.9678C537.7 12.4778 567.51 12.4777 569.92 32.1377C572.34 12.4777 602.14 12.4778 602.14 36.9678C602.14 57.9178 577.98 65.9678 570.49 83.2878C561.87 65.9678 537.7 57.9178 537.68 37.7278C537.7 12.4778 567.51 12.4778 571.58 30.9377C572.34 12.4778 602.14 12.4777 600.07 35.8477C602.14 57.9177 577.98 65.9678 569.92 82.0778Z" stroke="#AE3EC9" stroke-width="3.5" stroke-linecap="round" stroke-linejoin="round"/>
<path d="M174.637 306.58L183.351 314.909C186.256 317.685 189.604 318.657 193.397 317.825L204.775 315.33C208.567 314.498 209.674 315.9 208.094 319.535L203.355 330.441C201.775 334.077 202.006 337.641 204.05 341.134L210.179 351.612C212.222 355.104 211.303 356.586 207.422 356.056L195.779 354.468C191.898 353.939 188.693 355.169 186.163 358.16L178.574 367.131C176.044 370.122 174.37 369.636 173.551 365.673L171.094 353.785C170.275 349.822 168.063 347.019 164.456 345.374L153.636 340.441C150.029 338.796 149.913 337.014 153.288 335.095L163.413 329.336C166.788 327.416 168.626 324.453 168.927 320.446L169.829 308.426C170.13 304.419 171.732 303.804 174.637 306.58Z" fill="#F9F0E6"/>
<path d="M174.695 306.291L183.525 314.044C186.469 316.628 189.797 317.694 193.51 317.242L204.65 315.887C208.364 315.435 209.473 316.986 207.978 320.539L203.494 331.198C201.999 334.752 202.267 338.12 204.296 341.304L210.383 350.856C212.412 354.04 211.413 355.586 207.385 355.494L195.303 355.22C191.275 355.128 188.108 356.421 185.8 359.097L178.878 367.125C176.571 369.801 174.899 369.28 173.864 365.562L170.757 354.407C169.722 350.689 167.508 347.813 164.117 345.778L153.942 339.674C150.55 337.639 150.511 335.839 153.823 334.273L163.76 329.575C167.072 328.009 168.898 325.136 169.238 320.956L170.258 308.415C170.598 304.234 172.185 303.621 175.02 306.575L183.525 315.436C186.36 318.39 189.701 319.453 193.548 318.626L205.089 316.145C208.936 315.318 210.067 316.662 208.482 320.177L203.725 330.722C202.14 334.237 202.42 337.71 204.566 341.142L211.004 351.438C213.15 354.87 212.25 356.374 208.305 355.95L196.469 354.679C192.524 354.255 189.135 355.495 186.301 358.397L177.8 367.104C174.966 370.006 173.322 369.526 172.868 365.661L171.507 354.069C171.053 350.205 168.96 347.34 165.229 345.475L154.036 339.879C150.305 338.014 150.115 336.147 153.467 334.277L163.52 328.669C166.872 326.8 168.747 323.862 169.146 319.857L170.344 307.841C170.743 303.836 172.194 303.319 174.695 306.291Z" stroke="#F1AC4B" stroke-width="3.5" stroke-linecap="round" stroke-linejoin="round"/>
<path d="M18 196.912H51.33" stroke="#1D1D1D" stroke-width="3.5" stroke-linecap="round" stroke-linejoin="round"/>
<path d="M473.342 458.328V424.998" stroke="#1D1D1D" stroke-width="3.5" stroke-linecap="round" stroke-linejoin="round"/>
<path d="M38.8125 213.43H72.1425" stroke="#1D1D1D" stroke-width="3.5" stroke-linecap="round" stroke-linejoin="round"/>
<path d="M490.232 452.502V419.172" stroke="#1D1D1D" stroke-width="3.5" stroke-linecap="round" stroke-linejoin="round"/>
<path d="M25.0898 231.146H58.4198" stroke="#1D1D1D" stroke-width="3.5" stroke-linecap="round" stroke-linejoin="round"/>
</svg>
