<svg width="139" height="139" viewBox="0 0 139 139" fill="none" xmlns="http://www.w3.org/2000/svg">
<rect x="3" y="3" width="133.537" height="133.537" rx="30" fill="#7CBBFF"/>
<rect x="3" y="3" width="133.537" height="133.537" rx="30" stroke="#1076E4" stroke-width="4.2732"/>
<path d="M33.5229 112.965C33.5229 96.4269 49.9754 83.0514 70.231 83.0514M112.964 112.965L108.691 108.691M91.5977 48.8647C91.5977 60.6652 82.0315 70.2314 70.231 70.2314C58.4305 70.2314 48.8643 60.6652 48.8643 48.8647C48.8643 37.0642 58.4305 27.498 70.231 27.498C82.0315 27.498 91.5977 37.0642 91.5977 48.8647ZM110.4 96.7261C110.4 104.278 104.278 110.401 96.7257 110.401C89.1734 110.401 83.051 104.278 83.051 96.7261C83.051 89.1738 89.1734 83.0514 96.7257 83.0514C104.278 83.0514 110.4 89.1738 110.4 96.7261Z" stroke="#1076E4" stroke-width="8" stroke-linecap="round" stroke-linejoin="round"/>
</svg>
