<svg width="44" height="44" viewBox="0 0 44 44" fill="none" xmlns="http://www.w3.org/2000/svg">
<g clip-path="url(#clip0_2847_38)">
<path d="M22.4546 12.2554C21.2519 17.1944 21.3289 16.9304 20.2381 21.4477C20.2143 21.8639 19.8696 22.1921 19.4498 22.1921C19.4039 22.1921 19.3581 22.1884 19.3141 22.1811H19.3196H18.0821C18.0454 22.1884 18.0014 22.1921 17.9593 22.1921C17.5871 22.1921 17.2809 21.9152 17.2333 21.5577V21.5541C16.1754 18.1697 14.7583 13.4691 13.8049 10.3249C13.4529 9.16439 13.6839 9.19189 14.6043 9.21572C14.9233 9.22489 15.2313 9.21572 15.5484 9.21572C15.5704 9.21389 15.5961 9.21206 15.6236 9.21206C15.9829 9.21206 16.2799 9.47789 16.3294 9.82256V9.82622C16.6393 10.9354 16.8446 11.7861 18.6138 18.7729C18.6468 18.9104 18.6908 19.0406 18.7348 19.1671H18.8283C18.8704 18.9947 18.9218 18.8334 18.9658 18.6592C19.6356 15.8322 20.3029 13.0028 20.9678 10.1709C21.1749 9.29089 21.5434 9.20839 22.4344 9.20839H23.0871C23.6738 9.21756 23.8608 9.33672 24.0074 9.92156C24.5226 11.9327 26.0278 18.6666 26.3009 19.4072C26.7409 17.8342 26.1469 20.0856 28.7503 10.0426C28.9299 9.34772 29.1023 9.21022 29.8081 9.21022H30.8916C31.3554 9.21939 31.4929 9.36422 31.3811 9.82072C31.1739 10.6384 31.1318 10.6714 27.8336 21.2387C27.5659 22.0894 27.4724 22.1664 26.5796 22.1664H25.6684C25.0414 22.1664 24.8783 22.0546 24.7243 21.4441C24.3539 20.0526 22.7223 13.2216 22.4546 12.2591V12.2554ZM10.7873 21.8089C10.9119 22.0637 11.1686 22.2361 11.4656 22.2361C11.6746 22.2361 11.8616 22.1517 11.9991 22.0142L12.5399 21.6531C13.1266 21.2662 13.1669 21.1122 12.8498 20.4926C12.5088 19.8436 12.3071 19.0754 12.3071 18.2596C12.3071 18.2321 12.3071 18.2046 12.3071 18.1771V18.1807C12.3071 17.9131 12.3584 13.3957 12.2301 12.4424C12.1164 10.8474 11.0109 9.53839 9.53328 9.12222L9.50761 9.11672C8.86045 8.93706 8.11795 8.83439 7.34978 8.83439C7.11878 8.83439 6.88778 8.84356 6.66228 8.86189L6.69162 8.86006C5.34228 8.91322 4.08828 9.27072 2.97912 9.86289L3.02495 9.84089C2.85812 9.93072 2.73345 10.0792 2.67478 10.2571L2.67295 10.2626C2.62528 10.4789 2.59778 10.7282 2.59778 10.9831C2.59778 11.0949 2.60328 11.2067 2.61245 11.3167L2.61062 11.3021C2.66195 11.8099 2.83428 11.9034 3.31462 11.7421C3.75462 11.5954 4.17445 11.4084 4.61262 11.2782C5.24512 11.0436 5.97478 10.9079 6.73745 10.9079C7.32962 10.9079 7.90161 10.9904 8.44428 11.1426L8.40028 11.1316C8.98145 11.3057 9.43428 11.7439 9.62495 12.3031L9.62861 12.3159C9.76978 12.7889 9.85228 13.3316 9.85228 13.8944C9.85228 14.0667 9.84495 14.2391 9.83028 14.4077L9.83211 14.3857C9.83211 14.8587 9.82295 14.8587 9.35911 14.7726C8.57078 14.5764 7.66695 14.4627 6.73562 14.4627C6.39278 14.4627 6.05178 14.4774 5.71628 14.5086L5.76028 14.5049C4.42928 14.6021 3.26695 15.2492 2.48412 16.2154L2.47678 16.2246C2.00012 16.8846 1.71412 17.7114 1.71412 18.6042C1.71412 18.9654 1.75995 19.3137 1.84795 19.6474L1.84245 19.6181C2.03312 20.8684 2.92045 21.8694 4.08828 22.2251L4.11028 22.2306C4.62362 22.4139 5.21578 22.5202 5.83362 22.5202C7.05645 22.5202 8.18395 22.1041 9.07861 21.4056L9.06761 21.4147C9.39395 21.1746 9.68728 20.8831 10.0209 20.5971C10.2886 21.0261 10.5196 21.4294 10.7854 21.7997L10.7873 21.8089ZM9.46728 16.5161H9.47645C9.67995 16.5161 9.84495 16.6811 9.84495 16.8846C9.84495 16.9102 9.84311 16.9341 9.83761 16.9597V16.9579C9.81928 17.2842 9.84678 17.6106 9.81195 17.9369C9.72028 18.8957 9.12078 19.6951 8.29028 20.0709L8.27378 20.0782C7.73478 20.3606 7.09862 20.5274 6.42212 20.5274C6.28462 20.5274 6.14895 20.5201 6.01512 20.5072L6.03162 20.5091C5.06178 20.4522 4.29728 19.6529 4.29728 18.6739C4.29728 18.5236 4.31562 18.3769 4.35045 18.2357L4.34862 18.2486C4.39628 17.2439 5.19195 16.4391 6.18928 16.3767H6.19478C6.57978 16.3144 7.02345 16.2796 7.47445 16.2796C8.18578 16.2796 8.87878 16.3676 9.53878 16.5326L9.48011 16.5197L9.46728 16.5161ZM39.4349 22.1096C40.9474 21.6017 42.0163 20.1974 42.0163 18.5437C42.0163 18.2852 41.9906 18.0322 41.9411 17.7884L41.9448 17.8122C41.7486 16.6151 40.9108 15.6544 39.8016 15.2841L39.7796 15.2767C38.1076 14.7524 36.7381 14.2226 35.4108 13.6176L35.6473 13.7147C35.2641 13.5222 35.0038 13.1372 34.9946 12.6899C34.9836 12.6221 34.9781 12.5432 34.9781 12.4644C34.9781 11.6962 35.5611 11.0656 36.3091 10.9886H36.3146C36.7014 10.8969 37.1451 10.8456 37.6016 10.8456C37.9994 10.8456 38.3899 10.8859 38.7658 10.9611L38.7291 10.9556C39.3561 11.0766 39.9574 11.3167 40.5679 11.4964C40.8081 11.5734 41.0758 11.6761 41.2389 11.3589C41.3233 11.1811 41.3728 10.9721 41.3728 10.7539C41.3728 10.2076 41.0684 9.73272 40.6193 9.49072L40.6119 9.48706C39.7063 9.05439 38.6429 8.80322 37.5209 8.80322C36.5199 8.80322 35.5666 9.00489 34.6976 9.36789L34.7453 9.34956C33.4161 9.87756 32.4939 11.1536 32.4939 12.6441C32.4939 14.0722 33.3409 15.3042 34.5601 15.8616L34.5821 15.8707C35.2439 16.1897 35.9644 16.3786 36.6611 16.6352C37.3578 16.8919 38.0526 17.1339 38.7328 17.4162C39.2021 17.6766 39.5156 18.1697 39.5156 18.7362C39.5156 19.2606 39.2479 19.7207 38.8409 19.9902L38.8354 19.9939C36.4558 21.3139 33.2621 19.7867 32.8899 19.6676C32.6076 19.5741 32.4353 19.6859 32.3491 19.9866C32.2794 20.1497 32.2391 20.3404 32.2391 20.5402C32.2391 21.2167 32.7066 21.7851 33.3373 21.9354L33.3464 21.9372C34.3199 22.3277 35.4474 22.5532 36.6281 22.5532C37.6291 22.5532 38.5934 22.3901 39.4936 22.0894L39.4294 22.1077L39.4349 22.1096ZM25.4393 36.0887C30.0189 35.5974 34.1769 34.1601 37.8381 31.9747L37.6988 32.0517C38.3863 31.6484 39.0298 31.1717 39.6824 30.7024C40.3094 30.2624 39.9574 29.1221 38.7108 29.6537C34.4134 31.5402 29.4231 32.7466 24.1816 32.9922L24.0881 32.9959C23.5381 33.0234 22.8946 33.0381 22.2474 33.0381C20.1354 33.0381 18.0601 32.8767 16.0343 32.5651L16.2598 32.5944C10.5453 31.7712 5.39912 29.9214 0.806615 27.2282L1.00645 27.3364C0.845116 27.2282 0.659949 27.1402 0.461949 27.0816L0.447282 27.0779C0.0256155 26.9844 -0.214551 27.4812 0.240115 27.9102C5.86662 33.1132 13.4199 36.3032 21.7194 36.3032H21.7451H21.7433C22.9808 36.2336 24.2183 36.2262 25.4374 36.0887H25.4393ZM40.4488 28.1687C41.7211 28.2384 42.1153 28.6766 41.7981 29.9031C41.4718 31.1754 40.9988 32.4129 40.6046 33.6669C40.5276 33.9162 40.2434 34.2077 40.5349 34.4241C40.8539 34.6477 41.0941 34.3379 41.3086 34.1417C42.1428 33.3479 42.7991 32.3781 43.2226 31.2909L43.2409 31.2377C43.7139 30.2037 43.9889 28.9937 43.9889 27.7196C43.9889 27.6902 43.9889 27.6627 43.9889 27.6334V27.6371C43.9706 27.1054 43.8349 26.8799 43.3179 26.7351C42.9073 26.6086 42.4251 26.5114 41.9301 26.4637L41.9008 26.4619C41.5653 26.4197 41.1784 26.3959 40.7843 26.3959C39.2516 26.3959 37.8033 26.7571 36.5181 27.3969L36.5731 27.3712C36.2889 27.5252 36.0433 27.6939 35.8178 27.8846L35.8251 27.8791C35.7316 27.9561 35.5501 28.3337 36.0323 28.4034C36.0763 28.4071 36.1294 28.4089 36.1808 28.4089C36.3073 28.4089 36.4319 28.3979 36.5511 28.3759L36.5383 28.3777C37.5026 28.2402 38.6173 28.1614 39.7484 28.1614C39.9941 28.1614 40.2379 28.1651 40.4818 28.1724H40.4469L40.4488 28.1687Z" fill="black"/>
</g>
<defs>
<clipPath id="clip0_2847_38">
<rect width="44" height="44" fill="white"/>
</clipPath>
</defs>
</svg>
