<svg width="44" height="44" viewBox="0 0 44 44" fill="none" xmlns="http://www.w3.org/2000/svg">
<g clip-path="url(#clip0_2847_36)">
<path d="M21.9996 22C21.9996 12.2375 36.7121 12.2375 36.7121 22C36.7121 31.7625 21.9996 31.7625 21.9996 22ZM7.28711 36.7125C7.28711 32.725 10.5871 29.425 14.5746 29.425H21.9996V36.7125C21.9996 46.475 7.28711 46.475 7.28711 36.7125ZM21.9996 0V14.7125H29.2871C39.0496 14.7125 39.0496 0 29.2871 0H21.9996ZM7.28711 7.2875C7.28711 11.275 10.5871 14.575 14.5746 14.575H21.9996V0H14.7121C10.5871 0 7.28711 3.3 7.28711 7.2875ZM7.28711 22C7.28711 25.9875 10.5871 29.2875 14.5746 29.2875H21.9996V14.7125H14.7121C10.5871 14.7125 7.28711 18.0125 7.28711 22Z" fill="black"/>
</g>
<defs>
<clipPath id="clip0_2847_36">
<rect width="44" height="44" fill="white"/>
</clipPath>
</defs>
</svg>
