<svg width="44" height="44" viewBox="0 0 44 44" fill="none" xmlns="http://www.w3.org/2000/svg">
<g clip-path="url(#clip0_2847_42)">
<path d="M22.3506 4.36188C14.4732 4.18313 7.48273 9.39575 5.42023 17.0023C5.51373 16.9665 5.31985 17.0243 5.42023 17.0023C-1.6844 21.6786 -1.76965 31.8688 4.96923 37.0621L4.9761 37.0484L4.96235 37.1061C7.11835 38.7314 9.7391 39.599 12.4396 39.5908H21.9216L21.9794 39.6403H31.4971C43.758 39.7406 48.6846 23.8704 38.5302 17.0023C37.6571 13.7724 35.8586 10.8725 33.3602 8.65876L33.2819 8.73713L33.2887 8.64363C30.2596 5.97201 26.3849 4.45401 22.3534 4.36051L22.3506 4.36188ZM21.692 11.967C23.969 11.8886 26.3106 12.6408 28.0802 14.0721C30.2926 15.9201 31.5535 18.6701 31.4957 21.5494V22.5023C37.9692 22.373 37.9692 32.1493 31.4957 32.02H21.978L21.9642 32.0338V31.9623H12.4396C11.7659 31.9623 11.1004 31.8193 10.4844 31.5401C7.45523 30.172 6.73198 26.19 9.08048 23.8346C11.4372 21.4861 15.411 22.2094 16.786 25.2385L22.308 19.7165C20.4751 17.324 17.8255 15.685 14.8679 15.1048C14.9036 15.091 14.9394 15.0621 14.9682 15.069C16.7007 13.1646 19.129 12.0468 21.7002 11.9684L21.692 11.967Z" fill="black"/>
</g>
<defs>
<clipPath id="clip0_2847_42">
<rect width="44" height="44" fill="white"/>
</clipPath>
</defs>
</svg>
