<svg width="44" height="44" viewBox="0 0 44 44" fill="none" xmlns="http://www.w3.org/2000/svg">
<path d="M7.49375 22C7.49375 27.5945 10.8281 32.4242 15.6664 34.7102L8.74844 16.2508C7.94922 18.0125 7.49375 19.9547 7.49375 22ZM31.7883 21.2867C31.7883 19.5422 31.1438 18.3305 30.5938 17.3937C29.8633 16.225 29.1672 15.2453 29.1672 14.0766C29.1672 12.7789 30.1812 11.5672 31.6078 11.5672C31.6766 11.5672 31.7367 11.5758 31.7969 11.5758C29.2188 9.27266 25.7812 7.87187 22 7.87187C16.9383 7.87187 12.4781 10.407 9.88281 14.2398C10.2266 14.2484 10.5445 14.257 10.8195 14.257C12.332 14.257 14.6867 14.0766 14.6867 14.0766C15.4687 14.0336 15.5633 15.1508 14.7812 15.2453C14.7812 15.2453 13.9992 15.3312 13.1227 15.3742L18.3906 30.6797L21.5703 21.407L19.3102 15.3742C18.5281 15.3312 17.7891 15.2453 17.7891 15.2453C17.007 15.2023 17.1016 14.0336 17.8836 14.0766C17.8836 14.0766 20.2812 14.257 21.6992 14.257C23.2117 14.257 25.5664 14.0766 25.5664 14.0766C26.3484 14.0336 26.443 15.1508 25.6609 15.2453C25.6609 15.2453 24.8703 15.3312 24.0023 15.3742L29.2445 30.5594L30.6883 25.85C31.307 23.8992 31.7883 22.4984 31.7883 21.2867ZM22.2578 23.2375L17.9094 35.5523C19.207 35.9219 20.582 36.1281 22.0086 36.1281C23.7016 36.1281 25.3172 35.8445 26.8211 35.3289C26.7781 35.2688 26.7437 35.2 26.718 35.1312C26.7094 35.1312 22.2578 23.2375 22.2578 23.2375ZM34.7273 15.2195C34.7875 15.6664 34.8219 16.1562 34.8219 16.6719C34.8219 18.107 34.5469 19.7141 33.7219 21.7336L29.2875 34.2031C33.6016 31.7539 36.4977 27.2078 36.4977 21.9914C36.4977 19.5422 35.8531 17.2305 34.7273 15.2195ZM22 2.66406C11.318 2.66406 2.66406 11.318 2.66406 22C2.66406 32.682 11.318 41.3359 22 41.3359C32.682 41.3359 41.3359 32.682 41.3359 22C41.3359 11.318 32.682 2.66406 22 2.66406ZM22 38.9211C12.6586 38.9211 5.07891 31.35 5.07891 22C5.07891 12.65 12.6586 5.07891 22 5.07891C31.3414 5.07891 38.9211 12.6586 38.9211 22C38.9211 31.3414 31.3414 38.9211 22 38.9211Z" fill="black"/>
</svg>
